<?xml version="1.0" encoding="iso-8859-1"?>
<!-- Generator: Adobe Illustrator 19.0.0, SVG Export Plug-In . SVG Version: 6.00 Build 0)  -->
<svg version="1.1" id="Capa_1" xmlns="http://www.w3.org/2000/svg" xmlns:xlink="http://www.w3.org/1999/xlink" x="0px" y="0px"
	 viewBox="0 0 464 464" style="enable-background:new 0 0 464 464;" xml:space="preserve">
<path style="fill:#D9DDE1;" d="M0,0h464v320H0V0z"/>
<g>
	<path style="fill:#A6ADB9;" d="M24,24h88v16H24V24z"/>
	<path style="fill:#A6ADB9;" d="M208,24h32v16h-32V24z"/>
</g>
<path style="fill:#2CB357;" d="M344,128c-2.122,0-4.156-0.844-5.656-2.344L296,83.312l-26.344,26.344l-11.312-11.312l32-32
	c3.124-3.123,8.188-3.123,11.312,0L344,108.688l26.344-26.344c3.124-3.123,8.188-3.123,11.312,0L392,92.688l34.344-34.344
	l11.312,11.312l-40,40c-3.124,3.123-8.188,3.123-11.312,0L376,99.312l-26.344,26.344C348.156,127.156,346.122,128,344,128L344,128z"
	/>
<g>
	<path style="fill:#A6ADB9;" d="M24,72h104v16H24V72z"/>
	<path style="fill:#A6ADB9;" d="M208,72h32v16h-32V72z"/>
	<path style="fill:#A6ADB9;" d="M24,120h88v16H24V120z"/>
	<path style="fill:#A6ADB9;" d="M208,120h32v16h-32V120z"/>
	<path style="fill:#A6ADB9;" d="M272,168h16v48h-16V168z"/>
	<path style="fill:#A6ADB9;" d="M368,168h16v48h-16V168z"/>
	<path style="fill:#A6ADB9;" d="M320,168h16v48h-16V168z"/>
</g>
<path style="fill:#393856;" d="M280,240h152v224H280V240z"/>
<path style="fill:#75C9C1;" d="M304,272h104v32H304V272z"/>
<g>
	<path style="fill:#6B778A;" d="M304,360h24v16h-24V360z"/>
	<path style="fill:#6B778A;" d="M344,360h24v16h-24V360z"/>
	<path style="fill:#6B778A;" d="M384,360h24v16h-24V360z"/>
	<path style="fill:#6B778A;" d="M304,392h24v16h-24V392z"/>
	<path style="fill:#6B778A;" d="M344,392h24v16h-24V392z"/>
	<path style="fill:#6B778A;" d="M384,392h24v16h-24V392z"/>
	<path style="fill:#6B778A;" d="M304,424h24v16h-24V424z"/>
	<path style="fill:#6B778A;" d="M344,424h24v16h-24V424z"/>
	<path style="fill:#6B778A;" d="M384,424h24v16h-24V424z"/>
	<path style="fill:#6B778A;" d="M304,328h24v16h-24V328z"/>
	<path style="fill:#6B778A;" d="M344,328h24v16h-24V328z"/>
	<path style="fill:#6B778A;" d="M384,328h24v16h-24V328z"/>
</g>
<g>
	<path style="fill:#A6ADB9;" d="M24,168h104v16H24V168z"/>
	<path style="fill:#A6ADB9;" d="M208,168h32v16h-32V168z"/>
	<path style="fill:#A6ADB9;" d="M24,264h88v16H24V264z"/>
	<path style="fill:#A6ADB9;" d="M208,264h32v16h-32V264z"/>
	<path style="fill:#A6ADB9;" d="M24,216h72v16H24V216z"/>
	<path style="fill:#A6ADB9;" d="M208,216h32v16h-32V216z"/>
	<path style="fill:#A6ADB9;" d="M416,168h16v48h-16V168z"/>
</g>
<path style="fill:#393856;" d="M440,152H264c-4.418,0-8-3.582-8-8V24h16v112h168V152z"/>
<circle style="fill:#FAA41B;" cx="72" cy="376" r="72"/>
<path style="fill:#F08015;" d="M72,352c4.418,0,8,3.582,8,8h16c-0.042-10.134-6.445-19.15-16-22.528V328H64v9.472
	c-12.473,4.393-19.023,18.066-14.629,30.539C52.751,377.607,61.826,384.019,72,384c4.418,0,8,3.582,8,8s-3.582,8-8,8s-8-3.582-8-8
	H48c0.042,10.134,6.445,19.15,16,22.528V424h16v-9.472c12.473-4.393,19.023-18.066,14.629-30.539
	C91.249,374.393,82.174,367.981,72,368c-4.418,0-8-3.582-8-8S67.582,352,72,352z"/>
<circle style="fill:#FFD33F;" cx="152" cy="392" r="72"/>
<path style="fill:#FAA41B;" d="M152,384c-4.418,0-8-3.582-8-8s3.582-8,8-8s8,3.582,8,8h16c-0.042-10.134-6.445-19.15-16-22.528V344
	h-16v9.472c-12.473,4.393-19.023,18.066-14.629,30.539c3.38,9.596,12.455,16.009,22.629,15.989c4.418,0,8,3.582,8,8s-3.582,8-8,8
	s-8-3.582-8-8h-16c0.042,10.134,6.445,19.15,16,22.528V440h16v-9.472c12.473-4.393,19.023-18.066,14.629-30.539
	C171.249,390.393,162.174,383.981,152,384z"/>
<g>
	<path style="fill:#6B778A;" d="M144,24h48v16h-48V24z"/>
	<path style="fill:#6B778A;" d="M144,72h48v16h-48V72z"/>
	<path style="fill:#6B778A;" d="M144,120h48v16h-48V120z"/>
	<path style="fill:#6B778A;" d="M144,168h48v16h-48V168z"/>
	<path style="fill:#6B778A;" d="M144,264h48v16h-48V264z"/>
	<path style="fill:#6B778A;" d="M144,216h48v16h-48V216z"/>
</g>
<g>
</g>
<g>
</g>
<g>
</g>
<g>
</g>
<g>
</g>
<g>
</g>
<g>
</g>
<g>
</g>
<g>
</g>
<g>
</g>
<g>
</g>
<g>
</g>
<g>
</g>
<g>
</g>
<g>
</g>
</svg>
