<?xml version="1.0" ?><svg baseProfile="basic" id="Layer_1" version="1.1" viewBox="0 0 160 160" xml:space="preserve" xmlns="http://www.w3.org/2000/svg" xmlns:xlink="http://www.w3.org/1999/xlink"><g><path d="M77.8,116.2C67,122,32.4,136.7,48.4,146.6c15,9.2,47-8.2,57.5-13.8c15.6-8.3,31.3-19.6,21.8-25.5   C118,101.1,98.1,105.1,77.8,116.2z" opacity="0.2"/><path d="M100.3,83.5c2.1,3.6,3.3,7.7,3.5,13.6c0.3,7.2-2.1,12.3-2.3,12.6c-0.4,0.9,7.5,0.3,7.9-0.6   c0.1-0.2,0.2-3.6,0.2-4s-0.6-1.5-0.5-2.1c0.1-0.7,0.9-0.8,0.6-2.4c-0.3-1.6-1-2.3-0.7-5.6c0.3-3.3,1.7-18.9,1.7-18.9L100.3,83.5z" fill="#656565"/><path d="M102.7,106.5c-0.5,1.9-1.1,3.1-1.2,3.3c-0.4,0.9,2.5,1.8,3.5,1.7c2.7-0.3,4-1.4,4.4-2.3   c0.1-0.2,0.1-2,0.2-3.2C108.6,107.1,104.4,108.5,102.7,106.5z" fill="#2D3134"/><path d="M49.5,97.1c1.8,4.1,5.2,12.7,5,22.2c-0.2,9.5-2.2,15.5-2.2,16s7.1,0.2,7.5-1.2s-0.4-3.8-0.5-5.1   c-0.1-1.2,1.5-0.9,1.2-3.2s-1.3-6.2-1.2-10.3c0.1-4.1,1.8-17.1,1.8-17.1L49.5,97.1z" fill="#656565"/><path d="M64.6,100.8c0,0,2.6,9.2,3.6,15.8s0.4,15.5,0.1,18.2s-2.1,7.5-2.3,8.1c-0.2,0.6,8.1-0.6,8.4-1.4   c0.3-0.8-0.4-4.8-0.5-5.6c-0.1-0.8,1.5-0.6,1.2-3.3c-0.3-2.7-1.6-5.4-1-9.6c0.6-4.2,1.7-12.8,4.6-19.3c2.9-6.5,4.7-13.2,4.7-13.2   L64.6,100.8z" fill="#656565"/><path d="M105.9,79.9c2.7,0.7,10.6,7.9,12.3,13.9c1.7,6,1.6,13.5,1,17.1c-0.6,3.6-2.4,6.2-2.4,6.9s8.1-0.8,8.5-1.8   c0.4-1-0.4-4.6-0.4-5.3s1.2-0.3,1-2.5c-0.2-2.2-1.7-11.4-1.3-14.4c0.4-3,0.9-7,0.4-8.2s-2.3-4.9-2.4-7.3c-0.1-2.4-0.7-9.8-0.7-11.9   S105.9,79.9,105.9,79.9z" fill="#656565"/><path d="M53.1,132.3c-0.4,1.8-0.7,2.8-0.7,3c0,0.5,1.1,1.1,2.3,1.2s4.8-1.1,5.2-2.4c0.2-0.5,0.2-1.1,0.1-1.7   C57.4,133.1,55,133.1,53.1,132.3z" fill="#2D3134"/><path d="M69.3,139.9c-0.7-0.2-1.3-0.6-1.9-1c-0.6,2-1.2,3.8-1.4,4.1c-0.2,0.6,2.1,1.4,3.3,1.3   c3-0.1,4.8-1.9,5.1-2.8c0.1-0.2,0.1-0.7,0.1-1.3C72.9,140.5,71.1,140.4,69.3,139.9z" fill="#2D3134"/><path d="M116.8,117.8c0,0.7,2.1,1.2,3.1,1.1c2.9-0.2,5-1.9,5.4-3c0.1-0.3,0.1-0.9,0.1-1.6c-1.6,0.9-5.7,1-6.8-1   C117.8,115.7,116.8,117.3,116.8,117.8z" fill="#2D3134"/><path d="M130.5,57.4c0-2-1.2-3.6-3-4.3c0.3-0.6,0.5-1.3,0.5-2c0-1.6-0.8-3.1-2.1-3.9c0.1-0.4,0.2-0.9,0.2-1.4   c0-2.2-1.6-4.1-3.7-4.5c0.1-0.4,0.1-0.7,0.1-1.1c0-2.5-2.1-4.6-4.6-4.6c-0.4,0-0.7,0-1,0.1c-0.7-1.7-2.3-3-4.3-3   c-0.6,0-1.2,0.1-1.7,0.3c-0.7-1.6-2.3-2.8-4.2-2.8c-1.6,0-3.1,0.9-3.9,2.2c-0.7-0.5-1.6-0.7-2.5-0.7c-2,0-3.6,1.2-4.3,2.9   c-0.6-0.3-1.3-0.5-2.1-0.5c-2.3,0-4.2,1.7-4.5,3.8c-0.8-0.7-1.9-1.2-3-1.2c-2,0-3.8,1.3-4.4,3.2c-0.8-0.9-2.1-1.5-3.4-1.5   c-2.2,0-4,1.5-4.5,3.5c-0.7-0.4-1.5-0.6-2.3-0.6c-2.4,0-4.3,1.8-4.6,4.1c-0.7-0.5-1.6-0.8-2.6-0.8c-1.8,0-3.3,1-4.1,2.5   c-0.8-0.5-1.7-0.9-2.7-0.9c-0.4,0-0.8,0.1-1.1,0.1c-0.8-1.2-2.2-2-3.8-2c-0.8,0-1.6,0.2-2.3,0.6c-0.8-1.1-2.2-1.8-3.7-1.8   c-2.5,0-4.6,2.1-4.6,4.6c0,0.3,0,0.6,0.1,0.9c-1.4,0.8-2.3,2.3-2.3,4c0,1.5,0.7,2.9,1.9,3.7l-0.4,1.2c-0.4-0.1-0.9-0.2-1.3-0.2   c-2.5,0-4.6,2.1-4.6,4.6c0,0.9,0.2,1.7,0.7,2.4c-1.9,0.6-3.3,2.3-3.3,4.4c0,1.6,0.8,3.1,2.1,3.9c-0.9,0.8-1.4,2-1.4,3.3   c0,1.9,1.2,3.6,2.9,4.3c-0.6,0.8-0.9,1.7-0.9,2.8c0,1.7,1,3.3,2.4,4c-0.2,0.5-0.2,1-0.2,1.5c0,1.6,0.8,3.1,2.1,3.9   c-0.1,0.4-0.2,0.8-0.2,1.2c0,2.5,2.1,4.6,4.6,4.6c0.1,0,0.2,0,0.4,0c0,0.2,0,0.4,0,0.6c0,2.5,2.1,4.6,4.6,4.6   c1.3,0,2.5-0.5,3.3-1.4c0.8,1.4,2.3,2.4,4.1,2.4c1.7,0,3.1-0.9,3.9-2.2c0.7,0.6,1.6,1,2.5,1.1c0.6,1.9,2.3,3.3,4.4,3.3   c0.8,0,1.5-0.2,2.1-0.5c0.8,0.7,1.9,1.1,3,1.1c2,0,3.7-1.2,4.3-3c0.3,0.1,0.7,0.1,1,0.1c2.3,0,4.2-1.6,4.5-3.8   c2.5-0.1,4.5-2.1,4.5-4.6c0-0.6-0.1-1.1-0.3-1.6c1.5-0.7,2.5-2.2,2.5-4c0.5,0.2,1.1,0.3,1.8,0.3c1.8,0,3.3-1,4.1-2.5   c0.5,0.1,0.9,0.2,1.4,0.2c2.5,0,4.6-2.1,4.6-4.6c0-0.1,0-0.2,0-0.3c0.6,0.3,1.3,0.4,2,0.4c0.8,0,1.6-0.2,2.3-0.6   c0.8,1.5,2.3,2.5,4.1,2.5c1.4,0,2.7-0.7,3.6-1.7c0.8,0.8,2,1.3,3.2,1.3c2.4,0,4.4-1.8,4.6-4.2c2.4-0.1,4.4-2.1,4.4-4.6   c0-0.4-0.1-0.8-0.2-1.2c2-0.5,3.5-2.3,3.5-4.5c0-1-0.4-2-0.9-2.8c1.4-0.8,2.3-2.3,2.3-4c0-1.3-0.5-2.4-1.3-3.3   C129.8,60.2,130.5,58.9,130.5,57.4z" fill="#F8EBCB"/><path d="M21.6,48c-1.4,2.6-10,19-7.5,23.1c2.8,4.6,7.7,5,13.2,0.2c2.1-1.8,3.9-2.6,5.3-2.7c0.2,0,0.3,0,0.5-0.1   c3.7-0.7,6.7-3.3,8.1-6.8l4.6-12.1L34.6,41c0,0-6.4,1.4-10.6-1c-4.2-2.4-13,0-13,0s1.7,4.2,4.9,5.9C19,47.6,21.6,48,21.6,48z" fill="#656565"/><path d="M30.3,58.4c0,0,0.3-2.7,2.4-3.4c2.2-0.7,2.6,0.2,2.6,0.2s0,2.2-1.6,3C32.2,58.9,30.3,58.4,30.3,58.4z" fill="#2D3134"/><path d="M17,69.6c1.4,0,3.2-0.9,3.4-1c0.2-0.1,0.2-0.3,0.1-0.4c-0.1-0.2-0.3-0.2-0.4-0.1c-0.7,0.4-2.9,1.2-3.8,0.8   c-1.1-0.5-0.9-1.6-0.9-1.7c0-0.2-0.1-0.3-0.2-0.4c-0.2,0-0.3,0.1-0.4,0.2c-0.1,0.6,0,1.8,1.2,2.3c0,0,0,0,0.1,0   c-0.4,2.2,0.6,4,1.2,4.8c0.3,0.1,0.6,0.3,0.9,0.3c0-0.1,0-0.2-0.1-0.2c0,0-1.9-2.1-1.5-4.7C16.8,69.6,16.9,69.6,17,69.6z" fill="#2D3134"/><path d="M40.1,52.6c8-4,13.4,8.5,13.4,8.5s-5.4,3.7-9.9,0.7S38.1,53.6,40.1,52.6z" fill="#656565"/><path d="M47.5,44.2c0-2.5-2.1-4.6-4.6-4.6c-0.9,0-1.7,0.2-2.4,0.7c-0.7-1.6-2.3-2.7-4.2-2.7c-1.2,0-2.3,0.5-3.2,1.3   c-0.8-0.7-1.9-1.2-3.1-1.2c-2.5,0-4.6,2.1-4.6,4.6c-1.2,0.8-2,2.2-2,3.8c0,2.5,1.9,4.5,4.4,4.6c0.8,1.2,2.2,2.1,3.8,2.1   c1.4,0,2.6-0.6,3.5-1.6c0.8,1,2.1,1.6,3.5,1.6c0.8,0,1.5-0.2,2.1-0.5c0.6,0.5,1.4,0.9,2.3,0.9c1.9,0,3.5-1.5,3.5-3.5   c0-0.7-0.2-1.4-0.6-1.9C46.9,46.9,47.5,45.6,47.5,44.2z" fill="#F8EBCB"/><path d="M125.3,76.8c0-0.4-0.1-0.8-0.2-1.2c2-0.5,3.5-2.3,3.5-4.5c0-1-0.4-2-0.9-2.8c-1.2,0-4-0.1-4.3,2.1   c-0.2,1,0.3,2,0.7,2.8c-0.8,0.3-1.4,0.8-1.8,1.5c-0.4-0.2-0.8-0.2-1.3-0.2c-1.6,0-2.9,1-3.4,2.3c-0.7-0.8-1.7-1.4-2.9-1.4   c-0.6,0-1.2,0.2-1.7,0.4c-0.6-1.3-1.9-2.1-3.3-2.1c-0.9,0-1.6,0.3-2.3,0.8c-0.6-1.2-1.8-2-3.3-2c-1.3,0-2.5,0.7-3.1,1.7   c-0.6-0.4-1.3-0.7-2.1-0.7c-1.2,0-2.3,0.6-3,1.5c-0.4-0.2-0.9-0.3-1.3-0.3c-2,0-3.6,1.6-3.7,3.5c-0.3-0.1-0.7-0.2-1.1-0.2   c-1.7,0-3.1,1.2-3.6,2.7c-0.3-0.1-0.6-0.1-0.9-0.1c-2,0-3.7,1.7-3.7,3.7c0,0.4,0.1,0.7,0.2,1.1c0,0,0,0,0,0c-2,0-3.7,1.7-3.7,3.7   c0,0.8,0.3,1.6,0.8,2.2c-1.7,0.4-2.9,1.8-2.9,3.6c0,0.6,0.1,1.1,0.3,1.6c-1.1,0.6-1.9,1.8-1.9,3.2c0,0.3-1.8-0.4-3-0.4   c-1.2,0-2.5,0.7-3.4,1.4c0.1-0.3,0.1-0.5,0.1-0.8c0-2-1.7-3.7-3.7-3.7c-0.2,0-0.3,0-0.5,0c-0.2-1.6-1.4-2.9-2.9-3.2   c0.3-0.5,0.5-1.1,0.5-1.8c0-2-1.7-3.7-3.7-3.7c-0.2,0-0.4,0-0.6,0.1c0.1-0.3,0.1-0.6,0.1-1c0-2-1.7-3.7-3.7-3.7   c-2,0-3.7,1.7-3.7,3.7c0,0.6,0.1,1.1,0.3,1.6c-0.9,0.5-1.6,1.4-1.8,2.4c0,0,0,0,0,0c-3-0.8-7,4-3.9,7.5c0.1,0.1,0.2,0,0.4,0   c0,0.2,0,0.4,0,0.6c0,2.5,2.1,4.6,4.6,4.6c1.3,0,2.5-0.5,3.3-1.4c0.8,1.4,2.3,2.4,4.1,2.4c1.7,0,3.1-0.9,3.9-2.2   c0.7,0.6,1.6,1,2.5,1.1c0.6,1.9,2.3,3.3,4.4,3.3c0.8,0,1.5-0.2,2.1-0.5c0.8,0.7,1.9,1.1,3,1.1c2,0,3.7-1.2,4.3-3   c0.3,0.1,0.7,0.1,1,0.1c2.3,0,4.2-1.6,4.5-3.8c2.5-0.1,4.5-2.1,4.5-4.6c0-0.6-0.1-1.1-0.3-1.6c1.5-0.7,2.5-2.2,2.5-4   c0.5,0.2,1.1,0.3,1.8,0.3c1.8,0,3.3-1,4.1-2.5c0.5,0.1,0.9,0.2,1.4,0.2c2.5,0,4.6-2.1,4.6-4.6c0-0.1,0-0.2,0-0.3   c0.6,0.3,1.3,0.4,2,0.4c0.8,0,1.6-0.2,2.3-0.6c0.8,1.5,2.3,2.5,4.1,2.5c1.4,0,2.7-0.7,3.6-1.7c0.8,0.8,2,1.3,3.2,1.3   c2.4,0,4.4-1.8,4.6-4.2C123.3,81.2,125.3,79.2,125.3,76.8z" opacity="0.15"/></g></svg>