<?xml version="1.0" ?><!DOCTYPE svg  PUBLIC '-//W3C//DTD SVG 1.1//EN'  'http://www.w3.org/Graphics/SVG/1.1/DTD/svg11.dtd'><svg enable-background="new 0 0 64 64" height="64px" id="Layer_1" version="1.1" viewBox="0 0 64 64" width="64px" xml:space="preserve" xmlns="http://www.w3.org/2000/svg" xmlns:xlink="http://www.w3.org/1999/xlink"><path d="M44.651,0.037c-10.411,0-18.853,8.44-18.853,18.852c0,1.807,0.272,3.547,0.747,5.202  c-0.003,0.001-0.017,0.005-0.017,0.005s0.805,2.162-0.949,3.979c-0.002,0-0.002,0-0.002,0L2.211,52.256c0,0-1.713,1.656-1.713,4.269  v1.79v1.672v2.105c0.015,0.57,0.246,2.66,2.873,1.553c0.004-0.003,0.007-0.003,0.011-0.006l6.234-2.628  c1.947-0.823,2.149-2.806,2.151-2.813l0.057-0.592c0-0.003,0-0.003,0-0.003c0.164-1.698,1.349-2.346,1.952-2.568l0.349-0.106h0.003  l0.157-0.047h-0.002l5.873-1.751c0.002,0,0.002,0,0.002,0c1.038-0.31,0.978-1.471,0.944-1.775l-0.01-0.076v-0.002l-0.234-1.829  c-0.157-1.24,1.011-1.354,1.011-1.354l1.477-0.207c0.94-0.131,1.018-1.08,1.021-1.328v-1c0-0.7,0.551-0.891,0.869-0.94l0.218-0.022  h0.004l2.997-0.305c1.342-0.14,1.655-1.078,1.729-1.519v-4.238c0.005-0.237,0.067-1.134,0.809-0.447l0.852,0.788  c0.363,0.265,1.099,0.547,2.051-0.514l0.685-0.76c0-0.003,0.003-0.003,0.003-0.006c1.438-1.474,2.998-1.203,3.64-1.002  c0.06,0.022,0.121,0.042,0.18,0.062c0.077,0.03,0.129,0.053,0.129,0.053l0.008-0.011c1.915,0.664,3.967,1.044,6.112,1.044  c10.411,0,18.851-8.44,18.851-18.852C63.502,8.477,55.062,0.037,44.651,0.037z M44.807,34.056c-2.251,0-4.383-0.492-6.307-1.362  v0.005c0,0-2.089-1.093-3.271,0.336l-1.195,1.427c0.002,0.003,0.006,0.006,0.008,0.009l-0.184,0.204  c-1.165,1.242-2.353,0.357-2.353,0.357l-0.008,0.003c-1.755-1.105-2.571-0.994-2.571-0.994l0.015,0.023  c-0.27,0.008-0.556,0.08-0.907,0.281c-0.86,0.485-0.886,1.532-0.888,1.558l-0.152,4.56c-0.027,0.849-0.573,1.056-0.879,1.102  l-0.201,0.021h-0.004l-3.195,0.282c-0.007,0-0.012,0.002-0.019,0.002c-1.794,0.159-1.539,1.611-1.539,1.611l0.252,1.357  c0,0.002,0,0.002,0,0.002c0.106,0.573-0.236,0.701-0.452,0.729l-1.166,0.053c-1.818,0.112-2.038,1.08-2.021,1.616l0.043,0.353  l0.218,1.739v0.002l0.027,0.224c0.024,0.392-0.056,1.181-1.022,1.516c-0.002,0-0.003,0-0.005,0.004l-6.27,2.163v0.003  c-1.17,0.486-1.445,1.32-1.507,1.776l-0.018,0.317v0.004l-0.068,1.297v0.012l-0.005,0.084c-0.022,0.338-0.204,1.546-1.656,2.205  L4.866,60.13c-0.002,0-0.002,0.002-0.003,0.002c-1.713,0.773-1.656-1.173-1.656-1.173v-1.385c0-1.893,1.078-3.172,1.392-3.504  l24.187-25.026c0.002,0.003,0.006,0.007,0.007,0.011l0.855-0.854c0.001,0,0.001-0.002,0.003-0.003  c1.869-1.885,0.666-4.325,0.666-4.325l0.029-0.01c-0.595-1.633-0.951-3.38-0.951-5.22c0-8.512,6.899-15.412,15.412-15.412  s15.412,6.9,15.412,15.412C60.219,27.155,53.319,34.056,44.807,34.056z" fill="#241F20"/></svg>