<?xml version="1.0" encoding="iso-8859-1"?>
<!-- Generator: Adobe Illustrator 19.0.0, SVG Export Plug-In . SVG Version: 6.00 Build 0)  -->
<svg version="1.1" id="Capa_1" xmlns="http://www.w3.org/2000/svg" xmlns:xlink="http://www.w3.org/1999/xlink" x="0px" y="0px"
	 viewBox="0 0 512 512" style="enable-background:new 0 0 512 512;" xml:space="preserve">
<path style="fill:#EDE9E8;" d="M503.301,176.8c-7.8-3.6-15-8.699-20.7-15c-10.801,12.299-28.001,20.4-46,20.4
	c-17.701,0-33.9-8.101-45-20.4c-10.801,12.299-27.001,20.4-45,20.4c-17.701,0-33.9-8.101-45-20.4
	c-10.801,12.299-27.001,20.4-45,20.4c-0.3,0-0.3,0-0.601,0c-17.401-0.3-33.3-8.101-44.399-20.4c-10.801,12.299-27.001,20.4-45,20.4
	c-17.701,0-33.9-8.101-45-20.4c-10.801,12.299-27.001,20.4-45,20.4c-17.701,0-33.9-8.101-45-20.4c-6,6.899-13.5,12.001-22.2,15.601
	c13.198-51,41.1-95.4,77.999-127.8c2.699-2.401,6.301-3.6,9.901-3.6H414.7c3.6,0,7.202,1.199,9.901,3.6
	C461.499,82.299,490.101,126.099,503.301,176.8z"/>
<path style="fill:#DFD7D5;" d="M503.301,176.8c-7.8-3.6-15-8.699-20.7-15c-10.801,12.299-28.001,20.4-46,20.4
	c-17.701,0-33.9-8.101-45-20.4c-10.801,12.299-27.001,20.4-45,20.4c-17.701,0-33.9-8.101-45-20.4
	c-10.801,12.299-27.001,20.4-45,20.4c-0.3,0-0.3,0-0.601,0V46h158.699c3.6,0,7.202,1.199,9.901,3.6
	C461.499,82.299,490.101,126.099,503.301,176.8z"/>
<path style="fill:#00DDC1;" d="M372.28,466H139.72c-2.547,0-5.051-0.648-7.278-1.884C50.749,418.785,0,333.292,0,241
	c0-35.961,7.563-70.876,22.479-103.774c2.353-5.19,7.443-8.598,13.138-8.797c5.712-0.197,11.011,2.846,13.72,7.859
	c5.102,9.439,16.118,15.782,27.413,15.782c16.542,0,30-13.458,30-30c0-8.284,6.716-15,15-15s15,6.716,15,15
	c0,16.542,13.458,30,30,30s30-13.458,30-30c0-8.284,6.716-15,15-15s15,6.716,15,15c0,16.542,13.458,30,30,30s30-13.458,30-30
	c0-8.284,6.716-15,15-15s15,6.716,15,15c0,16.542,13.458,30,30,30s30-13.458,30-30c0-8.284,6.716-15,15-15s15,6.716,15,15
	c0,16.542,13.458,30,30,30c11.009,0,21.548-5.807,26.851-14.793c2.853-4.835,8.156-7.669,13.771-7.353
	c5.604,0.319,10.562,3.741,12.848,8.868C504.672,171.208,512,205.596,512,241c0,92.292-50.749,177.785-132.441,223.116
	C377.331,465.352,374.827,466,372.28,466z"/>
<path style="fill:#00CCB2;" d="M256,466h116.28c2.547,0,5.051-0.648,7.278-1.884C461.251,418.785,512,333.292,512,241
	c0-35.404-7.328-69.792-21.78-102.208c-2.286-5.127-7.243-8.549-12.848-8.868c-5.615-0.316-10.919,2.518-13.771,7.353
	c-5.303,8.986-15.842,14.793-26.851,14.793c-16.542,0-30-13.458-30-30c0-8.284-6.716-15-15-15s-15,6.716-15,15
	c0,16.542-13.458,30-30,30s-30-13.458-30-30c0-8.284-6.716-15-15-15s-15,6.716-15,15c0,16.542-13.458,30-30,30
	c-0.251,0-0.5-0.013-0.75-0.019V466z"/>
<g>
	<path style="fill:#00AB94;" d="M175.067,409.589c-6.914-4.614-16.216-2.739-20.801,4.16c-4.6,6.899-2.725,16.216,4.16,20.801
		c5.786,3.853,9.199,10.049,9.375,16.978c0.141,5.618-2.313,10.51-5.997,14.473h33.77c1.404-4.916,2.342-9.981,2.212-15.22
		C197.377,434.198,188.881,418.788,175.067,409.589z"/>
	<path style="fill:#00AB94;" d="M272.8,450.7c0,5.4-0.899,10.499-2.1,15.3h-33.9c3.6-3.9,6-9,6-14.401
		c-0.3-6.899-3.6-13.2-9.3-17.098c-6.899-4.501-8.699-13.801-4.2-20.7c4.501-6.901,13.801-8.701,20.7-4.2c2.1,1.5,4.2,2.999,6,5.099
		C266.201,423.699,272.5,436.599,272.8,450.7z"/>
</g>
<path style="fill:#FF9F00;" d="M421,211c0-8.291-6.709-15-15-15h-30c-24.814,0-45,20.186-45,45v30v30c0,24.814,20.186,45,45,45h30
	c8.291,0,15-6.709,15-15v-30c0-11.567-4.508-22.02-11.704-30c7.196-7.98,11.704-18.433,11.704-30V211z"/>
<path style="fill:#FF9100;" d="M361,271c0,4.799-2.401,9.3-6.301,12.299c-2.699,1.8-47.399,33.6-98.699,51
	c-17.999,6.301-36.899,10.499-54.901,11.4V196.3C219.1,197.199,238,201.399,256,207.7c51.301,17.399,96,49.199,98.699,50.999
	C358.599,261.7,361,266.199,361,271z"/>
<path style="fill:#009985;" d="M256,414.699c10.201,9,16.5,21.899,16.8,36c0,5.4-0.899,10.499-2.1,15.3H256V414.699z"/>
<path style="fill:#FF7816;" d="M354.699,258.699c3.9,3.001,6.301,7.5,6.301,12.301c0,4.799-2.401,9.3-6.301,12.299
	c-2.699,1.8-47.399,33.6-98.699,51V207.7C307.301,225.099,352,256.898,354.699,258.699z"/>
<path style="fill:#FDBF00;" d="M241,271c0-31.148-15.835-58.583-39.882-74.74c-1.703-0.068-3.431-0.26-5.118-0.26
	c-75.601,0-102.832,66.65-103.945,69.478c-1.406,3.545-1.406,7.5,0,11.045C93.168,279.35,120.399,346,196,346
	c1.686,0,3.415-0.192,5.118-0.26C225.165,329.583,241,302.148,241,271z"/>
<circle style="fill:#5A5A5A;" cx="166" cy="271" r="15"/>
<g>
</g>
<g>
</g>
<g>
</g>
<g>
</g>
<g>
</g>
<g>
</g>
<g>
</g>
<g>
</g>
<g>
</g>
<g>
</g>
<g>
</g>
<g>
</g>
<g>
</g>
<g>
</g>
<g>
</g>
</svg>
