<?xml version="1.0" encoding="iso-8859-1"?>
<!-- Generator: Adobe Illustrator 19.0.0, SVG Export Plug-In . SVG Version: 6.00 Build 0)  -->
<svg version="1.1" id="Capa_1" xmlns="http://www.w3.org/2000/svg" xmlns:xlink="http://www.w3.org/1999/xlink" x="0px" y="0px"
	 viewBox="0 0 512 512" style="enable-background:new 0 0 512 512;" xml:space="preserve">
<polygon style="fill:#B34F03;" points="0,242 0,302 33.636,332 90,332 90,242 "/>
<polygon style="fill:#913F02;" points="512,302 512,242 422,242 422,332 480.737,332 "/>
<path style="fill:#53433F;" d="M467,422h-45V302h90v75C512,401.814,491.814,422,467,422z"/>
<g>
	<path style="fill:#68544F;" d="M90,422H45c-24.814,0-45-20.186-45-45v-75h90V422z"/>
	<path style="fill:#68544F;" d="M90,120.692V0h91v86.327L90,120.692z"/>
</g>
<path style="fill:#53433F;" d="M422,120.692l-91-34.365V0h91V120.692z"/>
<path style="fill:#FF7816;" d="M452,166v241c0,57.9-48.1,105-106,105H166c-57.9,0-106-47.1-106-105V166
	c0-41.1,23.699-77.999,60.3-94.799L150,85v81c0,24.901,21.099,46,46,46h120c24.901,0,46-21.099,46-46v-66l30-28.799
	C428.301,88.001,452,124.9,452,166z"/>
<path style="fill:#FF4B00;" d="M452,166v241c0,57.9-48.1,105-106,105h-90V212h60c24.901,0,46-21.099,46-46v-66l30-28.799
	C428.301,88.001,452,124.9,452,166z"/>
<path style="fill:#FFD400;" d="M211,213.199V257c0,24.901,20.099,45,45,45s45-20.099,45-45v-43.801H211z"/>
<path style="fill:#FF9F00;" d="M256,302v-88.801h45V257C301,281.901,280.901,302,256,302z"/>
<path style="fill:#E7E7E7;" d="M382.4,67.301C371.3,63.1,358.599,61,346,61H166c-12.599,0-25.3,2.1-36.4,6.301l-9.6,3.9V166
	c0,41.4,34.6,76,76,76h120c41.4,0,76-34.6,76-76V71.201L382.4,67.301z"/>
<path style="fill:#D3D3D8;" d="M392,71.201V166c0,41.4-34.6,76-76,76h-60V61h90c12.599,0,25.3,2.1,36.4,6.301L392,71.201z"/>
<path style="fill:#B34F03;" d="M211,61v181h90V61H211z"/>
<rect x="256" y="61" style="fill:#913F02;" width="45" height="181"/>
<path style="fill:#E7E7E7;" d="M120,332v75c0,24.901,21.099,45,46,45h180c24.901,0,46-20.099,46-45v-75H120z"/>
<rect x="181" y="332" style="fill:#68544F;" width="30" height="60"/>
<path style="fill:#D3D3D8;" d="M392,332v75c0,24.901-21.099,45-46,45h-90V332H392z"/>
<g>
</g>
<g>
</g>
<g>
</g>
<g>
</g>
<g>
</g>
<g>
</g>
<g>
</g>
<g>
</g>
<g>
</g>
<g>
</g>
<g>
</g>
<g>
</g>
<g>
</g>
<g>
</g>
<g>
</g>
</svg>
