<?xml version="1.0" encoding="iso-8859-1"?>
<!-- Generator: Adobe Illustrator 19.0.0, SVG Export Plug-In . SVG Version: 6.00 Build 0)  -->
<svg version="1.1" id="Capa_1" xmlns="http://www.w3.org/2000/svg" xmlns:xlink="http://www.w3.org/1999/xlink" x="0px" y="0px"
	 viewBox="0 0 512 512" style="enable-background:new 0 0 512 512;" xml:space="preserve">
<path style="fill:#5A5A5A;" d="M482,136v90c0,8.399-6.599,15-15,15H45c-8.401,0-15-6.601-15-15v-90c0-41.4,33.6-75,75-75h302
	C448.4,61,482,94.6,482,136z"/>
<path style="fill:#444444;" d="M467,241H256V61h151c41.4,0,75,33.6,75,75v90C482,234.399,475.401,241,467,241z"/>
<path style="fill:#ECECF1;" d="M377,121h-91c-16.569,0-30,13.431-30,30c0-16.569-13.431-30-30-30h-91c-16.569,0-30,13.431-30,30v90
	h151h151v-90C407,134.431,393.569,121,377,121z"/>
<path style="fill:#E2E2E7;" d="M377,121h-91c-16.569,0-30,13.431-30,30v90h151v-90C407,134.431,393.569,121,377,121z"/>
<path style="fill:#FF641A;" d="M512,256v75l-45,30H45L0,331v-75c0-24.901,20.099-45,45-45h422C491.901,211,512,231.099,512,256z"/>
<path style="fill:#FF4B00;" d="M512,256v75l-45,30H256V211h211C491.901,211,512,231.099,512,256z"/>
<path style="fill:#444444;" d="M467,451c-8.291,0-15-6.709-15-15v-60c0-8.291,6.709-15,15-15s15,6.709,15,15v60
	C482,444.291,475.291,451,467,451z"/>
<path style="fill:#5A5A5A;" d="M45,451c-8.291,0-15-6.709-15-15v-60c0-8.291,6.709-15,15-15s15,6.709,15,15v60
	C60,444.291,53.291,451,45,451z"/>
<path style="fill:#99503D;" d="M512,331v45c0,8.399-6.599,15-15,15H15c-8.401,0-15-6.601-15-15v-45H512z"/>
<path style="fill:#804231;" d="M512,331v45c0,8.399-6.599,15-15,15H256v-60H512z"/>
<g>
</g>
<g>
</g>
<g>
</g>
<g>
</g>
<g>
</g>
<g>
</g>
<g>
</g>
<g>
</g>
<g>
</g>
<g>
</g>
<g>
</g>
<g>
</g>
<g>
</g>
<g>
</g>
<g>
</g>
</svg>
