<svg viewBox="0 -68 512.00001 512" xmlns="http://www.w3.org/2000/svg"><path d="m95.136719 377.085938c-52.457031 0-95.136719-42.929688-95.136719-95.699219 0-52.773438 42.679688-95.703125 95.136719-95.703125 52.460937 0 95.140625 42.929687 95.140625 95.703125 0 52.769531-42.679688 95.699219-95.140625 95.699219zm0-161.011719c-35.699219 0-64.746094 29.296875-64.746094 65.3125 0 36.011719 29.046875 65.308593 64.746094 65.308593 35.703125 0 64.75-29.296874 64.75-65.308593 0-36.015625-29.042969-65.3125-64.75-65.3125zm0 0" fill="#3e3e68"/><path d="m416.859375 374.972656c-52.457031 0-95.136719-42.933594-95.136719-95.703125s42.679688-95.699219 95.136719-95.699219c52.460937 0 95.140625 42.929688 95.140625 95.699219s-42.679688 95.703125-95.140625 95.703125zm0-161.011718c-35.703125 0-64.746094 29.296874-64.746094 65.308593 0 36.015625 29.042969 65.3125 64.746094 65.3125s64.75-29.296875 64.75-65.3125c0-36.011719-29.046875-65.308593-64.75-65.308593zm0 0" fill="#0c2344"/><path d="m370.59375 70.621094c-4.566406 0-9.078125-2.050782-12.070312-5.953125-5.105469-6.660157-3.839844-16.199219 2.820312-21.304688l52.511719-40.230469c6.660156-5.101562 16.199219-3.839843 21.304687 2.820313 5.101563 6.664063 3.839844 16.203125-2.824218 21.304687l-52.511719 40.230469c-2.753907 2.113281-6.003907 3.132813-9.230469 3.132813zm0 0" fill="#0c2344"/><path d="m431.742188 276.195312-27.941407-135.152343 20.203125-10.757813c7.40625-3.945312 10.210938-13.148437 6.265625-20.554687-3.941406-7.40625-13.148437-10.210938-20.550781-6.269531l-12.332031 6.566406-19.582031-94.714844c-1.699219-8.21875-9.734376-13.503906-17.957032-11.804688-8.214844 1.699219-13.5 9.738282-11.800781 17.957032l20.566406 99.484375-35.3125 17.078125c-47.898437 23.167968-100.941406 35.324218-154.0625 35.390625l-62.78125-75.128907c-5.382812-6.441406-14.964843-7.296874-21.40625-1.917968-6.4375 5.382812-7.296875 14.964844-1.914062 21.402344l53.535156 64.0625-25.496094 12.386718c-3.226562 1.566406-5.789062 4.21875-7.246093 7.496094l-32.675782 73.492188c-3.410156 7.667968.042969 16.648437 7.710938 20.058593 2.003906.890625 4.101562 1.3125 6.164062 1.3125 5.820313 0 11.375-3.363281 13.894532-9.023437l30.421874-68.425782 27.308594-13.265624 40.890625 48.933593c-4.460937 7.089844-7.054687 15.480469-7.054687 24.46875 0 25.339844 20.519531 45.953125 45.738281 45.953125 2.851563 0 5.636719-.277344 8.347656-.78125l18.003907 29.683594c2.855468 4.714844 7.867187 7.316406 13.003906 7.316406 2.683594 0 5.402344-.710937 7.867187-2.203125 7.175781-4.351562 9.464844-13.699219 5.109375-20.871093l-17.679687-29.152344c6.898437-8.050782 11.085937-18.511719 11.085937-29.941406 0-7.320313-1.71875-14.238282-4.761718-20.386719l89.699218-97.335938 24.976563 120.796875c1.484375 7.183594 7.808593 12.121094 14.863281 12.121094 1.019531 0 2.054688-.101562 3.09375-.316406 8.21875-1.699219 13.503906-9.742188 11.804688-17.957032zm-200.761719 3.074219c0-8.582031 6.886719-15.5625 15.347656-15.5625 8.464844 0 15.347656 6.980469 15.347656 15.5625s-6.882812 15.5625-15.347656 15.5625c-8.460937 0-15.347656-6.980469-15.347656-15.5625zm34.609375-41.664062c-5.859375-2.746094-12.382813-4.289063-19.261719-4.289063-5.222656 0-10.242187.898438-14.921875 2.527344l-27.46875-32.871094c40.519531-2.671875 80.605469-11.761718 118.339844-26.878906zm0 0" fill="#ff3e51"/><path d="m431.742188 276.195312-27.941407-135.152343 20.203125-10.757813c7.40625-3.945312 10.210938-13.148437 6.265625-20.554687-3.941406-7.40625-13.148437-10.210938-20.550781-6.269531l-12.332031 6.566406-19.582031-94.714844c-1.699219-8.21875-9.734376-13.503906-17.957032-11.804688-8.214844 1.699219-13.5 9.738282-11.800781 17.957032l20.566406 99.484375-35.3125 17.078125c-24.636719 11.914062-50.636719 20.910156-77.304687 26.851562v31.074219c22.617187-4.628906 44.828125-11.265625 66.277344-19.859375l-56.6875 61.511719c-3.03125-1.421875-6.242188-2.511719-9.589844-3.242188v32.835938c3.460937 2.855469 5.679687 7.207031 5.679687 12.070312 0 4.867188-2.21875 9.214844-5.679687 12.070313v35.289062l16.679687 27.496094c2.859375 4.714844 7.871094 7.316406 13.007813 7.316406 2.683594 0 5.402344-.710937 7.863281-2.203125 7.175781-4.351562 9.464844-13.699219 5.113281-20.871093l-17.683594-29.152344c6.902344-8.050782 11.089844-18.511719 11.089844-29.941406 0-7.320313-1.722656-14.238282-4.765625-20.386719l89.703125-97.335938 24.972656 120.796875c1.484376 7.183594 7.808594 12.121094 14.863282 12.121094 1.019531 0 2.054687-.101562 3.09375-.316406 8.222656-1.699219 13.507812-9.742188 11.808594-17.957032zm0 0" fill="#dd0035"/><path d="m157.980469 123.226562h-84.082031c-8.390626 0-15.195313-6.804687-15.195313-15.195312s6.804687-15.195312 15.195313-15.195312h84.082031c8.394531 0 15.195312 6.804687 15.195312 15.195312s-6.800781 15.195312-15.195312 15.195312zm0 0" fill="#3e3e68"/><path d="m309.699219 361.441406h-65.65625c-8.390625 0-15.195313-6.804687-15.195313-15.195312 0-8.394532 6.804688-15.195313 15.195313-15.195313h65.65625c8.394531 0 15.195312 6.800781 15.195312 15.195313 0 8.390625-6.800781 15.195312-15.195312 15.195312zm0 0" fill="#3e3e68"/><path d="m309.699219 331.050781h-53.699219v30.390625h53.699219c8.394531 0 15.195312-6.804687 15.195312-15.195312 0-8.394532-6.800781-15.195313-15.195312-15.195313zm0 0" fill="#0c2344"/><path d="m471.902344 182.066406h-42.546875c-7.238281 0-13.46875-5.105468-14.894531-12.199218l-15.535157-77.203126c-.898437-4.464843.253907-9.097656 3.140625-12.621093 2.886719-3.523438 7.199219-5.570313 11.753906-5.570313h68.214844c4.375 0 8.535156 1.886719 11.421875 5.175782 2.886719 3.289062 4.210938 7.660156 3.644531 11.996093l-10.132812 77.203125c-.992188 7.5625-7.4375 13.21875-15.066406 13.21875zm0 0" fill="#fcde4f"/></svg>