<?xml version="1.0" encoding="iso-8859-1"?>
<!-- Generator: Adobe Illustrator 21.0.0, SVG Export Plug-In . SVG Version: 6.00 Build 0)  -->
<svg version="1.1" id="Capa_1" xmlns="http://www.w3.org/2000/svg" xmlns:xlink="http://www.w3.org/1999/xlink" x="0px" y="0px"
	 viewBox="0 0 512.007 512.007" style="enable-background:new 0 0 512.007 512.007;" xml:space="preserve">
<rect x="297.186" y="364.863" style="fill:#CB671B;" width="30.002" height="59.946"/>
<g>
	<rect x="237.133" y="364.863" style="fill:#FF9100;" width="30.002" height="59.946"/>
	<rect x="466.965" y="111.579" style="fill:#FF9100;" width="45.042" height="30.002"/>
</g>
<path style="fill:#FFCD00;" d="M481.962,210.452V101.935c0-29.254-17.667-54.878-45.008-65.279
	c-27.342-10.403-57.573-3.001-77.018,18.853l-77.781,87.421l-20.017,132.084l20.017,104.854h30.393L481.962,210.452z"/>
<path style="fill:#EFE2DD;" d="M461.62,209.072c-83.092,0-150.452,67.36-150.452,150.452c0,6.9,0.48,13.688,1.379,20.342h6.098
	c90.053,0,163.317-73.263,163.317-163.317v-6.098C475.308,209.552,468.522,209.072,461.62,209.072z"/>
<polygon style="fill:#FFDE55;" points="71.346,379.866 71.346,379.866 0,460.055 22.414,479.998 111.503,379.866 282.155,379.866 
	282.155,142.929 "/>
<rect x="391.901" y="111.579" style="fill:#04303E;" width="30.022" height="30.002"/>
<g>
</g>
<g>
</g>
<g>
</g>
<g>
</g>
<g>
</g>
<g>
</g>
<g>
</g>
<g>
</g>
<g>
</g>
<g>
</g>
<g>
</g>
<g>
</g>
<g>
</g>
<g>
</g>
<g>
</g>
</svg>
