<?xml version="1.0" encoding="iso-8859-1"?>
<!-- Generator: Adobe Illustrator 19.0.0, SVG Export Plug-In . SVG Version: 6.00 Build 0)  -->
<svg version="1.1" id="Layer_1" xmlns="http://www.w3.org/2000/svg" xmlns:xlink="http://www.w3.org/1999/xlink" x="0px" y="0px"
	 viewBox="0 0 512.001 512.001" style="enable-background:new 0 0 512.001 512.001;" xml:space="preserve">
<g>
	<path style="fill:#2E2E30;" d="M482.693,114.369c0.079,0.045,0.16,0.087,0.238,0.132l-77.026-44.762
		c-15.309-8.896-35.564-9.211-58.042,0.427l-74.818-42.508c-15.068-8.756-35.933-7.522-58.962,5.774
		c-45.765,26.423-82.744,90.474-82.595,143.061c0.03,10.769,1.637,20.198,4.533,28.196l-56.11,36.16
		C34.893,269.86-0.146,332.992,0.002,384.819c0.076,26.762,9.522,45.712,24.844,54.616l77.026,44.762
		c-0.013-0.007-0.024-0.015-0.036-0.022c14.35,8.359,33.86,7.897,55.656-3.225l249.33-127.223c1.982-1.011,3.949-2.081,5.907-3.212
		C467.346,318.983,512.18,242.06,512,178.45C511.91,146.779,500.682,124.687,482.693,114.369z"/>
	<path style="fill:#2E2E30;" d="M273.046,27.658c-15.068-8.756-35.933-7.522-58.962,5.774
		c-45.765,26.423-82.744,90.474-82.595,143.061c0.074,26.125,9.298,44.506,24.172,53.15l88.667,50.376
		c-14.874-8.645-24.099-27.026-24.172-53.15c-0.149-52.587,36.83-116.638,82.595-143.061c23.03-13.295,43.896-14.531,58.962-5.774
		L273.046,27.658z"/>
</g>
<path style="fill:#1D1D1F;" d="M302.75,83.809c45.765-26.423,82.986-5.211,83.135,47.376c0.149,52.587-36.83,116.638-82.595,143.061
	c-45.765,26.423-82.986,5.211-83.135-47.376C220.005,174.282,256.985,110.231,302.75,83.809z"/>
<path style="fill:#77767E;" d="M405.905,69.739c-18.168-10.558-43.301-9.031-70.852,6.878c-1.954,1.129-3.928,2.333-5.905,3.608
	l77.026,44.763c1.977-1.274,3.951-2.479,5.905-3.608c27.551-15.909,52.684-17.436,70.852-6.878L405.905,69.739z"/>
<polygon style="fill:#57565C;" points="156.937,285.612 79.911,240.85 329.147,80.225 406.173,124.987 "/>
<path style="fill:#3E3D43;" d="M101.871,484.198l-77.026-44.762C9.524,430.531,0.077,411.581,0,384.819
	c-0.147-51.828,34.893-114.959,79.911-143.97l77.026,44.763c-45.018,29.011-80.057,92.142-79.911,143.97
	C77.102,456.344,86.549,475.294,101.871,484.198z"/>
<path style="fill:#1D1D1F;" d="M35.617,400.256c-3.841-2.218-6.966-0.437-6.979,3.977c-0.013,4.418,3.092,9.796,6.934,12.014
	s6.966,0.437,6.979-3.981C42.564,407.852,39.459,402.474,35.617,400.256"/>
<path style="fill:#2E2E30;" d="M412.079,121.38c54.623-31.541,99.741-6.552,99.921,57.071
	c0.181,63.611-44.654,140.533-99.272,172.066c-1.958,1.131-3.925,2.201-5.907,3.212L157.49,480.951
	c-45.036,22.982-80.317,0.45-80.464-51.37c-0.147-51.828,34.892-114.959,79.911-143.97l249.236-160.625
	C408.15,123.713,410.124,122.508,412.079,121.38z"/>
<path style="fill:#1D1D1F;" d="M412.774,152.773c-41.939,24.214-75.829,82.915-75.693,131.113
	c0.137,48.191,34.249,67.631,76.188,43.417c41.946-24.218,75.836-82.918,75.7-131.109
	C488.832,147.995,454.72,128.555,412.774,152.773"/>
<path style="fill:#65C27C;" d="M383.812,202.33c-5.531,3.193-11.054,8.81-15.262,16.094l-8.072,13.99
	c-2.16,3.741-2.148,7.777,0.026,9.024l19.522,11.117c1.087,0.623,2.509,0.428,3.929-0.392c1.42-0.82,2.838-2.264,3.917-4.138
	l2.376-4.116c1.562-2.702,3.61-4.785,5.66-5.967c2.05-1.184,4.102-1.468,5.671-0.575l19.543,11.137
	c3.138,1.788,3.155,7.613,0.037,13.021l-2.376,4.116c-2.16,3.741-2.148,7.777,0.026,9.024l19.522,11.117
	c1.087,0.62,2.509,0.422,3.929-0.398c1.42-0.819,2.838-2.262,3.918-4.133l8.079-13.986c8.407-14.571,8.363-30.291-0.099-35.114
	l-55.041-31.374C394.881,198.368,389.343,199.137,383.812,202.33"/>
<g>
</g>
<g>
</g>
<g>
</g>
<g>
</g>
<g>
</g>
<g>
</g>
<g>
</g>
<g>
</g>
<g>
</g>
<g>
</g>
<g>
</g>
<g>
</g>
<g>
</g>
<g>
</g>
<g>
</g>
</svg>
