<?xml version="1.0" ?><!DOCTYPE svg  PUBLIC '-//W3C//DTD SVG 1.1//EN'  'http://www.w3.org/Graphics/SVG/1.1/DTD/svg11.dtd'><svg enable-background="new 0 0 64 64" height="64px" id="Layer_1" version="1.1" viewBox="0 0 64 64" width="64px" xml:space="preserve" xmlns="http://www.w3.org/2000/svg" xmlns:xlink="http://www.w3.org/1999/xlink"><g><g><path d="M58.257,38.977c-0.042-0.035-0.077-0.068-0.118-0.104c-0.006-0.003-0.015-0.012-0.015-0.012    C51.993,33.373,37.466,19.01,31.719,1.513c-0.013-0.029-0.027-0.049-0.037-0.082c-0.411-1.203-0.858-1.33-1.004-1.338h-0.41    c-0.696,0-0.755,1.051-0.76,1.326v37.932c0,0,0.123,1.908,1.774,1.908h26.842C60.595,41.259,58.781,39.457,58.257,38.977z     M50.852,37.664h-17.01c-1.047,0-1.127-1.209-1.127-1.209V12.417c0.003-0.174,0.042-0.84,0.483-0.84h0.26    c0.092,0.005,0.375,0.085,0.634,0.848c0.01,0.021,0.019,0.033,0.027,0.051c3.639,11.088,12.846,20.191,16.732,23.668    c0,0,0.003,0.003,0.006,0.006c0.026,0.023,0.05,0.044,0.077,0.067C51.268,36.522,52.418,37.664,50.852,37.664z" fill="#241F20"/></g><g><path d="M26.004,38.761V9.223c0-0.331-0.195-0.675-0.525-0.675c-0.331,0-0.59,0.675-0.59,0.675h-0.008    C16.591,28.812,8.731,37.098,5.375,39.961h0c0,0-0.009,0.007-0.011,0.01c-0.084,0.07-0.17,0.144-0.249,0.209    c-0.405,0.368-1.017,1.079,0.259,1.079h18.23C24.203,41.247,26.004,41.029,26.004,38.761z M22.985,37.649    c0,1.206-0.959,1.324-1.277,1.33h-9.707c-0.68,0-0.354-0.381-0.139-0.575c0.042-0.035,0.089-0.073,0.133-0.112    c0.001,0,0.006-0.003,0.006-0.003h0c1.787-1.524,5.972-5.936,10.386-16.367h0.004c0,0,0.138-0.36,0.314-0.36s0.28,0.183,0.28,0.36    V37.649z" fill="#241F20"/></g><g><path d="M55.794,44.576H8.422c-1.685,0-1.306,1.228-1.141,1.625l0.05,0.115c0,0.003,0.007,0.015,0.007,0.015H7.338    l6.933,16.046l0.105,0.245c0.216,0.431,0.792,1.285,1.973,1.285H40.66c0.442-0.009,2.196-0.124,3.282-1.516v-0.003l12.488-16.063    C57.726,44.662,55.794,44.576,55.794,44.576z M49.094,49.537l-7.791,10.026H41.3c-0.676,0.867-1.772,0.94-2.047,0.946h-5.535    h-9.637h-5.536c-0.737,0-1.096-0.533-1.231-0.802l-0.066-0.153L12.922,49.54c0,0-0.003-0.006-0.004-0.009l-0.031-0.071    c-0.104-0.247-0.34-1.015,0.711-1.015h5.535h24.03h5.536C48.699,48.445,49.902,48.499,49.094,49.537z" fill="#241F20"/></g></g></svg>