<?xml version="1.0" encoding="iso-8859-1"?>
<!-- Generator: Adobe Illustrator 19.0.0, SVG Export Plug-In . SVG Version: 6.00 Build 0)  -->
<svg version="1.1" id="Capa_1" xmlns="http://www.w3.org/2000/svg" xmlns:xlink="http://www.w3.org/1999/xlink" x="0px" y="0px"
	 viewBox="0 0 512 512" style="enable-background:new 0 0 512 512;" xml:space="preserve">
<g>
	<path style="fill:#CC6F56;" d="M412.207,121.492v138.847c0,14.378-11.656,26.034-26.034,26.034H125.834
		c-14.378,0-26.034-11.656-26.034-26.034V121.492H412.207z"/>
	<path style="fill:#CB8252;" d="M325.427,86.78c-2.302,0.001-4.509-0.913-6.137-2.541c-1.628-1.628-2.542-3.835-2.541-6.137V43.39
		c-0.016-14.372-11.662-26.018-26.034-26.034h-69.424c-14.372,0.016-26.018,11.662-26.034,26.034v34.712
		c0,4.793-3.885,8.678-8.678,8.678s-8.678-3.885-8.678-8.678V43.39C177.93,19.438,197.34,0.028,221.291,0h69.424
		c23.952,0.028,43.362,19.438,43.39,43.39v34.712c0.001,2.302-0.913,4.509-2.541,6.137C329.936,85.866,327.729,86.78,325.427,86.78z
		"/>
	<path style="fill:#804537;" d="M221.291,147.525H91.122c-4.787-0.014-8.664-3.891-8.678-8.678V78.102
		c0.028-9.574,7.782-17.328,17.356-17.356h312.407c9.574,0.028,17.328,7.782,17.356,17.356v60.746
		c-0.014,4.787-3.891,8.664-8.678,8.678H221.291z"/>
	<path style="fill:#CB8252;" d="M229.969,112.814h52.068c4.793,0,8.678,3.885,8.678,8.678v52.068c0,4.793-3.885,8.678-8.678,8.678
		h-52.068c-4.793,0-8.678-3.885-8.678-8.678v-52.068C221.291,116.699,225.177,112.814,229.969,112.814z"/>
	<path style="fill:#FDD7AD;" d="M256.003,156.203c-1.135-0.013-2.257-0.25-3.301-0.695c-1.05-0.44-2.018-1.056-2.86-1.822
		c-2.483-2.484-3.206-6.228-1.826-9.458c0.793-2.177,2.509-3.893,4.686-4.686c3.233-1.355,6.964-0.637,9.462,1.822
		c1.584,1.664,2.483,3.864,2.517,6.161c0.022,2.308-0.885,4.528-2.517,6.161c-0.844,0.766-1.813,1.382-2.864,1.822
		C258.257,155.954,257.137,156.19,256.003,156.203z"/>
	<path style="fill:#D1D4D1;" d="M496.209,404.133l-21.868,13.277l-14.839,9.025l-74.978,45.646l-14.839,9.112l-36.1,21.955
		c-9.518,5.793-20.446,8.855-31.588,8.852h-89.383c-70.211-0.387-140.126-9.127-208.271-26.034V364.475
		c0-43.39,104.136-43.39,104.136-43.39c17.448,0.037,34.333,6.177,47.729,17.356c14.051,11.212,31.488,17.331,49.464,17.356h45.386
		c15.259-0.023,29.402,7.989,37.228,21.087l0.781,1.302c7.399,12.366,5.431,28.181-4.773,38.357h20.393
		c3.749,0.002,7.472-0.614,11.021-1.822l17.79-5.988h0.087l16.575-5.467l83.829-27.943l16.575-5.554l25.774-8.591
		c9.722-3.192,20.398,0.157,26.555,8.331v0.087c4.033,5.357,5.608,12.171,4.335,18.754S501.949,400.667,496.209,404.133z"/>
	<g>
		<polygon style="fill:#67B9CC;" points="474.341,417.41 459.502,426.435 433.988,375.322 450.563,369.768 		"/>
		<polygon style="fill:#67B9CC;" points="384.524,472.081 369.685,481.193 333.584,408.732 350.159,403.265 		"/>
		<path style="fill:#67B9CC;" d="M238.647,355.797v69.424c0,4.793-3.885,8.678-8.678,8.678s-8.678-3.885-8.678-8.678v-69.424
			H238.647z"/>
	</g>
	<path style="fill:#41767F;" d="M143.19,416.542c-0.017,9.204-3.665,18.03-10.153,24.559c-4.413,4.346-9.889,7.458-15.881,9.025
		c-2.827,0.775-5.747,1.154-8.678,1.128H4.342v-69.424h104.136c2.931-0.027,5.851,0.353,8.678,1.128
		C132.487,386.891,143.204,400.715,143.19,416.542z"/>
	<g>
		<rect x="65.088" y="381.831" style="fill:#67B9CC;" width="17.356" height="69.424"/>
		<rect x="30.376" y="381.831" style="fill:#67B9CC;" width="17.356" height="69.424"/>
		<path style="fill:#67B9CC;" d="M117.156,382.959v67.167c-2.827,0.775-5.747,1.154-8.678,1.128H99.8v-69.424h8.678
			C111.409,381.804,114.329,382.184,117.156,382.959z"/>
	</g>
	<circle style="fill:#A5A5A4;" cx="221.291" cy="459.932" r="52.068"/>
	<circle style="fill:#5E5F62;" cx="221.291" cy="459.932" r="17.356"/>
</g>
<g>
</g>
<g>
</g>
<g>
</g>
<g>
</g>
<g>
</g>
<g>
</g>
<g>
</g>
<g>
</g>
<g>
</g>
<g>
</g>
<g>
</g>
<g>
</g>
<g>
</g>
<g>
</g>
<g>
</g>
</svg>
