<?xml version="1.0" encoding="iso-8859-1"?>
<!-- Generator: Adobe Illustrator 19.0.0, SVG Export Plug-In . SVG Version: 6.00 Build 0)  -->
<svg version="1.1" id="Capa_1" xmlns="http://www.w3.org/2000/svg" xmlns:xlink="http://www.w3.org/1999/xlink" x="0px" y="0px"
	 viewBox="0 0 512 512" style="enable-background:new 0 0 512 512;" xml:space="preserve">
<rect x="52.966" y="353.103" style="fill:#555160;" width="35.31" height="123.586"/>
<rect x="26.483" y="282.483" style="fill:#FFBC05;" width="88.276" height="70.621"/>
<g>
	<rect x="26.483" y="247.172" style="fill:#D12136;" width="88.276" height="35.31"/>
	<rect x="150.069" y="317.793" style="fill:#D12136;" width="88.276" height="35.31"/>
	<rect x="273.655" y="317.793" style="fill:#D12136;" width="88.276" height="35.31"/>
	<rect x="397.241" y="247.172" style="fill:#D12136;" width="88.276" height="35.31"/>
</g>
<g>
	<rect x="423.724" y="353.103" style="fill:#555160;" width="35.31" height="123.586"/>
	<rect x="300.138" y="423.724" style="fill:#555160;" width="35.31" height="52.966"/>
	<rect x="176.552" y="423.724" style="fill:#555160;" width="35.31" height="52.966"/>
</g>
<g>
	<rect y="476.69" style="fill:#FFBC05;" width="512" height="35.31"/>
	<rect style="fill:#FFBC05;" width="512" height="35.31"/>
</g>
<g>
	<rect x="61.793" y="141.241" style="fill:#2B2733;" width="17.655" height="70.621"/>
	<rect x="52.966" y="203.034" style="fill:#2B2733;" width="35.31" height="17.655"/>
	<rect x="185.379" y="141.241" style="fill:#2B2733;" width="17.655" height="70.621"/>
	<rect x="176.552" y="203.034" style="fill:#2B2733;" width="35.31" height="17.655"/>
	<rect x="308.966" y="141.241" style="fill:#2B2733;" width="17.655" height="70.621"/>
	<rect x="300.138" y="203.034" style="fill:#2B2733;" width="35.31" height="17.655"/>
	<rect x="432.552" y="141.241" style="fill:#2B2733;" width="17.655" height="70.621"/>
	<rect x="423.724" y="203.034" style="fill:#2B2733;" width="35.31" height="17.655"/>
</g>
<rect x="52.966" y="35.31" style="fill:#555160;" width="35.31" height="70.621"/>
<rect x="52.966" y="105.931" style="fill:#D12136;" width="35.31" height="35.31"/>
<rect x="176.552" y="35.31" style="fill:#555160;" width="35.31" height="70.621"/>
<g>
	<rect x="176.552" y="105.931" style="fill:#D12136;" width="35.31" height="35.31"/>
	<rect x="300.138" y="105.931" style="fill:#D12136;" width="35.31" height="35.31"/>
</g>
<g>
	<rect x="300.138" y="35.31" style="fill:#555160;" width="35.31" height="70.621"/>
	<rect x="423.724" y="35.31" style="fill:#555160;" width="35.31" height="70.621"/>
</g>
<rect x="423.724" y="105.931" style="fill:#D12136;" width="35.31" height="35.31"/>
<path style="fill:#E38100;" d="M26.483,343.826v9.278h88.276v-62.623C95.453,321.254,62.702,341.045,26.483,343.826z"/>
<rect x="150.069" y="353.103" style="fill:#FFBC05;" width="88.276" height="70.621"/>
<path style="fill:#E38100;" d="M150.069,414.446v9.278h88.276v-62.623C219.039,391.874,186.289,411.666,150.069,414.446z"/>
<rect x="273.655" y="353.103" style="fill:#FFBC05;" width="88.276" height="70.621"/>
<path style="fill:#E38100;" d="M273.655,414.446v9.278h88.276v-62.623C342.625,391.874,309.875,411.666,273.655,414.446z"/>
<rect x="397.241" y="282.483" style="fill:#FFBC05;" width="88.276" height="70.621"/>
<path style="fill:#E38100;" d="M397.241,343.826v9.278h88.276v-62.623C466.211,321.254,433.461,341.045,397.241,343.826z"/>
<g>
	<path style="fill:#3B3944;" d="M88.276,391.106v-38.003h-35.31v19.694C66.101,375.79,78.257,382.093,88.276,391.106z"/>
	<path style="fill:#3B3944;" d="M459.034,391.106v-38.003h-35.31v19.694C436.86,375.79,449.015,382.093,459.034,391.106z"/>
	<path style="fill:#3B3944;" d="M211.862,461.727v-38.003h-35.31v19.694C189.687,446.411,201.843,452.714,211.862,461.727z"/>
	<path style="fill:#3B3944;" d="M335.448,461.727v-38.003h-35.31v19.694C313.273,446.411,325.429,452.714,335.448,461.727z"/>
	<path style="fill:#3B3944;" d="M88.276,73.313V35.31h-35.31v19.694C66.101,57.997,78.257,64.3,88.276,73.313z"/>
	<path style="fill:#3B3944;" d="M211.862,73.313V35.31h-35.31v19.694C189.687,57.997,201.843,64.3,211.862,73.313z"/>
	<path style="fill:#3B3944;" d="M335.448,73.313V35.31h-35.31v19.694C313.273,57.997,325.429,64.3,335.448,73.313z"/>
	<path style="fill:#3B3944;" d="M459.034,73.313V35.31h-35.31v19.694C436.86,57.997,449.015,64.3,459.034,73.313z"/>
</g>
<g>
</g>
<g>
</g>
<g>
</g>
<g>
</g>
<g>
</g>
<g>
</g>
<g>
</g>
<g>
</g>
<g>
</g>
<g>
</g>
<g>
</g>
<g>
</g>
<g>
</g>
<g>
</g>
<g>
</g>
</svg>
