<?xml version="1.0" encoding="iso-8859-1"?>
<!-- Generator: Adobe Illustrator 19.0.0, SVG Export Plug-In . SVG Version: 6.00 Build 0)  -->
<svg version="1.1" id="Layer_1" xmlns="http://www.w3.org/2000/svg" xmlns:xlink="http://www.w3.org/1999/xlink" x="0px" y="0px"
	 viewBox="0 0 511.998 511.998" style="enable-background:new 0 0 511.998 511.998;" xml:space="preserve">
<path style="fill:#AEADB3;" d="M438.235,154.719V29.842C438.235,13.387,424.848,0,408.393,0h-79.1
	c-16.455,0-29.842,13.387-29.842,29.842v28.632H101.276L73.761,92.28l27.515,33.806h35.707l8.54-8.021l8.54,8.021h20.533
	l12.163-10.398l12.156,10.398h25.693l5.131-5.295l5.132,5.295h64.581v28.632c0,16.455,13.387,29.842,29.842,29.842h79.1
	C424.848,184.561,438.235,171.174,438.235,154.719z M373.245,126.165V58.396h30.351v67.769
	C403.596,126.165,373.245,126.165,373.245,126.165z"/>
<path style="fill:#8B8892;" d="M408.393,184.561h-79.1c-16.455,0-29.842-13.387-29.842-29.842v-28.632H234.87l-5.132-5.295
	l-5.131,5.295h-25.693l-12.156-10.398l-12.163,10.398h-20.533l-8.54-8.021l-8.54,8.021h-35.707L73.761,92.28h299.484v33.884h30.351
	V92.28h34.639v62.438C438.235,171.174,424.848,184.561,408.393,184.561z"/>
<path style="fill:#57555C;" d="M438.235,154.719V29.842C438.235,13.387,424.848,0,408.393,0h-79.1
	c-16.455,0-29.842,13.387-29.842,29.842v124.877c0,16.455,13.387,29.842,29.842,29.842h79.1
	C424.848,184.561,438.235,171.174,438.235,154.719z M373.245,126.165V58.396h30.351v67.769
	C403.596,126.165,373.245,126.165,373.245,126.165z"/>
<path style="fill:#3C3A41;" d="M408.393,184.561h-79.1c-16.455,0-29.842-13.387-29.842-29.842V92.28h73.793v33.884h30.351V92.28
	h34.639v62.438C438.235,171.174,424.848,184.561,408.393,184.561z"/>
<path style="fill:#57555C;" d="M89.993,475.081c0,20.356,16.562,36.917,36.918,36.917h16.847c20.356,0,36.918-16.561,36.918-36.917
	V436.2H89.993V475.081z"/>
<path style="fill:#3C3A41;" d="M331.518,436.199v38.881c0,20.356,16.562,36.917,36.918,36.917h16.847
	c20.357,0,36.918-16.561,36.918-36.917v-38.881H331.518z"/>
<path style="fill:#00ACEA;" d="M442.101,362.76V466.2H69.971V362.76c0-6.3,1.29-12.4,3.72-18c2.88-6.65,7.38-12.57,13.22-17.25
	l27.81-22.25l9.63-14.45l32.06-48.09c8.1-12.15,21.65-19.4,36.25-19.4h126.74c14.61,0,28.16,7.25,36.26,19.4l32.11,48.17l9.58,14.37
	l27.8,22.25c5.88,4.7,10.38,10.66,13.26,17.34v0.01C440.831,350.43,442.101,356.5,442.101,362.76z"/>
<path style="fill:#C8C6CD;" d="M387.771,290.89l-25.56,27.5h-212.22l-25.64-27.58l32.06-48.09c8.1-12.15,21.65-19.4,36.25-19.4
	h126.74c14.61,0,28.16,7.25,36.26,19.4L387.771,290.89z"/>
<path style="fill:#8B8892;" d="M384.928,286.733l20.901-29.627h51.052c11.704,0,21.191,9.488,21.191,21.192v5.779
	c0,11.704-9.488,21.192-21.191,21.192h-31.787h-27.808L384.928,286.733z"/>
<path style="fill:#AEADB3;" d="M127.069,286.733l-20.9-29.627H55.116c-11.704,0-21.191,9.488-21.191,21.192v5.779
	c0,11.704,9.488,21.192,21.191,21.192h31.787h27.808L127.069,286.733z"/>
<path style="fill:#0082D2;" d="M442.101,362.76V466.2h-186.02V223.32h63.32c14.61,0,28.16,7.25,36.26,19.4l32.11,48.17l9.58,14.37
	l27.8,22.25c5.88,4.7,10.38,10.66,13.26,17.34v0.01C440.831,350.43,442.101,356.5,442.101,362.76z"/>
<path style="fill:#AEADB3;" d="M387.771,290.89l-25.56,27.5h-106.13v-95.07h63.32c14.61,0,28.16,7.25,36.26,19.4L387.771,290.89z"/>
<path style="fill:#FDC000;" d="M136.298,370.509v30h-51.73l-14.6-15.7v-22.05c0-6.3,1.29-12.4,3.72-18l23.95,25.75H136.298z"/>
<path style="fill:#D9A600;" d="M442.097,362.759v22.19l-14.47,15.56h-51.73v-30h38.66l23.85-25.65
	C440.827,350.429,442.097,356.499,442.097,362.759z"/>
<path style="fill:#FDC000;" d="M328.071,423.69v42.51h-143.94v-42.51c0-10.49,8.51-19,19-19h105.94
	C319.561,404.69,328.071,413.2,328.071,423.69z"/>
<path style="fill:#D9A600;" d="M328.071,423.69v42.51h-71.99v-61.51h52.99C319.561,404.69,328.071,413.2,328.071,423.69z"/>
<g>
</g>
<g>
</g>
<g>
</g>
<g>
</g>
<g>
</g>
<g>
</g>
<g>
</g>
<g>
</g>
<g>
</g>
<g>
</g>
<g>
</g>
<g>
</g>
<g>
</g>
<g>
</g>
<g>
</g>
</svg>
