<?xml version="1.0" encoding="iso-8859-1"?>
<!-- Generator: Adobe Illustrator 19.0.0, SVG Export Plug-In . SVG Version: 6.00 Build 0)  -->
<svg version="1.1" id="Capa_1" xmlns="http://www.w3.org/2000/svg" xmlns:xlink="http://www.w3.org/1999/xlink" x="0px" y="0px"
	 viewBox="0 0 512 512" style="enable-background:new 0 0 512 512;" xml:space="preserve">
<polygon style="fill:#4F4F4F;" points="326.567,381.94 233.851,381.94 295.662,443.75 326.567,443.75 "/>
<rect x="30.905" y="381.94" style="fill:#696969;" width="264.757" height="61.811"/>
<path style="fill:#FF6337;" d="M342.02,88.853c0-8.534-6.919-15.453-15.453-15.453c-4.909,0-9.274,2.296-12.105,5.865
	l-15.453,40.493h43.01V88.853z"/>
<path style="fill:#FF8646;" d="M302.358,73.4c-8.534,0-15.453,6.919-15.453,15.453v30.905h27.557V79.265
	C311.632,75.697,307.267,73.4,302.358,73.4z"/>
<path style="fill:#FFF0D3;" d="M271.453,104.306c0,19.913,16.143,36.056,36.056,36.056h13.907c19.913,0,36.056-16.143,36.056-36.056
	H271.453z"/>
<path style="fill:#353535;" d="M318.841,387.091v97.867c0,4.267,3.459,7.726,7.726,7.726c4.267,0,7.726-3.459,7.726-7.726v-97.867
	H318.841z"/>
<path style="fill:#4F4F4F;" d="M38.632,387.091v97.867c0,4.267-3.459,7.726-7.726,7.726s-7.726-3.459-7.726-7.726v-97.867H38.632z"
	/>
<path style="fill:#FFD9D4;" d="M396.105,266.559v202.525l-25.621,8.54c-4.049,1.35-6.236,5.725-4.887,9.773
	c1.35,4.049,5.727,6.237,9.773,4.887l30.903-10.302c3.154-1.052,5.283-4.004,5.283-7.33V266.559H396.105z"/>
<path style="fill:#FFB4A9;" d="M459.036,266.559v202.525l-25.621,8.54c-4.049,1.35-6.236,5.725-4.887,9.773
	c1.35,4.049,5.727,6.237,9.773,4.887l30.903-10.302c3.154-1.052,5.283-4.004,5.283-7.33V266.559H459.036z"/>
<path style="fill:#FFD9D4;" d="M307.509,155.815c-4.261,0-7.726-3.466-7.726-7.726c0-4.261,3.466-7.726,7.726-7.726
	c4.267,0,7.726-3.459,7.726-7.726c0-4.267-3.459-7.726-7.726-7.726c-12.781,0-23.179,10.398-23.179,23.179
	c0,12.781,10.398,23.179,23.179,23.179h127.227v-15.453H307.509z"/>
<path style="fill:#CCCCCC;" d="M178.736,150.664c-4.267,0-7.726,3.459-7.726,7.726v36.056h15.453V158.39
	C186.463,154.123,183.003,150.664,178.736,150.664z"/>
<path style="fill:#FF6337;" d="M342.02,220.201c0-8.534-6.919-15.453-15.453-15.453c-4.909,0-9.274,2.296-12.105,5.865
	l-15.453,40.493h43.01V220.201z"/>
<path style="fill:#FF8646;" d="M302.358,204.748c-8.534,0-15.453,6.919-15.453,15.453v30.905h27.557v-40.493
	C311.632,207.045,307.267,204.748,302.358,204.748z"/>
<path style="fill:#869E47;" d="M70.567,220.201c0-8.534-6.919-15.453-15.453-15.453c-4.909,0-9.274,2.296-12.105,5.865
	l-15.453,40.493h43.01V220.201z"/>
<path style="fill:#9DB55F;" d="M30.905,204.748c-8.534,0-15.453,6.919-15.453,15.453v30.905H43.01v-40.493
	C40.179,207.045,35.814,204.748,30.905,204.748z"/>
<polygon style="fill:#696969;" points="178.736,287.163 240.547,287.163 240.547,235.654 178.736,204.748 "/>
<polygon style="fill:#808080;" points="116.926,235.654 116.926,287.163 209.642,287.163 209.642,204.748 "/>
<path style="fill:#CCCCCC;" d="M178.736,173.843l30.905,61.811h30.905C240.547,201.517,212.874,173.843,178.736,173.843z"/>
<path style="fill:#EBEBEB;" d="M178.736,173.843c-34.137,0-61.811,27.674-61.811,61.811h92.716
	C209.642,201.517,195.805,173.843,178.736,173.843z"/>
<g>
	<path style="fill:#FFF0D3;" d="M0,235.654c0,19.913,16.143,36.056,36.056,36.056l6.954,20.604l6.954-20.604
		c19.913,0,36.056-16.143,36.056-36.056H0z"/>
	<path style="fill:#FFF0D3;" d="M271.453,235.654c0,19.913,16.143,36.056,36.056,36.056l6.954,20.604l6.954-20.604
		c19.913,0,36.056-16.143,36.056-36.056H271.453z"/>
</g>
<polygon style="fill:#2DADE3;" points="325.473,271.71 285.36,353.61 357.473,302.616 357.473,271.71 "/>
<polygon style="fill:#49C9FF;" points="0,271.71 0,302.616 326.567,353.61 326.567,271.71 "/>
<polygon style="fill:#A8E5FF;" points="326.567,302.616 294.567,347.429 326.567,397.392 357.473,397.392 357.473,302.616 "/>
<rect y="302.616" style="fill:#DBF4FF;" width="326.567" height="94.777"/>
<path style="fill:#85453D;" d="M507.503,95.988l-33.152-54.402h-39.615v132.257l25.755-30.905h20.604
	c17.069,0,30.905-13.837,30.905-30.905C512,106.155,510.354,100.665,507.503,95.988z"/>
<path style="fill:#A45E43;" d="M481.095,112.032c0-5.878-1.646-11.367-4.497-16.044l-28.644-47.006l-59.575,16.692v56.66
	c0,11.332,9.272,20.604,20.604,20.604l25.755,30.905l15.453-30.905C467.258,142.938,481.095,129.1,481.095,112.032z"/>
<path style="fill:#FFB4A9;" d="M449.254,49.755l-14.517,62.278c25.603,0,46.358-20.755,46.358-46.358L449.254,49.755z"/>
<path style="fill:#FFD9D4;" d="M450.189,65.674c0-5.593-0.331-10.955-0.935-15.919l-42.335-21.166
	c-11.257,8.459-18.54,21.921-18.54,37.085c0,25.603,20.755,46.358,46.358,46.358C443.27,112.032,450.189,91.277,450.189,65.674z"/>
<path style="fill:#85453D;" d="M434.736,19.316l15.349,41.034c9.697,3.442,20.133,5.324,31.009,5.324
	C481.095,40.071,460.339,19.316,434.736,19.316z"/>
<path style="fill:#A45E43;" d="M434.736,19.316c-10.438,0-20.069,3.451-27.818,9.274c10.85,14.443,25.823,25.606,43.166,31.762
	C449.204,37.257,442.67,19.316,434.736,19.316z"/>
<path style="fill:#FFA754;" d="M460.491,142.938h-30.905l-20.604,123.622l72.113-30.905v-72.113
	C481.095,152.162,471.87,142.938,460.491,142.938z"/>
<path style="fill:#FFCB63;" d="M429.586,142.938h-20.604c-11.379,0-20.604,9.224-20.604,20.604v72.113l61.811,30.905V163.541
	C450.189,152.162,440.965,142.938,429.586,142.938z"/>
<path style="fill:#FF4128;" d="M481.095,235.654h-30.905l15.453,92.716h30.905v-51.854
	C496.547,260.846,490.705,246.548,481.095,235.654z"/>
<path style="fill:#FF6337;" d="M450.189,235.654h-61.811v92.716h77.264v-51.854C465.642,260.846,459.8,246.548,450.189,235.654z"/>
<g>
</g>
<g>
</g>
<g>
</g>
<g>
</g>
<g>
</g>
<g>
</g>
<g>
</g>
<g>
</g>
<g>
</g>
<g>
</g>
<g>
</g>
<g>
</g>
<g>
</g>
<g>
</g>
<g>
</g>
</svg>
