<svg viewBox="-23 0 511 511.99996" xmlns="http://www.w3.org/2000/svg"><path d="m434.410156 182.632812-30.449218 30.449219h30.449218c16.820313 0 30.449219-13.632812 30.449219-30.449219zm0 0" fill="#ffcb63"/><path d="m373.511719 182.632812c0 16.816407 13.632812 30.449219 30.449219 30.449219 16.816406 0 30.449218-13.632812 30.449218-30.449219zm0 0" fill="#ffe2a8"/><path d="m107.074219 289.207031v199.542969l-25.242188 8.414062c-3.988281 1.328126-6.144531 5.640626-4.816406 9.628907 1.332031 3.988281 5.644531 6.144531 9.628906 4.8125l30.449219-10.148438c3.109375-1.035156 5.203125-3.945312 5.203125-7.222656v-205.027344zm0 0" fill="#ffcb63"/><path d="m183.199219 289.207031v199.542969l25.242187 8.414062c3.988282 1.328126 6.144532 5.640626 4.816406 9.628907-1.328124 3.988281-5.644531 6.144531-9.628906 4.8125l-30.449218-10.148438c-3.109376-1.035156-5.203126-3.945312-5.203126-7.222656v-205.027344zm0 0" fill="#ffa754"/><path d="m259.324219 289.207031v199.542969l-25.242188 8.414062c-3.988281 1.328126-6.144531 5.640626-4.816406 9.628907 1.332031 3.988281 5.644531 6.144531 9.628906 4.8125l30.449219-10.148438c3.109375-1.035156 5.203125-3.945312 5.203125-7.222656v-205.027344zm0 0" fill="#b3b3b3"/><path d="m335.449219 289.207031v199.542969l25.242187 8.414062c3.988282 1.328126 6.144532 5.640626 4.816406 9.628907-1.332031 3.988281-5.644531 6.144531-9.628906 4.8125l-30.449218-10.148438c-3.109376-1.035156-5.203126-3.945312-5.203126-7.222656v-205.027344zm0 0" fill="#999"/><path d="m30.949219 76.058594h15.226562v81.199218h-15.226562zm0 0" fill="#ccc"/><path d="m23.335938 180.097656c-4.195313 0-7.609376-3.417968-7.609376-7.613281 0-4.199219 3.414063-7.613281 7.609376-7.613281h15.226562c4.203125 0 7.613281-3.410156 7.613281-7.613282 0-4.203124-3.410156-7.613281-7.613281-7.613281h-15.226562c-12.589844 0-22.835938 10.246094-22.835938 22.839844s10.246094 22.835937 22.835938 22.835937h121.800781v-15.222656zm0 0" fill="#9db55f"/><path d="m419.1875 205.472656c-4.207031 0-7.613281 3.40625-7.613281 7.609375 0 12.59375-10.246094 22.839844-22.839844 22.839844h-91.347656v15.222656h91.347656c20.988281 0 38.0625-17.074219 38.0625-38.0625 0-4.203125-3.40625-7.609375-7.609375-7.609375zm0 0" fill="#116f97"/><path d="m107.074219 65.976562-31.753907 32.464844c-3.90625 4.09375-6.308593 9.636719-6.308593 15.746094 0 12.613281 10.226562 22.835938 22.839843 22.835938h53.285157v-75.277344zm0 0" fill="#60312c"/><path d="m214.953125 98.441406-31.753906-32.464844-38.0625-4.230468v75.277344h53.289062c12.609375 0 22.835938-10.222657 22.835938-22.835938 0-6.109375-2.402344-11.652344-6.308594-15.746094zm0 0" fill="#60312c"/><path d="m175.585938 387.664062h30.449218v-30.449218l-60.898437-30.453125zm0 0" fill="#869e47"/><path d="m175.585938 387.664062h-91.347657v-30.449218l91.347657-30.453125zm0 0" fill="#9db55f"/><path d="m170.511719 167.410156h-10.148438l-20.300781 91.347656 50.75-30.449218v-40.601563c0-11.210937-9.089844-20.296875-20.300781-20.296875zm0 0" fill="#869e47"/><path d="m119.761719 167.410156c-11.210938 0-20.300781 9.085938-20.300781 20.296875v40.601563l60.902343 30.449218v-91.347656zm0 0" fill="#9db55f"/><path d="m190.8125 258.757812v-30.449218c-16.820312 0-30.449219-13.632813-30.449219-30.449219l-45.675781 60.898437 60.898438 98.457032h30.449218v-58.195313c0-15.441406-5.753906-29.527343-15.222656-40.261719zm0 0" fill="#ffe2a8"/><path d="m38.433594 50.683594c-8.40625 0-15.222656 6.816406-15.222656 15.226562v15.222656c0 8.410157 6.816406 15.226563 15.222656 15.226563 8.410156 0 15.226562-6.816406 15.226562-15.226563v-15.222656c0-8.410156-6.816406-15.226562-15.226562-15.226562zm0 0" fill="#ccc"/><path d="m145.136719 45.675781v91.347657c25.226562 0 45.675781-20.449219 45.675781-45.671876 0-25.226562-20.449219-45.675781-45.675781-45.675781zm0 0" fill="#ffa754"/><path d="m160.363281 91.351562c0-25.226562-6.816406-45.675781-15.226562-45.675781-25.226563 0-45.675781 20.449219-45.675781 45.675781 0 25.222657 20.449218 45.671876 45.675781 45.671876 8.410156 0 15.226562-20.449219 15.226562-45.671876zm0 0" fill="#ffcb63"/><path d="m183.199219 20.300781c0-11.210937-9.089844-20.300781-20.300781-20.300781-7.648438 0-14.300782 4.234375-17.761719 10.480469l-10.148438 27.746093 10.148438 27.746094h38.0625zm0 0" fill="#ffe2a8"/><path d="m127.375 0c-11.210938 0-20.300781 9.089844-20.300781 20.300781v45.675781h38.0625v-55.496093c-3.460938-6.246094-10.113281-10.480469-17.761719-10.480469zm0 0" fill="#fff0d3"/><path d="m297.386719 273.984375v91.347656c25.226562 0 45.675781-20.449219 45.675781-45.675781zm0 0" fill="#999"/><path d="m312.613281 319.65625-15.226562-45.671875-45.675781 45.671875c0 25.226562 20.449218 45.675781 45.675781 45.675781 8.40625 0 15.226562-20.449219 15.226562-45.675781zm0 0" fill="#b3b3b3"/><path d="m322.761719 223.234375h-30.449219l20.300781 96.421875h30.449219v-76.121094c0-11.210937-9.089844-20.300781-20.300781-20.300781zm0 0" fill="#116f97"/><path d="m292.3125 223.234375h-20.300781c-11.210938 0-20.300781 9.085937-20.300781 20.300781v76.121094h60.902343v-76.121094c0-11.210937-9.089843-20.300781-20.300781-20.300781zm0 0" fill="#1990c2"/><path d="m297.386719 55.757812-45.675781 91.351563h91.347656v-45.675781c0-25.226563-20.449219-45.675782-45.671875-45.675782zm0 0" fill="#116f97"/><path d="m251.710938 101.433594v45.675781h45.675781v-91.351563c-25.226563 0-45.675781 20.449219-45.675781 45.675782zm0 0" fill="#1990c2"/><path d="m311.691406 131.425781-14.304687 61.359375c25.226562 0 45.675781-20.449218 45.675781-45.675781zm0 0" fill="#ffb4a9"/><path d="m312.613281 147.109375c0-5.511719-.328125-10.792969-.921875-15.683594l-41.710937-20.855469c-11.09375 8.332032-18.269531 21.597657-18.269531 36.539063 0 25.222656 20.449218 45.671875 45.675781 45.671875 8.40625.003906 15.226562-20.445312 15.226562-45.671875zm0 0" fill="#ffd9d0"/><path d="m297.386719 101.433594 15.121093 40.429687c9.554688 3.390625 19.835938 5.246094 30.554688 5.246094 0-25.226563-20.453125-45.675781-45.675781-45.675781zm0 0" fill="#c27749"/><path d="m297.386719 101.433594c-10.285157 0-19.773438 3.398437-27.40625 9.136718 10.6875 14.230469 25.441406 25.230469 42.527343 31.292969-.867187-22.753906-7.304687-40.429687-15.121093-40.429687zm0 0" fill="#e18f4e"/><path d="m160.363281 258.757812v-60.898437h-22.839843v-30.449219h-15.222657v30.449219c0 12.59375-10.246093 22.835937-22.839843 22.835937v38.0625c-9.46875 10.734376-15.222657 24.820313-15.222657 40.261719v58.195313h91.347657v-58.195313c0-15.441406-5.757813-29.527343-15.222657-40.261719zm0 0" fill="#fff0d3"/><path d="m190.8125 235.921875c-20.988281 0-38.0625-17.074219-38.0625-38.0625v-30.449219h15.222656v30.449219c0 12.59375 10.246094 22.835937 22.839844 22.835937zm0 0" fill="#ffe2a8"/></svg>