<?xml version="1.0" encoding="iso-8859-1"?>
<!-- Generator: Adobe Illustrator 19.0.0, SVG Export Plug-In . SVG Version: 6.00 Build 0)  -->
<svg version="1.1" id="Capa_1" xmlns="http://www.w3.org/2000/svg" xmlns:xlink="http://www.w3.org/1999/xlink" x="0px" y="0px"
	 viewBox="0 0 480 480" style="enable-background:new 0 0 480 480;" xml:space="preserve">
<path style="fill:#CCCCCC;" d="M216,68H56C25.087,67.965,0.035,42.913,0,12V4h16v8c0.026,22.08,17.92,39.974,40,40h160
	c22.08-0.026,39.974-17.92,40-40V4h16v8C271.965,42.913,246.913,67.965,216,68z"/>
<path style="fill:#E6E6E6;" d="M344,140H88v152c0,35.346,28.654,64,64,64h16v120h32V356h176v120h32V204
	C408,168.654,379.346,140,344,140z"/>
<path style="fill:#B3B3B3;" d="M312,388h32v88h-32V388z"/>
<path style="fill:#FBA69C;" d="M376,356h-88c0,26.51,21.49,48,48,48h40V356z"/>
<path style="fill:#E6E6E6;" d="M56,52h160v96H56V52z"/>
<g>
	<path style="fill:#4D4D4D;" d="M128,116h-16v-8c0-4.418-3.582-8-8-8s-8,3.582-8,8v8H80v-8c0-13.255,10.745-24,24-24
		s24,10.745,24,24V116z"/>
	<path style="fill:#4D4D4D;" d="M192,116h-16v-8c0-4.418-3.582-8-8-8s-8,3.582-8,8v8h-16v-8c0-13.255,10.745-24,24-24
		s24,10.745,24,24V116z"/>
</g>
<path style="fill:#FBA69C;" d="M72,140h128c17.673,0,32,14.327,32,32l0,0c0,17.673-14.327,32-32,32H72c-17.673,0-32-14.327-32-32
	l0,0C40,154.327,54.327,140,72,140z"/>
<g>
	<path style="fill:#B3B3B3;" d="M56,60C29.49,60,8,81.49,8,108v16c26.51,0,48-21.49,48-48V60z"/>
	<path style="fill:#B3B3B3;" d="M216,60v16c0,26.51,21.49,48,48,48v-16C264,81.49,242.51,60,216,60z"/>
</g>
<g>
	<path style="fill:#4D4D4D;" d="M96,164h16v16H96V164z"/>
	<path style="fill:#4D4D4D;" d="M160,164h16v16h-16V164z"/>
</g>
<path style="fill:#B3B3B3;" d="M104,332h32v144h-32V332z"/>
<path style="fill:#CCCCCC;" d="M448,388h-16V268c0-13.255-10.745-24-24-24v-16c22.08,0.026,39.974,17.92,40,40V388z"/>
<path style="fill:#E6E6E6;" d="M440,372h-8v24c0.026,22.08,17.92,39.974,40,40h8v-24C479.974,389.92,462.08,372.026,440,372z"/>
<g>
	<path style="fill:#CCCCCC;" d="M168,356v-16c0-35.346-28.654-64-64-64H88v16c0,35.346,28.654,64,64,64H168z"/>
	<path style="fill:#CCCCCC;" d="M408,204v8h-8c-35.346,0-64-28.654-64-64v-8h8C379.346,140,408,168.654,408,204z"/>
	<path style="fill:#CCCCCC;" d="M312,212L312,212c26.51,0,48,21.49,48,48l0,0c0,26.51-21.49,48-48,48l0,0c-26.51,0-48-21.49-48-48
		l0,0C264,233.49,285.49,212,312,212z"/>
	<path style="fill:#CCCCCC;" d="M212,252L212,252c11.046,0,20,8.954,20,20l0,0c0,11.046-8.954,20-20,20l0,0
		c-11.046,0-20-8.954-20-20l0,0C192,260.954,200.954,252,212,252z"/>
</g>
<g>
</g>
<g>
</g>
<g>
</g>
<g>
</g>
<g>
</g>
<g>
</g>
<g>
</g>
<g>
</g>
<g>
</g>
<g>
</g>
<g>
</g>
<g>
</g>
<g>
</g>
<g>
</g>
<g>
</g>
</svg>
