<?xml version="1.0" encoding="iso-8859-1"?>
<!-- Generator: Adobe Illustrator 19.0.0, SVG Export Plug-In . SVG Version: 6.00 Build 0)  -->
<svg version="1.1" id="Capa_1" xmlns="http://www.w3.org/2000/svg" xmlns:xlink="http://www.w3.org/1999/xlink" x="0px" y="0px"
	 viewBox="0 0 480.004 480.004" style="enable-background:new 0 0 480.004 480.004;" xml:space="preserve">
<path style="fill:#B3B3B3;" d="M376.004,324.002c-17.673,0-32-14.327-32-32v-8h16v8c0,8.837,7.163,16,16,16s16-7.163,16-16
	s-7.163-16-16-16c-4.418,0-8-3.582-8-8v-40h16v33.008c17.116,4.401,27.424,21.844,23.024,38.96
	C403.388,314.126,390.62,324.016,376.004,324.002z"/>
<path style="fill:#808080;" d="M472.004,92.002h-464C3.586,92.004,0.002,88.424,0,84.006c-0.001-2.894,1.56-5.563,4.084-6.98l128-72
	c1.197-0.672,2.547-1.025,3.92-1.024h32c0.62,0,1.237,0.072,1.84,0.216l304,72c4.299,1.02,6.957,5.331,5.938,9.63
	C478.926,89.453,475.709,91.999,472.004,92.002z M38.54,76.002h364.976l-236.448-56H138.1L38.54,76.002z"/>
<path style="fill:#FDB62F;" d="M352.004,84.002h48v120h-48V84.002z"/>
<path style="fill:#FFA900;" d="M352.004,204.002h48v32h-48V204.002z"/>
<path style="fill:#808080;" d="M448.004,396.002h-144c-4.418-0.001-7.999-3.583-7.998-8.002c0-2.121,0.843-4.154,2.342-5.654l72-72
	c3.124-3.123,8.188-3.123,11.312,0l72,72c3.124,3.125,3.123,8.19-0.002,11.314C452.158,395.159,450.125,396.002,448.004,396.002z
	 M323.316,380.002h105.376l-52.688-52.688L323.316,380.002z"/>
<path style="fill:#6CBBC7;" d="M272.004,380.002h208v88h-208V380.002z"/>
<path style="fill:#FF8800;" d="M472.004,76.002h-296v-64c0-4.418-3.582-8-8-8h-32c-4.418,0-8,3.582-8,8v64h-120
	c-4.418,0-8,3.582-8,8v32c0,4.418,3.582,8,8,8h112V272.69l-29.656,29.656c-1.5,1.5-2.344,3.534-2.344,5.656v136c0,4.418,3.582,8,8,8
	h112c4.418,0,8-3.582,8-8v-136c0-2.122-0.844-4.156-2.344-5.656l-29.656-29.656V124.002h288c4.418,0,8-3.582,8-8v-32
	C480.004,79.584,476.422,76.002,472.004,76.002L472.004,76.002z M136.004,276.002v-4.688l28.688,28.688l-28.688,28.688V276.002z
	 M139.316,348.002l28.688-28.688v57.376L139.316,348.002z M164.692,396.002l-28.688,28.688v-57.376L164.692,396.002z
	 M168.004,415.314v20.688h-20.688L168.004,415.314z M168.004,276.002v4.688l-28.688-28.688l28.688-28.688V276.002z M136.004,232.69
	v-57.376l28.688,28.688L136.004,232.69z M139.316,156.002l28.688-28.688v57.376L139.316,156.002z M168.004,104.69l-3.312,3.312
	h-28.688v-16h32V104.69z M144.004,20.002h16v56h-16V20.002z M16.004,108.002v-16h104v16H16.004z M148.692,124.002l-12.688,12.688
	v-12.688H148.692z M104.004,311.314l16-16v140.688h-16V311.314z M200.004,311.314v124.688h-16V295.314L200.004,311.314z
	 M464.004,108.002h-280v-16h280V108.002z"/>
<path style="fill:#FFA900;" d="M80.004,444.002h144v32h-144V444.002z"/>
<g>
</g>
<g>
</g>
<g>
</g>
<g>
</g>
<g>
</g>
<g>
</g>
<g>
</g>
<g>
</g>
<g>
</g>
<g>
</g>
<g>
</g>
<g>
</g>
<g>
</g>
<g>
</g>
<g>
</g>
</svg>
