<?xml version="1.0" encoding="iso-8859-1"?>
<!-- Generator: Adobe Illustrator 19.0.0, SVG Export Plug-In . SVG Version: 6.00 Build 0)  -->
<svg version="1.1" id="Capa_1" xmlns="http://www.w3.org/2000/svg" xmlns:xlink="http://www.w3.org/1999/xlink" x="0px" y="0px"
	 viewBox="0 0 512 512" style="enable-background:new 0 0 512 512;" xml:space="preserve">
<path style="fill:#57D0E6;" d="M32.133,332.908c0,0,0.787-31.475,223.867-31.475s223.867,31.475,223.867,31.475l-16.524,101.136
	H64.674L32.133,332.908z"/>
<path style="fill:#85E7FF;" d="M256,332.338c164.519,0,208.133,17.119,219.694,26.107l4.172-25.536c0,0-0.787-31.475-223.867-31.475
	S32.133,332.908,32.133,332.908l7.497,23.301C55.393,346.895,104.294,332.338,256,332.338z"/>
<g>
	<rect x="231.997" y="134.758" style="fill:#C86D5C;" width="48" height="305.171"/>
	<rect x="123.807" y="134.758" style="fill:#C86D5C;" width="48" height="305.171"/>
	<rect x="340.197" y="134.758" style="fill:#C86D5C;" width="48" height="305.171"/>
</g>
<g>
	<rect x="340.197" y="134.758" style="fill:#AD4F3D;" width="48" height="73.236"/>
	<rect x="231.997" y="134.758" style="fill:#AD4F3D;" width="48" height="73.236"/>
	<rect x="123.807" y="134.758" style="fill:#AD4F3D;" width="48" height="73.236"/>
</g>
<rect x="35.971" y="111.816" style="fill:#C86D5C;" width="440.062" height="65.262"/>
<g>
	<rect x="35.971" y="401.41" style="fill:#AD4F3D;" width="440.062" height="65.262"/>
	<rect x="35.971" y="111.816" style="fill:#AD4F3D;" width="59.608" height="65.262"/>
</g>
<polygon style="fill:#C86D5C;" points="38.011,47.775 11.347,80.32 11.347,496.772 64.674,496.772 64.674,80.32 "/>
<rect x="416.42" y="111.816" style="fill:#AD4F3D;" width="59.607" height="65.262"/>
<polygon style="fill:#C86D5C;" points="473.989,47.775 500.653,80.32 500.653,496.772 447.326,496.772 447.326,80.32 "/>
<g>
	<path style="fill:#AD4F3D;" d="M11.347,80.32h53.326c7.002-6.894,11.347-16.479,11.347-27.081
		c0-20.993-17.018-38.011-38.011-38.011C17.018,15.228,0,32.247,0,53.239C0,63.841,4.345,73.426,11.347,80.32z"/>
	<path style="fill:#AD4F3D;" d="M500.653,80.32h-53.326c-7.002-6.894-11.347-16.479-11.347-27.081
		c0-20.993,17.018-38.011,38.011-38.011c20.992,0,38.011,17.018,38.011,38.011C512,63.841,507.655,73.426,500.653,80.32z"/>
</g>
<g>
</g>
<g>
</g>
<g>
</g>
<g>
</g>
<g>
</g>
<g>
</g>
<g>
</g>
<g>
</g>
<g>
</g>
<g>
</g>
<g>
</g>
<g>
</g>
<g>
</g>
<g>
</g>
<g>
</g>
</svg>
