<?xml version="1.0" encoding="iso-8859-1"?>
<!-- Generator: Adobe Illustrator 19.0.0, SVG Export Plug-In . SVG Version: 6.00 Build 0)  -->
<svg version="1.1" id="Capa_1" xmlns="http://www.w3.org/2000/svg" xmlns:xlink="http://www.w3.org/1999/xlink" x="0px" y="0px"
	 viewBox="0 0 480 480" style="enable-background:new 0 0 480 480;" xml:space="preserve">
<path style="fill:#B9B9B9;" d="M256,104h-32c-22.4,0-40-17.6-40-40V40h16v24c0,13.6,10.4,24,24,24h32c13.6,0,24-10.4,24-24V40h16v24
	C296,86.4,278.4,104,256,104z"/>
<g>
	<path style="fill:#F7BA61;" d="M184,8h16v16h-16V8z"/>
	<path style="fill:#F7BA61;" d="M232,8h16v16h-16V8z"/>
	<path style="fill:#F7BA61;" d="M280,8h16v16h-16V8z"/>
</g>
<path style="fill:#DBDBDB;" d="M232,40h16v136h-16V40z"/>
<g>
	<path style="fill:#EAEAE8;" d="M120,96h48v40c0,13.6-10.4,24-24,24s-24-10.4-24-24V96z"/>
	<path style="fill:#EAEAE8;" d="M136,156.8h16V200h-16V156.8z"/>
</g>
<path style="fill:#B9B9B9;" d="M136,156.8h16V176h-16V156.8z"/>
<path style="fill:#EAEAE8;" d="M328,154.4h16V200h-16V154.4z"/>
<path style="fill:#B9B9B9;" d="M280,200h-80v-16c0-8.8,7.2-16,16-16h48c8.8,0,16,7.2,16,16V200z"/>
<path style="fill:#804D35;" d="M160,336H8c-4.8,0-8-3.2-8-8v-32c0-4.8,3.2-8,8-8h136c13.6,0,24,10.4,24,24v16
	C168,332.8,164.8,336,160,336z M16,320h136v-8c0-4.8-3.2-8-8-8H16V320z"/>
<path style="fill:#AA3C32;" d="M8,320h160v35.2H8V320z"/>
<g>
	<path style="fill:#804D35;" d="M160,472c-4.8,0-8-3.2-8-8v-96H8c-4.8,0-8-3.2-8-8s3.2-8,8-8h152c4.8,0,8,3.2,8,8v104
		C168,468.8,164.8,472,160,472z"/>
	<path style="fill:#804D35;" d="M168,408H16V120c0-4.8-3.2-8-8-8s-8,3.2-8,8v344c0,4.8,3.2,8,8,8s8-3.2,8-8v-40h152V408z"/>
	<path style="fill:#804D35;" d="M472,336H320c-4.8,0-8-3.2-8-8v-16c0-13.6,10.4-24,24-24h136c4.8,0,8,3.2,8,8v32
		C480,332.8,476.8,336,472,336z M328,320h136v-16H336c-4.8,0-8,3.2-8,8V320z"/>
</g>
<path style="fill:#AA3C32;" d="M312,320h160v40H312V320z"/>
<g>
	<path style="fill:#804D35;" d="M472,472c-4.8,0-8-3.2-8-8V128c0-4.8,3.2-8,8-8s8,3.2,8,8v336C480,468.8,476.8,472,472,472z"/>
	<path style="fill:#804D35;" d="M472,352H320c-4.8,0-8,3.2-8,8v104c0,4.8,3.2,8,8,8s8-3.2,8-8v-96h144c4.8,0,8-3.2,8-8
		S476.8,352,472,352z"/>
	<path style="fill:#804D35;" d="M312,408h168v16H312V408z"/>
	<path style="fill:#804D35;" d="M112,472c-4.8,0-8-3.2-8-8v-24c0-4.8,3.2-8,8-8s8,3.2,8,8v24C120,468.8,116.8,472,112,472z"/>
</g>
<path style="fill:#DC4D41;" d="M112,448c-4.8,0-8-3.2-8-8V232c0-4.8,3.2-8,8-8h256c4.8,0,8,3.2,8,8c0,2.4-0.8,4.8-3.2,6.4l-256,208
	C116,447.2,113.6,448,112,448L112,448z"/>
<path style="fill:#804D35;" d="M368,472c-4.8,0-8-3.2-8-8v-24c0-4.8,3.2-8,8-8s8,3.2,8,8v24C376,468.8,372.8,472,368,472z"/>
<g>
	<path style="fill:#C7463B;" d="M120,128v8c0,13.6,10.4,24,24,24s24-10.4,24-24v-8H120z"/>
	<path style="fill:#C7463B;" d="M376,232H104v-16c0-13.6,10.4-24,24-24h224c13.6,0,24,10.4,24,24V232z"/>
	<path style="fill:#C7463B;" d="M368,224c4.8,0,8,3.2,8,8v208c0,4.8-3.2,8-8,8c-1.6,0-4-0.8-4.8-1.6l-256-208c-3.2-2.4-4-8-0.8-11.2
		c1.6-1.6,4-3.2,6.4-3.2H368z"/>
</g>
<path style="fill:#B9B9B9;" d="M328,156.8h16V176h-16V156.8z"/>
<path style="fill:#EAEAE8;" d="M312,96h48v40c0,13.6-10.4,24-24,24s-24-10.4-24-24V96z"/>
<path style="fill:#C7463B;" d="M312,128v8c0,13.6,10.4,24,24,24s24-10.4,24-24v-8H312z"/>
<g>
</g>
<g>
</g>
<g>
</g>
<g>
</g>
<g>
</g>
<g>
</g>
<g>
</g>
<g>
</g>
<g>
</g>
<g>
</g>
<g>
</g>
<g>
</g>
<g>
</g>
<g>
</g>
<g>
</g>
</svg>
