<?xml version="1.0" encoding="iso-8859-1"?>
<!-- Generator: Adobe Illustrator 19.0.0, SVG Export Plug-In . SVG Version: 6.00 Build 0)  -->
<svg version="1.1" id="Layer_1" xmlns="http://www.w3.org/2000/svg" xmlns:xlink="http://www.w3.org/1999/xlink" x="0px" y="0px"
	 viewBox="0 0 511.999 511.999" style="enable-background:new 0 0 511.999 511.999;" xml:space="preserve">
<path style="fill:#FE9901;" d="M510.441,333.713c-7.797-45.056-39.193-107.018-51.239-129.646
	c23.526-29.601,3.336-59.241-15.685-59.241c-5.565,0-10.891,1.018-15.81,2.867c-4.042-20.685-22.257-36.296-44.125-36.296
	c-5.443,0-10.661,0.968-15.489,2.74c-2.899-22.037-21.741-39.051-44.569-39.051c-10.163,0-19.537,3.374-27.067,9.06
	c-7.293-14.988-22.667-25.319-40.456-25.319s-33.162,10.331-40.456,25.319c-7.531-5.686-16.904-9.06-27.067-9.06
	c-22.828,0-41.669,17.014-44.569,39.051c-4.829-1.772-10.046-2.74-15.489-2.74c-21.868,0-40.082,15.611-44.125,36.296
	c-4.92-1.848-10.246-2.867-15.81-2.867c-19.021,0-39.211,29.639-15.688,59.239C40.715,226.759,9.164,289.028,1.485,334.119
	c-0.949,3.767-1.448,7.591-1.448,11.464c-0.071,0.939-0.036,1.853,0.083,2.746c3.466,58.152,116.709,104.843,255.899,104.843
	c139.585,0,253.062-46.959,255.913-105.34c0.049-0.52,0.062-1.049,0.047-1.583c0.003-0.223,0.02-0.444,0.02-0.667
	C512,341.571,511.46,337.612,510.441,333.713z"/>
<path style="fill:#37CC8F;" d="M510.441,333.713c-7.797-45.057-39.193-107.018-51.239-129.646
	c-7.191,9.049-18.468,18.094-35.113,26.288c-0.009,0.004-0.018,0.009-0.026,0.013c-3.261,1.719-6.755,3.383-10.468,4.989
	c-0.054,0.023-0.109,0.047-0.163,0.071c-3.703,1.598-7.622,3.139-11.744,4.616c-0.07,0.025-0.14,0.05-0.21,0.075
	c-1.328,0.475-2.675,0.943-4.043,1.404c-0.044,0.014-0.087,0.03-0.131,0.044c-2.851,0.959-5.788,1.89-8.811,2.789
	c-0.046,0.014-0.094,0.028-0.14,0.041c-1.415,0.421-2.85,0.833-4.302,1.241c-0.152,0.043-0.304,0.085-0.457,0.128
	c-4.548,1.268-9.269,2.469-14.151,3.6c-0.231,0.054-0.464,0.107-0.695,0.16c-1.449,0.332-2.912,0.659-4.389,0.979
	c-0.173,0.038-0.345,0.076-0.519,0.114c-3.308,0.712-6.684,1.391-10.123,2.039c-0.269,0.051-0.542,0.1-0.812,0.15
	c-1.437,0.267-2.885,0.529-4.345,0.785c-0.332,0.059-0.662,0.117-0.996,0.174c-1.674,0.289-3.36,0.573-5.063,0.847
	c-0.029,0.004-0.056,0.009-0.084,0.014c-1.793,0.288-3.601,0.566-5.422,0.837c-0.265,0.04-0.533,0.077-0.799,0.116
	c-1.491,0.219-2.992,0.432-4.503,0.639c-0.443,0.061-0.886,0.12-1.331,0.18c-1.463,0.196-2.933,0.386-4.412,0.572
	c-0.344,0.043-0.687,0.087-1.032,0.13c-1.844,0.226-3.7,0.446-5.569,0.655c-0.113,0.012-0.227,0.024-0.34,0.036
	c-1.7,0.189-3.412,0.369-5.133,0.543c-0.499,0.051-1,0.099-1.5,0.148c-1.401,0.138-2.808,0.27-4.222,0.397
	c-0.511,0.046-1.02,0.093-1.533,0.138c-1.766,0.155-3.54,0.301-5.326,0.44c-0.102,0.008-0.202,0.017-0.304,0.024
	c-1.901,0.146-3.815,0.281-5.735,0.41c-0.504,0.033-1.013,0.064-1.519,0.096c-1.425,0.092-2.856,0.178-4.292,0.258
	c-0.602,0.034-1.203,0.067-1.807,0.099c-1.492,0.079-2.99,0.152-4.493,0.221c-0.457,0.021-0.911,0.044-1.369,0.064
	c-1.943,0.084-3.893,0.158-5.854,0.223c-0.402,0.013-0.806,0.023-1.208,0.035c-1.567,0.049-3.14,0.092-4.718,0.128
	c-0.633,0.014-1.266,0.028-1.901,0.04c-1.434,0.029-2.871,0.052-4.313,0.071c-0.592,0.008-1.181,0.017-1.774,0.022
	c-1.997,0.02-3.999,0.033-6.011,0.033c-2.011,0-4.014-0.013-6.011-0.033c-0.593-0.006-1.182-0.014-1.773-0.022
	c-1.443-0.019-2.881-0.042-4.315-0.071c-0.634-0.012-1.266-0.025-1.897-0.04c-1.581-0.036-3.156-0.079-4.727-0.128
	c-0.398-0.012-0.8-0.022-1.199-0.035c-1.961-0.065-3.914-0.14-5.859-0.223c-0.455-0.02-0.906-0.043-1.361-0.063
	c-1.503-0.068-3.002-0.141-4.495-0.221c-0.605-0.032-1.208-0.065-1.81-0.099c-1.436-0.081-2.867-0.168-4.293-0.258
	c-0.504-0.032-1.011-0.063-1.514-0.096c-1.922-0.128-3.835-0.263-5.735-0.41c-0.105-0.008-0.209-0.018-0.313-0.025
	c-1.783-0.138-3.555-0.286-5.319-0.439c-0.51-0.044-1.018-0.092-1.527-0.137c-1.417-0.128-2.828-0.26-4.232-0.398
	c-0.499-0.049-0.998-0.097-1.495-0.148c-1.714-0.173-3.42-0.352-5.114-0.541c-0.12-0.013-0.243-0.025-0.363-0.039
	c-1.869-0.209-3.723-0.427-5.567-0.655c-0.343-0.042-0.683-0.086-1.025-0.129c-1.482-0.185-2.957-0.376-4.422-0.573
	c-0.442-0.06-0.882-0.119-1.322-0.179c-1.511-0.208-3.012-0.419-4.504-0.639c-0.267-0.04-0.536-0.077-0.804-0.117
	c-1.82-0.27-3.628-0.549-5.419-0.837c-0.031-0.004-0.061-0.01-0.092-0.015c-1.702-0.274-3.387-0.557-5.06-0.847
	c-0.331-0.057-0.66-0.116-0.99-0.173c-1.459-0.256-2.909-0.518-4.346-0.785c-0.272-0.051-0.545-0.1-0.816-0.151
	c-3.441-0.647-6.816-1.327-10.124-2.039c-0.17-0.036-0.339-0.074-0.508-0.11c-1.479-0.32-2.944-0.648-4.395-0.98
	c-0.233-0.054-0.467-0.107-0.699-0.161c-4.882-1.13-9.603-2.332-14.151-3.6c-0.151-0.042-0.301-0.085-0.453-0.127
	c-1.452-0.407-2.886-0.82-4.3-1.241c-0.047-0.014-0.096-0.029-0.145-0.042c-3.023-0.9-5.961-1.83-8.813-2.789
	c-0.042-0.014-0.083-0.029-0.124-0.042c-1.371-0.463-2.721-0.932-4.051-1.406c-0.068-0.024-0.137-0.049-0.204-0.073
	c-4.123-1.478-8.042-3.019-11.747-4.618c-0.054-0.023-0.107-0.046-0.161-0.07c-3.713-1.607-7.208-3.272-10.471-4.991
	c-0.008-0.004-0.017-0.009-0.025-0.013c-16.646-8.194-27.922-17.239-35.114-26.289C40.715,226.758,9.164,289.028,1.485,334.119
	c-0.949,3.767-1.448,7.591-1.448,11.464c-0.071,0.939-0.036,1.853,0.083,2.746c3.466,58.152,116.709,104.843,255.899,104.843
	c139.585,0,253.062-46.959,255.913-105.34c0.049-0.52,0.062-1.049,0.047-1.583c0.003-0.223,0.02-0.444,0.02-0.667
	C512,341.571,511.46,337.612,510.441,333.713z"/>
<path style="fill:#2AA86F;" d="M510.441,333.713c-7.797-45.057-39.193-107.018-51.239-129.646
	c-4.177,5.255-9.742,10.507-16.925,15.594c14.447,28.655,36.763,77.047,43.167,114.053c1.018,3.899,1.558,7.858,1.558,11.871
	c0,0.223-0.017,0.445-0.02,0.667c0.014,0.535,0.001,1.064-0.047,1.583c-2.766,56.628-109.619,102.509-243.421,105.211
	c4.144,0.084,8.312,0.128,12.505,0.128c139.585,0,253.062-46.959,255.913-105.34c0.049-0.52,0.062-1.049,0.047-1.583
	c0.003-0.223,0.02-0.444,0.02-0.667C512,341.571,511.46,337.612,510.441,333.713z"/>
<path style="fill:#FE9901;" d="M58.562,147.434c0.244,0.087,0.492,0.167,0.735,0.258c0.046-0.238,0.105-0.472,0.155-0.709
	C59.153,147.126,58.857,147.279,58.562,147.434z"/>
<g>
	<path style="fill:#ED8803;" d="M343.094,114.135c4.829-1.772,10.046-2.74,15.489-2.74c3.166,0,6.251,0.337,9.231,0.959
		c-3.654-21.165-22.084-37.271-44.293-37.271c-4.337,0-8.527,0.619-12.494,1.765C327.94,81.738,340.747,96.289,343.094,114.135z"/>
	<path style="fill:#ED8803;" d="M402.708,147.692c4.92-1.848,10.245-2.867,15.81-2.867c3.042,0,6.113,0.763,9.031,2.157
		c-4.317-20.329-22.353-35.587-43.97-35.587c-4.338,0-8.529,0.624-12.497,1.771C387.118,117.8,399.469,131.112,402.708,147.692z"/>
	<path style="fill:#ED8803;" d="M443.517,144.826c-5.291,0-10.36,0.929-15.076,2.608c20.372,10.761,32.146,52.649-29.348,82.92
		c-33.044,17.423-90,29.346-155.591,30.699c4.134,0.085,8.3,0.131,12.499,0.131c70.819,0,132.964-12.31,168.09-30.831
		C495.183,195.358,468.352,144.826,443.517,144.826z"/>
</g>
<g>
	<path style="fill:#FFFFFF;" d="M256.147,360.563c-0.05,0-0.245,0-0.295,0c-22.434,0-44.769,46.99-30.335,53.727
		c6.303,2.942,12.886,2.553,18.301,1.181c3.987-1.01,8.084-1.508,12.181-1.496c4.096-0.012,8.194,0.486,12.181,1.496
		c5.416,1.372,11.999,1.761,18.301-1.181C300.915,407.553,278.581,360.563,256.147,360.563z"/>
	<path style="fill:#FFFFFF;" d="M209.122,327.67c4.413,9.803,18.517,18.466,28.32,14.053c9.803-4.413,11.593-20.232,7.18-30.035
		c-4.413-9.803-15.937-14.172-25.74-9.759C209.079,306.341,204.709,317.866,209.122,327.67z"/>
	<path style="fill:#FFFFFF;" d="M182.224,375.277c7.669,5.092,23.569,6.632,28.661-1.038c5.092-7.669-2.552-21.644-10.221-26.736
		s-18.014-3.002-23.106,4.667C172.466,359.84,174.555,370.185,182.224,375.277z"/>
	<path style="fill:#FFFFFF;" d="M302.878,327.67c-4.413,9.803-18.517,18.466-28.32,14.053c-9.803-4.413-11.593-20.232-7.18-30.035
		c4.413-9.803,15.937-14.172,25.74-9.759C302.922,306.343,307.291,317.866,302.878,327.67z"/>
	<path style="fill:#FFFFFF;" d="M329.776,375.277c-7.669,5.092-23.569,6.632-28.661-1.038c-5.092-7.669,2.552-21.644,10.221-26.736
		c7.669-5.092,18.014-3.002,23.106,4.667C339.535,359.84,337.445,370.185,329.776,375.277z"/>
</g>
<g>
	<path style="fill:#FFBC64;" d="M226.943,155.345c-4.572,0-8.279-3.707-8.279-8.279c0-10.078-8.199-18.277-18.277-18.277
		s-18.277,8.199-18.277,18.277c0,4.572-3.707,8.279-8.279,8.279s-8.279-3.707-8.279-8.279c0-19.208,15.627-34.834,34.834-34.834
		s34.834,15.627,34.834,34.834C235.221,151.639,231.515,155.345,226.943,155.345z"/>
	<path style="fill:#FFBC64;" d="M338.169,155.345c-4.573,0-8.279-3.707-8.279-8.279c0-10.078-8.199-18.277-18.277-18.277
		c-10.079,0-18.278,8.199-18.278,18.277c0,4.572-3.706,8.279-8.279,8.279c-4.573,0-8.279-3.707-8.279-8.279
		c0-19.208,15.627-34.834,34.836-34.834s34.834,15.627,34.834,34.834C346.448,151.639,342.741,155.345,338.169,155.345z"/>
	<path style="fill:#FFBC64;" d="M282.555,212.251c-4.573,0-8.279-3.707-8.279-8.279c0-10.078-8.199-18.277-18.277-18.277
		c-10.078,0-18.277,8.199-18.277,18.277c0,4.572-3.707,8.279-8.279,8.279c-4.572,0-8.279-3.707-8.279-8.279
		c0-19.208,15.627-34.834,34.834-34.834s34.834,15.627,34.834,34.834C290.834,208.544,287.128,212.251,282.555,212.251z"/>
	<path style="fill:#FFBC64;" d="M156.584,212.251c-4.572,0-8.279-3.707-8.279-8.279c0-10.078-8.199-18.277-18.277-18.277
		c-10.078,0-18.277,8.199-18.277,18.277c0,4.572-3.707,8.279-8.279,8.279c-4.572,0-8.279-3.707-8.279-8.279
		c0-19.208,15.627-34.834,34.834-34.834s34.834,15.627,34.834,34.834C164.862,208.544,161.157,212.251,156.584,212.251z"/>
	<path style="fill:#FFBC64;" d="M408.527,212.251c-4.573,0-8.279-3.707-8.279-8.279c0-10.078-8.199-18.277-18.277-18.277
		c-10.079,0-18.278,8.199-18.278,18.277c0,4.572-3.706,8.279-8.279,8.279c-4.573,0-8.279-3.707-8.279-8.279
		c0-19.208,15.627-34.834,34.836-34.834s34.834,15.627,34.834,34.834C416.805,208.544,413.1,212.251,408.527,212.251z"/>
</g>
<g>
</g>
<g>
</g>
<g>
</g>
<g>
</g>
<g>
</g>
<g>
</g>
<g>
</g>
<g>
</g>
<g>
</g>
<g>
</g>
<g>
</g>
<g>
</g>
<g>
</g>
<g>
</g>
<g>
</g>
</svg>
