<?xml version="1.0" encoding="iso-8859-1"?>
<!-- Generator: Adobe Illustrator 19.0.0, SVG Export Plug-In . SVG Version: 6.00 Build 0)  -->
<svg version="1.1" id="Capa_1" xmlns="http://www.w3.org/2000/svg" xmlns:xlink="http://www.w3.org/1999/xlink" x="0px" y="0px"
	 viewBox="0 0 512 512" style="enable-background:new 0 0 512 512;" xml:space="preserve">
<path style="fill:#D2C5C2;" d="M301,45v31h-90V45c0-24.901,20.099-45,45-45S301,20.099,301,45z"/>
<path style="fill:#C4B3AF;" d="M301,76h-45V0c24.901,0,45,20.099,45,45V76z"/>
<polygon style="fill:#D2C5C2;" points="151,512 91,512 181,331 241,331 "/>
<polygon style="fill:#C4B3AF;" points="421,512 361,512 271,331 331,331 "/>
<path style="fill:#FFCD00;" d="M31,61v300h450V61H31z"/>
<rect x="256" y="61" style="fill:#FF9F22;" width="225" height="300"/>
<polygon style="fill:#55696E;" points="451,91 451,318.999 256,284.5 61,249.699 61,91 "/>
<polygon style="fill:#323C3C;" points="451,91 451,318.999 256,284.5 256,91 "/>
<path style="fill:#DFD7D5;" d="M376,211c-24.814,0-45-20.186-45-45s20.186-45,45-45s45,20.186,45,45S400.814,211,376,211z"/>
<polygon style="fill:#9EE0FF;" points="451,318.999 451,331 61,331 61,249.699 167.5,143.2 256,263.2 314.801,205.899 "/>
<polygon style="fill:#73BCFF;" points="451,318.999 451,331 256,331 256,263.2 314.801,205.899 "/>
<g>
</g>
<g>
</g>
<g>
</g>
<g>
</g>
<g>
</g>
<g>
</g>
<g>
</g>
<g>
</g>
<g>
</g>
<g>
</g>
<g>
</g>
<g>
</g>
<g>
</g>
<g>
</g>
<g>
</g>
</svg>
