<?xml version="1.0" encoding="iso-8859-1"?>
<!-- Generator: Adobe Illustrator 19.0.0, SVG Export Plug-In . SVG Version: 6.00 Build 0)  -->
<svg version="1.1" id="Capa_1" xmlns="http://www.w3.org/2000/svg" xmlns:xlink="http://www.w3.org/1999/xlink" x="0px" y="0px"
	 viewBox="0 0 512.002 512.002" style="enable-background:new 0 0 512.002 512.002;" xml:space="preserve">
<path style="fill:#FB4239;" d="M0.565,396.367l95.419,65.806c96.335,66.44,223.709,66.44,320.044,0l95.41-65.806l-194.863-197.47
	c-10.341-14.216-12.939-32.643-6.932-49.158l10.781-29.639c9.821-27.015,14.851-55.535,14.851-84.276V17.616
	C335.274,7.883,327.391,0,317.658,0h-17.616c-20.276,24.319-56.425,27.605-80.744,7.337c-2.66-2.22-5.118-4.677-7.337-7.337h-17.616
	c-9.733,0-17.616,7.883-17.616,17.616v18.206c0,28.75,5.029,57.271,14.851,84.285l10.781,29.631
	c6.007,16.515,3.409,34.933-6.923,49.141L0.565,396.367z"/>
<g>
	<rect x="396.896" y="61.657" style="fill:#FEC007;" width="17.616" height="17.616"/>
	<rect x="414.513" y="79.273" style="fill:#FEC007;" width="17.616" height="17.616"/>
	<rect x="379.28" y="79.273" style="fill:#FEC007;" width="17.616" height="17.616"/>
	<rect x="396.896" y="96.89" style="fill:#FEC007;" width="17.616" height="17.616"/>
	<rect x="458.553" style="fill:#FEC007;" width="17.616" height="17.616"/>
	<rect x="123.844" y="140.93" style="fill:#FEC007;" width="17.616" height="17.616"/>
	<rect x="141.46" y="158.547" style="fill:#FEC007;" width="17.616" height="17.616"/>
	<rect x="106.227" y="158.547" style="fill:#FEC007;" width="17.616" height="17.616"/>
	<rect x="123.844" y="176.163" style="fill:#FEC007;" width="17.616" height="17.616"/>
	<rect x="26.989" y="17.616" style="fill:#FEC007;" width="17.616" height="17.616"/>
	<rect x="53.378" y="255.436" style="fill:#FEC007;" width="17.616" height="17.616"/>
	<rect x="432.129" y="220.204" style="fill:#FEC007;" width="17.616" height="17.616"/>
</g>
<path style="fill:#E01717;" d="M358.792,241.678c-24.848,105.539-87.729,198.21-176.612,260.29
	c80.004,21.8,165.558,7.24,233.848-39.804l95.41-65.797L358.792,241.678z"/>
<g>
</g>
<g>
</g>
<g>
</g>
<g>
</g>
<g>
</g>
<g>
</g>
<g>
</g>
<g>
</g>
<g>
</g>
<g>
</g>
<g>
</g>
<g>
</g>
<g>
</g>
<g>
</g>
<g>
</g>
</svg>
