<?xml version="1.0" encoding="iso-8859-1"?>
<!-- Generator: Adobe Illustrator 19.0.0, SVG Export Plug-In . SVG Version: 6.00 Build 0)  -->
<svg version="1.1" id="Capa_1" xmlns="http://www.w3.org/2000/svg" xmlns:xlink="http://www.w3.org/1999/xlink" x="0px" y="0px"
	 viewBox="0 0 512 512" style="enable-background:new 0 0 512 512;" xml:space="preserve">
<path style="fill:#E7E7E7;" d="M360.099,471.799c-2.399,7.8-10.8,12.001-18.898,9.3C338.2,479.599,301,471.501,271,433.1V497
	c0,8.401-6.599,15-15,15s-15-6.599-15-15v-63.9c-29.7,38.101-67.2,46.5-70.201,47.999c-8.099,2.701-16.5-1.5-18.898-9.3
	c-2.701-7.798,1.5-16.5,9.3-18.898l4.799-1.802c44.7-14.7,75-57.699,75-105.099c0-8.401,6.599-15,15-15c8.401,0,15,6.599,15,15
	c0,83.699,76.8,104.5,79.799,106.901C358.599,455.3,362.8,464.001,360.099,471.799z"/>
<path style="fill:#BABAC0;" d="M360.099,471.799c-2.399,7.8-10.8,12.001-18.898,9.3C338.2,479.599,301,471.501,271,433.1V497
	c0,8.401-6.599,15-15,15V331c8.401,0,15,6.599,15,15c0,83.699,76.8,104.5,79.799,106.901
	C358.599,455.3,362.8,464.001,360.099,471.799z"/>
<path style="fill:#6E6E6E;" d="M348.1,211c27.6,37.5,42.9,83.401,42.9,129.901V346c0,8.401-6.599,15-15,15H136
	c-8.401,0-15-6.599-15-15v-5.099c0-46.5,15.3-92.401,42.9-129.901l36-15.901L159.699,181L125.5,146.499
	c-3-2.699-4.5-6.599-4.5-10.499c0-20.4,8.101-39.3,22.5-53.699C158.2,68.2,176.8,60.399,197.8,61c2.701,0,6.601-1.8,8.401-3.6
	C209.2,54.401,211,50.2,211,46V15c0-8.401,6.599-15,15-15h60c8.401,0,15,6.599,15,15v31c0,4.2,1.8,8.401,4.799,11.4
	c1.8,1.8,4.501,3.6,8.401,3.6c20.4-0.601,39.6,7.2,54.3,21.301C382.899,96.7,391,115.6,391,136c0,3.9-1.5,7.8-4.501,10.499
	L352.301,181L312.4,193.599L348.1,211z"/>
<path style="fill:#5A5A5A;" d="M348.1,211c27.6,37.5,42.9,83.401,42.9,129.901V346c0,8.401-6.599,15-15,15H256V0h30
	c8.401,0,15,6.599,15,15v31c0,4.2,1.8,8.401,4.799,11.4c1.8,1.8,4.501,3.6,8.401,3.6c20.4-0.601,39.6,7.2,54.3,21.301
	C382.899,96.7,391,115.6,391,136c0,3.9-1.5,7.8-4.501,10.499L352.301,181L312.4,193.599L348.1,211z"/>
<path style="fill:#E7E7E7;" d="M344.801,205.901c1.199,1.8,2.1,3.6,3.3,5.099H163.9c1.199-1.5,2.1-3.3,3.3-5.099
	c4.501-5.4,3.6-13.801-1.5-18.9l-6-6h192.601l-6,6C341.201,192.1,340.3,200.501,344.801,205.901z"/>
<path style="fill:#BABAC0;" d="M348.1,211H256v-30h96.301l-6,6c-5.099,5.099-6,13.5-1.5,18.9C346,207.7,346.901,209.5,348.1,211z"/>
<g>
</g>
<g>
</g>
<g>
</g>
<g>
</g>
<g>
</g>
<g>
</g>
<g>
</g>
<g>
</g>
<g>
</g>
<g>
</g>
<g>
</g>
<g>
</g>
<g>
</g>
<g>
</g>
<g>
</g>
</svg>
