<?xml version="1.0" encoding="iso-8859-1"?>
<!-- Generator: Adobe Illustrator 19.0.0, SVG Export Plug-In . SVG Version: 6.00 Build 0)  -->
<svg version="1.1" id="Capa_1" xmlns="http://www.w3.org/2000/svg" xmlns:xlink="http://www.w3.org/1999/xlink" x="0px" y="0px"
	 viewBox="0 0 512 512" style="enable-background:new 0 0 512 512;" xml:space="preserve">
<path style="fill:#D7D8DB;" d="M445.867,183.467v231.467c0,45.867-37.333,82.133-82.133,82.133S281.6,459.733,281.6,414.933v-92.8
	C281.6,294.4,259.2,272,231.467,272h-8.533v-32h8.533c45.867,0,82.133,37.333,82.133,82.133v92.8
	c0,27.733,22.4,50.133,50.133,50.133c27.733,0,50.133-22.4,50.133-50.133V183.467H445.867z"/>
<path style="fill:#ACB3BA;" d="M217.6,302.933L217.6,302.933c-5.333,0-9.6-4.267-9.6-9.6v-73.6c0-5.333,4.267-9.6,9.6-9.6l0,0
	c5.333,0,9.6,4.267,9.6,9.6v73.6C227.2,298.667,222.933,302.933,217.6,302.933z"/>
<path style="fill:#FFD15C;" d="M107.733,512L107.733,512C49.067,512,0,464,0,404.267V107.733C0,48,49.067,0,107.733,0l0,0
	c59.733,0,107.733,48,107.733,107.733v296.533C215.467,464,167.467,512,107.733,512z"/>
<rect x="107.733" y="228.267" style="fill:#F7A64D;" width="59.733" height="55.467"/>
<rect x="48" y="228.267" style="fill:#F8B64C;" width="59.733" height="55.467"/>
<path style="fill:#FF7058;" d="M22.4,397.867L22.4,397.867c0-26.667,21.333-48,48-48h74.667c26.667,0,48,21.333,48,48l0,0
	c0,26.667-21.333,48-48,48H70.4C43.733,444.8,22.4,423.467,22.4,397.867z"/>
<g>
	<path style="fill:#40596B;" d="M61.867,378.667H57.6c-10.667,0-19.2,8.533-19.2,19.2S46.933,416,57.6,416h4.267v6.4h16v-50.133h-16
		V378.667z"/>
	<path style="fill:#40596B;" d="M154.667,416h4.267c10.667,0,19.2-8.533,19.2-19.2s-8.533-19.2-19.2-19.2h-4.267v-6.4h-16v50.133h16
		L154.667,416L154.667,416z"/>
</g>
<path style="fill:#FF7058;" d="M22.4,114.133L22.4,114.133c0-26.667,21.333-48,48-48h74.667c26.667,0,48,21.333,48,48l0,0
	c0,26.667-21.333,48-48,48H70.4C43.733,162.133,22.4,140.8,22.4,114.133z"/>
<g>
	<path style="fill:#40596B;" d="M61.867,96H57.6c-10.667,0-19.2,8.533-19.2,19.2s8.533,19.2,19.2,19.2h4.267v6.4h16V89.6h-16V96z"/>
	<path style="fill:#40596B;" d="M154.667,133.333h4.267c10.667,0,19.2-8.533,19.2-19.2S169.6,96,158.933,96h-4.267v-6.4h-16v50.133
		h16V133.333z"/>
</g>
<rect x="413.867" y="183.467" style="fill:#C5CAD6;" width="32" height="23.467"/>
<g>
	<path style="fill:#F2F2F2;" d="M486.4,85.333h-26.667V12.8c0-7.467,6.4-12.8,12.8-12.8l0,0c7.467,0,12.8,6.4,12.8,12.8v72.533
		H486.4z"/>
	<path style="fill:#F2F2F2;" d="M401.067,85.333H374.4V12.8c0-7.467,6.4-12.8,12.8-12.8l0,0c7.467,0,12.8,6.4,12.8,12.8v72.533
		H401.067z"/>
</g>
<polygon style="fill:#ACB3BA;" points="466.133,190.933 394.667,190.933 348.8,145.067 348.8,85.333 512,85.333 512,145.067 "/>
<g>
</g>
<g>
</g>
<g>
</g>
<g>
</g>
<g>
</g>
<g>
</g>
<g>
</g>
<g>
</g>
<g>
</g>
<g>
</g>
<g>
</g>
<g>
</g>
<g>
</g>
<g>
</g>
<g>
</g>
</svg>
