<?xml version="1.0" ?><!DOCTYPE svg  PUBLIC '-//W3C//DTD SVG 1.0//EN'  'http://www.w3.org/TR/2001/REC-SVG-20010904/DTD/svg10.dtd'><svg enable-background="new 0 0 72 72" height="72px" id="Layer_1" version="1.0" viewBox="0 0 72 72" width="72px" xml:space="preserve" xmlns="http://www.w3.org/2000/svg" xmlns:xlink="http://www.w3.org/1999/xlink"><g><path d="M32.694,32.925h-0.093c0.03,0.008,0.062,0.017,0.092,0.025C32.693,32.94,32.694,32.933,32.694,32.925" fill="#F26C21"/><path d="M35.804,14.553c-11.331,0-20.547,8.938-21.048,20.146c0.523-0.344,1.045-0.688,1.574-1.049   c2.429-1.655,5.108-3.081,8.111-2.971c2.7,0.102,5.204,1.406,7.792,2.146c0.84-4.655,1.229-4.933,6.146-4.958   c0.8-0.004,1.677,0.066,2.401-0.185v-1.379h4.081v3.601c0.033,0.067,0.084,0.16,0.14,0.275h5.732c0.652,0,1.184,0.53,1.184,1.185   c0,0.653-0.53,1.183-1.184,1.183H44.87v3.291c1.503,0,2.89-0.046,4.253,0.015h1.685c0.654,0,1.186,0.53,1.186,1.186   c0,0.651-0.53,1.183-1.186,1.183h-5.794c-0.057,0.063-0.108,0.131-0.151,0.213v3.743h-4.081v-1.271   c-0.99-0.26-2.006-0.452-3.011-0.476c-4.253-0.097-4.921-0.629-5.412-4.807c-0.015-0.109-0.155-0.202-0.312-0.396h0.53   c0.002-0.019,0.002-0.038,0.003-0.056c-0.179,0.05-0.377,0.062-0.594,0.007c-3.631-0.927-6.886-2.964-10.646-1.595   c-2.396,0.872-4.415,2.498-6.537,3.926c0.944,10.777,9.979,19.234,21.002,19.234c11.65,0,21.098-9.445,21.098-21.097   C56.9,23.997,47.454,14.553,35.804,14.553" fill="#F26C21"/><path d="M31.984,35.178c0.217,0.057,0.415,0.044,0.594-0.007c-0.001,0.019-0.002,0.038-0.003,0.057h-0.531   c0.158,0.194,0.301,0.287,0.313,0.396c0.491,4.178,1.159,4.71,5.413,4.806c1.004,0.023,2.019,0.217,3.009,0.478v1.27h4.081v-3.743   c0.043-0.083,0.096-0.15,0.152-0.213h5.795c0.653,0,1.185-0.53,1.185-1.185c0-0.653-0.53-1.185-1.185-1.185h-1.686   c-1.362-0.06-2.75-0.014-4.254-0.014v-3.291h5.864c0.653,0,1.184-0.53,1.184-1.184c0-0.654-0.529-1.184-1.184-1.184h-5.733   c-0.056-0.115-0.104-0.208-0.14-0.275v-3.601h-4.081v1.378c-0.724,0.252-1.601,0.182-2.401,0.186   c-4.913,0.024-5.305,0.303-6.145,4.957c-2.589-0.739-5.092-2.043-7.793-2.145c-3.003-0.111-5.683,1.315-8.11,2.971   c-0.528,0.36-1.051,0.705-1.573,1.048c-0.015,0.317-0.049,0.63-0.049,0.949c0,0.63,0.04,1.247,0.095,1.862   c2.122-1.428,4.142-3.055,6.537-3.926C25.101,32.215,28.354,34.251,31.984,35.178 M32.694,32.925c0,0.008-0.001,0.016-0.001,0.025   c-0.03-0.009-0.062-0.018-0.092-0.025H32.694z" fill="#FFFFFF"/></g></svg>