<?xml version="1.0" encoding="iso-8859-1"?>
<!-- Generator: Adobe Illustrator 19.0.0, SVG Export Plug-In . SVG Version: 6.00 Build 0)  -->
<svg version="1.1" id="Capa_1" xmlns="http://www.w3.org/2000/svg" xmlns:xlink="http://www.w3.org/1999/xlink" x="0px" y="0px"
	 viewBox="0 0 464 464" style="enable-background:new 0 0 464 464;" xml:space="preserve">
<g>
	<path style="fill:#4398D1;" d="M408,0h-56l-0.912,32h57.824L408,0z"/>
	<path style="fill:#4398D1;" d="M351.088,32L344,280h72l-7.088-248H351.088z"/>
</g>
<g>
	<path style="fill:#3E8CC7;" d="M409.368,48l-0.456-16h-57.824l-0.456,16H409.368z"/>
	<path style="fill:#3E8CC7;" d="M344.872,249.368L344,280h72l-2.04-71.272L344.872,249.368z"/>
</g>
<path style="fill:#4398D1;" d="M304,288v-80l-144,80v-80L16,288v176h144h144h144V208L304,288z"/>
<g>
	<path style="fill:#FDB62F;" d="M56,320h64v32H56V320z"/>
	<path style="fill:#FDB62F;" d="M200,320h64v32h-64V320z"/>
	<path style="fill:#FDB62F;" d="M344,320h64v32h-64V320z"/>
</g>
<g>
	<path style="fill:#87CED9;" d="M168,408h64v56h-64V408z"/>
	<path style="fill:#87CED9;" d="M232,408h64v56h-64V408z"/>
</g>
<g>
	<path style="fill:#78C3CF;" d="M232,460v4h64v-56h-12L232,460z"/>
	<path style="fill:#78C3CF;" d="M168,460v4h64v-56h-12L168,460z"/>
</g>
<path style="fill:#4398D1;" d="M224,408h16v56h-16V408z"/>
<g>
	<path style="fill:#F7A72E;" d="M76,352h44v-32h-12L76,352z"/>
	<path style="fill:#F7A72E;" d="M220,352h44v-32h-12L220,352z"/>
	<path style="fill:#F7A72E;" d="M364,352h44v-32h-12L364,352z"/>
</g>
<g>
</g>
<g>
</g>
<g>
</g>
<g>
</g>
<g>
</g>
<g>
</g>
<g>
</g>
<g>
</g>
<g>
</g>
<g>
</g>
<g>
</g>
<g>
</g>
<g>
</g>
<g>
</g>
<g>
</g>
</svg>
