<?xml version="1.0" encoding="iso-8859-1"?>
<!-- Generator: Adobe Illustrator 19.0.0, SVG Export Plug-In . SVG Version: 6.00 Build 0)  -->
<svg version="1.1" id="Layer_1" xmlns="http://www.w3.org/2000/svg" xmlns:xlink="http://www.w3.org/1999/xlink" x="0px" y="0px"
	 viewBox="0 0 512 512" style="enable-background:new 0 0 512 512;" xml:space="preserve">
<rect x="183.976" y="357.984" style="fill:#415E72;" width="144.08" height="108.336"/>
<polygon style="fill:#333333;" points="183.976,376.72 269.688,376.72 183.976,434.624 "/>
<g>
	<path style="fill:#C7D5DD;" d="M369.52,487.28H142.496c-8.824-0.024-15.976-7.176-16-16l0,0c0.024-8.824,7.176-15.976,16-16
		h227.008c8.824,0.024,15.976,7.176,16,16l0,0C385.504,480.112,378.352,487.272,369.52,487.28z"/>
	<path style="fill:#C7D5DD;" d="M480,376.72H32c-17.648-0.056-31.944-14.352-32-32v-288c0.056-17.648,14.352-31.944,32-32h448
		c17.648,0.056,31.944,14.352,32,32v288C511.944,362.368,497.648,376.664,480,376.72z"/>
</g>
<rect x="21.968" y="46.656" style="fill:#FFFFFF;" width="468.08" height="308.128"/>
<polygon style="fill:#2C3E50;" points="140.28,199.56 133.968,194.64 222.368,81.296 342.584,154.904 338.416,161.736 
	224.288,91.84 "/>
<circle style="fill:#415E72;" cx="224.88" cy="94.64" r="24.688"/>
<circle style="fill:#517A91;" cx="224.88" cy="94.64" r="12.864"/>
<rect x="87.293" y="166.15" transform="matrix(0.9823 -0.1871 0.1871 0.9823 -45.525 52.5941)" style="fill:#E04F5F;" width="337.106" height="202.616"/>
<g>
	<path style="fill:#FFFFFF;" d="M152.28,308.424c5.656,1.872,11.688,2.288,17.552,1.216c8.096-1.536,11.88-6.184,10.816-11.832
		c-1-5.232-5.072-7.64-14.496-9.144c-12.16-1.92-20.592-6.592-22.488-16.528c-2.16-11.28,5.64-21.688,20.608-24.536
		c5.696-1.256,11.616-1.144,17.264,0.312l-1.144,10.736c-4.664-1.392-9.592-1.616-14.36-0.656c-8,1.52-10.664,6.496-9.896,10.496
		c1.016,5.328,5.488,7.032,15.4,8.848c12.848,2.224,19.848,7.2,21.752,17.112c2.112,11.08-4.464,22.312-22.296,25.712
		c-6.464,1.288-13.144,1.032-19.488-0.752L152.28,308.424z"/>
	<path style="fill:#FFFFFF;" d="M218.496,289.744l-2.208,20.72l-13.016,2.488l8.968-73.328l16.096-3.072L264,301.368l-13.536,2.576
		l-9.984-18.4L218.496,289.744z M236.472,276.44l-8.688-16c-2.136-3.936-4.168-8.448-5.944-12.248h-0.2
		c-0.264,4.192-0.376,9.216-0.8,13.536l-2.088,18.048L236.472,276.44z"/>
	<path style="fill:#FFFFFF;" d="M260.392,230.4L273,228l11.2,58.536l28.4-5.416l2.016,10.56l-41.008,7.824L260.392,230.4z"/>
	<path style="fill:#FFFFFF;" d="M356.896,251.872l-26.048,4.968l3.872,20.304l29.12-5.552l1.976,10.352l-41.736,8L310.912,220.8
		l40.184-7.656l1.976,10.344l-27.584,5.264l3.408,17.84l26.04-4.968L356.896,251.872z"/>
</g>
<g>
</g>
<g>
</g>
<g>
</g>
<g>
</g>
<g>
</g>
<g>
</g>
<g>
</g>
<g>
</g>
<g>
</g>
<g>
</g>
<g>
</g>
<g>
</g>
<g>
</g>
<g>
</g>
<g>
</g>
</svg>
