<?xml version="1.0" encoding="iso-8859-1"?>
<!-- Generator: Adobe Illustrator 19.0.0, SVG Export Plug-In . SVG Version: 6.00 Build 0)  -->
<svg version="1.1" id="Capa_1" xmlns="http://www.w3.org/2000/svg" xmlns:xlink="http://www.w3.org/1999/xlink" x="0px" y="0px"
	 viewBox="0 0 512 512" style="enable-background:new 0 0 512 512;" xml:space="preserve">
<path style="fill:#FFD255;" d="M512,256c0,23.103-3.062,45.495-8.798,66.779c-0.742,2.748-1.526,5.475-2.361,8.192
	c-4.911,16.06-11.358,31.451-19.184,45.996c-1.609,3.02-3.291,6.008-5.026,8.955c-1.442,2.445-2.926,4.869-4.451,7.262
	c-7.168,11.274-15.203,21.943-24.001,31.932c-4.347,4.942-8.882,9.718-13.605,14.326c-0.627,0.606-1.264,1.212-1.902,1.818
	c-11.682,11.139-24.409,21.191-38.024,29.978c-2.403,1.546-4.838,3.062-7.293,4.535c-6.499,3.897-13.187,7.513-20.052,10.825
	c-8.997,4.357-18.286,8.192-27.826,11.483c-0.815,0.282-1.63,0.554-2.445,0.825c-8.537,2.842-17.272,5.256-26.175,7.199h-0.01
	C293.177,509.962,274.829,512,256,512c-8.986,0-17.868-0.46-26.614-1.369c-47.47-4.901-91.094-22.768-127.258-50.019
	c-4.89-3.688-9.644-7.544-14.252-11.567c-13.751-11.975-26.216-25.412-37.146-40.051c-1.996-2.664-3.929-5.371-5.82-8.119
	c-10.679-15.527-19.675-32.277-26.76-50.009c-5.047-12.643-9.112-25.788-12.11-39.34C2.09,293.648,0,275.069,0,256
	C0,114.615,114.615,0,256,0c137.906,0,250.347,109.046,255.791,245.614C511.927,249.062,512,252.52,512,256z"/>
<path style="fill:#FFDC83;" d="M459.585,203.586c0,46.958-15.896,90.201-42.604,124.644c-37.243,48.03-95.503,78.941-160.982,78.941
	S132.261,376.259,95.017,328.23c-26.707-34.443-42.604-77.686-42.604-124.644C52.415,91.149,143.563,0.001,256,0.001
	S459.585,91.149,459.585,203.586z"/>
<path style="fill:#F74C83;" d="M146.102,97.696c-47.741-31.295-93.232,34.084-82.18,87.191s63.064,87.201,116.171,76.149
	c53.108-11.052,87.201-63.063,76.149-116.171C245.189,91.758,177.396,49.954,146.102,97.696z"/>
<path style="fill:#E21C59;" d="M180.093,261.036C126.981,272.089,74.975,238,63.923,184.887
	c-9.106-43.759,20.159-95.834,57.455-95.322c-15.43,9.726-22.942,49.837-15.303,86.55
	C117.127,229.228,150.27,267.243,180.093,261.036z"/>
<path style="fill:#4BC2E2;" d="M512,256c0,23.103-3.062,45.495-8.798,66.779c-0.742,2.748-1.526,5.475-2.361,8.192
	c-7.544-1.776-14.702-5.622-20.585-11.504c-7.022-7.022-11.128-15.841-12.309-24.973c-1.682-12.863,2.424-26.331,12.309-36.216
	c8.683-8.683,20.146-12.904,31.535-12.664C511.927,249.062,512,252.52,512,256z"/>
<path style="fill:#72DAFE;" d="M503.202,322.779c-6.04,22.413-15.047,43.614-26.572,63.143c-1.442,2.445-2.926,4.869-4.451,7.262
	c-11.933,0.721-24.085-3.479-33.196-12.591c-7.022-7.022-11.128-15.841-12.309-24.973c-1.682-12.863,2.424-26.331,12.309-36.216
	c16.896-16.896,44.283-16.896,61.179,0C501.248,320.491,502.262,321.609,503.202,322.779z"/>
<path style="fill:#4BC2E2;" d="M481.656,376.968c-1.609,3.02-3.291,6.008-5.026,8.955c-1.442,2.445-2.926,4.869-4.451,7.262
	c-11.922,0.721-24.085-3.479-33.207-12.591c-16.896-16.896-16.896-44.293,0.01-61.189c2.779-2.79,5.862-5.11,9.122-6.98
	c-9.456,16.53-7.137,37.951,6.98,52.067C462.514,371.921,471.959,376.08,481.656,376.968z"/>
<circle style="fill:#9BE5F9;" cx="484.958" cy="334.608" r="10.627"/>
<ellipse transform="matrix(-0.7071 -0.7071 0.7071 -0.7071 478.4209 425.5428)" style="fill:#50B566;" cx="327.343" cy="113.687" rx="93.1" ry="27.931"/>
<g>
	
		<ellipse transform="matrix(-0.7071 0.7071 -0.7071 -0.7071 751.2911 -83.8187)" style="fill:#63D38E;" cx="393.005" cy="113.688" rx="93.1" ry="27.931"/>
	<path style="fill:#63D38E;" d="M388.109,93.102c0,51.423-12.506,93.102-27.932,93.102c-15.427,0-27.932-41.68-27.932-93.102
		C332.243,41.68,344.748,0,360.175,0S388.109,41.68,388.109,93.102z"/>
</g>
<path style="fill:#50B566;" d="M360.175,0v186.205c-15.427,0-27.932-41.68-27.932-93.102S344.748,0,360.175,0z"/>
<path style="fill:#F74C83;" d="M414.758,397.5c-35.541,10.687-73.604,10.682-109.146,0.005
	c-25.264-27.719-50.107-51.799-68.361-76.839c-17.468-23.949-28.903-48.771-28.903-78.481c0-83.849,67.974-124.393,151.823-124.393
	C444.026,117.798,512,158.342,512,242.191c0,28.805-10.753,53.021-27.331,76.298C466.29,344.311,440.747,368.98,414.758,397.5z"/>
<g>
	<path style="fill:#E21C59;" d="M320.5,401.317c0.205,0.044,0.409,0.087,0.613,0.131c30.954,6.507,63.223,5.2,93.645-3.947
		c25.99-28.521,51.531-53.189,69.911-79.01c-39.658,27.282-76.384,37.63-108.311,38.801
		c-64.997,2.385-119.433-49.004-119.84-114.042c-0.002-0.352-0.003-0.704-0.003-1.057C256.51,158.339,302.929,117.8,360.178,117.8
		c-83.854-0.005-151.828,40.539-151.823,124.393c-0.005,60.745,47.81,101.066,97.248,155.315c0.005-0.005,0.01,0,0.01,0
		c1.536,0.461,3.077,0.895,4.623,1.317c0.272,0.074,0.543,0.147,0.815,0.22C314.184,399.882,317.334,400.64,320.5,401.317z"/>
	<circle style="fill:#E21C59;" cx="270.618" cy="173.087" r="15.705"/>
</g>
<circle style="fill:#FFF5C5;" cx="270.618" cy="173.087" r="5.727"/>
<circle style="fill:#E21C59;" cx="394.543" cy="173.087" r="15.705"/>
<circle style="fill:#FFF5C5;" cx="394.543" cy="173.087" r="5.727"/>
<circle style="fill:#E21C59;" cx="332.581" cy="199.816" r="15.705"/>
<circle style="fill:#FFF5C5;" cx="332.581" cy="199.816" r="5.727"/>
<circle style="fill:#E21C59;" cx="456.505" cy="199.816" r="15.705"/>
<circle style="fill:#FFF5C5;" cx="456.505" cy="199.816" r="5.727"/>
<circle style="fill:#E21C59;" cx="270.618" cy="239.052" r="15.705"/>
<circle style="fill:#FFF5C5;" cx="270.618" cy="239.052" r="5.727"/>
<circle style="fill:#E21C59;" cx="394.543" cy="239.052" r="15.705"/>
<circle style="fill:#FFF5C5;" cx="394.543" cy="239.052" r="5.727"/>
<circle style="fill:#E21C59;" cx="332.581" cy="265.78" r="15.705"/>
<circle style="fill:#FFF5C5;" cx="332.581" cy="265.78" r="5.727"/>
<circle style="fill:#E21C59;" cx="456.505" cy="265.78" r="15.705"/>
<circle style="fill:#FFF5C5;" cx="456.505" cy="265.78" r="5.727"/>
<circle style="fill:#E21C59;" cx="270.618" cy="299.719" r="15.705"/>
<circle style="fill:#FFF5C5;" cx="270.618" cy="299.719" r="5.727"/>
<circle style="fill:#E21C59;" cx="394.543" cy="299.719" r="15.705"/>
<circle style="fill:#FFF5C5;" cx="394.543" cy="299.719" r="5.727"/>
<circle style="fill:#E21C59;" cx="440.999" cy="332.999" r="15.705"/>
<circle style="fill:#FFF5C5;" cx="440.999" cy="332.999" r="5.727"/>
<circle style="fill:#E21C59;" cx="332.581" cy="326.447" r="15.705"/>
<circle style="fill:#FFF5C5;" cx="332.581" cy="326.447" r="5.727"/>
<circle style="fill:#E21C59;" cx="393.676" cy="360.385" r="15.705"/>
<circle style="fill:#FFF5C5;" cx="393.676" cy="360.385" r="5.727"/>
<path style="fill:#F18DD5;" d="M341.316,350.866c0,73.477-46.634,136.056-111.929,159.765
	c-47.47-4.901-91.094-22.768-127.258-50.019c-4.89-3.688-9.644-7.544-14.252-11.567c-13.751-11.975-26.216-25.412-37.146-40.051
	c-1.996-2.664-3.929-5.371-5.82-8.119c-10.679-15.527-19.675-32.277-26.76-50.009c-5.047-12.643-9.112-25.788-12.11-39.34
	c0.763-3.208,1.62-6.384,2.56-9.529c20.982-70.029,85.932-121.062,162.785-121.062C265.237,180.935,341.316,257.014,341.316,350.866
	z"/>
<path style="fill:#E25FBB;" d="M73.373,302.007c-2.8,15.475-4.305,31.869-4.305,48.859c0,18.369,1.755,36.059,5.005,52.621
	c3.218,16.426,7.899,31.754,13.803,45.558c-13.751-11.975-26.216-25.412-37.146-40.051c-1.996-2.664-3.929-5.371-5.82-8.119
	c-10.679-15.527-19.675-32.277-26.76-50.009c-5.047-12.643-9.112-25.788-12.11-39.34c0.763-3.208,1.62-6.384,2.56-9.519
	c20.982-70.029,85.932-121.072,162.785-121.072C125.116,180.935,86.006,231.978,73.373,302.007z"/>
<path style="fill:#FFD255;" d="M349.518,409.004l-4.044,35.788l-0.136,1.233l-1.066,9.498l-4.796,42.559
	C313.313,507.099,285.226,512,256,512c-8.986,0-17.868-0.46-26.614-1.369c-47.47-4.901-91.094-22.768-127.258-50.019
	c-4.89-3.688-9.644-7.544-14.252-11.567c-13.751-11.975-26.216-25.412-37.146-40.051c-1.996-2.664-3.929-5.371-5.82-8.119
	l121.469-19.132L349.518,409.004z"/>
<g>
	<polygon style="fill:#F2973D;" points="171.383,382.484 167.761,381.948 168.507,381.739 	"/>
	<path style="fill:#F2973D;" d="M349.518,409.004l-4.044,35.788l-0.136,1.233l-1.066,9.498H123.758
		c-7.795,0-15.13,1.829-21.629,5.089c-22.141-16.677-41.493-36.864-57.219-59.737l121.469-19.132L349.518,409.004z"/>
</g>
<path style="fill:#FFD255;" d="M372.078,388.901c0,11.097-8.997,20.093-20.093,20.093H50.73c-1.996-2.664-3.929-5.371-5.82-8.119
	c-10.679-15.527-19.675-32.277-26.76-50.009h315.894c10.501,0,20.01,4.263,26.896,11.139
	C367.825,368.891,372.078,378.399,372.078,388.901z"/>
<path style="fill:#72DAFE;" d="M387.354,475.773c-6.499,3.897-13.187,7.513-20.052,10.825c-8.997,4.357-18.286,8.192-27.826,11.483
	c-9.31,3.208-18.86,5.893-28.62,8.025c-14.117-16.99-13.197-42.256,2.738-58.18c6.74-6.74,15.151-10.794,23.897-12.152
	c13.176-2.058,27.126,1.996,37.282,12.152C382.527,455.68,386.717,465.638,387.354,475.773z"/>
<path style="fill:#4BC2E2;" d="M337.032,498.907c-8.537,2.842-17.272,5.256-26.175,7.199h-0.01
	c-14.106-17-13.187-42.256,2.748-58.18c2.779-2.79,5.862-5.11,9.122-6.98c-9.456,16.53-7.137,37.951,6.98,52.067
	C331.964,495.282,334.43,497.256,337.032,498.907z"/>
<circle style="fill:#EF84D1;" cx="359.57" cy="463.13" r="10.627"/>
<circle style="fill:#72DAFE;" cx="371.106" cy="370.542" r="43.269"/>
<path style="fill:#4BC2E2;" d="M356.613,385.028c-14.109-14.109-16.427-35.535-6.973-52.06c-3.264,1.868-6.341,4.186-9.129,6.973
	c-16.897,16.897-16.897,44.292,0,61.189c16.897,16.897,44.292,16.897,61.189,0c2.788-2.788,5.105-5.865,6.973-9.129
	C392.148,401.455,370.722,399.137,356.613,385.028z"/>
<circle style="fill:#9BE5F9;" cx="386.487" cy="355.15" r="10.627"/>
<path style="fill:#72DAFE;" d="M472.179,393.185c-10.721,16.854-23.364,32.371-37.606,46.258c0.021,0.637,0.042,1.264,0.042,1.891
	c-0.648-0.01-1.296-0.031-1.943-0.073c-10.25-0.564-20.344-4.765-28.17-12.601c-9.686-9.686-13.824-22.81-12.413-35.443
	c1.055-9.404,5.193-18.526,12.413-25.746c6.29-6.301,14.043-10.25,22.173-11.849c13.678-2.706,28.411,1.254,39.006,11.849
	c5.329,5.329,8.976,11.703,10.951,18.453C475.188,388.368,473.704,390.792,472.179,393.185z"/>
<path style="fill:#4BC2E2;" d="M448.178,425.117c-4.347,4.942-8.882,9.718-13.605,14.326c-0.627,0.606-1.264,1.212-1.902,1.818
	c-10.25-0.564-20.344-4.765-28.181-12.601c-16.896-16.896-16.896-44.293,0.01-61.189c2.779-2.79,5.862-5.11,9.122-6.98
	c-9.456,16.53-7.137,37.951,6.98,52.067C428.283,420.237,438.136,424.427,448.178,425.117z"/>
<circle style="fill:#9BE5F9;" cx="450.476" cy="382.673" r="10.627"/>
<path style="fill:#72DAFE;" d="M434.615,441.334c-0.648-0.01-1.296-0.031-1.943-0.073c-13.74,13.103-28.933,24.701-45.317,34.513
	c-6.499,3.897-13.187,7.513-20.052,10.825c-5.778-2.372-11.18-5.914-15.872-10.595c-10.982-10.982-15.632-25.913-13.939-40.229
	c1.254-10.48,5.893-20.637,13.939-28.682c11.097-11.097,26.206-15.715,40.657-13.876c10.334,1.317,20.323,5.935,28.254,13.876
	c8.976,8.986,13.72,20.595,14.232,32.35C434.594,440.08,434.615,440.707,434.615,441.334z"/>
<path style="fill:#4BC2E2;" d="M394.647,471.238c-2.403,1.546-4.838,3.062-7.293,4.535c-6.499,3.897-13.187,7.513-20.052,10.825
	c-5.778-2.372-11.18-5.914-15.872-10.595c-19.028-19.028-19.028-49.883,0-68.911c3.135-3.135,6.604-5.747,10.282-7.858
	c-10.647,18.61-8.035,42.747,7.858,58.629C376.686,464.99,385.452,469.441,394.647,471.238z"/>
<circle style="fill:#9BE5F9;" cx="403.216" cy="424.218" r="11.968"/>
<path style="fill:#63D38E;" d="M70.002,36.853h21.964v21.972c0,37.494-30.405,67.9-67.9,67.9H2.094V104.76
	C2.094,67.258,32.499,36.853,70.002,36.853z"/>
<path style="fill:#50B566;" d="M91.966,36.853v21.972c0,37.494-30.405,67.9-67.9,67.9H2.102L91.966,36.853z"/>
<path style="fill:none;stroke:#913E21;stroke-width:10;stroke-linecap:round;stroke-miterlimit:10;" d="M146.102,97.696
	c0,0-28.552-81.258-86.021-92.47"/>
<g>
</g>
<g>
</g>
<g>
</g>
<g>
</g>
<g>
</g>
<g>
</g>
<g>
</g>
<g>
</g>
<g>
</g>
<g>
</g>
<g>
</g>
<g>
</g>
<g>
</g>
<g>
</g>
<g>
</g>
</svg>
