<?xml version="1.0" encoding="iso-8859-1"?>
<!-- Generator: Adobe Illustrator 19.0.0, SVG Export Plug-In . SVG Version: 6.00 Build 0)  -->
<svg version="1.1" id="Layer_1" xmlns="http://www.w3.org/2000/svg" xmlns:xlink="http://www.w3.org/1999/xlink" x="0px" y="0px"
	 viewBox="0 0 512 512" style="enable-background:new 0 0 512 512;" xml:space="preserve">
<g>
	<rect x="383.98" y="96.89" style="fill:#CCD1D9;" width="21.344" height="97.45"/>
	<rect x="106.67" y="96.89" style="fill:#CCD1D9;" width="21.312" height="97.45"/>
</g>
<polygon style="fill:#FC6E51;" points="421.859,85.344 349.078,85.344 330.516,85.344 325.203,85.344 295.828,144.219 223.891,0 
	181.297,85.344 90.141,85.344 90.141,106.656 185.516,106.656 185.516,106.656 194.516,106.656 223.891,47.781 295.828,192 
	338.422,106.656 421.859,106.656 "/>
<path style="fill:#434A54;" d="M426.672,202.656c0-5.875-4.781-10.656-10.688-10.656h-42.625c-5.906,0-10.688,4.781-10.688,10.656
	V308c0,5.891,4.781,10.656,10.688,10.656h42.625c5.906,0,10.688-4.766,10.688-10.656V202.656z"/>
<path style="fill:#E6E9ED;" d="M426.672,96c0,17.672-14.344,32-32,32c-17.688,0-32-14.328-32-32s14.312-32,32-32
	C412.328,64,426.672,78.328,426.672,96z"/>
<path style="fill:#434A54;" d="M149.328,202.656c0-5.875-4.781-10.656-10.656-10.656H96.016c-5.875,0-10.656,4.781-10.656,10.656
	V308c0,5.891,4.781,10.656,10.656,10.656h42.656c5.875,0,10.656-4.766,10.656-10.656V202.656z"/>
<path style="fill:#FFCE54;" d="M469.328,266.656c0-5.875-4.781-10.656-10.656-10.656H53.328c-5.875,0-10.656,4.781-10.656,10.656
	v234.688c0,5.875,4.781,10.656,10.656,10.656h405.344c5.875,0,10.656-4.781,10.656-10.656V266.656z"/>
<path style="fill:#F5F7FA;" d="M139.141,437.344c5.406-59.719,55.75-106.688,116.844-106.688
	c61.125,0,111.469,46.969,116.875,106.688H139.141z"/>
<path style="fill:#F6BB42;" d="M255.984,320c-70.688,0-128,57.312-128,128h256C383.984,377.312,326.703,320,255.984,320z
	 M180.578,372.578c20.125-20.141,46.938-31.234,75.406-31.234c28.5,0,55.281,11.094,75.438,31.234
	c15.031,15.016,25,33.734,29.125,54.078H151.453C155.547,406.312,165.547,387.594,180.578,372.578z"/>
<path style="fill:#434A54;" d="M255.984,384c-5.875,0-10.656,4.781-10.656,10.656v32h21.344v-32
	C266.672,388.781,261.891,384,255.984,384z"/>
<path style="fill:#E6E9ED;" d="M149.328,96c0,17.672-14.312,32-32,32c-17.656,0-32-14.328-32-32s14.344-32,32-32
	C135.016,64,149.328,78.328,149.328,96z"/>
<g>
</g>
<g>
</g>
<g>
</g>
<g>
</g>
<g>
</g>
<g>
</g>
<g>
</g>
<g>
</g>
<g>
</g>
<g>
</g>
<g>
</g>
<g>
</g>
<g>
</g>
<g>
</g>
<g>
</g>
</svg>
