<?xml version="1.0" ?><!DOCTYPE svg  PUBLIC '-//W3C//DTD SVG 1.1//EN'  'http://www.w3.org/Graphics/SVG/1.1/DTD/svg11.dtd'><svg enable-background="new 0 0 300 300" height="300px" id="Layer_1" version="1.1" viewBox="0 0 300 300" width="300px" xml:space="preserve" xmlns="http://www.w3.org/2000/svg" xmlns:xlink="http://www.w3.org/1999/xlink"><g><circle cx="96.027" cy="133.667" fill="none" r="27.167" stroke="#000000" stroke-linecap="round" stroke-linejoin="round" stroke-miterlimit="10" stroke-width="6"/><path d="   M257.425,207.235c0.471,1.485,0.895,2.992,1.27,4.516" fill="none" stroke="#000000" stroke-linecap="round" stroke-linejoin="round" stroke-miterlimit="10" stroke-width="6"/><path d="   M118.435,177.496c-6.823-2.923-14.34-4.464-22.411-4.464c-26.64,0-48.988,18.344-55.088,43.094c-0.62,2.48-1.339,4.132-1.339,7.862   S41.987,228,44.268,230H102" fill="none" stroke="#000000" stroke-linecap="round" stroke-linejoin="round" stroke-miterlimit="10" stroke-width="6"/><g><path d="    M260.37,220.44c0.021,0.394,0.032,1.046,0.033,1.458c0,3.742-3.045,6.102-5.938,8.102H122.548c-2.906-2-5.951-3.35-5.951-8.102    c0-4.753,0.917-6.925,1.708-10.084c7.772-31.536,36.25-55.118,70.195-55.118c28.854,0,53.759,17.009,65.353,41.488" fill="none" stroke="#000000" stroke-linecap="round" stroke-linejoin="round" stroke-miterlimit="10" stroke-width="6"/><path d="    M116.63,220.44c-0.021,0.394-0.032,1.046-0.033,1.458c0,3.742,3.045,6.102,5.938,8.102h131.917c2.906-2,5.951-3.35,5.951-8.102    c0-4.753-0.917-6.925-1.708-10.084c-7.772-31.536-36.25-55.118-70.195-55.118c-28.854,0-53.759,17.009-65.353,41.488" fill="none" stroke="#000000" stroke-linecap="round" stroke-linejoin="round" stroke-miterlimit="10" stroke-width="6"/><circle cx="188.5" cy="105.116" fill="none" r="34.616" stroke="#000000" stroke-linecap="round" stroke-linejoin="round" stroke-miterlimit="10" stroke-width="6"/></g></g></svg>