<?xml version="1.0" encoding="iso-8859-1"?>
<!-- Generator: Adobe Illustrator 19.0.0, SVG Export Plug-In . SVG Version: 6.00 Build 0)  -->
<svg version="1.1" id="Capa_1" xmlns="http://www.w3.org/2000/svg" xmlns:xlink="http://www.w3.org/1999/xlink" x="0px" y="0px"
	 viewBox="0 0 512 512" style="enable-background:new 0 0 512 512;" xml:space="preserve">
<circle style="fill:#FC5B6F;" cx="256" cy="256" r="256"/>
<path style="fill:#FAC149;" d="M359.348,230.103h25.806c35.914,0,67.479,18.9,85.327,47.262l37.002-36.068
	c1.768-1.724,2.979-3.705,3.702-5.783c-0.333-4.202-0.763-8.376-1.296-12.519c-2.142-3.639-5.826-6.424-10.668-7.127
	l-151.066-21.951c-4.855-0.706-9.053-3.755-11.225-8.155l-67.56-136.89c-5.469-11.08-21.269-11.08-26.737,0l-67.559,136.89
	c-2.171,4.4-6.369,7.45-11.225,8.155L12.781,215.868c-4.842,0.704-8.526,3.488-10.668,7.127c-0.533,4.142-0.963,8.317-1.296,12.519
	c0.723,2.078,1.934,4.059,3.702,5.783l37.002,36.068c17.848-28.362,49.413-47.262,85.327-47.262h25.806
	c41.331,0,74.956,33.626,74.956,74.957v25.806c0,55.561-45.201,100.763-100.762,100.763c-7.014,0-13.861-0.725-20.475-2.096
	l-5.203,30.335c20.881,15.883,44.273,28.627,69.48,37.539l78.413-41.224c4.344-2.284,9.532-2.284,13.875,0l78.413,41.224
	c25.207-8.912,48.6-21.656,69.48-37.539l-5.203-30.335c-6.614,1.371-13.461,2.096-20.474,2.096
	c-55.561,0-100.763-45.202-100.763-100.763V305.06C284.391,263.729,318.016,230.103,359.348,230.103z"/>
<g>
	<path style="fill:#F8A748;" d="M227.102,275.131l-13.332-13.386c8.701,12.242,13.839,27.185,13.839,43.314v25.806
		c0,55.561-45.201,100.763-100.762,100.763c-7.014,0-13.861-0.725-20.475-2.096l-5.203,30.335
		c20.881,15.883,44.273,28.627,69.48,37.539l61.911-32.549l16.057-126.63C251.563,315.003,243.622,291.719,227.102,275.131z"/>
	<path style="fill:#F8A748;" d="M41.521,277.365c17.848-28.362,49.413-47.262,85.327-47.262h25.806
		c16.237,0,31.272,5.206,43.56,14.014l-47.769-47.962L12.781,215.868c-4.842,0.704-8.526,3.488-10.668,7.127
		c-0.533,4.142-0.963,8.317-1.296,12.519c0.723,2.078,1.934,4.059,3.702,5.783L41.521,277.365z"/>
</g>
<g>
	<path style="fill:#DDDDDD;" d="M48.263,284.292c-3.991-1.966-5.633-6.793-3.668-10.785l66.466-134.986
		c0.073-0.149,0.152-0.296,0.235-0.44c3.549-6.206,10.196-10.061,17.345-10.061h24.497c4.449,0,8.055,3.606,8.055,8.055
		c0,4.449-3.606,8.055-8.055,8.055h-24.497c-1.325,0-2.56,0.683-3.267,1.795L59.048,280.624
		C57.091,284.6,52.273,286.264,48.263,284.292z"/>
	<path style="fill:#DDDDDD;" d="M452.432,280.361l-66.326-134.7c-0.707-1.112-1.942-1.795-3.267-1.795h-24.496
		c-4.449,0-8.055-3.606-8.055-8.055c0-4.449,3.606-8.055,8.055-8.055h24.496c7.15,0,13.797,3.856,17.346,10.062
		c0.083,0.145,0.161,0.292,0.234,0.441l66.466,134.985c1.965,3.992,0.323,8.82-3.668,10.785
		C459.233,285.99,454.402,284.361,452.432,280.361z"/>
</g>
<path style="fill:#EFEFEF;" d="M385.153,431.629c-55.561,0-100.762-45.202-100.762-100.763V305.06
	c0-41.331,33.625-74.957,74.957-74.957h25.805c55.561,0,100.764,45.202,100.764,100.763
	C485.917,386.427,440.714,431.629,385.153,431.629z"/>
<path style="fill:#DDDDDD;" d="M443.68,407.834c-55.561,0-100.764-45.202-100.764-100.763c0-30.833,13.925-58.47,35.811-76.968
	h-19.38c-41.332,0-74.957,33.626-74.957,74.957v25.806c0,55.561,45.201,100.763,100.762,100.763
	c24.855,0,47.632-9.051,65.222-24.023C448.161,407.752,445.93,407.834,443.68,407.834z"/>
<path style="fill:#EFEFEF;" d="M126.847,431.629c-55.561,0-100.763-45.202-100.763-100.763s45.203-100.763,100.763-100.763h25.805
	c41.332,0,74.957,33.626,74.957,74.957v25.806C227.609,386.427,182.408,431.629,126.847,431.629z"/>
<path style="fill:#DDDDDD;" d="M182.037,407.834c-55.561,0-100.763-45.202-100.763-100.763c0-30.537,13.657-57.941,35.18-76.435
	c-50.696,5.218-90.371,48.177-90.371,100.23c0,55.561,45.203,100.763,100.764,100.763c25.024,0,47.944-9.173,65.583-24.328
	C189.013,407.653,185.546,407.834,182.037,407.834z"/>
<path style="fill:#7D92A8;" d="M294.036,316.096c-3.459,0-6.656-2.246-7.708-5.729c-5.014-16.604-18.955-22.521-30.328-22.521
	c-11.372,0-25.313,5.917-30.327,22.521c-1.287,4.259-5.783,6.672-10.039,5.383c-4.259-1.286-6.669-5.781-5.383-10.039
	c6.233-20.638,24.19-33.974,45.749-33.974c21.56,0,39.517,13.336,45.751,33.974c1.286,4.258-1.123,8.754-5.383,10.039
	C295.591,315.985,294.807,316.096,294.036,316.096z"/>
<path style="fill:#647892;" d="M126.847,262.92c-37.466,0-67.947,30.481-67.947,67.946c0,37.466,30.481,67.946,67.947,67.946
	c37.465,0,67.946-30.481,67.946-67.946V305.06c0-23.236-18.904-42.14-42.14-42.14L126.847,262.92L126.847,262.92z"/>
<path style="fill:#546A82;" d="M81.274,307.071c0-10.608,1.651-20.836,4.705-30.446C69.544,289.038,58.9,308.731,58.9,330.866
	c0,41.928,37.807,74.046,79.385,66.964C104.577,381.515,81.274,346.964,81.274,307.071z"/>
<path style="fill:#7D92A8;" d="M78.443,378.489l103.594-103.594c-7.598-7.402-17.965-11.975-29.384-11.975h-5.05L61.41,349.113
	C64.544,360.34,70.486,370.403,78.443,378.489z"/>
<path style="fill:#647892;" d="M96.567,360.365c-6.268-10.015-10.82-21.203-13.255-33.155l-21.903,21.903
	c0.002,0.01,0.005,0.019,0.008,0.029c3.086,11.036,8.948,21.139,17.025,29.348L96.567,360.365z"/>
<path style="fill:#7D92A8;" d="M194.793,313.728l-83.311,83.311c42.801,9.938,83.311-22.769,83.311-66.173V313.728z"/>
<g>
	<path style="fill:#647892;" d="M111.49,397.04c9.067,2.104,18.118,2.268,26.795,0.79c-6.061-2.934-11.779-6.466-17.092-10.503
		l-9.712,9.712C111.481,397.039,111.487,397.04,111.49,397.04z"/>
	<path style="fill:#647892;" d="M359.348,262.92c-23.236,0-42.14,18.904-42.14,42.14v25.806c0,37.466,30.481,67.946,67.946,67.946
		c37.466,0,67.947-30.481,67.947-67.946s-30.481-67.946-67.947-67.946L359.348,262.92L359.348,262.92z"/>
</g>
<path style="fill:#546A82;" d="M399.03,397.383c-33.222-16.491-56.113-50.776-56.113-90.312c0-15.632,3.585-30.44,9.967-43.655
	c-20.178,3.12-35.676,20.605-35.676,41.644v25.806C317.207,373.746,356.742,406.194,399.03,397.383z"/>
<g>
	<path style="fill:#7D92A8;" d="M453.1,330.866c0-5.422-0.657-10.691-1.863-15.75l-81.834,81.834
		C412.285,407.169,453.1,374.448,453.1,330.866z"/>
	<path style="fill:#7D92A8;" d="M336.518,378.246l96.015-96.015c-8.134-7.926-18.237-13.831-29.503-16.907l-83.42,83.42
		C322.688,360.009,328.593,370.112,336.518,378.246z"/>
</g>
<path id="SVGCleanerId_0" style="fill:#647892;" d="M344.353,324.001l-24.742,24.742c0.005,0.018,0.01,0.036,0.015,0.054
	c3.042,11.104,8.908,21.255,16.892,29.449L356.764,358C350.701,347.694,346.43,336.217,344.353,324.001z"/>
<path style="fill:#647892;" d="M380.702,385.651l-11.299,11.299l0.009,0.002c9.66,2.301,19.764,2.484,29.617,0.431l0,0
	C392.485,394.134,386.349,390.185,380.702,385.651z"/>
<g>
	<path id="SVGCleanerId_0_1_" style="fill:#647892;" d="M344.353,324.001l-24.742,24.742c0.005,0.018,0.01,0.036,0.015,0.054
		c3.042,11.104,8.908,21.255,16.892,29.449L356.764,358C350.701,347.694,346.43,336.217,344.353,324.001z"/>
</g>
<g>
</g>
<g>
</g>
<g>
</g>
<g>
</g>
<g>
</g>
<g>
</g>
<g>
</g>
<g>
</g>
<g>
</g>
<g>
</g>
<g>
</g>
<g>
</g>
<g>
</g>
<g>
</g>
<g>
</g>
</svg>
