<?xml version="1.0" encoding="iso-8859-1"?>
<!-- Generator: Adobe Illustrator 19.0.0, SVG Export Plug-In . SVG Version: 6.00 Build 0)  -->
<svg version="1.1" id="Capa_1" xmlns="http://www.w3.org/2000/svg" xmlns:xlink="http://www.w3.org/1999/xlink" x="0px" y="0px"
	 viewBox="0 0 512.001 512.001" style="enable-background:new 0 0 512.001 512.001;" xml:space="preserve">
<path style="fill:#FEA832;" d="M254.853,488.797c-47.305,35.849-116.037,29.485-159.948-14.426L37.63,417.096
	c-43.911-43.911-50.275-112.643-14.426-159.948c23.76-31.396,60.034-49.002,99.491-47.73c6.151,0.211,13.789-2.333,16.122-10.182
	c5.302-20.153,17.181-37.123,33.941-49.216c35.427-25.667,86.338-20.575,118.793,11.881L350.1,220.45
	c32.456,32.456,37.548,83.366,11.881,118.793c-12.093,16.759-29.063,28.639-49.216,33.941c-7.849,2.333-10.393,9.971-10.182,16.122
	C303.855,428.763,286.249,465.037,254.853,488.797z"/>
<path style="fill:#FE9923;" d="M254.853,488.797c-47.305,35.849-116.037,29.485-159.948-14.426l-28.637-28.637l254.558-254.558
	L350.1,220.45c32.456,32.456,37.548,83.366,11.881,118.793c-12.093,16.759-29.063,28.639-49.216,33.941
	c-7.849,2.333-10.393,9.971-10.182,16.122C303.855,428.763,286.249,465.037,254.853,488.797z"/>
<g>
	
		<rect x="110.665" y="326.338" transform="matrix(-0.7071 0.7071 -0.7071 -0.7071 487.7054 570.6609)" style="fill:#57555C;" width="30" height="119.999"/>
	
		<rect x="409.945" y="11.516" transform="matrix(-0.7071 -0.7071 0.7071 -0.7071 719.4799 351.051)" style="fill:#57555C;" width="45" height="30"/>
</g>
<rect x="462.973" y="64.544" transform="matrix(-0.7071 -0.7071 0.7071 -0.7071 772.5083 479.0703)" style="fill:#3C3A41;" width="45" height="30"/>
<rect x="367.523" y="53.934" transform="matrix(-0.7071 -0.7071 0.7071 -0.7071 617.0681 393.4649)" style="fill:#57555C;" width="45" height="30"/>
<rect x="420.556" y="106.981" transform="matrix(-0.7071 -0.7071 0.7071 -0.7071 670.0897 521.5212)" style="fill:#3C3A41;" width="45" height="30"/>
<polygon style="fill:#BF6015;" points="427.147,127.28 214.76,339.668 172.333,297.241 384.721,84.854 427.147,84.854 "/>
<polygon style="fill:#994C10;" points="427.147,127.28 214.76,339.668 193.547,318.454 427.147,84.854 "/>
<rect x="116.874" y="392.553" transform="matrix(0.7071 0.7071 -0.7071 0.7071 331.202 15.5144)" style="fill:#3C3A41;" width="59.999" height="30"/>
<path style="fill:#57555C;" d="M242.337,269.664c-23.334-23.334-61.518-23.335-84.853,0c-23.334,23.334-23.334,61.519,0,84.853
	s61.519,23.334,84.853,0C265.672,331.182,265.671,292.998,242.337,269.664z"/>
<path style="fill:#3C3A41;" d="M157.484,354.517l84.853-84.853c23.334,23.334,23.335,61.518,0,84.853
	C219.003,377.851,180.818,377.851,157.484,354.517z"/>
<rect x="388.355" y="33.646" transform="matrix(-0.7071 0.7071 -0.7071 -0.7071 810.3937 -208.3856)" style="fill:#FEA832;" width="119.999" height="59.999"/>
<rect x="443.968" y="14.248" transform="matrix(-0.7071 -0.7071 0.7071 -0.7071 731.0064 451.2883)" style="fill:#FE9923;" width="30" height="119.999"/>
<g>
</g>
<g>
</g>
<g>
</g>
<g>
</g>
<g>
</g>
<g>
</g>
<g>
</g>
<g>
</g>
<g>
</g>
<g>
</g>
<g>
</g>
<g>
</g>
<g>
</g>
<g>
</g>
<g>
</g>
</svg>
