<?xml version="1.0" encoding="iso-8859-1"?>
<!-- Generator: Adobe Illustrator 19.0.0, SVG Export Plug-In . SVG Version: 6.00 Build 0)  -->
<svg version="1.1" id="Capa_1" xmlns="http://www.w3.org/2000/svg" xmlns:xlink="http://www.w3.org/1999/xlink" x="0px" y="0px"
	 viewBox="0 0 472.055 472.055" style="enable-background:new 0 0 472.055 472.055;" xml:space="preserve">
<g>
	<path style="fill:#00ACEA;" d="M142.057,197.935c-0.001-0.063-0.021-0.124-0.057-0.175v0.175H142.057z"/>
	<path style="fill:#00ACEA;" d="M207,71.935c-5.523,0-10,4.477-10,10v116h-5V81.265c0-5.523-4.477-10-10-10s-10,4.477-10,10v116.67
		h-5V81.265c0-5.523-4.477-10-10-10s-10,4.477-10,10v116.67h-5.135c0.059-0.161,0.1-0.2,0.135-0.175V81.265c0-5.523-4.477-10-10-10
		s-10,4.477-10,10v116.67h-4V81.265c0-5.523-4.477-10-10-10c-5.523,0-10,4.477-10,10v116.67h-5V81.265c0-5.523-4.477-10-10-10
		s-10,4.477-10,10v116.67h-5V81.265c0-5.523-4.477-10-10-10s-10,4.477-10,10v116.67h-4V81.265c0-5.523-4.477-10-10-10
		s-10,4.477-10,10v116.67h-4v-116c0-5.523-4.477-10-10-10s-10,4.477-10,10v131.93c0,20.813,17.567,39.07,37.655,39.07H71v68.71
		c-7,8.851-11.428,19.641-11.428,30.69c-0.097,26.664,21.439,48.358,48.103,48.455s48.358-21.439,48.455-48.103
		c0.001-0.144,0-0.288,0-0.432c0-10.814-3.129-21.188-10.129-29.653v-69.667h32.055c20.354,0,38.945-18.622,38.945-39.07V81.935
		C217,76.412,212.523,71.935,207,71.935z M67.755,197.935c0.1-0.284,0.17-0.22,0.211,0H67.755z"/>
	<path style="fill:#00ACEA;" d="M378.152,355.435c-3.883,0.002-7.415-2.243-9.062-5.759L251.31,98.318
		c-2.375-4.986-0.259-10.953,4.727-13.329c4.986-2.375,10.953-0.259,13.329,4.727c0.018,0.038,0.036,0.077,0.054,0.115
		l117.78,251.36c2.344,5.001,0.191,10.955-4.809,13.299c-1.327,0.622-2.774,0.945-4.239,0.946L378.152,355.435z"/>
</g>
<path style="fill:#00EFD1;" d="M419.535,387.795c-29.006,0-52.52-23.514-52.52-52.52s23.514-52.52,52.52-52.52
	c29.006,0,52.52,23.514,52.52,52.52c0,0,0,0,0,0C472.022,364.267,448.527,387.762,419.535,387.795z M419.535,302.755
	c-17.96,0-32.52,14.56-32.52,32.52s14.56,32.52,32.52,32.52s32.52-14.56,32.52-32.52c0,0,0,0,0,0
	C452.035,317.323,437.487,302.775,419.535,302.755z"/>
<path style="fill:#00ACEA;" d="M288.588,355.435c-5.523-0.003-9.997-4.483-9.994-10.006c0.001-1.465,0.324-2.912,0.946-4.239
	L397.31,89.835c2.311-5.016,8.251-7.208,13.267-4.897c5.016,2.311,7.208,8.251,4.897,13.267c-0.018,0.039-0.036,0.077-0.054,0.115
	L297.65,349.678C296.003,353.193,292.47,355.438,288.588,355.435L288.588,355.435z"/>
<path style="fill:#00EFD1;" d="M247.2,387.795c-29.006,0-52.52-23.514-52.52-52.52c0-29.006,23.514-52.52,52.52-52.52
	c29.006,0,52.52,23.514,52.52,52.52c0,0,0,0,0,0C299.69,364.268,276.193,387.765,247.2,387.795z M247.2,302.755
	c-17.96,0-32.52,14.56-32.52,32.52c0,17.96,14.56,32.52,32.52,32.52s32.52-14.56,32.52-32.52c0,0,0,0,0,0
	C279.702,317.322,265.153,302.773,247.2,302.755z"/>
<g>
</g>
<g>
</g>
<g>
</g>
<g>
</g>
<g>
</g>
<g>
</g>
<g>
</g>
<g>
</g>
<g>
</g>
<g>
</g>
<g>
</g>
<g>
</g>
<g>
</g>
<g>
</g>
<g>
</g>
</svg>
