<?xml version="1.0" encoding="iso-8859-1"?>
<!-- Generator: Adobe Illustrator 19.0.0, SVG Export Plug-In . SVG Version: 6.00 Build 0)  -->
<svg version="1.1" id="Capa_1" xmlns="http://www.w3.org/2000/svg" xmlns:xlink="http://www.w3.org/1999/xlink" x="0px" y="0px"
	 viewBox="0 0 512 512" style="enable-background:new 0 0 512 512;" xml:space="preserve">
<path style="fill:#86858E;" d="M489.536,211.409c0,0-26.426,81.819-26.426,113.316s0,159.996,0,159.996h-30.643v-260.02"/>
<path style="fill:#FF3E64;" d="M489.483,218.827l-4.89,8.579l-9.809-1.09c-0.31-0.03-37.428-3.61-78.455,16.759
	c-50.827,25.248-85.584,74.645-103.463,146.991c-1.44,5.83-2.77,11.799-3.99,17.929l-0.49,2.49l-5.64,9.579l-37.698,64.016H59.971
	L8.114,420.064l-7.27-8.969l-0.49-4.37c-0.07-0.68-0.73-7.09-0.05-16.659c1.17-16.049,6.14-40.987,24.028-62.686
	c19.799-23.998,49.867-37.788,89.384-40.977l10.959-0.89l3.98,9.779c0.36,0.74,3.41,6.71,9.409,10.839
	c7.869,5.42,17.699,5.45,30.038,0.1c6.87-2.98,32.608-21.529,124.762-127.912c3.48-4.02,7.05-8.159,10.729-12.439
	c56.216-65.416,107.863-129.362,108.383-130.002l6.94-8.599l10.269,4.09c2.37,0.94,58.156,23.658,76.835,76.915
	C517.761,141.763,512.192,178.961,489.483,218.827z"/>
<path style="fill:#C7C5CC;" d="M292.866,390.066c-1.44,5.83-2.77,11.799-3.99,17.929l-0.49,2.49l-5.64,9.579H8.114l-7.27-8.969
	l-0.49-4.37c-0.07-0.68-0.73-7.09-0.05-16.659L292.866,390.066L292.866,390.066z"/>
<path style="fill:#E60020;" d="M489.483,218.827l-4.89,8.579l-9.809-1.09c-0.31-0.03-37.428-3.61-78.455,16.759
	c-50.827,25.248-85.584,74.645-103.463,146.991V178.32c3.48-4.02,7.05-8.159,10.729-12.439
	c56.216-65.416,107.863-129.362,108.383-130.002l6.94-8.599l10.269,4.09c2.37,0.94,58.156,23.658,76.835,76.915
	C517.761,141.763,512.192,178.961,489.483,218.827z"/>
<g>
</g>
<g>
</g>
<g>
</g>
<g>
</g>
<g>
</g>
<g>
</g>
<g>
</g>
<g>
</g>
<g>
</g>
<g>
</g>
<g>
</g>
<g>
</g>
<g>
</g>
<g>
</g>
<g>
</g>
</svg>
