<?xml version="1.0" encoding="iso-8859-1"?>
<!-- Generator: Adobe Illustrator 19.0.0, SVG Export Plug-In . SVG Version: 6.00 Build 0)  -->
<svg version="1.1" id="Capa_1" xmlns="http://www.w3.org/2000/svg" xmlns:xlink="http://www.w3.org/1999/xlink" x="0px" y="0px"
	 viewBox="0 0 511.999 511.999" style="enable-background:new 0 0 511.999 511.999;" xml:space="preserve">
<path style="fill:#AFB4C8;" d="M493.042,507.046h-15c-69.474,0-126.875-52.676-134.36-120.187H224.316v-30h118.539V240.185h30
	V356.86h120.187v150.186H493.042z M373.922,386.859c6.598,46.023,43.097,82.523,89.12,89.121v-89.121H373.922z"/>
<path style="fill:#F92814;" d="M258.529,367.82v49.69c0,52.185-42.304,94.489-94.489,94.489l0,0
	c-52.185,0-94.489-42.304-94.489-94.489v-36.395L18.957,311.6v-75.13C18.956,105.872,124.827,0,255.426,0l0,0
	c130.599,0,236.471,105.872,236.471,236.471v36.86h-138.88C300.833,273.331,258.529,315.635,258.529,367.82z"/>
<path style="fill:#DB0404;" d="M258.529,367.82c0,0-3.102-282.444-3.102-367.82l0,0c130.599,0,236.471,105.872,236.471,236.471
	v36.86h-138.88C300.833,273.331,258.529,315.635,258.529,367.82z"/>
<circle style="fill:#E9EDF5;" cx="164.038" cy="417.51" r="43.593"/>
<path style="fill:#DCE1EB;" d="M207.632,417.511c0,24.076-19.517,43.593-43.593,43.593c0-43.593,0-58.927,0-87.186
	C188.115,373.918,207.632,393.435,207.632,417.511z"/>
<g>
</g>
<g>
</g>
<g>
</g>
<g>
</g>
<g>
</g>
<g>
</g>
<g>
</g>
<g>
</g>
<g>
</g>
<g>
</g>
<g>
</g>
<g>
</g>
<g>
</g>
<g>
</g>
<g>
</g>
</svg>
