<?xml version="1.0" encoding="iso-8859-1"?>
<!-- Generator: Adobe Illustrator 19.0.0, SVG Export Plug-In . SVG Version: 6.00 Build 0)  -->
<svg version="1.1" id="Capa_1" xmlns="http://www.w3.org/2000/svg" xmlns:xlink="http://www.w3.org/1999/xlink" x="0px" y="0px"
	 viewBox="0 0 469.656 469.656" style="enable-background:new 0 0 469.656 469.656;" xml:space="preserve">
<path style="fill:#A3021A;" d="M86.239,56V16c0-8.837,7.163-16,16-16s16,7.163,16,16v40H86.239z"/>
<path style="fill:#DE0418;" d="M54.239,80V32c0-8.837,7.163-16,16-16s16,7.163,16,16v48H54.239z"/>
<path style="fill:#7A0212;" d="M118.239,72V32c0-8.837,7.163-16,16-16s16,7.163,16,16v40H118.239z"/>
<path style="fill:#FEBD33;" d="M106.239,48c33.137,0,60,26.863,60,60v44c0,35.346,28.654,64,64,64h192v16
	c0,88.366-71.634,160-160,160h-56c-88.366,0-160-71.634-160-160V108C46.239,74.863,73.102,48,106.239,48z"/>
<path style="fill:#763A02;" d="M382.239,216l52.392-58.944c6.044-6.8,16.455-7.413,23.255-1.369
	c0.242,0.215,0.477,0.437,0.705,0.665c6.433,6.432,6.434,16.862,0.001,23.295c0,0-0.001,0.001-0.001,0.001L422.239,216L382.239,216z
	"/>
<path style="fill:#E47700;" d="M382.239,216v-64c0-8.837,7.163-16,16-16s16,7.163,16,16v64H382.239z"/>
<path style="fill:#FFA900;" d="M46.239,128h-40c0-17.673,14.327-32,32-32h8V128z"/>
<path style="fill:#FF8800;" d="M22.239,128c0,13.255,10.745,24,24,24v-24H22.239z"/>
<path style="fill:#763A02;" d="M94.239,96L94.239,96c8.837,0,16,7.163,16,16l0,0c0,8.837-7.163,16-16,16l0,0
	c-8.837,0-16-7.163-16-16l0,0C78.239,103.163,85.403,96,94.239,96z"/>
<path style="fill:#FFA900;" d="M182.239,248h56v96h-56c-26.51,0-48-21.49-48-48S155.73,248,182.239,248z"/>
<path style="fill:#763A02;" d="M238.239,280h112c8.837,0,16-7.163,16-16s-7.163-16-16-16h-112V280z"/>
<path style="fill:#E47700;" d="M238.239,312h80c8.837,0,16-7.163,16-16s-7.163-16-16-16h-80V312z"/>
<path style="fill:#FF8800;" d="M238.239,344h48c8.837,0,16-7.163,16-16s-7.163-16-16-16h-48V344z"/>
<g>
	<path style="fill:#763A02;" d="M203.895,469.656l-11.312-11.312l13.656-13.656V392h16v59.312L203.895,469.656z"/>
	<path style="fill:#763A02;" d="M251.895,469.656l-11.312-11.312l13.656-13.656V392h16v59.312L251.895,469.656z"/>
</g>
<g>
</g>
<g>
</g>
<g>
</g>
<g>
</g>
<g>
</g>
<g>
</g>
<g>
</g>
<g>
</g>
<g>
</g>
<g>
</g>
<g>
</g>
<g>
</g>
<g>
</g>
<g>
</g>
<g>
</g>
</svg>
