<?xml version="1.0" ?><!DOCTYPE svg  PUBLIC '-//W3C//DTD SVG 1.1//EN'  'http://www.w3.org/Graphics/SVG/1.1/DTD/svg11.dtd'><svg enable-background="new 0 0 64 64" height="64px" id="Layer_1" version="1.1" viewBox="0 0 64 64" width="64px" xml:space="preserve" xmlns="http://www.w3.org/2000/svg" xmlns:xlink="http://www.w3.org/1999/xlink"><g><path d="M32.001,0.188C14.431,0.188,0.188,14.429,0.188,32c0,17.57,14.244,31.812,31.813,31.812   c17.57,0,31.812-14.242,31.812-31.812C63.812,14.429,49.571,0.188,32.001,0.188z M52.521,29.13c0,0,0.007,0.022,0.01,0.025   c-3.816-0.701-7.193,0.135-8.742,2.569c-2.146,3.383-0.038,8.659,4.711,12.5l-0.003,0.007c0,0,2.466,2.004,1.042,3.88   c-1.657,1.821-3.592,3.387-5.74,4.621c-0.01,0.007-0.013,0.01-0.02,0.013c-0.003,0-0.003,0.004-0.003,0.004   c-0.173,0.099-0.353,0.183-0.529,0.275c-2.261,0.917-3.226-2.685-3.226-2.685l-0.007,0.007c-1.314-4.391-4.111-7.431-7.366-7.427   c-3.355,0.003-6.226,3.232-7.481,7.844c-0.007,0.02-0.015,0.028-0.022,0.048c-1.079,3.085-3.226,2.678-4.026,2.399   c-2.51-1.299-4.773-3.012-6.662-5.087c-1.541-1.934,0.859-3.723,0.859-3.723l-0.006-0.007c4.901-3.857,7.104-9.235,4.925-12.67   c-1.526-2.402-4.833-3.255-8.588-2.604c0-0.003-0.007-0.018-0.007-0.018s-3.108,0.505-2.931-1.56   c0.412-2.068,1.081-4.044,1.989-5.885c0.392-0.63,1.616-1.943,4.458-0.3c0.002,0.001,0.003,0.001,0.006,0.001   c3.028,1.963,6.221,2.457,8.521,0.975c2.651-1.709,3.368-5.596,2.25-9.84l0.03-0.008c0,0-1.106-2.875,1.451-3.617   c1.481-0.289,3.004-0.457,4.567-0.457c1.209,0,2.39,0.095,3.55,0.268c2.857,0.369,2.595,3.352,2.37,4.544   c-0.028,0.126-0.058,0.255-0.083,0.381c-0.017,0.064-0.029,0.109-0.029,0.109l0.017-0.002c-0.687,3.757,0.144,7.076,2.539,8.622   c2.524,1.626,6.126,0.843,9.406-1.625l0.007,0.024c0,0,2.187-1.636,3.402,0.696c0.955,1.886,1.657,3.922,2.083,6.056   C55.744,29.791,52.521,29.13,52.521,29.13z" fill="#241F20"/><path d="M32.001,23.585c-4.648,0-8.416,3.768-8.416,8.415c0,4.646,3.768,8.415,8.416,8.415   c4.646,0,8.415-3.769,8.415-8.415C40.416,27.353,36.647,23.585,32.001,23.585z M32.001,36.207c-2.324,0-4.208-1.884-4.208-4.207   s1.884-4.208,4.208-4.208c2.321,0,4.207,1.884,4.207,4.208S34.322,36.207,32.001,36.207z" fill="#241F20"/></g></svg>