<?xml version="1.0" encoding="iso-8859-1"?>
<!-- Generator: Adobe Illustrator 19.0.0, SVG Export Plug-In . SVG Version: 6.00 Build 0)  -->
<svg version="1.1" id="Capa_1" xmlns="http://www.w3.org/2000/svg" xmlns:xlink="http://www.w3.org/1999/xlink" x="0px" y="0px"
	 viewBox="0 0 512 512" style="enable-background:new 0 0 512 512;" xml:space="preserve">
<path style="fill:#444444;" d="M346,61h-60c-8.291,0-15,6.709-15,15v45.366c0,8.291,6.709,15,15,15l60,30.103
	c8.291,0,15-6.709,15-15V76C361,67.709,354.291,61,346,61z"/>
<path style="fill:#00DDC1;" d="M271,101.199C247.301,94.6,222.1,91,196,91H45c-24.901,0-45,20.099-45,45v167.699
	c0,11.7,4.799,23.101,13.2,31.8c0,0,57.9,55.501,61.8,55.501l166,30l30-3.9L481.7,391C488.899,253.299,396.4,135.399,271,101.199z
	 M271,226H90c-8.401,0-15-6.601-15-15v-30c0-8.401,6.599-15,15-15h151c11.7,0,22.2,4.499,30,11.7c9.3,8.099,15,20.099,15,33.3
	C286,219.399,279.401,226,271,226z"/>
<path style="fill:#00CCB2;" d="M481.7,391L271,417.1V226c8.401,0,15-6.601,15-15c0-13.2-5.7-25.201-15-33.3v-76.501
	C396.4,135.399,488.899,253.299,481.7,391z"/>
<path style="fill:#5A5A5A;" d="M241,331c-8.291,0-15-6.709-15-15v-30c0-8.291,6.709-15,15-15s15,6.709,15,15v30
	C256,324.291,249.291,331,241,331z"/>
<g>
	<path style="fill:#444444;" d="M301,331c-8.291,0-15-6.709-15-15v-30c0-8.291,6.709-15,15-15s15,6.709,15,15v30
		C316,324.291,309.291,331,301,331z"/>
	<path style="fill:#444444;" d="M361,331c-8.291,0-15-6.709-15-15v-30c0-8.291,6.709-15,15-15s15,6.709,15,15v30
		C376,324.291,369.291,331,361,331z"/>
</g>
<path style="fill:#E2E2E7;" d="M512,421v15c0,8.401-6.599,15-15,15H45c-8.401,0-15-6.599-15-15v-15c0-16.5,13.5-30,30-30h422
	C498.5,391,512,404.5,512,421z"/>
<path style="fill:#D3D3D8;" d="M512,421v15c0,8.401-6.599,15-15,15H271v-60h211C498.5,391,512,404.5,512,421z"/>
<g>
</g>
<g>
</g>
<g>
</g>
<g>
</g>
<g>
</g>
<g>
</g>
<g>
</g>
<g>
</g>
<g>
</g>
<g>
</g>
<g>
</g>
<g>
</g>
<g>
</g>
<g>
</g>
<g>
</g>
</svg>
