<?xml version="1.0" ?><svg height="256px" id="Layer_1" style="enable-background:new 0 0 256 256;" version="1.1" viewBox="0 0 256 256" width="256px" xml:space="preserve" xmlns="http://www.w3.org/2000/svg" xmlns:xlink="http://www.w3.org/1999/xlink"><style type="text/css">
	.st0{fill:#E0CEBD;}
	.st1{fill:#53C3F4;}
	.st2{fill:#F4F4A8;}
	.st3{fill:#F4F4A8;stroke:#FCFBD0;stroke-width:4;stroke-linecap:round;stroke-linejoin:round;stroke-miterlimit:10;}
	.st4{fill:#EDDCCA;}
	.st5{fill:#E094D5;}
	.st6{fill:#F2AAE5;}
	.st7{fill:#E877DD;}
	.st8{fill:none;stroke:#777675;stroke-linecap:round;stroke-miterlimit:10;}
	.st9{fill:#FAFCFC;}
	.st10{fill:#AAEDF2;}
	.st11{fill:#747575;}
	.st12{fill:#F5F7F7;}
	.st13{fill:url(#SVGID_1_);}
	.st14{fill:url(#SVGID_2_);}
	.st15{fill:url(#SVGID_3_);}
	.st16{fill:url(#SVGID_4_);}
	.st17{fill:#DD5050;}
	.st18{fill:#F76B6B;}
	.st19{fill:none;stroke:#F79494;stroke-width:8;stroke-linecap:round;stroke-linejoin:round;stroke-miterlimit:10;}
	.st20{fill:#E2D0C0;}
</style><g><g><path class="st0" d="M87,88.9L87,88.9c5,0,9.1,4.1,9.1,9.1v24c0,5-4.1,9.1-9.1,9.1h0c-5,0-9.1-4.1-9.1-9.1V98    C77.9,93,82,88.9,87,88.9z"/><path class="st1" d="M114.2,116.9v55.8l-0.1-0.8l-26.3,1.5l-3.6-0.1L58.5,172l-0.1,0.8v-55.8c0-3.8,4.1-7,9.1-7h37.5    C110.1,110,114.2,113.1,114.2,116.9z"/><g><g id="head_7_"><g><path class="st2" d="M63.9,55.7c-1-0.6-2.2-1.4-3.6-2.4c0.2,0.3,0.3,0.7,0.5,1c2.1,3.9,3,6.8,3,6.8c-2.3-0.6-4.4-1.2-6.3-2       c1.4,1.5,2.1,2.6,2.1,2.6s-3,0.7-7.4,0.8c-5.7,0.2-11.2,0.3-16.1-2.5c-5.2-3-5-6.6-9.9-7.8c-3.1-0.7-5.8,0.1-6.8,0.5       c-4.5,1.5-7,4.8-7.7,5.9c0.8-1.6,5.7-11.9,15.7-13.8c5.4-1,9.9,1.1,13.6,2.5c0.3,0.1,0.5,0.2,0.7,0.3c-3.1-4.2-3.7-7.4-8.2-9.7       c0,0-2.6-1.3-16.3-2.3c1-0.5,2.2-1.1,3.8-1.6c1.5-0.5,3.3-1,5.3-1.3c1.4-0.2,4.9-0.6,9.3,0.2c7.7,1.5,12.7,5.7,15.2,8       c-1.3-4.4,0-5.6-1.4-8.4c-1.9-3.8-6.4-5.4-10-6.1c1.7-0.7,6.7-2.5,12.2-0.7c7.6,2.5,10.5,9.8,11.1,11.3       C66.1,45.3,63.9,55.7,63.9,55.7z"/><path class="st3" d="M54.7,31.2c-0.5-0.5-1-0.9-1.5-1.3"/><path class="st3" d="M60.6,43.1c-0.1-0.6-0.2-1.2-0.3-1.8c-0.4-1.7-1.1-4.3-2.8-6.7"/></g><g><path class="st2" d="M160.5,59.3c-0.8-1.1-3.2-4.4-7.7-5.9c-1-0.3-3.7-1.2-6.8-0.4c-4.9,1.1-4.7,4.8-9.9,7.8       c-4.9,2.9-10.4,2.7-16.1,2.5c-4.4-0.1-7.4-0.8-7.4-0.8s0.7-1,2.1-2.6c-1.9,0.7-4,1.4-6.3,2c0,0,0.9-2.8,3-6.8       c0.2-0.3,0.3-0.6,0.5-1c-1.3,1.1-2.6,1.9-3.6,2.4c0,0-2.2-10.5,1.1-18.8c0.6-1.5,3.5-8.8,11.1-11.3c5.6-1.8,10.6,0,12.2,0.7       c-3.6,0.8-8,2.4-10,6.1c-1.4,2.8-0.1,4.1-1.4,8.4c2.6-2.2,7.6-6.5,15.2-8c4.4-0.8,7.9-0.4,9.3-0.2c2,0.3,3.8,0.8,5.3,1.3       c1.5,0.5,2.8,1.1,3.8,1.6c-13.7,0.9-16.3,2.3-16.3,2.3c-4.5,2.3-5.1,5.5-8.2,9.7c0.2-0.1,0.5-0.2,0.7-0.3       c3.7-1.4,8.2-3.5,13.6-2.5C154.8,47.4,159.7,57.7,160.5,59.3z"/><path class="st3" d="M119.6,30.1c0.6-0.3,1.2-0.6,1.9-0.8"/><path class="st3" d="M111.7,40.6c0.2-0.6,0.4-1.2,0.6-1.8c0.7-1.7,1.8-4,3.8-6.1"/></g><ellipse class="st4" cx="86.4" cy="73.8" rx="35" ry="30.3"/><g><g><path class="st5" d="M76,53c-2.1,3.4-12.5,4.2-15.7,4.4c-0.5,1.8-3.7,12.9-7.4,14.2c-1,0.3-1.8-0.1-2.7-1        c-0.8-0.8-1.6-2.1-2.5-3.6c-2.1-3.3-3.9-6.1-2.3-8.2c1.8-2.3,7.3-3.3,13.6-2.6c0,0,0,0,0.1,0v0c0.5-6.7,3.4-12.5,6.5-14        c0.9-0.4,1.7-0.4,2.5-0.2c2.7,0.7,5,4,6.4,5.9C75.9,50,76.9,51.5,76,53z"/><path class="st6" d="M59,56.2c-0.3,0-0.6,0.1-0.9,0.1c-0.5,1.8-3.7,12.9-7.4,14.2c-0.2,0.1-0.4,0.1-0.5,0.1        c-0.8-0.8-1.6-2.1-2.5-3.6c-2.1-3.3-3.9-6.1-2.3-8.2C47.2,56.5,52.8,55.5,59,56.2z"/><path class="st6" d="M73.9,51.9C72,54.9,63,55.9,59.1,56.2c0.5-6.7,3.4-12.5,6.5-14c0.9-0.4,1.7-0.4,2.5-0.2        c1.7,1.3,3.2,3.4,4.2,4.8C73.8,48.9,74.8,50.4,73.9,51.9z"/><circle class="st7" cx="59.2" cy="56.7" r="2.5"/></g><g><path class="st5" d="M98.8,53c2.1,3.4,12.5,4.2,15.7,4.4c0.5,1.8,3.7,12.9,7.4,14.2c1,0.3,1.8-0.1,2.7-1        c0.8-0.8,1.6-2.1,2.5-3.6c2.1-3.3,3.9-6.1,2.3-8.2c-1.8-2.3-7.3-3.3-13.6-2.6c0,0,0,0-0.1,0v0c-0.5-6.7-3.4-12.5-6.5-14        c-0.9-0.4-1.7-0.4-2.5-0.2c-2.7,0.7-5,4-6.4,5.9C98.9,50,97.9,51.5,98.8,53z"/><path class="st6" d="M115.8,56.2c0.3,0,0.6,0.1,0.9,0.1c0.5,1.8,3.7,12.9,7.4,14.2c0.2,0.1,0.4,0.1,0.5,0.1        c0.8-0.8,1.6-2.1,2.5-3.6c2.1-3.3,3.9-6.1,2.3-8.2C127.6,56.5,122,55.5,115.8,56.2z"/><path class="st6" d="M100.9,51.9c1.9,3.1,10.9,4.1,14.8,4.4c-0.5-6.7-3.4-12.5-6.5-14c-0.9-0.4-1.7-0.4-2.5-0.2        c-1.7,1.3-3.2,3.4-4.2,4.8C101,48.9,100,50.4,100.9,51.9z"/><circle class="st7" cx="115.6" cy="56.7" r="2.5"/></g></g><path class="st8" d="M100.4,89.9c-4,2.3-8.8,3.6-14.1,3.6c-5.7,0-11-1.6-15.2-4.3"/><g id="eye_14_"><ellipse class="st9" cx="72.9" cy="70.1" rx="4.9" ry="9.3"/><ellipse class="st10" cx="72.9" cy="70.7" rx="3.4" ry="6.3"/><ellipse class="st11" cx="72.9" cy="70.7" rx="1.7" ry="3.4"/><ellipse class="st12" cx="74" cy="67.5" rx="1" ry="1.1"/></g><g id="eye_13_"><ellipse class="st9" cx="99.7" cy="70.1" rx="4.9" ry="9.3"/><ellipse class="st10" cx="99.7" cy="70.7" rx="3.4" ry="6.3"/><ellipse class="st11" cx="99.7" cy="70.7" rx="1.7" ry="3.4"/><ellipse class="st12" cx="100.8" cy="67.5" rx="1" ry="1.1"/></g></g><radialGradient cx="106.0862" cy="-18.0288" gradientTransform="matrix(1.1158 0 0 0.4877 -16.585 92.3825)" gradientUnits="userSpaceOnUse" id="SVGID_1_" r="8.1969"><stop offset="0" style="stop-color:#FFAACF"/><stop offset="1" style="stop-color:#EDDCCA"/></radialGradient><ellipse class="st13" cx="101.8" cy="83.6" rx="12.4" ry="4"/><radialGradient cx="78.3593" cy="-18.0288" gradientTransform="matrix(1.1158 0 0 0.4877 -16.585 92.3825)" gradientUnits="userSpaceOnUse" id="SVGID_2_" r="8.1969"><stop offset="0" style="stop-color:#FFAACF"/><stop offset="1" style="stop-color:#EDDCCA"/></radialGradient><ellipse class="st14" cx="70.9" cy="83.6" rx="12.4" ry="4"/></g></g><g><path class="st0" d="M172.4,88.8L172.4,88.8c5,0,9.1,4.1,9.1,9.1v24c0,5-4.1,9.1-9.1,9.1h0c-5,0-9.1-4.1-9.1-9.1V98    C163.3,92.9,167.4,88.8,172.4,88.8z"/><path class="st1" d="M199.6,116.9v55.8l-0.1-0.8l-26.3,1.5l-3.6-0.1L144,172l-0.1,0.8v-55.8c0-3.8,4.1-7,9.1-7h37.5    C195.5,109.9,199.6,113.1,199.6,116.9z"/><g><g id="head_5_"><path class="st2" d="M180.2,47.4c-5.3-0.1-10.7-0.3-16-0.4c0.6-2.8-0.4-5.7-2.6-7.3c-2.9-2.1-6.3-0.9-6.6-0.8      c1.8-2.4,4.8-3.4,7.5-2.6c3.1,0.9,5.2,4,4.8,7.4c-0.1-0.9-0.6-4.8,2-8.3c3.6-5,9.9-4.5,10.3-4.5c-0.7,0.4-3.8,2.3-5,6.2      c-0.9,3-0.2,5.5,0.1,6.4c0.2-4.7,3.2-8,6.2-8.1c2.2-0.1,3.9,1.6,4.4,2.1c-2.2-0.3-4.4,0.6-5.7,2.4      C178,42.1,178.2,45.3,180.2,47.4z"/><ellipse class="st4" cx="171.8" cy="73.8" rx="35" ry="30.3"/><path class="st8" d="M185.9,89.9c-4,2.3-8.8,3.6-14.1,3.6c-5.7,0-11-1.6-15.2-4.3"/><g id="eye_10_"><ellipse class="st9" cx="158.4" cy="70.1" rx="4.9" ry="9.3"/><ellipse class="st10" cx="158.4" cy="70.7" rx="3.4" ry="6.3"/><ellipse class="st11" cx="158.4" cy="70.7" rx="1.7" ry="3.4"/><ellipse class="st12" cx="159.4" cy="67.5" rx="1" ry="1.1"/></g><g id="eye_9_"><ellipse class="st9" cx="185.2" cy="70.1" rx="4.9" ry="9.3"/><ellipse class="st10" cx="185.2" cy="70.7" rx="3.4" ry="6.3"/><ellipse class="st11" cx="185.2" cy="70.7" rx="1.7" ry="3.4"/><ellipse class="st12" cx="186.2" cy="67.5" rx="1" ry="1.1"/></g></g><radialGradient cx="182.6663" cy="-18.0431" gradientTransform="matrix(1.1158 0 0 0.4877 -16.585 92.372)" gradientUnits="userSpaceOnUse" id="SVGID_3_" r="8.1969"><stop offset="0" style="stop-color:#FFAACF"/><stop offset="1" style="stop-color:#EDDCCA"/></radialGradient><ellipse class="st15" cx="187.2" cy="83.6" rx="12.4" ry="4"/><radialGradient cx="154.9394" cy="-18.0431" gradientTransform="matrix(1.1158 0 0 0.4877 -16.585 92.372)" gradientUnits="userSpaceOnUse" id="SVGID_4_" r="8.1969"><stop offset="0" style="stop-color:#FFAACF"/><stop offset="1" style="stop-color:#EDDCCA"/></radialGradient><ellipse class="st16" cx="156.3" cy="83.6" rx="12.4" ry="4"/></g></g><g><path class="st17" d="M212.2,171.1c-5,24.1-42.1,39.2-58.8,44.8c-5.6,1.9-10.7,4.7-14.9,8.3c-3.1,3.6-6.2,7.3-9.3,10.9    c-1.2-1.5-2.5-2.9-3.7-4.4c1.9-2.2,3.7-4.4,5.6-6.6c4.2-3.6,9.3-6.4,14.9-8.3c16.7-5.6,53.8-20.7,58.8-44.8    c6.5-31.3-13-60.7-43.5-65.8c-1.5-0.3-3.8-0.8-6.7-1.1c6.3-0.7,11.4,0.7,14,1.1C199.2,110.4,218.7,139.9,212.2,171.1z"/><path class="st18" d="M204.8,171.1c-5,24.1-42.1,39.2-58.8,44.8c-5.6,1.9-10.7,4.7-14.9,8.3c-1.9,2.2-3.7,4.4-5.6,6.6    c-1.9-2.2-3.7-4.4-5.6-6.6c-4.2-3.6-9.2-6.4-14.9-8.3c-16.7-5.6-53.8-20.7-58.8-44.8c-6.5-31.3,13-60.7,43.5-65.8    c1.4-0.2,3.7-0.8,6.5-1.1h0c3.8-0.4,8.7-0.3,14.1,1.5c7.2,2.5,12.2,7.1,15.4,11c1.9,2.3,3.1,4.3,3.8,5.5    c1.7-3.1,7.3-12.4,18.5-16.4c2.3-0.8,4.5-1.3,6.6-1.6c2.9,0.3,5.2,0.9,6.7,1.1C191.8,110.4,211.3,139.9,204.8,171.1z"/><path class="st19" d="M73.4,134.1c5.1-5.5,11.9-9.1,19.5-10.4c0.5-0.1,1.1-0.2,1.7-0.3c1-0.2,2-0.4,3.1-0.5l0.6-0.1    c0.6-0.1,1.2-0.1,1.8-0.1"/><path class="st19" d="M64.5,167.3c-1.4-6.5-1.1-13,0.7-19"/></g><g><g id="hand_14_"><path class="st20" d="M53.3,152.6c0,3.6-1.5,6.7-3.5,8c-0.7,0.5-1.5,0.8-2.4,0.8c-3.3,0-5.9-3.9-5.9-8.8s2.7-8.8,5.9-8.8     c0.2,0,0.4,0,0.7,0.1C51,144.4,53.3,148.1,53.3,152.6z"/><path class="st4" d="M53.3,152.6c0,3.6-1.5,6.7-3.5,8c-3-0.5-5.3-4.2-5.3-8.7c0-3.6,1.5-6.7,3.5-8     C51,144.4,53.3,148.1,53.3,152.6z"/></g><g id="hand_13_"><path class="st20" d="M206.4,152.8c0,3.6,1.5,6.7,3.5,8c0.7,0.5,1.5,0.8,2.4,0.8c3.3,0,5.9-3.9,5.9-8.8s-2.7-8.8-5.9-8.8     c-0.2,0-0.4,0-0.7,0.1C208.8,144.6,206.4,148.3,206.4,152.8z"/><path class="st4" d="M206.4,152.8c0,3.6,1.5,6.7,3.5,8c3-0.5,5.3-4.2,5.3-8.7c0-3.6-1.5-6.7-3.5-8     C208.8,144.6,206.4,148.3,206.4,152.8z"/></g></g></g></svg>