<?xml version="1.0" encoding="iso-8859-1"?>
<!-- Generator: Adobe Illustrator 19.0.0, SVG Export Plug-In . SVG Version: 6.00 Build 0)  -->
<svg version="1.1" id="Capa_1" xmlns="http://www.w3.org/2000/svg" xmlns:xlink="http://www.w3.org/1999/xlink" x="0px" y="0px"
	 viewBox="0 0 512 512" style="enable-background:new 0 0 512 512;" xml:space="preserve">
<polygon style="fill:#FFCD00;" points="512,21.301 512,220.8 492.499,243.9 207.8,325.201 197.3,314.7 186.799,304.2 268.1,19.501 
	291.2,0 490.699,0 501.501,10.8 "/>
<polygon style="fill:#FF9F22;" points="512,21.301 512,220.8 492.499,243.9 207.8,325.201 197.3,314.7 501.501,10.8 "/>
<polygon style="fill:#FFEB99;" points="512,21.301 412.099,121.199 512,220.8 512,238.5 492.499,243.9 390.801,142.2 207.8,325.201 
	178.1,333.9 186.799,304.2 369.8,121.199 268.1,19.501 273.5,0 291.2,0 390.801,99.901 490.699,0 512,0 "/>
<polygon style="fill:#FFDA44;" points="512,21.301 412.099,121.199 512,220.8 512,238.5 492.499,243.9 390.801,142.2 207.8,325.201 
	178.1,333.9 512,0 "/>
<path style="fill:#DFD7D5;" d="M212.601,320.099c-1.501,2.1-3.301,6-5.7,10.801c-14.7,29.7-45.3,91.5-102.301,91.5
	c-6.6,0.001-12.6,1.2-18,3.3L86,426c-14.399,6-29.9,28.1-38.899,43.398C41.699,478.1,37.2,487.7,32.699,497
	c-2.999,6.599-5.4,11.999-7.5,15L0,495.799c1.5-2.399,3.3-6.299,5.4-11.4c12.299-26.999,42.501-91.998,99.2-91.998
	c6.901,0,13.5-1.8,19.501-4.501l0.601-0.3c15.899-7.5,28.499-23.099,38.399-38.699c7.2-11.4,12.9-23.101,17.1-31.5
	c2.999-6,5.4-10.801,7.2-13.5L200,312.002L212.601,320.099z"/>
<g>
	<path style="fill:#C4B3AF;" d="M12.6,503.899l34.5-34.5C41.699,478.1,37.2,487.7,32.699,497c-2.999,6.599-5.4,11.999-7.5,15
		L12.6,503.899z"/>
	<path style="fill:#C4B3AF;" d="M212.601,320.099c-1.501,2.1-3.301,6-5.7,10.801c-14.7,29.7-45.3,91.5-102.301,91.5
		c-6.6,0.001-12.6,1.2-18,3.3l37.5-37.8l0.601-0.3c15.899-7.5,28.499-23.099,38.399-38.699l36.899-36.899L212.601,320.099z"/>
</g>
<g>
</g>
<g>
</g>
<g>
</g>
<g>
</g>
<g>
</g>
<g>
</g>
<g>
</g>
<g>
</g>
<g>
</g>
<g>
</g>
<g>
</g>
<g>
</g>
<g>
</g>
<g>
</g>
<g>
</g>
</svg>
