<?xml version="1.0" ?><svg height="120" id="svg4254" version="1.1" viewBox="0 0 120 120" width="120" xmlns="http://www.w3.org/2000/svg" xmlns:cc="http://creativecommons.org/ns#" xmlns:dc="http://purl.org/dc/elements/1.1/" xmlns:rdf="http://www.w3.org/1999/02/22-rdf-syntax-ns#" xmlns:svg="http://www.w3.org/2000/svg"><defs id="defs4256"/><path d="M 112.61329,59.999995 A 52.613281,52.613276 0 0 1 60.000007,112.61327 52.613281,52.613276 0 0 1 7.3867254,59.999995 52.613281,52.613276 0 0 1 60.000007,7.3867179 52.613281,52.613276 0 0 1 112.61329,59.999995 Z" id="circle14940" style="opacity:1;fill:#80deea;fill-opacity:1;stroke:none;stroke-width:6.9000001;stroke-linecap:round;stroke-linejoin:miter;stroke-miterlimit:4;stroke-dasharray:none;stroke-dashoffset:0;stroke-opacity:1"/><path d="m 26.963345,61.413506 -5.029474,8.711122 1.758104,-6.561332 -3.748326,6.4925 0.74966,-2.79777 -1.48181,2.56721 -3.6e-5,-4.608054 -1.35062,5.04058 -2.589743,-9.664182 -9.1e-5,10.741301 -0.998566,-3.727575 -1.18075,4.406621 -2.52138,-9.409795 c 0,0 0.09027,9.683885 1.29e-4,10.020313 -0.09015,0.336428 -0.9849965,-3.676724 -0.9849965,-3.676724 l -5.006e-4,5.136524 c 5.9870241,0.843266 10.9267301,1.464957 14.0746081,1.846256 l 3.729986,-6.46046 -2.279736,2.279503 1.222321,-4.561759 -1.709434,2.960912 2.340587,-8.735191 z" id="path14942" style="fill:#009688;fill-rule:evenodd;stroke:none;stroke-width:1px;stroke-linecap:butt;stroke-linejoin:miter;stroke-opacity:1"/><path d="M 94.346871,78.35206 A 35.604476,3.2367704 0 0 1 58.742395,81.58883 35.604476,3.2367704 0 0 1 23.137919,78.35206 35.604476,3.2367704 0 0 1 58.742395,75.11529 35.604476,3.2367704 0 0 1 94.346871,78.35206 Z" id="ellipse14944" style="opacity:1;fill:#0288d1;fill-opacity:1;stroke:none;stroke-width:6.9000001;stroke-linecap:round;stroke-linejoin:miter;stroke-miterlimit:4;stroke-dasharray:none;stroke-dashoffset:0;stroke-opacity:1"/><path d="m 107.95623,58.209002 -2.87306,10.722034 0,-7.496129 -2.14114,7.991201 0,-3.196371 -0.84626,3.159721 -1.31619,-4.911895 0,5.758715 -5.520772,-9.561756 3.067807,11.4496 -2.129078,-3.688161 0,5.034433 -5.375238,-9.31012 c 0,0 2.862123,10.29665 2.862123,10.681009 0,0.384359 -2.100096,-3.637833 -2.100096,-3.637833 l 1.466621,5.47535 c 6.62267,-0.811129 12.065643,-1.55931 15.530003,-2.051958 l 2.13073,-7.951812 -1.77901,3.080945 0,-5.211674 -0.97644,3.644397 0,-9.979696 z" id="path14946" style="fill:#009688;fill-rule:evenodd;stroke:none;stroke-width:1px;stroke-linecap:butt;stroke-linejoin:miter;stroke-opacity:1"/><path d="m 22.153977,63.178973 2.603494,9.716022 0,-6.79279 1.940223,7.24141 0,-2.896465 0.766875,2.863255 1.192687,-4.451029 0,5.218394 5.002777,-8.664609 -2.779967,10.375325 1.929309,-3.342114 0,4.562069 4.870899,-8.436582 c 0,0 -2.593571,9.330549 -2.593571,9.678844 0,0.348297 1.90304,-3.296506 1.90304,-3.296506 l -1.329006,4.961616 C 29.659461,79.18079 24.727167,78.502807 21.587862,78.056382 l -1.930806,-7.205718 1.612076,2.791869 0,-4.72268 0.884845,3.302456 0,-9.043336 z" id="path14948" style="fill:#00695c;fill-rule:evenodd;stroke:none;stroke-width:1px;stroke-linecap:butt;stroke-linejoin:miter;stroke-opacity:1"/><path d="m 96.927356,64.98381 -2.229714,8.321204 0,-5.817629 -1.661696,6.201846 0,-2.480652 -0.656774,2.45221 -1.021468,-3.812046 0,4.46925 -4.284606,-7.420733 2.380906,8.88586 -1.652356,-2.862326 0,3.907145 -4.171636,-7.225436 c 0,0 2.221237,7.991068 2.221237,8.289362 0,0.298296 -1.629842,-2.823265 -1.629842,-2.823265 l 1.138219,4.249333 c 5.139755,-0.629502 9.36398,-1.210155 12.052602,-1.592491 l 1.653624,-6.171278 -1.380656,2.391071 0,-4.0447 -0.75784,2.828364 0,-7.745089 z" id="path14950" style="fill:#00695c;fill-rule:evenodd;stroke:none;stroke-width:1px;stroke-linecap:butt;stroke-linejoin:miter;stroke-opacity:1"/><path d="M 9.4067227,73.932172 C 15.753383,96.671967 36.470386,112.39987 60.079249,112.40167 83.669352,112.3772 104.35962,96.653908 110.70122,73.932172 c 0,0 -33.764841,5.076125 -50.64725,5.076125 -16.882415,0 -50.6472473,-5.076125 -50.6472473,-5.076125 z" id="path14952" style="fill:#3e2723;fill-rule:evenodd;stroke:none;stroke-width:1px;stroke-linecap:butt;stroke-linejoin:miter;stroke-opacity:1"/><path d="m 12.732974,83.02161 a 52.613281,52.613278 0 0 0 47.26696,29.59173 52.613281,52.613278 0 0 0 47.236226,-29.59173 l -94.503186,0 z" id="path14954" style="fill:#4e342e;fill-rule:evenodd;stroke:none;stroke-width:1px;stroke-linecap:butt;stroke-linejoin:miter;stroke-opacity:1"/><path d="m 25.613989,58.658558 a 1.7749509,1.7749509 0 0 1 -1.774951,1.77495 1.7749509,1.7749509 0 0 1 -1.774951,-1.77495 1.7749509,1.7749509 0 0 1 1.774951,-1.774951 1.7749509,1.7749509 0 0 1 1.774951,1.774951 z" id="circle14956" style="opacity:1;fill:#00897b;fill-opacity:1;stroke:none;stroke-width:6.9000001;stroke-linecap:round;stroke-linejoin:miter;stroke-miterlimit:4;stroke-dasharray:none;stroke-dashoffset:0;stroke-opacity:1"/><path d="m 24.642434,52.511629 0.859449,0 0.859449,0 0.859449,0 0.859452,0 0,24.0646 -3.437799,0 z" id="path14958" style="opacity:1;fill:#3e2723;fill-opacity:1;stroke:none;stroke-width:6.9000001;stroke-linecap:round;stroke-linejoin:miter;stroke-miterlimit:4;stroke-dasharray:none;stroke-dashoffset:0;stroke-opacity:1"/><path d="m 29.095841,54.630662 1.294444,0.747348 -2.42888,4.206943 -1.294444,-0.747348 z" id="rect14960" style="opacity:1;fill:#3e2723;fill-opacity:1;stroke:none;stroke-width:6.9000001;stroke-linecap:round;stroke-linejoin:miter;stroke-miterlimit:4;stroke-dasharray:none;stroke-dashoffset:0;stroke-opacity:1"/><path d="m 24.642433,57.089123 a 1.7749509,1.7749509 0 0 1 -1.774951,1.774951 1.7749509,1.7749509 0 0 1 -1.774951,-1.774951 1.7749509,1.7749509 0 0 1 1.774951,-1.774951 1.7749509,1.7749509 0 0 1 1.774951,1.774951 z" id="circle14962" style="opacity:1;fill:#00695c;fill-opacity:1;stroke:none;stroke-width:6.9000001;stroke-linecap:round;stroke-linejoin:miter;stroke-miterlimit:4;stroke-dasharray:none;stroke-dashoffset:0;stroke-opacity:1"/><path d="m 22.512483,56.080203 a 1.7749509,1.7749509 0 0 1 -1.774951,1.77495 1.7749509,1.7749509 0 0 1 -1.774951,-1.77495 1.7749509,1.7749509 0 0 1 1.774951,-1.774951 1.7749509,1.7749509 0 0 1 1.774951,1.774951 z" id="circle14964" style="opacity:1;fill:#00897b;fill-opacity:1;stroke:none;stroke-width:6.9000001;stroke-linecap:round;stroke-linejoin:miter;stroke-miterlimit:4;stroke-dasharray:none;stroke-dashoffset:0;stroke-opacity:1"/><path d="m 22.28828,53.838159 a 1.7749509,1.7749509 0 0 1 -1.77495,1.774951 1.7749509,1.7749509 0 0 1 -1.774951,-1.774951 1.7749509,1.7749509 0 0 1 1.774951,-1.774951 1.7749509,1.7749509 0 0 1 1.77495,1.774951 z" id="circle14966" style="opacity:1;fill:#00897b;fill-opacity:1;stroke:none;stroke-width:6.9000001;stroke-linecap:round;stroke-linejoin:miter;stroke-miterlimit:4;stroke-dasharray:none;stroke-dashoffset:0;stroke-opacity:1"/><path d="m 22.998269,51.633481 a 1.7749509,1.7749509 0 0 1 -1.774951,1.77495 1.7749509,1.7749509 0 0 1 -1.774951,-1.77495 1.7749509,1.7749509 0 0 1 1.774951,-1.774951 1.7749509,1.7749509 0 0 1 1.774951,1.774951 z" id="circle14968" style="opacity:1;fill:#00897b;fill-opacity:1;stroke:none;stroke-width:6.9000001;stroke-linecap:round;stroke-linejoin:miter;stroke-miterlimit:4;stroke-dasharray:none;stroke-dashoffset:0;stroke-opacity:1"/><path d="m 20.980428,50.064045 a 1.7749509,1.7749509 0 0 1 -1.774951,1.774951 1.7749509,1.7749509 0 0 1 -1.77495,-1.774951 1.7749509,1.7749509 0 0 1 1.77495,-1.774951 1.7749509,1.7749509 0 0 1 1.774951,1.774951 z" id="circle14970" style="opacity:1;fill:#00897b;fill-opacity:1;stroke:none;stroke-width:6.9000001;stroke-linecap:round;stroke-linejoin:miter;stroke-miterlimit:4;stroke-dasharray:none;stroke-dashoffset:0;stroke-opacity:1"/><path d="m 21.316725,48.233042 a 1.7749509,1.7749509 0 0 1 -1.774951,1.774951 1.7749509,1.7749509 0 0 1 -1.774951,-1.774951 1.7749509,1.7749509 0 0 1 1.774951,-1.77495 1.7749509,1.7749509 0 0 1 1.774951,1.77495 z" id="circle14972" style="opacity:1;fill:#00897b;fill-opacity:1;stroke:none;stroke-width:6.9000001;stroke-linecap:round;stroke-linejoin:miter;stroke-miterlimit:4;stroke-dasharray:none;stroke-dashoffset:0;stroke-opacity:1"/><path d="m 23.110362,47.560434 a 1.7749509,1.7749509 0 0 1 -1.77495,1.774951 1.7749509,1.7749509 0 0 1 -1.774951,-1.774951 1.7749509,1.7749509 0 0 1 1.774951,-1.774951 1.7749509,1.7749509 0 0 1 1.77495,1.774951 z" id="circle14974" style="opacity:1;fill:#00897b;fill-opacity:1;stroke:none;stroke-width:6.9000001;stroke-linecap:round;stroke-linejoin:miter;stroke-miterlimit:4;stroke-dasharray:none;stroke-dashoffset:0;stroke-opacity:1"/><path d="m 22.28828,46.028364 a 1.7749509,1.7749509 0 0 1 -1.77495,1.774951 1.7749509,1.7749509 0 0 1 -1.774951,-1.774951 1.7749509,1.7749509 0 0 1 1.774951,-1.774951 1.7749509,1.7749509 0 0 1 1.77495,1.774951 z" id="circle14976" style="opacity:1;fill:#00897b;fill-opacity:1;stroke:none;stroke-width:6.9000001;stroke-linecap:round;stroke-linejoin:miter;stroke-miterlimit:4;stroke-dasharray:none;stroke-dashoffset:0;stroke-opacity:1"/><path d="m 24.119283,44.645767 a 1.7749509,1.7749509 0 0 1 -1.774951,1.77495 1.7749509,1.7749509 0 0 1 -1.774951,-1.77495 1.7749509,1.7749509 0 0 1 1.774951,-1.774951 1.7749509,1.7749509 0 0 1 1.774951,1.774951 z" id="circle14978" style="opacity:1;fill:#00897b;fill-opacity:1;stroke:none;stroke-width:6.9000001;stroke-linecap:round;stroke-linejoin:miter;stroke-miterlimit:4;stroke-dasharray:none;stroke-dashoffset:0;stroke-opacity:1"/><path d="m 19.934143,45.019443 a 1.7749509,1.7749509 0 0 1 -1.774951,1.774951 1.7749509,1.7749509 0 0 1 -1.774951,-1.774951 1.7749509,1.7749509 0 0 1 1.774951,-1.774951 1.7749509,1.7749509 0 0 1 1.774951,1.774951 z" id="circle14980" style="opacity:1;fill:#00897b;fill-opacity:1;stroke:none;stroke-width:6.9000001;stroke-linecap:round;stroke-linejoin:miter;stroke-miterlimit:4;stroke-dasharray:none;stroke-dashoffset:0;stroke-opacity:1"/><path d="m 17.6921,45.355757 a 1.7749509,1.7749509 0 0 1 -1.774951,1.77495 1.7749509,1.7749509 0 0 1 -1.774951,-1.77495 1.7749509,1.7749509 0 0 1 1.774951,-1.774951 1.7749509,1.7749509 0 0 1 1.774951,1.774951 z" id="circle14982" style="opacity:1;fill:#00897b;fill-opacity:1;stroke:none;stroke-width:6.9000001;stroke-linecap:round;stroke-linejoin:miter;stroke-miterlimit:4;stroke-dasharray:none;stroke-dashoffset:0;stroke-opacity:1"/><path d="m 17.542626,43.001604 a 1.7749509,1.7749509 0 0 1 -1.774951,1.77495 1.7749509,1.7749509 0 0 1 -1.774951,-1.77495 1.7749509,1.7749509 0 0 1 1.774951,-1.774952 1.7749509,1.7749509 0 0 1 1.774951,1.774952 z" id="circle14984" style="opacity:1;fill:#00897b;fill-opacity:1;stroke:none;stroke-width:6.9000001;stroke-linecap:round;stroke-linejoin:miter;stroke-miterlimit:4;stroke-dasharray:none;stroke-dashoffset:0;stroke-opacity:1"/><path d="m 18.738385,40.909032 a 1.7749509,1.7749509 0 0 1 -1.774951,1.774951 1.7749509,1.7749509 0 0 1 -1.774951,-1.774951 1.7749509,1.7749509 0 0 1 1.774951,-1.77495 1.7749509,1.7749509 0 0 1 1.774951,1.77495 z" id="circle14986" style="opacity:1;fill:#00897b;fill-opacity:1;stroke:none;stroke-width:6.9000001;stroke-linecap:round;stroke-linejoin:miter;stroke-miterlimit:4;stroke-dasharray:none;stroke-dashoffset:0;stroke-opacity:1"/><path d="m 20.644132,42.478467 a 1.7749509,1.7749509 0 0 1 -1.774951,1.774951 1.7749509,1.7749509 0 0 1 -1.774951,-1.774951 1.7749509,1.7749509 0 0 1 1.774951,-1.77495 1.7749509,1.7749509 0 0 1 1.774951,1.77495 z" id="circle14988" style="opacity:1;fill:#00897b;fill-opacity:1;stroke:none;stroke-width:6.9000001;stroke-linecap:round;stroke-linejoin:miter;stroke-miterlimit:4;stroke-dasharray:none;stroke-dashoffset:0;stroke-opacity:1"/><path d="m 22.101458,43.113712 a 1.7749509,1.7749509 0 0 1 -1.774951,1.774951 1.7749509,1.7749509 0 0 1 -1.774951,-1.774951 1.7749509,1.7749509 0 0 1 1.774951,-1.77495 1.7749509,1.7749509 0 0 1 1.774951,1.77495 z" id="circle14990" style="opacity:1;fill:#00897b;fill-opacity:1;stroke:none;stroke-width:6.9000001;stroke-linecap:round;stroke-linejoin:miter;stroke-miterlimit:4;stroke-dasharray:none;stroke-dashoffset:0;stroke-opacity:1"/><path d="m 24.642433,42.179521 a 1.7749509,1.7749509 0 0 1 -1.774951,1.77495 1.7749509,1.7749509 0 0 1 -1.774951,-1.77495 1.7749509,1.7749509 0 0 1 1.774951,-1.774952 1.7749509,1.7749509 0 0 1 1.774951,1.774952 z" id="circle14992" style="opacity:1;fill:#00897b;fill-opacity:1;stroke:none;stroke-width:6.9000001;stroke-linecap:round;stroke-linejoin:miter;stroke-miterlimit:4;stroke-dasharray:none;stroke-dashoffset:0;stroke-opacity:1"/><path d="m 26.361342,55.280768 a 1.7749509,1.7749509 0 0 1 -1.774951,1.774951 1.7749509,1.7749509 0 0 1 -1.774951,-1.774951 1.7749509,1.7749509 0 0 1 1.774951,-1.774951 1.7749509,1.7749509 0 0 1 1.774951,1.774951 z" id="circle14994" style="opacity:1;fill:#00897b;fill-opacity:1;stroke:none;stroke-width:6.9000001;stroke-linecap:round;stroke-linejoin:miter;stroke-miterlimit:4;stroke-dasharray:none;stroke-dashoffset:0;stroke-opacity:1"/><path d="m 24.567704,54.062346 a 1.7749509,1.7749509 0 0 1 -1.774951,1.774951 1.7749509,1.7749509 0 0 1 -1.774951,-1.774951 1.7749509,1.7749509 0 0 1 1.774951,-1.774951 1.7749509,1.7749509 0 0 1 1.774951,1.774951 z" id="circle14996" style="opacity:1;fill:#00897b;fill-opacity:1;stroke:none;stroke-width:6.9000001;stroke-linecap:round;stroke-linejoin:miter;stroke-miterlimit:4;stroke-dasharray:none;stroke-dashoffset:0;stroke-opacity:1"/><path d="m 26.062395,52.044521 a 1.7749509,1.7749509 0 0 1 -1.774951,1.774951 1.7749509,1.7749509 0 0 1 -1.774951,-1.774951 1.7749509,1.7749509 0 0 1 1.774951,-1.774951 1.7749509,1.7749509 0 0 1 1.774951,1.774951 z" id="circle14998" style="opacity:1;fill:#00897b;fill-opacity:1;stroke:none;stroke-width:6.9000001;stroke-linecap:round;stroke-linejoin:miter;stroke-miterlimit:4;stroke-dasharray:none;stroke-dashoffset:0;stroke-opacity:1"/><path d="m 23.969825,49.653004 a 1.7749509,1.7749509 0 0 1 -1.774951,1.774951 1.7749509,1.7749509 0 0 1 -1.774951,-1.774951 1.7749509,1.7749509 0 0 1 1.774951,-1.774951 1.7749509,1.7749509 0 0 1 1.774951,1.774951 z" id="circle15000" style="opacity:1;fill:#00897b;fill-opacity:1;stroke:none;stroke-width:6.9000001;stroke-linecap:round;stroke-linejoin:miter;stroke-miterlimit:4;stroke-dasharray:none;stroke-dashoffset:0;stroke-opacity:1"/><path d="m 26.697638,50.400342 a 1.7749509,1.7749509 0 0 1 -1.774951,1.774951 1.7749509,1.7749509 0 0 1 -1.774951,-1.774951 1.7749509,1.7749509 0 0 1 1.774951,-1.774951 1.7749509,1.7749509 0 0 1 1.774951,1.774951 z" id="circle15002" style="opacity:1;fill:#00897b;fill-opacity:1;stroke:none;stroke-width:6.9000001;stroke-linecap:round;stroke-linejoin:miter;stroke-miterlimit:4;stroke-dasharray:none;stroke-dashoffset:0;stroke-opacity:1"/><path d="m 25.875556,48.868271 a 1.7749509,1.7749509 0 0 1 -1.774951,1.774951 1.7749509,1.7749509 0 0 1 -1.774951,-1.774951 1.7749509,1.7749509 0 0 1 1.774951,-1.774951 1.7749509,1.7749509 0 0 1 1.774951,1.774951 z" id="circle15004" style="opacity:1;fill:#00695c;fill-opacity:1;stroke:none;stroke-width:6.9000001;stroke-linecap:round;stroke-linejoin:miter;stroke-miterlimit:4;stroke-dasharray:none;stroke-dashoffset:0;stroke-opacity:1"/><path d="m 27.706558,47.485674 a 1.7749509,1.7749509 0 0 1 -1.77495,1.774951 1.7749509,1.7749509 0 0 1 -1.774951,-1.774951 1.7749509,1.7749509 0 0 1 1.774951,-1.774951 1.7749509,1.7749509 0 0 1 1.77495,1.774951 z" id="circle15006" style="opacity:1;fill:#00897b;fill-opacity:1;stroke:none;stroke-width:6.9000001;stroke-linecap:round;stroke-linejoin:miter;stroke-miterlimit:4;stroke-dasharray:none;stroke-dashoffset:0;stroke-opacity:1"/><path d="m 25.688718,45.953619 a 1.7749509,1.7749509 0 0 1 -1.774951,1.774951 1.7749509,1.7749509 0 0 1 -1.774951,-1.774951 1.7749509,1.7749509 0 0 1 1.774951,-1.77495 1.7749509,1.7749509 0 0 1 1.774951,1.77495 z" id="circle15008" style="opacity:1;fill:#00897b;fill-opacity:1;stroke:none;stroke-width:6.9000001;stroke-linecap:round;stroke-linejoin:miter;stroke-miterlimit:4;stroke-dasharray:none;stroke-dashoffset:0;stroke-opacity:1"/><path d="m 28.229709,45.019428 a 1.7749509,1.7749509 0 0 1 -1.774951,1.774951 1.7749509,1.7749509 0 0 1 -1.77495,-1.774951 1.7749509,1.7749509 0 0 1 1.77495,-1.774951 1.7749509,1.7749509 0 0 1 1.774951,1.774951 z" id="circle15010" style="opacity:1;fill:#00897b;fill-opacity:1;stroke:none;stroke-width:6.9000001;stroke-linecap:round;stroke-linejoin:miter;stroke-miterlimit:4;stroke-dasharray:none;stroke-dashoffset:0;stroke-opacity:1"/><path d="m 29.462817,52.791859 a 1.7749509,1.7749509 0 0 1 -1.774951,1.77495 1.7749509,1.7749509 0 0 1 -1.774951,-1.77495 1.7749509,1.7749509 0 0 1 1.774951,-1.774951 1.7749509,1.7749509 0 0 1 1.774951,1.774951 z" id="circle15012" style="opacity:1;fill:#00897b;fill-opacity:1;stroke:none;stroke-width:6.9000001;stroke-linecap:round;stroke-linejoin:miter;stroke-miterlimit:4;stroke-dasharray:none;stroke-dashoffset:0;stroke-opacity:1"/><path d="m 28.640735,51.259788 a 1.7749509,1.7749509 0 0 1 -1.774951,1.774951 1.7749509,1.7749509 0 0 1 -1.774951,-1.774951 1.7749509,1.7749509 0 0 1 1.774951,-1.774951 1.7749509,1.7749509 0 0 1 1.774951,1.774951 z" id="circle15014" style="opacity:1;fill:#00897b;fill-opacity:1;stroke:none;stroke-width:6.9000001;stroke-linecap:round;stroke-linejoin:miter;stroke-miterlimit:4;stroke-dasharray:none;stroke-dashoffset:0;stroke-opacity:1"/><path d="m 30.471737,49.877191 a 1.7749509,1.7749509 0 0 1 -1.774951,1.774951 1.7749509,1.7749509 0 0 1 -1.774951,-1.774951 1.7749509,1.7749509 0 0 1 1.774951,-1.774951 1.7749509,1.7749509 0 0 1 1.774951,1.774951 z" id="circle15016" style="opacity:1;fill:#00897b;fill-opacity:1;stroke:none;stroke-width:6.9000001;stroke-linecap:round;stroke-linejoin:miter;stroke-miterlimit:4;stroke-dasharray:none;stroke-dashoffset:0;stroke-opacity:1"/><path d="m 28.453912,48.345137 a 1.7749509,1.7749509 0 0 1 -1.774951,1.774951 1.7749509,1.7749509 0 0 1 -1.774951,-1.774951 1.7749509,1.7749509 0 0 1 1.774951,-1.774952 1.7749509,1.7749509 0 0 1 1.774951,1.774952 z" id="circle15018" style="opacity:1;fill:#00897b;fill-opacity:1;stroke:none;stroke-width:6.9000001;stroke-linecap:round;stroke-linejoin:miter;stroke-miterlimit:4;stroke-dasharray:none;stroke-dashoffset:0;stroke-opacity:1"/><path d="m 30.994887,47.410945 a 1.7749509,1.7749509 0 0 1 -1.77495,1.774951 1.7749509,1.7749509 0 0 1 -1.774951,-1.774951 1.7749509,1.7749509 0 0 1 1.774951,-1.774951 1.7749509,1.7749509 0 0 1 1.77495,1.774951 z" id="circle15020" style="opacity:1;fill:#00897b;fill-opacity:1;stroke:none;stroke-width:6.9000001;stroke-linecap:round;stroke-linejoin:miter;stroke-miterlimit:4;stroke-dasharray:none;stroke-dashoffset:0;stroke-opacity:1"/><path d="m 31.779605,48.00884 a 1.7749509,1.7749509 0 0 1 -1.774951,1.774951 1.7749509,1.7749509 0 0 1 -1.774951,-1.774951 1.7749509,1.7749509 0 0 1 1.774951,-1.774951 1.7749509,1.7749509 0 0 1 1.774951,1.774951 z" id="circle15022" style="opacity:1;fill:#00897b;fill-opacity:1;stroke:none;stroke-width:6.9000001;stroke-linecap:round;stroke-linejoin:miter;stroke-miterlimit:4;stroke-dasharray:none;stroke-dashoffset:0;stroke-opacity:1"/><path d="m 30.957523,46.47677 a 1.7749509,1.7749509 0 0 1 -1.774951,1.77495 1.7749509,1.7749509 0 0 1 -1.774951,-1.77495 1.7749509,1.7749509 0 0 1 1.774951,-1.774951 1.7749509,1.7749509 0 0 1 1.774951,1.774951 z" id="circle15024" style="opacity:1;fill:#004d40;fill-opacity:1;stroke:none;stroke-width:6.9000001;stroke-linecap:round;stroke-linejoin:miter;stroke-miterlimit:4;stroke-dasharray:none;stroke-dashoffset:0;stroke-opacity:1"/><path d="m 32.788525,45.094174 a 1.7749509,1.7749509 0 0 1 -1.774951,1.774951 1.7749509,1.7749509 0 0 1 -1.774951,-1.774951 1.7749509,1.7749509 0 0 1 1.774951,-1.774951 1.7749509,1.7749509 0 0 1 1.774951,1.774951 z" id="circle15026" style="opacity:1;fill:#00897b;fill-opacity:1;stroke:none;stroke-width:6.9000001;stroke-linecap:round;stroke-linejoin:miter;stroke-miterlimit:4;stroke-dasharray:none;stroke-dashoffset:0;stroke-opacity:1"/><path d="m 30.770684,43.562118 a 1.7749509,1.7749509 0 0 1 -1.774951,1.774951 1.7749509,1.7749509 0 0 1 -1.774951,-1.774951 1.7749509,1.7749509 0 0 1 1.774951,-1.774952 1.7749509,1.7749509 0 0 1 1.774951,1.774952 z" id="circle15028" style="opacity:1;fill:#00897b;fill-opacity:1;stroke:none;stroke-width:6.9000001;stroke-linecap:round;stroke-linejoin:miter;stroke-miterlimit:4;stroke-dasharray:none;stroke-dashoffset:0;stroke-opacity:1"/><path d="m 34.95584,43.450008 a 1.7749509,1.7749509 0 0 1 -1.774951,1.77495 1.7749509,1.7749509 0 0 1 -1.774951,-1.77495 1.7749509,1.7749509 0 0 1 1.774951,-1.774951 1.7749509,1.7749509 0 0 1 1.774951,1.774951 z" id="circle15030" style="opacity:1;fill:#004d40;fill-opacity:1;stroke:none;stroke-width:6.9000001;stroke-linecap:round;stroke-linejoin:miter;stroke-miterlimit:4;stroke-dasharray:none;stroke-dashoffset:0;stroke-opacity:1"/><path d="m 33.311675,42.627926 a 1.7749509,1.7749509 0 0 1 -1.774951,1.774951 1.7749509,1.7749509 0 0 1 -1.774951,-1.774951 1.7749509,1.7749509 0 0 1 1.774951,-1.77495 1.7749509,1.7749509 0 0 1 1.774951,1.77495 z" id="circle15032" style="opacity:1;fill:#00897b;fill-opacity:1;stroke:none;stroke-width:6.9000001;stroke-linecap:round;stroke-linejoin:miter;stroke-miterlimit:4;stroke-dasharray:none;stroke-dashoffset:0;stroke-opacity:1"/><path d="m 26.286597,43.225806 a 1.7749509,1.7749509 0 0 1 -1.774951,1.77495 1.7749509,1.7749509 0 0 1 -1.774951,-1.77495 1.7749509,1.7749509 0 0 1 1.774951,-1.774951 1.7749509,1.7749509 0 0 1 1.774951,1.774951 z" id="circle15034" style="opacity:1;fill:#00897b;fill-opacity:1;stroke:none;stroke-width:6.9000001;stroke-linecap:round;stroke-linejoin:miter;stroke-miterlimit:4;stroke-dasharray:none;stroke-dashoffset:0;stroke-opacity:1"/><path d="m 28.902318,41.880573 a 1.7749509,1.7749509 0 0 1 -1.774951,1.77495 1.7749509,1.7749509 0 0 1 -1.774951,-1.77495 1.7749509,1.7749509 0 0 1 1.774951,-1.774951 1.7749509,1.7749509 0 0 1 1.774951,1.774951 z" id="circle15036" style="opacity:1;fill:#00897b;fill-opacity:1;stroke:none;stroke-width:6.9000001;stroke-linecap:round;stroke-linejoin:miter;stroke-miterlimit:4;stroke-dasharray:none;stroke-dashoffset:0;stroke-opacity:1"/><path d="m 31.443308,40.834289 a 1.7749509,1.7749509 0 0 1 -1.77495,1.774952 1.7749509,1.7749509 0 0 1 -1.774951,-1.774952 1.7749509,1.7749509 0 0 1 1.774951,-1.77495 1.7749509,1.7749509 0 0 1 1.77495,1.77495 z" id="circle15038" style="opacity:1;fill:#00897b;fill-opacity:1;stroke:none;stroke-width:6.9000001;stroke-linecap:round;stroke-linejoin:miter;stroke-miterlimit:4;stroke-dasharray:none;stroke-dashoffset:0;stroke-opacity:1"/><path d="m 29.500196,39.339597 a 1.7749509,1.7749509 0 0 1 -1.774951,1.774951 1.7749509,1.7749509 0 0 1 -1.774951,-1.774951 1.7749509,1.7749509 0 0 1 1.774951,-1.77495 1.7749509,1.7749509 0 0 1 1.774951,1.77495 z" id="circle15040" style="opacity:1;fill:#00897b;fill-opacity:1;stroke:none;stroke-width:6.9000001;stroke-linecap:round;stroke-linejoin:miter;stroke-miterlimit:4;stroke-dasharray:none;stroke-dashoffset:0;stroke-opacity:1"/><path d="m 34.059027,39.862749 a 1.7749509,1.7749509 0 0 1 -1.77495,1.774952 1.7749509,1.7749509 0 0 1 -1.774951,-1.774952 1.7749509,1.7749509 0 0 1 1.774951,-1.774951 1.7749509,1.7749509 0 0 1 1.77495,1.774951 z" id="circle15042" style="opacity:1;fill:#00897b;fill-opacity:1;stroke:none;stroke-width:6.9000001;stroke-linecap:round;stroke-linejoin:miter;stroke-miterlimit:4;stroke-dasharray:none;stroke-dashoffset:0;stroke-opacity:1"/><path d="m 22.998284,40.311154 a 1.7749509,1.7749509 0 0 1 -1.774951,1.774951 1.7749509,1.7749509 0 0 1 -1.77495,-1.774951 1.7749509,1.7749509 0 0 1 1.77495,-1.77495 1.7749509,1.7749509 0 0 1 1.774951,1.77495 z" id="circle15044" style="opacity:1;fill:#00897b;fill-opacity:1;stroke:none;stroke-width:6.9000001;stroke-linecap:round;stroke-linejoin:miter;stroke-miterlimit:4;stroke-dasharray:none;stroke-dashoffset:0;stroke-opacity:1"/><path d="m 19.859414,52.791859 a 1.7749509,1.7749509 0 0 1 -1.774951,1.77495 1.7749509,1.7749509 0 0 1 -1.774951,-1.77495 1.7749509,1.7749509 0 0 1 1.774951,-1.774951 1.7749509,1.7749509 0 0 1 1.774951,1.774951 z" id="circle15046" style="opacity:1;fill:#00897b;fill-opacity:1;stroke:none;stroke-width:6.9000001;stroke-linecap:round;stroke-linejoin:miter;stroke-miterlimit:4;stroke-dasharray:none;stroke-dashoffset:0;stroke-opacity:1"/><path d="m 19.635211,47.859366 a 1.7749509,1.7749509 0 0 1 -1.77495,1.774951 1.7749509,1.7749509 0 0 1 -1.774951,-1.774951 1.7749509,1.7749509 0 0 1 1.774951,-1.77495 1.7749509,1.7749509 0 0 1 1.77495,1.77495 z" id="circle15048" style="opacity:1;fill:#004d40;fill-opacity:1;stroke:none;stroke-width:6.9000001;stroke-linecap:round;stroke-linejoin:miter;stroke-miterlimit:4;stroke-dasharray:none;stroke-dashoffset:0;stroke-opacity:1"/><path d="m 19.485738,49.57826 a 1.7749509,1.7749509 0 0 1 -1.774951,1.774951 1.7749509,1.7749509 0 0 1 -1.774951,-1.774951 1.7749509,1.7749509 0 0 1 1.774951,-1.774951 1.7749509,1.7749509 0 0 1 1.774951,1.774951 z" id="circle15050" style="opacity:1;fill:#00897b;fill-opacity:1;stroke:none;stroke-width:6.9000001;stroke-linecap:round;stroke-linejoin:miter;stroke-miterlimit:4;stroke-dasharray:none;stroke-dashoffset:0;stroke-opacity:1"/><path d="m 34.059013,47.336217 a 1.7749509,1.7749509 0 0 1 -1.774952,1.774951 1.7749509,1.7749509 0 0 1 -1.77495,-1.774951 1.7749509,1.7749509 0 0 1 1.77495,-1.774951 1.7749509,1.7749509 0 0 1 1.774952,1.774951 z" id="circle15052" style="opacity:1;fill:#00897b;fill-opacity:1;stroke:none;stroke-width:6.9000001;stroke-linecap:round;stroke-linejoin:miter;stroke-miterlimit:4;stroke-dasharray:none;stroke-dashoffset:0;stroke-opacity:1"/><path d="m 32.041171,50.026665 a 1.7749509,1.7749509 0 0 1 -1.77495,1.774951 1.7749509,1.7749509 0 0 1 -1.774951,-1.774951 1.7749509,1.7749509 0 0 1 1.774951,-1.774951 1.7749509,1.7749509 0 0 1 1.77495,1.774951 z" id="circle15054" style="opacity:1;fill:#00897b;fill-opacity:1;stroke:none;stroke-width:6.9000001;stroke-linecap:round;stroke-linejoin:miter;stroke-miterlimit:4;stroke-dasharray:none;stroke-dashoffset:0;stroke-opacity:1"/><path d="m 32.887482,56.395199 a 1.7749509,1.7749509 0 0 1 -1.774951,1.77495 1.7749509,1.7749509 0 0 1 -1.774951,-1.77495 1.7749509,1.7749509 0 0 1 1.774951,-1.774951 1.7749509,1.7749509 0 0 1 1.774951,1.774951 z" id="circle15056" style="opacity:1;fill:#00897b;fill-opacity:1;stroke:none;stroke-width:6.9000001;stroke-linecap:round;stroke-linejoin:miter;stroke-miterlimit:4;stroke-dasharray:none;stroke-dashoffset:0;stroke-opacity:1"/><path d="m 34.340733,55.179751 a 1.7749509,1.7749509 0 0 1 -1.774951,1.774951 1.7749509,1.7749509 0 0 1 -1.774951,-1.774951 1.7749509,1.7749509 0 0 1 1.774951,-1.774951 1.7749509,1.7749509 0 0 1 1.774951,1.774951 z" id="circle15058" style="opacity:1;fill:#00897b;fill-opacity:1;stroke:none;stroke-width:6.9000001;stroke-linecap:round;stroke-linejoin:miter;stroke-miterlimit:4;stroke-dasharray:none;stroke-dashoffset:0;stroke-opacity:1"/><path d="m 31.539926,54.519179 a 1.7749509,1.7749509 0 0 1 -1.774951,1.774951 1.7749509,1.7749509 0 0 1 -1.774951,-1.774951 1.7749509,1.7749509 0 0 1 1.774951,-1.774951 1.7749509,1.7749509 0 0 1 1.774951,1.774951 z" id="circle15060" style="opacity:1;fill:#00897b;fill-opacity:1;stroke:none;stroke-width:6.9000001;stroke-linecap:round;stroke-linejoin:miter;stroke-miterlimit:4;stroke-dasharray:none;stroke-dashoffset:0;stroke-opacity:1"/><path d="m 33.495214,52.854551 a 1.7749509,1.7749509 0 0 1 -1.774951,1.774951 1.7749509,1.7749509 0 0 1 -1.77495,-1.774951 1.7749509,1.7749509 0 0 1 1.77495,-1.77495 1.7749509,1.7749509 0 0 1 1.774951,1.77495 z" id="circle15062" style="opacity:1;fill:#00897b;fill-opacity:1;stroke:none;stroke-width:6.9000001;stroke-linecap:round;stroke-linejoin:miter;stroke-miterlimit:4;stroke-dasharray:none;stroke-dashoffset:0;stroke-opacity:1"/><path d="m 35.556183,52.563907 a 1.7749509,1.7749509 0 0 1 -1.774953,1.774951 1.7749509,1.7749509 0 0 1 -1.77495,-1.774951 1.7749509,1.7749509 0 0 1 1.77495,-1.774951 1.7749509,1.7749509 0 0 1 1.774953,1.774951 z" id="circle15064" style="opacity:1;fill:#00897b;fill-opacity:1;stroke:none;stroke-width:6.9000001;stroke-linecap:round;stroke-linejoin:miter;stroke-miterlimit:4;stroke-dasharray:none;stroke-dashoffset:0;stroke-opacity:1"/><path d="m 35.344806,53.673659 a 1.7749509,1.7749509 0 0 1 -1.774951,1.774951 1.7749509,1.7749509 0 0 1 -1.77495,-1.774951 1.7749509,1.7749509 0 0 1 1.77495,-1.774951 1.7749509,1.7749509 0 0 1 1.774951,1.774951 z" id="circle15066" style="opacity:1;fill:#00897b;fill-opacity:1;stroke:none;stroke-width:6.9000001;stroke-linecap:round;stroke-linejoin:miter;stroke-miterlimit:4;stroke-dasharray:none;stroke-dashoffset:0;stroke-opacity:1"/><path d="m 36.480985,50.529351 a 1.7749509,1.7749509 0 0 1 -1.774951,1.774951 1.7749509,1.7749509 0 0 1 -1.77495,-1.774951 1.7749509,1.7749509 0 0 1 1.77495,-1.774951 1.7749509,1.7749509 0 0 1 1.774951,1.774951 z" id="circle15068" style="opacity:1;fill:#00897b;fill-opacity:1;stroke:none;stroke-width:6.9000001;stroke-linecap:round;stroke-linejoin:miter;stroke-miterlimit:4;stroke-dasharray:none;stroke-dashoffset:0;stroke-opacity:1"/><path d="m 38.330578,52.696015 a 1.7749509,1.7749509 0 0 1 -1.77495,1.774951 1.7749509,1.7749509 0 0 1 -1.774952,-1.774951 1.7749509,1.7749509 0 0 1 1.774952,-1.774951 1.7749509,1.7749509 0 0 1 1.77495,1.774951 z" id="circle15070" style="opacity:1;fill:#00897b;fill-opacity:1;stroke:none;stroke-width:6.9000001;stroke-linecap:round;stroke-linejoin:miter;stroke-miterlimit:4;stroke-dasharray:none;stroke-dashoffset:0;stroke-opacity:1"/><path d="m 38.119185,54.677715 a 1.7749509,1.7749509 0 0 1 -1.774951,1.774951 1.7749509,1.7749509 0 0 1 -1.774952,-1.774951 1.7749509,1.7749509 0 0 1 1.774952,-1.774951 1.7749509,1.7749509 0 0 1 1.774951,1.774951 z" id="circle15072" style="opacity:1;fill:#00897b;fill-opacity:1;stroke:none;stroke-width:6.9000001;stroke-linecap:round;stroke-linejoin:miter;stroke-miterlimit:4;stroke-dasharray:none;stroke-dashoffset:0;stroke-opacity:1"/><path d="m 34.974878,55.576091 a 1.7749509,1.7749509 0 0 1 -1.77495,1.774951 1.7749509,1.7749509 0 0 1 -1.774952,-1.774951 1.7749509,1.7749509 0 0 1 1.774952,-1.774951 1.7749509,1.7749509 0 0 1 1.77495,1.774951 z" id="circle15074" style="opacity:1;fill:#00897b;fill-opacity:1;stroke:none;stroke-width:6.9000001;stroke-linecap:round;stroke-linejoin:miter;stroke-miterlimit:4;stroke-dasharray:none;stroke-dashoffset:0;stroke-opacity:1"/><path d="m 38.436257,50.872851 a 1.7749509,1.7749509 0 0 1 -1.774951,1.774951 1.7749509,1.7749509 0 0 1 -1.77495,-1.774951 1.7749509,1.7749509 0 0 1 1.77495,-1.774951 1.7749509,1.7749509 0 0 1 1.774951,1.774951 z" id="circle15076" style="opacity:1;fill:#00897b;fill-opacity:1;stroke:none;stroke-width:6.9000001;stroke-linecap:round;stroke-linejoin:miter;stroke-miterlimit:4;stroke-dasharray:none;stroke-dashoffset:0;stroke-opacity:1"/><path d="m 26.286597,38.786784 a 1.7749509,1.7749509 0 0 1 -1.774951,1.774951 1.7749509,1.7749509 0 0 1 -1.774951,-1.774951 1.7749509,1.7749509 0 0 1 1.774951,-1.774952 1.7749509,1.7749509 0 0 1 1.774951,1.774952 z" id="circle15078" style="opacity:1;fill:#00695c;fill-opacity:1;stroke:none;stroke-width:6.9000001;stroke-linecap:round;stroke-linejoin:miter;stroke-miterlimit:4;stroke-dasharray:none;stroke-dashoffset:0;stroke-opacity:1"/><path d="m 28.189044,40.689214 a 1.7749509,1.7749509 0 0 1 -1.774951,1.774951 1.7749509,1.7749509 0 0 1 -1.77495,-1.774951 1.7749509,1.7749509 0 0 1 1.77495,-1.77495 1.7749509,1.7749509 0 0 1 1.774951,1.77495 z" id="circle15080" style="opacity:1;fill:#00897b;fill-opacity:1;stroke:none;stroke-width:6.9000001;stroke-linecap:round;stroke-linejoin:miter;stroke-miterlimit:4;stroke-dasharray:none;stroke-dashoffset:0;stroke-opacity:1"/><path d="m 26.286597,41.006286 a 1.7749509,1.7749509 0 0 1 -1.774951,1.774952 1.7749509,1.7749509 0 0 1 -1.774951,-1.774952 1.7749509,1.7749509 0 0 1 1.774951,-1.77495 1.7749509,1.7749509 0 0 1 1.774951,1.77495 z" id="circle15082" style="opacity:1;fill:#00897b;fill-opacity:1;stroke:none;stroke-width:6.9000001;stroke-linecap:round;stroke-linejoin:miter;stroke-miterlimit:4;stroke-dasharray:none;stroke-dashoffset:0;stroke-opacity:1"/></svg>