<?xml version="1.0" encoding="iso-8859-1"?>
<!-- Generator: Adobe Illustrator 19.0.0, SVG Export Plug-In . SVG Version: 6.00 Build 0)  -->
<svg version="1.1" id="Capa_1" xmlns="http://www.w3.org/2000/svg" xmlns:xlink="http://www.w3.org/1999/xlink" x="0px" y="0px"
	 viewBox="0 0 512 512" style="enable-background:new 0 0 512 512;" xml:space="preserve">
<path style="fill:#00EED0;" d="M451,105v75l-30,31H91l-30-31v-75c0-24.901,20.099-45,45-45h300C430.901,60,451,80.099,451,105z"/>
<path style="fill:#00DDC1;" d="M451,105v75l-30,31H256V60h150C430.901,60,451,80.099,451,105z"/>
<path style="fill:#ECECF1;" d="M451,180v287c0,24.899-20.099,45-45,45H106c-24.901,0-45-20.101-45-45V180H451z"/>
<path style="fill:#E2E2E7;" d="M451,180v287c0,24.899-20.099,45-45,45H256V180H451z"/>
<path style="fill:#D3D3D8;" d="M256,242c-57.9,0-105,47.1-105,105s47.1,105,105,105s105-47.1,105-105S313.9,242,256,242z"/>
<path style="fill:#BABAC0;" d="M361,347c0,57.9-47.1,105-105,105V242C313.9,242,361,289.1,361,347z"/>
<g>
	<path style="fill:#6E6E6E;" d="M166,150h-30c-8.291,0-15-6.709-15-15s6.709-15,15-15h30c8.291,0,15,6.709,15,15
		S174.291,150,166,150z"/>
	<path style="fill:#6E6E6E;" d="M271,135c0,8.399-6.599,15-15,15h-30c-8.401,0-15-6.601-15-15c0-8.401,6.599-15,15-15h30
		C264.401,120,271,126.599,271,135z"/>
</g>
<g>
	<path style="fill:#5A5A5A;" d="M346,150h-30c-8.291,0-15-6.709-15-15s6.709-15,15-15h30c8.291,0,15,6.709,15,15
		S354.291,150,346,150z"/>
	<path style="fill:#5A5A5A;" d="M256,150v-30c8.401,0,15,6.599,15,15C271,143.399,264.401,150,256,150z"/>
</g>
<path style="fill:#00EED0;" d="M297.4,284.599v124.799C285.7,417.499,271.3,422,256,422c-41.4,0-75-33.6-75-75s33.6-75,75-75
	C271.3,272,285.7,276.499,297.4,284.599z"/>
<path style="fill:#00DDC1;" d="M297.4,284.599v124.799C285.7,417.499,271.3,422,256,422V272C271.3,272,285.7,276.499,297.4,284.599z
	"/>
<path style="fill:#5A5A5A;" d="M297.4,284.599l-21.899,21.899C272.5,309.2,271,313.1,271,317v60c0,3.9,1.5,7.8,4.501,10.499
	l21.899,21.899C317.5,396.2,331,373.1,331,347S317.5,297.8,297.4,284.599z"/>
<path style="fill:#FF9F00;" d="M271,30c0,11.1-6,20.7-15,25.8c-4.501,2.701-9.6,4.2-15,4.2H91c-16.5,0-30-13.5-30-30S74.5,0,91,0
	h150c5.4,0,10.499,1.5,15,4.2C265,9.3,271,18.9,271,30z"/>
<path style="fill:#FF7816;" d="M271,30c0,11.1-6,20.7-15,25.8V4.2C265,9.3,271,18.9,271,30z"/>
<g>
</g>
<g>
</g>
<g>
</g>
<g>
</g>
<g>
</g>
<g>
</g>
<g>
</g>
<g>
</g>
<g>
</g>
<g>
</g>
<g>
</g>
<g>
</g>
<g>
</g>
<g>
</g>
<g>
</g>
</svg>
