<?xml version="1.0" encoding="iso-8859-1"?>
<!-- Generator: Adobe Illustrator 19.0.0, SVG Export Plug-In . SVG Version: 6.00 Build 0)  -->
<svg version="1.1" id="Layer_1" xmlns="http://www.w3.org/2000/svg" xmlns:xlink="http://www.w3.org/1999/xlink" x="0px" y="0px"
	 viewBox="0 0 511.999 511.999" style="enable-background:new 0 0 511.999 511.999;" xml:space="preserve">
<path style="fill:#9FD3DC;" d="M490.497,320.507l-207.985-1.09c-9.161-9.16-14.206-21.339-14.206-34.293
	c0-26.702,21.692-48.434,48.379-48.5c7.887-16.254,24.571-27.385,43.658-27.385c9.696,0,18.931,2.847,26.725,8
	c7.793-5.155,17.029-8,26.723-8c19.086,0,35.77,11.131,43.658,27.385c26.686,0.066,48.379,21.798,48.379,48.5
	C505.827,298.475,500.24,311.37,490.497,320.507z"/>
<path style="fill:#70C9D8;" d="M490.497,320.507l-103.43-1.09V217.239c7.793-5.155,17.029-8,26.723-8
	c19.086,0,35.77,11.131,43.658,27.385c26.686,0.066,48.379,21.798,48.379,48.5C505.827,298.475,500.24,311.37,490.497,320.507z"/>
<polygon style="fill:#E79C25;" points="243.672,505.484 8.203,505.484 8.203,423.576 43.184,423.576 208.69,423.576 
	243.672,423.576 "/>
<polygon style="fill:#95BB40;" points="477.924,505.455 296.21,505.455 272.906,310.229 501.229,310.229 "/>
<polygon style="fill:#547C01;" points="477.924,505.455 387.067,505.455 387.067,310.229 501.229,310.229 "/>
<polygon style="fill:#F7F7F8;" points="440.493,386.474 333.641,386.474 313.934,312.7 346.432,304.018 359.473,352.835 
	414.662,352.835 427.702,304.018 460.201,312.7 "/>
<polygon style="fill:#D7D7D7;" points="440.493,386.474 387.067,386.474 387.067,352.835 414.662,352.835 427.702,304.018 
	460.201,312.7 "/>
<circle style="fill:#9FD3DC;" cx="370.919" cy="30.686" r="24.171"/>
<path style="fill:#70C9D8;" d="M370.923,54.857c13.349,0,24.171-10.821,24.171-24.171S384.273,6.515,370.923,6.515V54.857z"/>
<g>
	<circle style="fill:#9FD3DC;" cx="439.43" cy="109.504" r="24.171"/>
	<circle style="fill:#9FD3DC;" cx="346.756" cy="154.95" r="24.171"/>
</g>
<g>
	<path style="fill:#70C9D8;" d="M439.426,133.67c13.349,0,24.171-10.821,24.171-24.171s-10.821-24.171-24.171-24.171V133.67z"/>
	<path style="fill:#70C9D8;" d="M346.751,179.123c13.349,0,24.171-10.821,24.171-24.171c0-13.35-10.821-24.171-24.171-24.171
		V179.123z"/>
</g>
<g>
	<rect x="41.846" y="423.586" style="fill:#F0C838;" width="33.638" height="81.876"/>
	<rect x="109.123" y="423.586" style="fill:#F0C838;" width="33.638" height="81.876"/>
	<rect x="176.4" y="423.586" style="fill:#F0C838;" width="33.638" height="81.876"/>
</g>
<rect x="109.123" y="54.857" style="fill:#5B370D;" width="33.638" height="314.799"/>
<rect x="125.942" y="54.857" style="fill:#3A1F05;" width="16.819" height="314.799"/>
<path style="fill:#82370D;" d="M251.874,434.319H0v-70.74h251.874V434.319z"/>
<path style="fill:#5B370D;" d="M251.874,434.319H125.938v-70.74h125.938v70.74H251.874z"/>
<rect x="262.133" y="291.421" style="fill:#C0E466;" width="249.866" height="33.638"/>
<rect x="387.066" y="291.421" style="fill:#95BB40;" width="124.933" height="33.638"/>
<g>
</g>
<g>
</g>
<g>
</g>
<g>
</g>
<g>
</g>
<g>
</g>
<g>
</g>
<g>
</g>
<g>
</g>
<g>
</g>
<g>
</g>
<g>
</g>
<g>
</g>
<g>
</g>
<g>
</g>
</svg>
