<?xml version="1.0" encoding="iso-8859-1"?>
<!-- Generator: Adobe Illustrator 19.0.0, SVG Export Plug-In . SVG Version: 6.00 Build 0)  -->
<svg version="1.1" id="Capa_1" xmlns="http://www.w3.org/2000/svg" xmlns:xlink="http://www.w3.org/1999/xlink" x="0px" y="0px"
	 viewBox="0 0 511.93 511.93" style="enable-background:new 0 0 511.93 511.93;" xml:space="preserve">
<g>
	<path style="fill:#35495E;" d="M286.302,43.319c0,0-26.034,20.827-26.034,41.654s8.678,27.769,8.678,27.769v69.408h34.712v-69.408
		c0,0,8.678-6.942,8.678-27.769S286.302,43.319,286.302,43.319z"/>
	<path style="fill:#FDD7AD;" d="M381.76,8.607c-33.549,0-60.746,7.771-60.746,17.356l34.712,60.746v95.442h52.068V86.709
		l34.712-60.746C442.505,16.378,415.309,8.607,381.76,8.607z"/>
	<g>
		<path style="fill:#35495E;" d="M199.781,49.892l-8.937,45.495v86.78h34.712v-86.78l-8.937-45.495
			c-0.966-3.863-4.437-6.574-8.419-6.574S200.747,46.029,199.781,49.892z"/>
		<path style="fill:#35495E;" d="M147.455,130.099c-4.787-0.014-8.664-3.891-8.678-8.678V95.387c4.793,0,8.678-3.885,8.678-8.678
			V17.285c0-4.793-3.885-8.678-8.678-8.678h-43.39c-4.793,0-8.678,3.885-8.678,8.678v69.424c0,4.793,3.885,8.678,8.678,8.678v26.034
			c-0.014,4.787-3.891,8.664-8.678,8.678c-4.787,0.014-8.664,3.891-8.678,8.678v43.39h78.102v-43.39
			C156.118,133.99,152.241,130.113,147.455,130.099z"/>
	</g>
	<rect x="355.726" y="121.405" style="fill:#CB8252;" width="52.068" height="60.746"/>
	<rect x="355.726" y="86.693" style="fill:#D1D4D1;" width="52.068" height="34.712"/>
	<rect x="190.844" y="95.388" style="fill:#2C3E50;" width="34.712" height="86.78"/>
	<rect x="268.946" y="147.439" style="fill:#CB8252;" width="34.712" height="34.712"/>
	<rect x="268.946" y="112.727" style="fill:#D1D4D1;" width="34.712" height="34.712"/>
	<path style="fill:#CC4B4C;" d="M156.133,182.167v-43.39c-0.014-4.787-3.891-8.664-8.678-8.678s-8.664-3.891-8.678-8.678V95.387
		h-43.39v26.034c-0.014,4.787-3.891,8.664-8.678,8.678c-4.787,0.014-8.664,3.891-8.678,8.678v43.39"/>
	<path style="fill:#BDC3C7;" d="M465.861,209.39c-3.509-0.001-6.673-2.115-8.016-5.357c-1.343-3.242-0.601-6.974,1.88-9.456
		l32.271-32.271c2.455-2.497,3.174-6.222,1.826-9.453c-1.348-3.231-4.502-5.34-8.004-5.352h-0.025
		c-2.276,0.007-4.454,0.929-6.042,2.559l-39.691,39.686c-3.389,3.389-8.883,3.389-12.271,0c-3.389-3.389-3.389-8.883,0-12.271
		l39.648-39.644c4.824-4.908,11.415-7.677,18.297-7.686h0.089c10.545-0.042,20.072,6.288,24.117,16.027
		c4.045,9.738,1.808,20.956-5.663,28.397l-32.28,32.28C470.371,208.478,468.163,209.393,465.861,209.39z"/>
	<path style="fill:#E4C05C;" d="M416.401,173.489H86.78c-23.028,0-45.111,9.153-61.388,25.442S-0.019,237.312,0,260.339
		l0.177,234.064c-0.065,2.342,0.82,4.612,2.454,6.291s3.878,2.628,6.221,2.628h485.477c2.343,0,4.587-0.948,6.221-2.628
		c1.634-1.68,2.519-3.949,2.454-6.291l0.177-234.064c0.019-23.028-9.116-45.119-25.392-61.408
		C461.512,182.641,439.428,173.489,416.401,173.489z"/>
	<path style="fill:#D75E72;" d="M350.687,328.114l-33.032,35.233l-66.065,70.552l-66.065-70.552l-33.032-35.233
		c-18.289-19.962-18.289-50.59,0-70.552c8.472-9.287,20.462-14.579,33.032-14.579c12.571,0,24.561,5.292,33.032,14.579
		l33.032,35.319l33.032-35.319c8.472-9.287,20.462-14.579,33.032-14.579s24.561,5.292,33.032,14.579
		C368.976,277.524,368.976,308.153,350.687,328.114z"/>
	<g>
		<path style="fill:#F5EFCA;" d="M34.641,390.509c-2.302,0.001-4.509-0.914-6.137-2.541c-1.628-1.628-2.542-3.835-2.541-6.137
			V269.017c0-4.793,3.885-8.678,8.678-8.678s8.678,3.885,8.678,8.678v112.814c0.001,2.302-0.913,4.509-2.541,6.137
			C39.15,389.595,36.943,390.509,34.641,390.509z"/>
		<path style="fill:#F5EFCA;" d="M34.641,459.932c-2.302,0.001-4.509-0.913-6.137-2.541c-1.628-1.628-2.542-3.835-2.541-6.137
			v-34.712c0-4.793,3.885-8.678,8.678-8.678s8.678,3.885,8.678,8.678v34.712c0.001,2.302-0.913,4.509-2.541,6.137
			C39.15,459.019,36.943,459.933,34.641,459.932z"/>
	</g>
</g>
<g>
</g>
<g>
</g>
<g>
</g>
<g>
</g>
<g>
</g>
<g>
</g>
<g>
</g>
<g>
</g>
<g>
</g>
<g>
</g>
<g>
</g>
<g>
</g>
<g>
</g>
<g>
</g>
<g>
</g>
</svg>
