<?xml version="1.0" encoding="iso-8859-1"?>
<!-- Generator: Adobe Illustrator 19.0.0, SVG Export Plug-In . SVG Version: 6.00 Build 0)  -->
<svg version="1.1" id="Capa_1" xmlns="http://www.w3.org/2000/svg" xmlns:xlink="http://www.w3.org/1999/xlink" x="0px" y="0px"
	 viewBox="0 0 512.001 512.001" style="enable-background:new 0 0 512.001 512.001;" xml:space="preserve">
<circle style="fill:#FF8DB9;" cx="250.501" cy="267" r="245"/>
<path style="fill:#EEF6FF;" d="M259.966,163.296c0,1.919-0.732,3.839-2.196,5.304c-2.929,2.929-7.678,2.929-10.607,0
	c-32.809-32.809-86.192-32.809-119.001,0c-2.929,2.929-7.677,2.928-10.606,0c-2.929-2.93-2.929-7.678-0.001-10.607
	c38.657-38.656,101.557-38.656,140.214,0C259.233,159.457,259.965,161.377,259.966,163.296z"/>
<path style="fill:#C3DDF4;" d="M241.344,184.879c0.001,1.919-0.732,3.838-2.197,5.303c-2.929,2.93-7.677,2.93-10.606,0
	c-22.541-22.54-59.216-22.54-81.756,0c-2.929,2.93-7.678,2.93-10.607,0s-2.928-7.678,0-10.606c28.389-28.389,74.581-28.389,102.97,0
	C240.611,181.039,241.344,182.959,241.344,184.879z"/>
<g>
	<path style="fill:#94C2ED;" d="M222.723,206.5c0,1.92-0.732,3.838-2.198,5.303c-2.929,2.93-7.678,2.93-10.607,0
		c-5.944-5.944-13.849-9.219-22.256-9.219s-16.311,3.274-22.257,9.219c-2.928,2.93-7.678,2.93-10.606,0
		c-2.929-2.928-2.929-7.678,0-10.605c8.778-8.779,20.449-13.613,32.863-13.614c12.415,0.001,24.087,4.835,32.863,13.614
		C221.99,202.661,222.722,204.581,222.723,206.5z"/>
	<path style="fill:#94C2ED;" d="M175.936,348.664v13.95c3.574-1.677,7.548-2.618,11.727-2.618c4.178,0,8.152,0.941,11.727,2.618
		v-13.95H175.936z"/>
</g>
<path style="fill:#6A8AC4;" d="M186.001,348.664h-10.065v13.95c3.097-1.453,6.495-2.351,10.065-2.565V348.664z"/>
<g>
	<path style="fill:#94C2ED;" d="M215.409,380.996c-2.942-12.607-14.244-22-27.747-22c-13.503,0-24.804,9.393-27.747,22H215.409z"/>
	<path style="fill:#94C2ED;" d="M192.705,359.445c-1.637-0.293-3.321-0.449-5.043-0.449c-13.503,0-24.804,9.393-27.747,22h10.086
		C172.568,369.997,181.5,361.447,192.705,359.445z"/>
	<path style="fill:#94C2ED;" d="M241.662,379.996h-108c-5.5,0-10,4.5-10,10v86.654c37,22.433,80.41,35.35,126.839,35.35
		c0.388,0,0.773-0.013,1.161-0.015V389.996C251.662,384.496,247.162,379.996,241.662,379.996z"/>
</g>
<path style="fill:#6A8AC4;" d="M144.001,389.996c0-5.5,4.5-10,10-10h-20.339c-5.5,0-10,4.5-10,10v86.654
	c6.582,3.99,13.37,7.674,20.339,11.043V389.996z"/>
<path style="fill:#2E4C89;" d="M291.662,344.412c0,2.889-2.363,5.252-5.252,5.252H88.915c-2.89,0-5.253-2.363-5.253-5.252V231.58
	c0-2.889,2.363-5.253,5.253-5.253H286.41c2.889,0,5.252,2.364,5.252,5.253V344.412z"/>
<path style="fill:#94C2ED;" d="M99.269,337.059c-1.65,0-3-1.35-3-3v-92.125c0-1.65,1.35-3,3-3h176.788c1.65,0,3,1.35,3,3v92.125
	c0,1.65-1.35,3-3,3H99.269z"/>
<path style="fill:#6A8AC4;" d="M107.001,334.059v-92.125c0-1.65,1.35-3,3-3H99.269c-1.65,0-3,1.35-3,3v92.125c0,1.65,1.35,3,3,3
	h10.732C108.351,337.059,107.001,335.709,107.001,334.059z"/>
<path style="fill:#02AF8E;" d="M212.584,400.996c5.5,0,10,4.5,10,10v1.453c0,5.5-4.5,10-10,10H162.74c-5.5,0-10-4.5-10-10v-1.453
	c0-5.5,4.5-10,10-10H212.584z"/>
<path style="fill:#0F9390;" d="M163.001,412.449v-1.453c0-5.5,4.5-10,10-10H162.74c-5.5,0-10,4.5-10,10v1.453c0,5.5,4.5,10,10,10
	h10.261C167.501,422.449,163.001,417.949,163.001,412.449z"/>
<path style="fill:#2E4C89;" d="M212.584,434.996c5.5,0,10,4.5,10,10v1.453c0,5.5-4.5,10-10,10H162.74c-5.5,0-10-4.5-10-10v-1.453
	c0-5.5,4.5-10,10-10H212.584z"/>
<path style="fill:#293D7C;" d="M163.001,446.449v-1.453c0-5.5,4.5-10,10-10H162.74c-5.5,0-10,4.5-10,10v1.453c0,5.5,4.5,10,10,10
	h10.261C167.501,456.449,163.001,451.949,163.001,446.449z"/>
<g>
	<path style="fill:#FFFFFF;" d="M136.518,263.496h-16.855c-4.142,0-7.5-3.357-7.5-7.5s3.358-7.5,7.5-7.5h16.855
		c4.142,0,7.5,3.357,7.5,7.5S140.66,263.496,136.518,263.496z"/>
	<path style="fill:#FFFFFF;" d="M178.649,263.496h-16.852c-4.142,0-7.5-3.357-7.5-7.5s3.358-7.5,7.5-7.5h16.852
		c4.142,0,7.5,3.357,7.5,7.5S182.791,263.496,178.649,263.496z"/>
	<path style="fill:#FFFFFF;" d="M254.491,263.496h-50.562c-4.142,0-7.5-3.357-7.5-7.5s3.358-7.5,7.5-7.5h50.562
		c4.142,0,7.5,3.357,7.5,7.5S258.633,263.496,254.491,263.496z"/>
	<path style="fill:#FFFFFF;" d="M254.491,284.487h-16.854c-4.142,0-7.5-3.357-7.5-7.5s3.358-7.5,7.5-7.5h16.854
		c4.142,0,7.5,3.357,7.5,7.5S258.633,284.487,254.491,284.487z"/>
	<path style="fill:#FFFFFF;" d="M212.356,284.487h-16.855c-4.142,0-7.5-3.357-7.5-7.5s3.358-7.5,7.5-7.5h16.855
		c4.142,0,7.5,3.357,7.5,7.5S216.498,284.487,212.356,284.487z"/>
	<path style="fill:#FFFFFF;" d="M170.223,284.487h-50.561c-4.142,0-7.5-3.357-7.5-7.5s3.358-7.5,7.5-7.5h50.561
		c4.142,0,7.5,3.357,7.5,7.5S174.365,284.487,170.223,284.487z"/>
	<path style="fill:#FFFFFF;" d="M136.518,305.478h-16.855c-4.142,0-7.5-3.357-7.5-7.5s3.358-7.5,7.5-7.5h16.855
		c4.142,0,7.5,3.357,7.5,7.5S140.66,305.478,136.518,305.478z"/>
	<path style="fill:#FFFFFF;" d="M178.649,305.478h-16.852c-4.142,0-7.5-3.357-7.5-7.5s3.358-7.5,7.5-7.5h16.852
		c4.142,0,7.5,3.357,7.5,7.5S182.791,305.478,178.649,305.478z"/>
	<path style="fill:#FFFFFF;" d="M254.491,305.478h-50.562c-4.142,0-7.5-3.357-7.5-7.5s3.358-7.5,7.5-7.5h50.562
		c4.142,0,7.5,3.357,7.5,7.5S258.633,305.478,254.491,305.478z"/>
	<path style="fill:#FFFFFF;" d="M136.518,326.469h-16.855c-4.142,0-7.5-3.358-7.5-7.5c0-4.143,3.358-7.5,7.5-7.5h16.855
		c4.142,0,7.5,3.357,7.5,7.5C144.018,323.111,140.66,326.469,136.518,326.469z"/>
	<path style="fill:#FFFFFF;" d="M210.249,326.469h-48.452c-4.142,0-7.5-3.358-7.5-7.5c0-4.143,3.358-7.5,7.5-7.5h48.452
		c4.142,0,7.5,3.357,7.5,7.5C217.749,323.111,214.391,326.469,210.249,326.469z"/>
	<path style="fill:#FFFFFF;" d="M254.491,326.469h-17.758c-4.142,0-7.5-3.358-7.5-7.5c0-4.143,3.358-7.5,7.5-7.5h17.758
		c4.142,0,7.5,3.357,7.5,7.5C261.991,323.111,258.633,326.469,254.491,326.469z"/>
</g>
<path style="fill:#0F9390;" d="M379.05,376.349V261.498h-37.128c-6.39,0-12.337-1.923-17.301-5.215v120.065h54.429V376.349z"/>
<path style="fill:#057C76;" d="M324.621,256.283v120.065h10.38V260.726C331.243,259.876,327.738,258.351,324.621,256.283z"/>
<path style="fill:#FFFFFF;" d="M360.862,337.171c0,5.5-4.062,10-9.027,10c-4.964,0-9.026-4.5-9.026-10v-38.137
	c0-5.5,4.062-10,9.026-10c4.965,0,9.027,4.5,9.027,10V337.171z"/>
<polygon style="fill:#0F9390;" points="470.372,198.703 403.881,82.669 372.647,82.669 439.138,198.703 "/>
<path style="fill:#2E4C89;" d="M410.747,375.349c2.75,0,5.629,2.16,6.397,4.801l36.972,127.05c0.768,2.641-0.853,4.801-3.603,4.801
	H252.295c-2.75,0-4.371-2.16-3.603-4.801l36.973-127.05c0.768-2.641,3.647-4.801,6.397-4.801L410.747,375.349L410.747,375.349z"/>
<path style="fill:#293D7C;" d="M269.386,507.199l36.973-127.05c0.768-2.641,3.647-4.801,6.397-4.801h-20.695
	c-2.75,0-5.629,2.16-6.397,4.801l-36.973,127.05c-0.768,2.641,0.853,4.801,3.603,4.801h20.694
	C270.239,512,268.618,509.84,269.386,507.199z"/>
<path style="fill:#60D882;" d="M318.032,490.157c-3.607,0-7.383,2.834-8.391,6.298L305.117,512h92.574l-4.524-15.545
	c-1.008-3.464-4.784-6.298-8.391-6.298L318.032,490.157L318.032,490.157z"/>
<path style="fill:#2E4C89;" d="M506.501,230.102c0,17.893-14.506,32.396-32.397,32.396H341.922
	c-17.893,0-32.397-14.504-32.397-32.396l0,0c0-17.894,14.504-32.398,32.397-32.398h132.182
	C491.995,197.703,506.501,212.208,506.501,230.102L506.501,230.102z"/>
<g>
	<circle style="fill:#445EA0;" cx="342.351" cy="230.1" r="16.847"/>
	<circle style="fill:#445EA0;" cx="473.671" cy="230.1" r="16.846"/>
</g>
<g>
	<path style="fill:#94C2ED;" d="M150.434,33.508c0.246,0.757,0.782,1.385,1.491,1.746c0.426,0.217,0.893,0.327,1.362,0.327
		c0.312,0,0.625-0.049,0.927-0.146l42.096-13.679l14.325,19.717h24.722L208.22,4.122C206.344,1.541,203.319,0,200.128,0
		c-1.05,0-2.089,0.165-3.089,0.489l-49.007,15.923c-0.756,0.246-1.385,0.782-1.746,1.491c-0.361,0.709-0.426,1.532-0.18,2.289
		L150.434,33.508z"/>
	<path style="fill:#94C2ED;" d="M210.637,66.755L196.31,86.473l-42.097-13.678c-0.302-0.098-0.615-0.146-0.927-0.146
		c-0.469,0-0.936,0.11-1.362,0.327c-0.709,0.361-1.246,0.989-1.491,1.746l-4.326,13.315c-0.512,1.575,0.35,3.268,1.926,3.78
		l49.005,15.921c1.001,0.326,2.041,0.491,3.09,0.491c3.191,0,6.216-1.542,8.091-4.123l27.139-37.352L210.637,66.755L210.637,66.755z
		"/>
</g>
<path style="fill:#445EA0;" d="M250.001,40.473h-41.239c-2.75,0-5,2.25-5,5v17.282c0,2.75,2.25,5,5,5h41.239V40.473z"/>
<path style="fill:#2E4C89;" d="M224.762,62.755V45.473c0-2.75,2.25-5,5-5h-21c-2.75,0-5,2.25-5,5v17.282c0,2.75,2.25,5,5,5h21
	C227.012,67.755,224.762,65.505,224.762,62.755z"/>
<path style="fill:#445EA0;" d="M419.501,33.652h-6.534v40.923h6.534c2.75,0,5-2.25,5-5V38.652
	C424.501,35.902,422.251,33.652,419.501,33.652z"/>
<path style="fill:#2E4C89;" d="M414.061,78.669c0,2.75-2.25,5-5,5H253.096c-2.75,0-5-2.25-5-5v-49.11c0-2.75,2.25-5,5-5h155.965
	c2.75,0,5,2.25,5,5V78.669z"/>
<path style="fill:#293D7C;" d="M269.035,78.669v-49.11c0-2.75,2.25-5,5-5h-20.94c-2.75,0-5,2.25-5,5v49.11c0,2.75,2.25,5,5,5h20.94
	C271.285,83.669,269.035,81.419,269.035,78.669z"/>
<path style="fill:#94C2ED;" d="M362.163,60.185c0,2.75-2.25,5-5,5h-52.168c-2.75,0-5-2.25-5-5V48.043c0-2.75,2.25-5,5-5h52.168
	c2.75,0,5,2.25,5,5V60.185z"/>
<path style="fill:#6A8AC4;" d="M320.833,60.185V48.043c0-2.75,2.25-5,5-5h-20.838c-2.75,0-5,2.25-5,5v12.142c0,2.75,2.25,5,5,5
	h20.838C323.083,65.185,320.833,62.935,320.833,60.185z"/>
<circle style="fill:#02AF8E;" cx="380.561" cy="230.1" r="9.126"/>
<g>
	<circle style="fill:#C3DDF4;" cx="407.771" cy="230.1" r="9.126"/>
	<circle style="fill:#C3DDF4;" cx="435.061" cy="230.1" r="9.126"/>
	<path style="fill:#C3DDF4;" d="M388.904,459.806c0,6.157-5.038,11.194-11.194,11.194h-52.612c-6.156,0-11.194-5.037-11.194-11.194
		v-52.611c0-6.157,5.038-11.194,11.194-11.194h52.612c6.156,0,11.194,5.037,11.194,11.194V459.806z"/>
</g>
<g>
	<path style="fill:#2E4C89;" d="M339.001,457.5c-9.374,0-17-7.851-17-17.5v-13c0-9.649,7.626-17.5,17-17.5s17,7.851,17,17.5v13
		C356.001,449.649,348.375,457.5,339.001,457.5z M339.001,424.5c-1.065,0-2,1.168-2,2.5v13c0,1.332,0.935,2.5,2,2.5s2-1.168,2-2.5
		v-13C341.001,425.668,340.066,424.5,339.001,424.5z"/>
	<path style="fill:#2E4C89;" d="M369.501,457.5c-4.142,0-7.5-3.357-7.5-7.5v-33c0-4.143,3.358-7.5,7.5-7.5s7.5,3.357,7.5,7.5v33
		C377.001,454.143,373.643,457.5,369.501,457.5z"/>
</g>
<g>
</g>
<g>
</g>
<g>
</g>
<g>
</g>
<g>
</g>
<g>
</g>
<g>
</g>
<g>
</g>
<g>
</g>
<g>
</g>
<g>
</g>
<g>
</g>
<g>
</g>
<g>
</g>
<g>
</g>
</svg>
