<?xml version="1.0" encoding="iso-8859-1"?>
<!-- Generator: Adobe Illustrator 19.0.0, SVG Export Plug-In . SVG Version: 6.00 Build 0)  -->
<svg version="1.1" id="Capa_1" xmlns="http://www.w3.org/2000/svg" xmlns:xlink="http://www.w3.org/1999/xlink" x="0px" y="0px"
	 viewBox="0 0 504.123 504.123" style="enable-background:new 0 0 504.123 504.123;" xml:space="preserve">
<circle style="fill:#E0E4E8;" cx="252.062" cy="251.274" r="251.274"/>
<path style="fill:#FFFFFF;" d="M300.898,244.972c-13.391,10.24-29.932,16.542-48.837,16.542c-18.117,0-35.446-6.302-48.837-16.542
	c-36.234,18.117-61.44,55.138-61.44,98.462v36.234h220.554v-36.234C362.338,300.111,337.132,262.302,300.898,244.972z"/>
<path style="fill:#183651;" d="M362.338,387.545H141.785c-4.726,0-7.877-3.151-7.877-7.877v-36.234
	c0-44.898,25.206-85.858,66.166-105.551c2.363-1.575,6.302-0.788,8.665,0.788c12.603,10.24,27.569,14.966,44.111,14.966
	s30.72-5.514,44.111-14.966c2.363-1.575,5.514-2.363,8.665-0.788c40.96,19.692,66.166,60.652,66.166,105.551v36.234
	C370.215,383.606,366.277,387.545,362.338,387.545z M149.662,371.791h204.8v-28.357c0-37.809-20.48-71.68-52.775-89.797
	c-14.966,10.24-31.508,15.754-49.625,15.754c-18.117,0-34.658-5.514-49.625-15.754c-33.083,18.117-52.775,51.988-52.775,89.797
	V371.791z"/>
<path style="fill:#FBBD5E;" d="M173.292,348.16v-4.726c0-24.418,11.028-47.262,29.932-62.228
	c14.966,7.089,31.508,11.028,48.837,11.028s33.871-3.938,48.837-11.028c18.905,14.966,29.932,37.022,29.932,62.228v4.726H173.292z"
	/>
<g>
	<rect x="420.628" y="216.615" style="fill:#183651;" width="15.754" height="15.754"/>
	<rect x="420.628" y="248.123" style="fill:#183651;" width="15.754" height="15.754"/>
	<rect x="420.628" y="278.843" style="fill:#183651;" width="15.754" height="15.754"/>
	<rect x="67.742" y="216.615" style="fill:#183651;" width="15.754" height="15.754"/>
	<rect x="67.742" y="248.123" style="fill:#183651;" width="15.754" height="15.754"/>
	<rect x="67.742" y="278.843" style="fill:#183651;" width="15.754" height="15.754"/>
	<rect x="275.692" y="444.258" style="fill:#183651;" width="15.754" height="15.754"/>
	<rect x="244.185" y="444.258" style="fill:#183651;" width="15.754" height="15.754"/>
	<rect x="212.677" y="444.258" style="fill:#183651;" width="15.754" height="15.754"/>
	<rect x="275.692" y="51.988" style="fill:#183651;" width="15.754" height="15.754"/>
	<rect x="244.185" y="51.988" style="fill:#183651;" width="15.754" height="15.754"/>
	<rect x="212.677" y="51.988" style="fill:#183651;" width="15.754" height="15.754"/>
</g>
<circle style="fill:#FFFFFF;" cx="252.062" cy="182.745" r="51.2"/>
<path style="fill:#183651;" d="M252.062,241.034c-32.295,0-59.077-25.994-59.077-59.077s25.994-59.077,59.077-59.077
	c32.295,0,59.077,25.994,59.077,59.077S284.357,241.034,252.062,241.034z M252.062,139.422c-23.631,0-43.323,19.692-43.323,43.323
	s19.692,43.323,43.323,43.323c23.631,0,43.323-19.692,43.323-43.323S275.692,139.422,252.062,139.422z"/>
<circle style="fill:#FFFFFF;" cx="75.618" cy="395.422" r="33.871"/>
<path style="fill:#183651;" d="M75.618,437.169c-22.843,0-41.748-18.905-41.748-41.748s18.905-41.748,41.748-41.748
	s41.748,18.905,41.748,41.748C117.366,418.265,98.462,437.169,75.618,437.169z M75.618,369.428
	c-14.178,0-25.994,11.815-25.994,25.994c0,14.178,11.815,25.994,25.994,25.994s25.994-11.815,25.994-25.994
	C101.612,381.243,89.797,369.428,75.618,369.428z"/>
<path style="fill:#F06151;" d="M75.618,429.292c-37.022,0-66.954,29.932-66.954,66.954h133.908
	C142.572,459.225,112.64,429.292,75.618,429.292z"/>
<path style="fill:#183651;" d="M142.572,504.123H8.665c-4.726,0-7.877-3.151-7.877-7.877c0-40.96,33.871-74.831,74.831-74.831
	s74.831,33.871,74.831,74.831C150.449,500.972,147.298,504.123,142.572,504.123z M16.542,488.369h117.366
	c-3.938-29.145-28.357-51.2-59.077-51.2S20.48,459.225,16.542,488.369z"/>
<circle style="fill:#FFFFFF;" cx="75.618" cy="41.748" r="33.871"/>
<path style="fill:#183651;" d="M75.618,83.495c-22.843,0-41.748-18.905-41.748-41.748S52.775,0,75.618,0
	s41.748,18.905,41.748,41.748S98.462,83.495,75.618,83.495z M75.618,15.754c-14.178,0-25.994,11.815-25.994,25.994
	S61.44,67.742,75.618,67.742s25.994-11.815,25.994-25.994S89.797,15.754,75.618,15.754z"/>
<path style="fill:#2EA0DA;" d="M75.618,75.618c-37.022,0-66.954,29.932-66.954,66.954h133.908
	C142.572,105.551,112.64,75.618,75.618,75.618z"/>
<path style="fill:#183651;" d="M142.572,150.449H8.665c-4.726,0-7.877-3.151-7.877-7.877c0-40.96,33.871-74.831,74.831-74.831
	s74.831,33.871,74.831,74.831C150.449,147.298,147.298,150.449,142.572,150.449z M16.542,134.695h117.366
	c-3.938-29.145-28.357-51.2-59.077-51.2S20.48,105.551,16.542,134.695z"/>
<circle style="fill:#FFFFFF;" cx="428.505" cy="395.422" r="33.871"/>
<path style="fill:#183651;" d="M428.505,437.169c-22.843,0-41.748-18.905-41.748-41.748s18.905-41.748,41.748-41.748
	c22.843,0,41.748,18.905,41.748,41.748C470.252,418.265,451.348,437.169,428.505,437.169z M428.505,369.428
	c-14.178,0-25.994,11.815-25.994,25.994c0,14.178,11.815,25.994,25.994,25.994c14.178,0,25.994-11.815,25.994-25.994
	C454.498,381.243,442.683,369.428,428.505,369.428z"/>
<path style="fill:#4FBF9F;" d="M428.505,429.292c-37.022,0-66.954,29.932-66.954,66.954h133.908
	C495.458,459.225,465.526,429.292,428.505,429.292z"/>
<path style="fill:#183651;" d="M495.458,504.123H361.551c-4.726,0-7.877-3.151-7.877-7.877c0-40.96,33.871-74.831,74.831-74.831
	s74.831,33.871,74.831,74.831C503.335,500.972,500.185,504.123,495.458,504.123z M370.215,488.369h117.366
	c-3.938-29.145-28.357-51.2-59.077-51.2S373.366,459.225,370.215,488.369z"/>
<circle style="fill:#FFFFFF;" cx="428.505" cy="41.748" r="33.871"/>
<path style="fill:#183651;" d="M428.505,83.495c-22.843,0-41.748-18.905-41.748-41.748S405.662,0,428.505,0
	c22.843,0,41.748,18.905,41.748,41.748S451.348,83.495,428.505,83.495z M428.505,15.754c-14.178,0-25.994,11.815-25.994,25.994
	s11.815,25.994,25.994,25.994c14.178,0,25.994-11.815,25.994-25.994S442.683,15.754,428.505,15.754z"/>
<path style="fill:#FBBD5E;" d="M428.505,75.618c-37.022,0-66.954,29.932-66.954,66.954h133.908
	C495.458,105.551,465.526,75.618,428.505,75.618z"/>
<path style="fill:#183651;" d="M495.458,150.449H361.551c-4.726,0-7.877-3.151-7.877-7.877c0-40.96,33.871-74.831,74.831-74.831
	s74.831,33.871,74.831,74.831C503.335,147.298,500.185,150.449,495.458,150.449z M370.215,134.695h117.366
	c-3.938-29.145-28.357-51.2-59.077-51.2S373.366,105.551,370.215,134.695z"/>
<g>
</g>
<g>
</g>
<g>
</g>
<g>
</g>
<g>
</g>
<g>
</g>
<g>
</g>
<g>
</g>
<g>
</g>
<g>
</g>
<g>
</g>
<g>
</g>
<g>
</g>
<g>
</g>
<g>
</g>
</svg>
