<?xml version="1.0" encoding="iso-8859-1"?>
<!-- Generator: Adobe Illustrator 19.0.0, SVG Export Plug-In . SVG Version: 6.00 Build 0)  -->
<svg version="1.1" id="Capa_1" xmlns="http://www.w3.org/2000/svg" xmlns:xlink="http://www.w3.org/1999/xlink" x="0px" y="0px"
	 viewBox="0 0 512 512" style="enable-background:new 0 0 512 512;" xml:space="preserve">
<path style="fill:#F0ECED;" d="M504,88H8c-4.418,0-8,3.582-8,8v320c0,4.418,3.582,8,8,8h496c4.418,0,8-3.582,8-8V96
	C512,91.582,508.418,88,504,88z"/>
<path style="fill:#E1D8DC;" d="M32,416V96c0-4.418,3.582-8,8-8H8c-4.418,0-8,3.582-8,8v320c0,4.418,3.582,8,8,8h32
	C35.582,424,32,420.418,32,416z"/>
<path style="fill:#A58B95;" d="M504,88H384v336h120c4.418,0,8-3.582,8-8V96C512,91.582,508.418,88,504,88z"/>
<rect x="32" y="160" style="fill:#CCEBE3;" width="304" height="192"/>
<polygon style="fill:#99D7C7;" points="56,328 56,160 32,160 32,352 336,352 336,328 "/>
<path style="fill:#A58B95;" d="M336,360H32c-4.418,0-8-3.582-8-8V160c0-4.418,3.582-8,8-8h304c4.418,0,8,3.582,8,8v192
	C344,356.418,340.418,360,336,360z M40,344h288V168H40V344z"/>
<path style="fill:#FFA535;" d="M448,296.5c-17.369,0-31.5,14.131-31.5,31.5s14.131,31.5,31.5,31.5s31.5-14.131,31.5-31.5
	S465.369,296.5,448,296.5z"/>
<path style="fill:#FFD29A;" d="M432,352c-2.048,0-4.095-0.781-5.657-2.343c-3.124-3.124-3.124-8.189,0-11.313l32-32
	c3.125-3.124,8.189-3.124,11.314,0c3.124,3.124,3.124,8.189,0,11.313l-32,32C436.095,351.219,434.048,352,432,352z"/>
<path style="fill:#FFA535;" d="M448,224.5c-17.369,0-31.5,14.131-31.5,31.5s14.131,31.5,31.5,31.5s31.5-14.131,31.5-31.5
	S465.369,224.5,448,224.5z"/>
<path style="fill:#FFD29A;" d="M432,280c-2.048,0-4.095-0.781-5.657-2.343c-3.124-3.124-3.124-8.189,0-11.313l32-32
	c3.125-3.124,8.189-3.124,11.314,0c3.124,3.124,3.124,8.189,0,11.313l-32,32C436.095,279.219,434.048,280,432,280z"/>
<g>
	<circle style="fill:#F0ECED;" cx="432" cy="160" r="7.5"/>
	<circle style="fill:#F0ECED;" cx="464.5" cy="160" r="7.5"/>
	<circle style="fill:#F0ECED;" cx="432" cy="184" r="7.5"/>
	<circle style="fill:#F0ECED;" cx="464.5" cy="184" r="7.5"/>
	<circle style="fill:#F0ECED;" cx="432" cy="208" r="7.5"/>
	<circle style="fill:#F0ECED;" cx="464.5" cy="208" r="7.5"/>
</g>
<g>
</g>
<g>
</g>
<g>
</g>
<g>
</g>
<g>
</g>
<g>
</g>
<g>
</g>
<g>
</g>
<g>
</g>
<g>
</g>
<g>
</g>
<g>
</g>
<g>
</g>
<g>
</g>
<g>
</g>
</svg>
