<?xml version="1.0" ?><svg style="enable-background:new 0 0 70 70;" version="1.1" viewBox="0 0 70 70" xml:space="preserve" xmlns="http://www.w3.org/2000/svg" xmlns:xlink="http://www.w3.org/1999/xlink"><style type="text/css">
	.st0{fill:#E5E5E5;}
	.st1{fill:#231F20;}
	.st2{fill:#FFFFFF;}
</style><g id="Warstwa_2"><rect class="st0" height="56" id="XMLID_5_" width="38" x="16" y="7"/></g><g id="Warstwa_1"><path class="st1" d="M54,7H16V6c0-3.3,2.7-6,6-6h26c3.3,0,6,2.7,6,6V7z" id="XMLID_1_"/><path class="st1" d="M48,70H22c-3.3,0-6-2.7-6-6v-1h38v1C54,67.3,51.3,70,48,70z" id="XMLID_2_"/><rect class="st1" height="56" id="XMLID_3_" width="1.4" x="16" y="7"/><rect class="st1" height="56" id="XMLID_4_" width="1.4" x="52.6" y="7"/><path class="st2" d="M47.9,4H22.1c-0.6,0-1-0.5-1-1v0c0-0.6,0.5-1,1-1h25.8c0.6,0,1,0.5,1,1v0   C48.9,3.6,48.5,4,47.9,4z" id="XMLID_6_"/></g><g id="Warstwa_3"/><g id="Warstwa_4"/></svg>