<?xml version="1.0" encoding="iso-8859-1"?>
<!-- Generator: Adobe Illustrator 19.0.0, SVG Export Plug-In . SVG Version: 6.00 Build 0)  -->
<svg version="1.1" id="Capa_1" xmlns="http://www.w3.org/2000/svg" xmlns:xlink="http://www.w3.org/1999/xlink" x="0px" y="0px"
	 viewBox="0 0 512 512" style="enable-background:new 0 0 512 512;" xml:space="preserve">
<rect x="391" y="105" style="fill:#EDE9E8;" width="30" height="180"/>
<rect x="406" y="105" style="fill:#D2C5C2;" width="15" height="180"/>
<path style="fill:#738C96;" d="M136,0h-30C81.099,0,60,20.099,60,45v195h121V45C181,20.099,160.901,0,136,0z"/>
<path style="fill:#55696E;" d="M181,240h-60V0h15c24.901,0,45,20.099,45,45V240z"/>
<path style="fill:#FF6379;" d="M181,330v92l60,30v15c0,24.899-20.099,45-45,45H45c-24.901,0-45-20.101-45-45V285
	c0-41.4,33.6-75,75-75h91c41.4,0,75,33.6,75,75v15L181,330z"/>
<path style="fill:#FF415B;" d="M181,330v92l60,30v15c0,24.899-20.099,45-45,45h-75V210h45c41.4,0,75,33.6,75,75v15L181,330z"/>
<path style="fill:#738C96;" d="M346,270v197c0,24.899,20.099,45,45,45h30c24.901,0,45-20.101,45-45V270H346z"/>
<path style="fill:#FF415B;" d="M325.3,0l39.9,120h81.6L486.7,0H325.3z"/>
<rect x="241" y="30" style="fill:#FFD400;" width="30" height="30"/>
<rect x="482" y="150" style="fill:#FDBF00;" width="30" height="30"/>
<rect y="60" style="fill:#FFD400;" width="30" height="30"/>
<rect x="60" y="300" style="fill:#EDE9E8;" width="181" height="152"/>
<rect x="121" y="300" style="fill:#DFD7D5;" width="120" height="152"/>
<path style="fill:#55696E;" d="M406,270h60v197c0,24.899-20.099,45-45,45h-15V270z"/>
<polygon style="fill:#FC0023;" points="446.8,120 406,120 406,0 486.7,0 "/>
<polygon style="fill:#FFD400;" points="331,150 331,180 301,180 301,210 271,210 271,180 241,180 241,150 271,150 271,120 301,120 
	301,150 "/>
<polygon style="fill:#FDBF00;" points="331,150 331,180 301,180 301,210 286,210 286,120 301,120 301,150 "/>
<g>
</g>
<g>
</g>
<g>
</g>
<g>
</g>
<g>
</g>
<g>
</g>
<g>
</g>
<g>
</g>
<g>
</g>
<g>
</g>
<g>
</g>
<g>
</g>
<g>
</g>
<g>
</g>
<g>
</g>
</svg>
