<?xml version="1.0" encoding="iso-8859-1"?>
<!-- Generator: Adobe Illustrator 19.0.0, SVG Export Plug-In . SVG Version: 6.00 Build 0)  -->
<svg version="1.1" id="Capa_1" xmlns="http://www.w3.org/2000/svg" xmlns:xlink="http://www.w3.org/1999/xlink" x="0px" y="0px"
	 viewBox="0 0 512 512" style="enable-background:new 0 0 512 512;" xml:space="preserve">
<circle style="fill:#FFB844;" cx="256" cy="256" r="256"/>
<path style="fill:#FF8A00;" d="M512,256c0-7.097-0.302-14.122-0.869-21.073L387.439,111.235
	C354.337,76.506,307.652,54.833,256,54.833c-100.151,0-181.628,81.477-181.628,181.627c0,9.058,0.676,17.961,1.963,26.667
	c-10.03,4.572-17.006,14.679-17.006,26.421c0,7.744,3.034,14.777,7.977,19.981l27.41,27.246c-1.35,3.347-2.1,7-2.1,10.832
	c0,9.119,4.207,17.253,10.784,22.574l141.74,141.573c3.602,0.151,7.22,0.246,10.86,0.246C397.385,512,512,397.385,512,256z"/>
<path style="fill:#B04B00;" d="M256.001,418.088c-100.151,0-181.628-81.478-181.628-181.627
	c0-100.15,81.478-181.627,181.628-181.627s181.627,81.478,181.627,181.627S356.15,418.088,256.001,418.088z M256.001,68.325
	c-92.711,0-168.137,75.426-168.137,168.135s75.426,168.135,168.137,168.135c92.71,0,168.135-75.426,168.135-168.135
	S348.71,68.325,256.001,68.325z"/>
<path style="fill:#803400;" d="M256.167,54.834v13.49c92.63,0.09,167.97,75.49,167.97,168.14c0,78.49-54.07,144.59-126.92,163.02
	c-13.14,3.32-26.89,5.1-41.05,5.11v13.49c13.74-0.01,27.12-1.56,40-4.48c80.89-18.33,141.46-90.79,141.46-177.14
	C437.627,136.374,356.237,54.924,256.167,54.834z"/>
<polygon style="fill:#00EFD1;" points="233.64,444.833 211.279,405.627 233.64,366.421 278.36,366.421 300.721,405.627 
	278.36,444.833 "/>
<polygon style="fill:#00AF95;" points="300.717,405.624 296.167,413.604 278.357,444.833 256.167,444.833 256.167,366.424 
	278.357,366.424 297.217,399.483 "/>
<g>
	<circle style="fill:#FFFFFF;" cx="175.06" cy="391.46" r="29.03"/>
	<circle style="fill:#FFFFFF;" cx="121.64" cy="347.61" r="29.03"/>
</g>
<circle style="fill:#FFED93;" cx="390.36" cy="347.61" r="29.03"/>
<circle style="fill:#FFFFFF;" cx="88.36" cy="289.55" r="29.03"/>
<g>
	<circle style="fill:#FFED93;" cx="423.64" cy="289.55" r="29.03"/>
	<circle style="fill:#FFED93;" cx="336.97" cy="391.46" r="29.03"/>
</g>
<g>
</g>
<g>
</g>
<g>
</g>
<g>
</g>
<g>
</g>
<g>
</g>
<g>
</g>
<g>
</g>
<g>
</g>
<g>
</g>
<g>
</g>
<g>
</g>
<g>
</g>
<g>
</g>
<g>
</g>
</svg>
