<?xml version="1.0" encoding="iso-8859-1"?>
<!-- Generator: Adobe Illustrator 19.0.0, SVG Export Plug-In . SVG Version: 6.00 Build 0)  -->
<svg version="1.1" id="Layer_1" xmlns="http://www.w3.org/2000/svg" xmlns:xlink="http://www.w3.org/1999/xlink" x="0px" y="0px"
	 viewBox="0 0 512.001 512.001" style="enable-background:new 0 0 512.001 512.001;" xml:space="preserve">
<g>
	<path style="fill:#FFFFFF;" d="M368,184.152c6.896-5.248,15.312-8.152,24-8.152c22.056,0,40,17.944,40,40
		c0,13.128-6.448,24.704-16.248,32H440V88c0-39.704-32.304-72-72-72s-72,32.296-72,72v104c0,2.128-0.848,4.16-2.344,5.656
		L240,251.312v25.376l64.376-64.368C306.264,192.008,323.208,176,344,176C352.688,176,361.104,178.904,368,184.152z M312,88
		c0-30.872,25.12-56,56-56s56,25.128,56,56s-25.12,56-56,56S312,118.872,312,88z"/>
	<circle style="fill:#FFFFFF;" cx="368" cy="88" r="40"/>
</g>
<path style="fill:#9FC7D1;" d="M200,144h-40v32c0,2.776-1.44,5.344-3.792,6.808C154.92,183.6,153.464,184,152,184
	c-1.224,0-2.448-0.28-3.576-0.84L120,168.944l-28.424,14.208C90.448,183.72,89.224,184,88,184c-1.464,0-2.92-0.4-4.208-1.192
	C81.44,181.344,80,178.776,80,176v-32H40c-13.232,0-24,10.768-24,24v136h32V184h16v288c0,13.232,10.768,24,24,24h24V360h-8v-16h32
	v16h-8v136h24c13.232,0,24-10.768,24-24V184h16v120h32V168C224,154.768,213.232,144,200,144z M120,312c-4.416,0-8-3.584-8-8
	s3.584-8,8-8s8,3.584,8,8S124.416,312,120,312z M120,280c-4.416,0-8-3.584-8-8s3.584-8,8-8s8,3.584,8,8S124.416,280,120,280z
	 M120,248c-4.416,0-8-3.584-8-8s3.584-8,8-8s8,3.584,8,8S124.416,248,120,248z M120,216c-4.416,0-8-3.584-8-8s3.584-8,8-8
	s8,3.584,8,8S124.416,216,120,216z"/>
<g>
	<path style="fill:#FFFFFF;" d="M344,240c6.912,0,13.296-2.952,17.976-8.304c1.52-1.736,3.712-2.736,6.024-2.736
		c2.312,0,4.504,1,6.024,2.736C378.704,237.048,385.088,240,392,240c13.232,0,24-10.768,24-24s-10.768-24-24-24
		c-6.912,0-13.296,2.952-17.976,8.304c-3.04,3.472-9.008,3.472-12.048,0C357.296,194.952,350.912,192,344,192
		c-13.232,0-24,10.768-24,24S330.768,240,344,240z"/>
	<path style="fill:#FFFFFF;" d="M435.064,322.48c-25.2-12.6-39.688-39.264-37.08-67.08c-1.968,0.296-3.936,0.6-5.984,0.6
		c-8.688,0-17.104-2.904-24-8.152c-6.896,5.248-15.312,8.152-24,8.152c-2.048,0-4.016-0.304-5.984-0.608
		c2.608,27.816-11.88,54.48-37.08,67.08c-13.968,6.976-23.96,19.712-27.424,34.944L242.024,496h251.952L462.48,357.424
		C459.016,342.184,449.024,329.456,435.064,322.48z"/>
	<circle style="fill:#FFFFFF;" cx="120" cy="56" r="40"/>
</g>
<g>
	<polygon style="fill:#E87B5A;" points="144,148.944 129.888,156 144,163.056 	"/>
	<polygon style="fill:#E87B5A;" points="96,148.944 96,163.056 110.112,156 	"/>
</g>
<g>
	<path style="fill:#3C4A53;" d="M120,112c30.88,0,56-25.128,56-56S150.88,0,120,0S64,25.128,64,56S89.12,112,120,112z M120,16
		c22.056,0,40,17.944,40,40s-17.944,40-40,40S80,78.056,80,56S97.944,16,120,16z"/>
	<circle style="fill:#3C4A53;" cx="120" cy="208" r="8"/>
	<circle style="fill:#3C4A53;" cx="120" cy="240" r="8"/>
	<circle style="fill:#3C4A53;" cx="120" cy="272" r="8"/>
	<circle style="fill:#3C4A53;" cx="120" cy="304" r="8"/>
	<path style="fill:#3C4A53;" d="M424,88c0-30.872-25.12-56-56-56s-56,25.128-56,56s25.12,56,56,56S424,118.872,424,88z M328,88
		c0-22.056,17.944-40,40-40s40,17.944,40,40s-17.944,40-40,40S328,110.056,328,88z"/>
	<path style="fill:#3C4A53;" d="M478.088,353.872c-4.528-19.92-17.608-36.584-35.864-45.712
		c-17.104-8.552-27.768-25.576-28.576-44.168H448c4.416,0,8-3.576,8-8V88c0-48.52-39.48-88-88-88s-88,39.48-88,88v100.688l-40,40
		V168c0-22.056-17.944-40-40-40h-48v0.04c-1.224,0-2.448,0.24-3.576,0.808L120,143.056l-28.424-14.208
		c-1.128-0.56-2.352-0.808-3.576-0.808V128H40c-22.056,0-40,17.944-40,40v144c0,4.424,3.584,8,8,8h40v152c0,22.056,17.944,40,40,40
		h64c22.056,0,40-17.944,40-40V320h40c4.416,0,8-3.576,8-8v-12.688l67.36-67.36c2.976,6.8,7.784,12.608,13.808,16.816l0.8,5.608
		c3.168,22.16-8.168,43.784-28.192,53.8c-18.264,9.128-31.336,25.792-35.864,45.712L224.2,502.24
		c-0.536,2.376,0.032,4.856,1.544,6.768c1.52,1.88,3.824,2.992,6.256,2.992h272c2.432,0,4.736-1.112,6.256-3.008
		c1.512-1.904,2.088-4.392,1.544-6.768L478.088,353.872z M144,148.944v14.112L129.888,156L144,148.944z M96,148.944L110.112,156
		L96,163.056V148.944z M224,304h-32V184h-16v288c0,13.232-10.768,24-24,24h-24V360h8v-16h-32v16h8v136H88c-13.232,0-24-10.768-24-24
		V184H48v120H16V168c0-13.232,10.768-24,24-24h40v32c0,2.776,1.44,5.344,3.792,6.808C85.08,183.6,86.536,184,88,184
		c1.224,0,2.448-0.28,3.576-0.84L120,168.944l28.424,14.208C149.552,183.72,150.776,184,152,184c1.464,0,2.92-0.4,4.208-1.192
		C158.56,181.344,160,178.776,160,176v-32h40c13.232,0,24,10.768,24,24V304z M304.376,212.312L240,276.688v-25.376l53.656-53.656
		C295.152,196.16,296,194.128,296,192V88c0-39.704,32.304-72,72-72s72,32.296,72,72v160h-24.248c9.8-7.296,16.248-18.872,16.248-32
		c0-22.056-17.944-40-40-40c-8.688,0-17.104,2.904-24,8.152c-6.896-5.248-15.312-8.152-24-8.152
		C323.208,176,306.264,192.008,304.376,212.312z M320,216c0-13.232,10.768-24,24-24c6.912,0,13.296,2.952,17.976,8.304
		c3.04,3.472,9.008,3.472,12.048,0C378.704,194.952,385.088,192,392,192c13.232,0,24,10.768,24,24s-10.768,24-24,24
		c-6.912,0-13.296-2.952-17.976-8.304c-1.52-1.736-3.712-2.736-6.024-2.736c-2.312,0-4.504,1-6.024,2.736
		C357.296,237.048,350.912,240,344,240C330.768,240,320,229.232,320,216z M242.024,496l31.496-138.576
		c3.464-15.232,13.456-27.968,27.424-34.944c25.2-12.6,39.688-39.264,37.08-67.08c1.96,0.296,3.928,0.6,5.976,0.6
		c8.688,0,17.104-2.904,24-8.152c6.896,5.248,15.312,8.152,24,8.152c2.048,0,4.016-0.304,5.984-0.608
		c-2.608,27.816,11.88,54.48,37.08,67.08c13.968,6.976,23.96,19.712,27.424,34.944L493.976,496H242.024z"/>
</g>
<g>
</g>
<g>
</g>
<g>
</g>
<g>
</g>
<g>
</g>
<g>
</g>
<g>
</g>
<g>
</g>
<g>
</g>
<g>
</g>
<g>
</g>
<g>
</g>
<g>
</g>
<g>
</g>
<g>
</g>
</svg>
