<?xml version="1.0" encoding="iso-8859-1"?>
<!-- Generator: Adobe Illustrator 19.0.0, SVG Export Plug-In . SVG Version: 6.00 Build 0)  -->
<svg version="1.1" id="Capa_1" xmlns="http://www.w3.org/2000/svg" xmlns:xlink="http://www.w3.org/1999/xlink" x="0px" y="0px"
	 viewBox="0 0 512.001 512.001" style="enable-background:new 0 0 512.001 512.001;" xml:space="preserve">
<path style="fill:#A5DDFF;" d="M312.999,502L312.999,502h-168l0,0c0-22.126,17.937-40.062,40.062-40.062h87.875
	C295.063,461.938,312.999,479.874,312.999,502z"/>
<rect x="189.98" y="395.98" style="fill:#5CC1FF;" width="78.04" height="65.938"/>
<path style="fill:#DFF3FF;" d="M385.32,63.996h44.875c9.833,0,17.805,7.949,17.805,17.754v296.475
	c0,9.805-7.972,17.754-17.805,17.754H27.805c-9.833,0-17.805-7.949-17.805-17.754V81.75c0-9.805,7.972-17.754,17.805-17.754h47.182
	C74.987,63.996,385.32,63.996,385.32,63.996z"/>
<rect x="10" y="331.98" style="fill:#A5DDFF;" width="438" height="64"/>
<path style="fill:#FE6663;" d="M191.37,236.973h-62.74c-35.694,0-64.63,28.936-64.63,64.63v30.376h192v-30.376
	C256,265.909,227.064,236.973,191.37,236.973z"/>
<polygon style="fill:#FFFFFF;" points="195.812,236.973 160,272.785 124.188,236.973 "/>
<path style="fill:#5CC1FF;" d="M149.918,124.384h52.322v25.966c0,13.468-10.918,24.386-24.386,24.386H117.76v-18.194
	C117.76,138.781,132.157,124.384,149.918,124.384z"/>
<path style="fill:#FFCDAC;" d="M202.24,174.735v19.998c0,23.328-18.912,42.24-42.24,42.24l0,0c-23.329,0-42.24-18.912-42.24-42.24
	v-19.998H202.24z"/>
<path style="fill:#FFBC53;" d="M419.192,331.969h-80.385c-45.733,0-82.808,37.074-82.808,82.808V502h246v-87.224
	C502,369.043,464.926,331.969,419.192,331.969z"/>
<path style="fill:#5CC1FF;" d="M437.712,200h-72.726c-24.686,0-44.698,20.012-44.698,44.698v0.042v28.517
	c0,32.426,26.286,58.712,58.712,58.712l0,0c32.426,0,58.712-26.286,58.712-58.712L437.712,200L437.712,200z"/>
<path d="M236.07,356.899c-1.86-1.869-4.43-2.93-7.07-2.93c-2.63,0-5.21,1.061-7.07,2.93c-1.86,1.86-2.93,4.431-2.93,7.07
	c0,2.63,1.07,5.21,2.93,7.07c1.86,1.859,4.44,2.93,7.07,2.93s5.21-1.07,7.07-2.93s2.93-4.44,2.93-7.07
	C239,361.33,237.93,358.76,236.07,356.899z"/>
<path d="M328.5,73.996h101.695c4.304,0,7.805,3.479,7.805,7.754V157c0,5.522,4.477,10,10,10s10-4.478,10-10V81.75
	c0-15.304-12.473-27.754-27.805-27.754H328.5c-5.523,0-10,4.478-10,10S322.977,73.996,328.5,73.996z"/>
<path d="M292,74c2.63,0,5.21-1.07,7.07-2.931C300.93,69.21,302,66.63,302,64c0-2.641-1.07-5.21-2.93-7.08
	C297.21,55.06,294.63,54,292,54s-5.21,1.06-7.07,2.92C283.07,58.79,282,61.359,282,64c0,2.63,1.07,5.21,2.93,7.069
	C286.79,72.93,289.37,74,292,74z"/>
<path d="M427.056,322.305c12.735-12.479,20.656-29.853,20.656-49.048V200c0-5.522-4.477-10-10-10h-72.726
	c-30.161,0-54.698,24.537-54.698,54.697v28.56c0,19.026,7.777,36.268,20.315,48.723H266v-20.376
	c0-38.026-28.594-69.479-65.405-74.04c7.275-8.978,11.645-20.401,11.645-32.83v-41.042c0-0.399-0.03-0.79-0.075-1.177
	c0.045-0.717,0.075-1.437,0.075-2.165v-25.966c0-5.522-4.477-10-10-10h-52.322c-23.246,0-42.157,18.912-42.157,42.157v9.894v8.3
	v19.999c0,12.429,4.37,23.852,11.645,32.83C82.594,232.125,54,263.577,54,301.604v20.376H20V81.75c0-4.275,3.501-7.754,7.805-7.754
	h11.862c5.523,0,10-4.478,10-10s-4.477-10-10-10H27.805C12.473,53.996,0,66.446,0,81.75v296.476
	c0,15.304,12.473,27.754,27.805,27.754h152.174v46.215c-25.227,2.555-44.98,23.917-44.98,49.806c0,5.522,4.477,10,10,10H502
	c5.523,0,10-4.478,10-10v-87.224C512,366.251,474.563,326.311,427.056,322.305z M330.288,273.257v-28.56
	c0-19.132,15.565-34.697,34.698-34.697h62.726v63.257c0,26.859-21.852,48.712-48.712,48.712S330.288,300.116,330.288,273.257z
	 M192.24,194.733c0,17.776-14.463,32.239-32.24,32.239s-32.24-14.463-32.24-32.239v-9.999h50.094c5.134,0,10.005-1.139,14.385-3.165
	v13.164H192.24z M171.669,246.973L160,258.642l-11.669-11.669L171.669,246.973L171.669,246.973z M127.76,156.541
	c0-12.218,9.939-22.157,22.157-22.157h42.322v15.966c0,7.932-6.453,14.385-14.385,14.385H127.76V156.541z M74,301.604
	c0-27.408,20.29-50.16,46.636-54.04l32.292,32.292c1.953,1.952,4.512,2.929,7.071,2.929s5.119-0.977,7.071-2.929l32.292-32.292
	c26.346,3.88,46.636,26.632,46.636,54.04v20.376H74V301.604z M20,378.226V341.98h261.307c-14.165,11.213-24.991,26.465-30.728,44
	H27.805C23.501,385.979,20,382.501,20,378.226z M246.42,405.979c-0.274,2.897-0.42,5.83-0.42,8.797v37.161h-46.021v-45.958H246.42z
	 M185.061,471.938H246V492h-89.292C160.838,480.324,171.988,471.938,185.061,471.938z M266,492v-77.224
	c0-40.005,32.433-72.567,72.384-72.797H368c0.072,0,0.141-0.009,0.213-0.011h50.979c40.146,0,72.808,32.661,72.808,72.808v37.161
	h-76.5c-5.523,0-10,4.478-10,10s4.477,10,10,10H492V492H266z"/>
<path d="M160.203,74c5.523,0,10-4.478,10-10V10c0-5.522-4.477-10-10-10s-10,4.478-10,10v54C150.203,69.522,154.68,74,160.203,74z"/>
<path d="M220.332,73.874c2.559,0,5.119-0.977,7.071-2.929l17.576-17.576c3.905-3.905,3.905-10.237,0-14.143
	c-3.905-3.904-10.237-3.904-14.143,0L213.26,56.803c-3.905,3.905-3.905,10.237,0,14.143
	C215.213,72.897,217.772,73.874,220.332,73.874z"/>
<path d="M92.766,71.066c1.953,1.952,4.512,2.929,7.071,2.929s5.119-0.977,7.071-2.929c3.905-3.905,3.906-10.237,0-14.143
	L89.164,39.179c-3.906-3.903-10.237-3.904-14.142,0c-3.905,3.905-3.906,10.237,0,14.143L92.766,71.066z"/>
<path d="M379,451.939c-2.63,0-5.21,1.061-7.07,2.931c-1.86,1.859-2.93,4.43-2.93,7.069c0,2.63,1.07,5.21,2.93,7.07
	c1.86,1.86,4.44,2.93,7.07,2.93s5.21-1.069,7.07-2.93s2.93-4.44,2.93-7.07c0-2.64-1.07-5.21-2.93-7.069
	C384.21,453,381.63,451.939,379,451.939z"/>
<g>
</g>
<g>
</g>
<g>
</g>
<g>
</g>
<g>
</g>
<g>
</g>
<g>
</g>
<g>
</g>
<g>
</g>
<g>
</g>
<g>
</g>
<g>
</g>
<g>
</g>
<g>
</g>
<g>
</g>
</svg>
