<?xml version="1.0" encoding="iso-8859-1"?>
<!-- Generator: Adobe Illustrator 17.1.0, SVG Export Plug-In . SVG Version: 6.00 Build 0)  -->
<!DOCTYPE svg PUBLIC "-//W3C//DTD SVG 1.1//EN" "http://www.w3.org/Graphics/SVG/1.1/DTD/svg11.dtd">
<svg xmlns="http://www.w3.org/2000/svg" xmlns:xlink="http://www.w3.org/1999/xlink" version="1.1" id="Capa_1" x="0px" y="0px" viewBox="0 0 172.709 172.709" style="enable-background:new 0 0 172.709 172.709;" xml:space="preserve" width="512px" height="512px">
<path d="M170.209,166.051h-28.456c-1.381,0-2.5-1.119-2.5-2.5v-19.611h-12.962v19.611  c0,1.381-1.119,2.5-2.5,2.5H95.335c-1.381,0-2.5-1.119-2.5-2.5v-19.611H79.874v19.611c0,1.381-1.119,2.5-2.5,2.5H48.918  c-1.381,0-2.5-1.119-2.5-2.5v-19.611H33.456v19.611c0,1.381-1.119,2.5-2.5,2.5H2.5c-1.381,0-2.5-1.119-2.5-2.5V30.091  c0-0.501,0.151-0.991,0.433-1.405L14.661,7.754c0.465-0.685,1.239-1.095,2.067-1.095s1.602,0.41,2.067,1.095l14.228,20.932  c0.282,0.414,0.433,0.904,0.433,1.405v23.275h12.962V30.091c0-0.501,0.151-0.991,0.433-1.405L61.078,7.754  c0.465-0.685,1.239-1.095,2.067-1.095s1.602,0.41,2.067,1.095l14.228,20.932c0.282,0.414,0.433,0.904,0.433,1.405v23.275h12.962  V30.091c0-0.501,0.151-0.991,0.433-1.405l14.228-20.932c0.465-0.685,1.239-1.095,2.067-1.095s1.602,0.41,2.067,1.095l14.228,20.932  c0.282,0.414,0.433,0.904,0.433,1.405v23.275h12.962V30.091c0-0.501,0.151-0.991,0.433-1.405l14.228-20.932  c0.465-0.685,1.239-1.095,2.067-1.095s1.602,0.41,2.067,1.095l14.228,20.932c0.282,0.414,0.433,0.904,0.433,1.405v133.46  C172.709,164.931,171.59,166.051,170.209,166.051z M144.253,161.051h23.456V30.86l-11.728-17.254L144.253,30.86V161.051z   M97.835,161.051h23.456V30.86l-11.728-17.254L97.835,30.86V161.051z M51.418,161.051h23.456V30.86L63.146,13.606L51.418,30.86  V161.051z M5,161.051h23.456V30.86L16.728,13.606L5,30.86V161.051z M126.292,138.939h12.962v-5.104h-12.962V138.939z   M79.874,138.939h12.962v-5.104H79.874V138.939z M33.456,138.939h12.962v-5.104H33.456V138.939z M126.292,128.836h12.962V68.469  h-12.962V128.836z M79.874,128.836h12.962V68.469H79.874V128.836z M33.456,128.836h12.962V68.469H33.456V128.836z M126.292,63.469  h12.962v-5.104h-12.962V63.469z M79.874,63.469h12.962v-5.104H79.874V63.469z M33.456,63.469h12.962v-5.104H33.456V63.469z" fill="#75600b"/>
<g>
</g>
<g>
</g>
<g>
</g>
<g>
</g>
<g>
</g>
<g>
</g>
<g>
</g>
<g>
</g>
<g>
</g>
<g>
</g>
<g>
</g>
<g>
</g>
<g>
</g>
<g>
</g>
<g>
</g>
</svg>
