<?xml version="1.0" encoding="iso-8859-1"?>
<!-- Generator: Adobe Illustrator 19.0.0, SVG Export Plug-In . SVG Version: 6.00 Build 0)  -->
<svg version="1.1" id="Capa_1" xmlns="http://www.w3.org/2000/svg" xmlns:xlink="http://www.w3.org/1999/xlink" x="0px" y="0px"
	 viewBox="0 0 512 512" style="enable-background:new 0 0 512 512;" xml:space="preserve">
<polygon style="fill:#0150C1;" points="394.529,0 256.003,29.335 235.986,85.489 394.529,65.473 "/>
<g>
	<polygon style="fill:#006EFD;" points="85.348,65.473 256.003,85.489 256.003,29.335 	"/>
	<polygon style="fill:#006EFD;" points="426.658,65.473 256.003,65.473 235.986,256.612 256.003,512 426.658,512 	"/>
</g>
<rect x="85.342" y="65.47" style="fill:#0494FD;" width="170.66" height="446.53"/>
<path style="fill:#CCE7FD;" d="M134.607,256.607c0,66.938,54.458,121.397,121.396,121.397v-37.289
	c-8.6-11.791-20.325-33.912-22.997-69.108h22.997v-30h-22.997c2.664-35.094,14.33-57.19,22.923-69.006
	c0.024,0.034,0.049,0.07,0.074,0.104V135.21C189.064,135.211,134.607,189.669,134.607,256.607z M165.844,271.607h37.093
	c1.998,30.222,9.853,53.105,18.371,69.55C192.523,329.302,171.076,303.159,165.844,271.607z M221.307,172.058
	c-8.518,16.445-16.373,39.328-18.37,69.549h-37.093C171.076,210.056,192.521,183.914,221.307,172.058z"/>
<path style="fill:#A2D7FD;" d="M278.984,241.607h-22.982v30H279c-2.672,35.196-14.397,57.317-22.997,69.108v37.289
	c66.938,0,121.396-54.459,121.396-121.397S322.94,135.211,256.003,135.211v37.495C264.553,184.615,276.281,206.858,278.984,241.607z
	 M346.161,241.607h-37.093c-1.998-30.221-9.852-53.104-18.37-69.549C319.483,183.914,340.93,210.056,346.161,241.607z
	 M309.069,271.607h37.093c-5.232,31.552-26.678,57.694-55.464,69.55C299.216,324.712,307.07,301.829,309.069,271.607z"/>
<rect x="256.003" y="412.26" style="fill:#0150C1;" width="106.4" height="30"/>
<rect x="149.603" y="412.26" style="fill:#006EFD;" width="106.4" height="30"/>
<g>
</g>
<g>
</g>
<g>
</g>
<g>
</g>
<g>
</g>
<g>
</g>
<g>
</g>
<g>
</g>
<g>
</g>
<g>
</g>
<g>
</g>
<g>
</g>
<g>
</g>
<g>
</g>
<g>
</g>
</svg>
