<?xml version="1.0" encoding="iso-8859-1"?>
<!-- Generator: Adobe Illustrator 19.0.0, SVG Export Plug-In . SVG Version: 6.00 Build 0)  -->
<svg version="1.1" id="Capa_1" xmlns="http://www.w3.org/2000/svg" xmlns:xlink="http://www.w3.org/1999/xlink" x="0px" y="0px"
	 viewBox="0 0 512 512" style="enable-background:new 0 0 512 512;" xml:space="preserve">
<rect x="185.459" y="371.367" style="fill:#239999;" width="141.072" height="79.872"/>
<path style="fill:#45B8C4;" d="M443.126,35.288h15.66c29.391,0,53.215,23.823,53.215,53.203v246.288
	c0,29.379-23.823,53.203-53.215,53.203H53.203C23.811,387.981,0,364.158,0,334.779V88.491c0-29.379,23.811-53.203,53.203-53.203
	h12.708"/>
<path style="fill:#FFFFFF;" d="M65.911,75.422H53.203c-7.212,0-13.07,5.869-13.07,13.081v246.265c0,7.212,5.858,13.081,13.07,13.081
	h41.65h319.331h44.601c7.212,0,13.081-5.869,13.081-13.081V88.503c0-7.212-5.869-13.081-13.081-13.081h-15.66H65.911z"/>
<path style="fill:#45B8C4;" d="M372.511,476.712H139.489l0,0c0-22.836,18.512-41.35,41.35-41.35h150.324
	C353.999,435.362,372.511,453.875,372.511,476.712L372.511,476.712z"/>
<path style="fill:#FCC63D;" d="M471.869,268.465v66.299c0,5.078-2.905,9.477-7.137,11.651l-110.32-110.32
	c-22.852,7.523-49.006,2.194-67.166-15.966c-13.302-13.302-19.717-30.866-19.257-48.285l35.694,17.826
	c4.127,2.069,8.516,3.041,12.831,3.041c10.564,0,20.731-5.831,25.767-15.924c7.095-14.211,1.327-31.493-12.884-38.599
	l-34.889-17.418c25.778-19.205,62.412-17.115,85.807,6.28c17.899,17.91,23.333,43.551,16.29,66.152L471.869,268.465z"/>
<g>
	<polygon style="fill:#424C59;" points="96.718,130.32 70.232,156.805 105.442,218.501 143.577,222.762 162.674,203.665 
		158.413,165.529 	"/>
	
		<rect x="179.531" y="196.683" transform="matrix(-0.7071 0.7071 -0.7071 -0.7071 507.009 294.1144)" style="fill:#424C59;" width="26.121" height="110.758"/>
</g>
<path style="fill:#D8401D;" d="M338.707,347.845H238.041l-13.343-13.343c-10-10-10-26.227,0-36.227l14.117-14.117
	c0.616-0.606,1.243-1.181,1.902-1.714c10.062-8.255,24.931-7.67,34.325,1.724L338.707,347.845z"/>
<path style="fill:#F9572B;" d="M338.707,347.845h-65.202L242.43,316.77c-9.383-9.383-9.958-24.263-1.714-34.325
	c10.062-8.255,24.931-7.67,34.325,1.724L338.707,347.845z"/>
<g>
</g>
<g>
</g>
<g>
</g>
<g>
</g>
<g>
</g>
<g>
</g>
<g>
</g>
<g>
</g>
<g>
</g>
<g>
</g>
<g>
</g>
<g>
</g>
<g>
</g>
<g>
</g>
<g>
</g>
</svg>
