<?xml version="1.0" encoding="iso-8859-1"?>
<!-- Generator: Adobe Illustrator 19.0.0, SVG Export Plug-In . SVG Version: 6.00 Build 0)  -->
<svg version="1.1" id="Layer_1" xmlns="http://www.w3.org/2000/svg" xmlns:xlink="http://www.w3.org/1999/xlink" x="0px" y="0px"
	 viewBox="0 0 509.287 509.287" style="enable-background:new 0 0 509.287 509.287;" xml:space="preserve">
<circle style="fill:#FBD303;" cx="254.644" cy="254.644" r="254.644"/>
<path style="fill:#F1F3F7;" d="M344.159,182.76l-48.148-35.603V106.13h-70.866h-70.866v41.028l-47.809,35.603v249.897
	c0,9.155,7.46,16.615,16.615,16.615h204.461c9.155,0,16.615-7.46,16.615-16.615V182.76z"/>
<rect x="154.278" y="106.13" style="fill:#DEDEDF;" width="141.393" height="28.821"/>
<path style="fill:#646B79;" d="M291.603,33.568H158.686c-10.172,0-18.31,8.138-18.31,18.31v66.119h169.197V51.878
	C309.913,41.706,301.775,33.568,291.603,33.568z"/>
<rect x="106.469" y="225.823" style="fill:#6EB1E1;" width="237.69" height="167.841"/>
<rect x="106.469" y="363.486" style="fill:#5BA5D3;" width="237.69" height="30.177"/>
<g>
	<path style="fill:#414753;" d="M172.927,56.286c-6.442,0-11.868,4.747-11.868,10.511v50.861h24.074V66.797
		C185.134,61.033,179.709,56.286,172.927,56.286z"/>
	<path style="fill:#414753;" d="M225.144,56.286c-6.442,0-11.868,4.747-11.868,10.511v50.861h24.074V66.797
		C237.012,61.033,231.926,56.286,225.144,56.286z"/>
	<path style="fill:#414753;" d="M277.362,56.286c-6.442,0-11.868,4.747-11.868,10.511v50.861h24.074V66.797
		C289.229,61.033,283.804,56.286,277.362,56.286z"/>
</g>
<rect x="131.221" y="106.13" style="fill:#646B79;" width="187.846" height="11.868"/>
<path style="fill:#F0582F;" d="M274.649,411.295c-16.615,0-30.178,13.563-30.178,30.177c0,16.615,13.563,30.177,30.178,30.177
	h49.844v-60.694h-49.844V411.295z"/>
<path style="fill:#F1F3F7;" d="M374.336,411.295h-49.844v60.694h49.844c16.615,0,30.177-13.563,30.177-30.177
	C404.853,424.858,391.29,411.295,374.336,411.295z"/>
<circle style="fill:#FCFCFD;" cx="417.06" cy="343.142" r="56.625"/>
<path style="fill:#DEDEDF;" d="M373.658,306.861l80.021,80.021c1.356-1.017,2.713-2.374,3.73-3.391l-80.36-80.36
	C375.693,304.148,374.676,305.505,373.658,306.861z"/>
<path style="fill:#F1F3F7;" d="M460.461,379.423l-80.021-80.021c-1.356,1.017-2.713,2.374-3.73,3.391l80.36,80.36
	C458.427,382.135,459.444,380.779,460.461,379.423z"/>
<g>
</g>
<g>
</g>
<g>
</g>
<g>
</g>
<g>
</g>
<g>
</g>
<g>
</g>
<g>
</g>
<g>
</g>
<g>
</g>
<g>
</g>
<g>
</g>
<g>
</g>
<g>
</g>
<g>
</g>
</svg>
