<?xml version="1.0" ?><svg id="Layer_1" style="enable-background:new 0 0 96 96;" version="1.1" viewBox="0 0 96 96" xml:space="preserve" xmlns="http://www.w3.org/2000/svg" xmlns:xlink="http://www.w3.org/1999/xlink"><style type="text/css">
	.st0{fill-rule:evenodd;clip-rule:evenodd;fill:#B29867;}
	.st1{fill-rule:evenodd;clip-rule:evenodd;fill:#A25641;}
	.st2{fill-rule:evenodd;clip-rule:evenodd;fill:#8E5745;}
	.st3{fill-rule:evenodd;clip-rule:evenodd;fill:#EA4F37;}
	.st4{fill-rule:evenodd;clip-rule:evenodd;fill:#D1D3D4;}
	.st5{fill-rule:evenodd;clip-rule:evenodd;fill:#00AEEF;}
</style><g id="XMLID_2_"><rect class="st0" height="20" id="XMLID_20_" width="8" x="68.9" y="8"/><rect class="st1" height="4" id="XMLID_19_" width="12" x="66.9" y="6"/><polygon class="st2" id="XMLID_18_" points="11.8,26.7 49,0.1 85.9,26.7 85.9,30 11.8,30  "/><polygon class="st3" id="XMLID_17_" points="15.8,95.9 81.9,95.9 81.9,28.7 49,5 15.8,28.7  "/><g id="XMLID_10_"><polygon class="st4" id="XMLID_16_" points="65.6,57 51.9,57 51.9,32 75.9,32 75.9,57   "/><rect class="st5" height="8" id="XMLID_15_" width="16" x="55.9" y="45"/><rect class="st5" height="5" id="XMLID_14_" width="16" x="55.9" y="36"/><polygon class="st4" id="XMLID_13_" points="35.6,57 21.9,57 21.9,32 45.9,32 45.9,57   "/><rect class="st5" height="8" id="XMLID_12_" width="16" x="25.9" y="45"/><rect class="st5" height="5" id="XMLID_11_" width="16" x="25.9" y="36"/></g><g id="XMLID_3_"><polygon class="st4" id="XMLID_9_" points="65.6,87 51.9,87 51.9,62 75.9,62 75.9,87   "/><rect class="st5" height="8" id="XMLID_8_" width="16" x="55.9" y="75"/><rect class="st5" height="5" id="XMLID_7_" width="16" x="55.9" y="66"/><polygon class="st4" id="XMLID_6_" points="35.6,87 21.9,87 21.9,62 45.9,62 45.9,87   "/><rect class="st5" height="8" id="XMLID_5_" width="16" x="25.9" y="75"/><rect class="st5" height="5" id="XMLID_4_" width="16" x="25.9" y="66"/></g></g></svg>