<?xml version="1.0" encoding="iso-8859-1"?>
<!-- Generator: Adobe Illustrator 19.0.0, SVG Export Plug-In . SVG Version: 6.00 Build 0)  -->
<svg version="1.1" id="Capa_1" xmlns="http://www.w3.org/2000/svg" xmlns:xlink="http://www.w3.org/1999/xlink" x="0px" y="0px"
	 viewBox="0 0 512 512" style="enable-background:new 0 0 512 512;" xml:space="preserve">
<polygon style="fill:#D8D8E4;" points="91.921,447.966 115.1,502 140.208,502 117.029,447.966 "/>
<path style="fill:#6A80FF;" d="M46.274,349.467C26.24,349.467,10,365.707,10,385.741s16.24,36.274,36.274,36.274"/>
<path style="fill:#FF5D5D;" d="M99.838,323.302c-11.219,0-20.314,9.095-20.314,20.314v84.036c0,11.219,9.095,20.314,20.314,20.314
	h17.191V323.302H99.838z"/>
<polygon style="fill:#72D8FF;" points="190.307,303.381 190.307,467.887 315.792,502 315.792,269.268 "/>
<path style="fill:#FFCDAC;" d="M412.4,14.17c-20.498,8.382-34.945,28.511-34.945,52.025v14.66c0,23.514,14.447,43.643,34.945,52.025
	c20.498-8.382,34.945-28.511,34.945-52.025v-14.66C447.345,42.681,432.897,22.552,412.4,14.17z"/>
<path style="fill:#FFC66C;" d="M476.308,146.63l-49.361-16.357l-49.361,16.357c-15.337,5.082-25.692,19.422-25.692,35.579v41.811
	H502v-41.811C502,166.052,491.646,151.713,476.308,146.63z"/>
<path d="M321.864,261.323c-2.476-1.892-5.689-2.522-8.696-1.706l-197.474,53.684H66.588c-15.675,0-28.608,11.958-30.158,27.23
	C15.628,345.057,0,363.604,0,385.741c0,22.147,15.642,40.7,36.457,45.215c1.399,12.844,10.853,23.297,23.191,26.199l20.928,48.787
	c1.577,3.675,5.191,6.058,9.19,6.058h50.441c3.362,0,6.499-1.689,8.35-4.497c1.85-2.807,2.166-6.356,0.841-9.446l-15.019-35.012
	l178.788,48.604c0.864,0.235,1.746,0.35,2.622,0.35c2.172,0,4.311-0.708,6.074-2.056c2.475-1.892,3.927-4.829,3.927-7.944v-19
	c0-5.523-4.478-10-10-10s-10,4.477-10,10v5.918L127.028,440.32V330.946l178.762-48.597v123.317c0,5.523,4.478,10,10,10
	s10-4.477,10-10V269.268C325.791,266.152,324.339,263.215,321.864,261.323z M20,385.741c0-10.948,6.733-20.349,16.273-24.291v48.583
	C26.733,406.09,20,396.689,20,385.741z M56.273,343.616c0-5.687,4.627-10.314,10.314-10.314h40.441v104.665h-40.44
	c-5.688,0-10.314-4.627-10.314-10.314L56.273,343.616L56.273,343.616z M96.358,492l-14.6-34.034h28.679l14.6,34.034H96.358z"/>
<path d="M315.79,437.97c-2.63,0-5.21,1.06-7.07,2.93c-1.86,1.86-2.93,4.44-2.93,7.07s1.069,5.21,2.93,7.07
	c1.86,1.86,4.44,2.93,7.07,2.93c2.64,0,5.21-1.07,7.069-2.93c1.86-1.86,2.931-4.44,2.931-7.07s-1.07-5.21-2.931-7.07
	C321,439.03,318.43,437.97,315.79,437.97z"/>
<path d="M402.447,296.876c-3.905,3.905-3.905,10.237,0,14.142c19.932,19.931,30.908,46.43,30.908,74.616
	c0,28.187-10.977,54.686-30.908,74.616c-3.905,3.905-3.905,10.237,0,14.142c1.953,1.953,4.512,2.929,7.071,2.929
	c2.559,0,5.118-0.977,7.071-2.929c23.708-23.708,36.766-55.229,36.766-88.758c0-33.528-13.058-65.05-36.766-88.758
	C412.684,292.97,406.354,292.971,402.447,296.876z"/>
<path d="M387.879,325.587c-3.905-3.905-10.235-3.905-14.143,0c-3.905,3.905-3.905,10.237,0,14.142
	c25.312,25.312,25.312,66.498,0,91.81c-3.905,3.905-3.905,10.237,0,14.142c1.953,1.953,4.512,2.929,7.071,2.929
	s5.118-0.977,7.071-2.929C420.987,412.571,420.987,358.697,387.879,325.587z"/>
<path d="M343.465,355.858c-3.905,3.905-3.905,10.237,0,14.142c8.62,8.621,8.62,22.647,0,31.268c-3.905,3.905-3.905,10.237,0,14.142
	c1.953,1.953,4.512,2.929,7.071,2.929s5.118-0.977,7.071-2.929c16.418-16.418,16.418-43.133,0-59.551
	C353.702,351.954,347.372,351.953,343.465,355.858z"/>
<path d="M479.454,137.138l-38.496-12.757c10.19-11.647,16.386-26.872,16.386-43.527v-14.66C457.345,29.695,427.65,0,391.15,0
	s-66.195,29.695-66.195,66.195v14.66c0,16.655,6.196,31.88,16.387,43.527l-38.496,12.757c-19.467,6.451-32.546,24.563-32.546,45.071
	v41.812c0,5.523,4.478,10,10,10H502c5.522,0,10-4.477,10-10V182.21C512,161.702,498.921,143.589,479.454,137.138z M344.955,66.195
	C344.955,40.723,365.679,20,391.15,20s46.194,20.723,46.194,46.195v14.66c0,16.03-8.211,30.174-20.644,38.461
	c-0.681,0.329-1.323,0.734-1.916,1.209c-6.92,4.138-15.003,6.525-23.635,6.525c-8.633,0-16.717-2.386-23.637-6.526
	c-0.592-0.475-1.234-0.88-1.914-1.208c-12.433-8.287-20.644-22.431-20.644-38.461v-14.66H344.955z M492,214.021h-24.85v-24.372
	c0-5.523-4.478-10-10-10s-10,4.477-10,10v24.372h-112v-24.372c0-5.523-4.478-10-10-10s-10,4.477-10,10v24.372H290.3v-31.812
	c0-11.87,7.57-22.353,18.837-26.087l50.894-16.865c9.283,4.966,19.876,7.792,31.12,7.792c11.243,0,21.836-2.826,31.119-7.792
	l50.894,16.865C484.43,159.856,492,170.34,492,182.209V214.021z"/>
<path d="M53,208h87.75c10.614,0,19.25,8.636,19.25,19.25v38.462c0,5.523,4.478,10,10,10s10-4.477,10-10V227.25
	c0-21.643-17.607-39.25-39.25-39.25H53c-18.196,0-33-14.804-33-33s14.804-33,33-33h128c5.522,0,10-4.477,10-10s-4.478-10-10-10H53
	c-29.225,0-53,23.776-53,53S23.775,208,53,208z"/>
<path d="M220,122c2.63,0,5.21-1.07,7.069-2.93c1.86-1.86,2.931-4.44,2.931-7.07s-1.07-5.21-2.931-7.07
	C225.21,103.07,222.63,102,220,102s-5.21,1.07-7.07,2.93S210,109.37,210,112s1.069,5.21,2.93,7.07S217.37,122,220,122z"/>
<path d="M239.011,134.584c1.953,1.953,4.512,2.929,7.071,2.929s5.118-0.976,7.071-2.929l15.513-15.513
	c3.905-3.905,3.905-10.237,0-14.143l-15.513-15.513c-3.906-3.905-10.236-3.905-14.143,0c-3.905,3.905-3.905,10.237,0,14.143
	l8.441,8.441l-8.441,8.441C235.105,124.347,235.105,130.679,239.011,134.584z"/>
<g>
</g>
<g>
</g>
<g>
</g>
<g>
</g>
<g>
</g>
<g>
</g>
<g>
</g>
<g>
</g>
<g>
</g>
<g>
</g>
<g>
</g>
<g>
</g>
<g>
</g>
<g>
</g>
<g>
</g>
</svg>
