<?xml version="1.0" ?><svg id="Layer_1" style="enable-background:new 0 0 96 96;" version="1.1" viewBox="0 0 96 96" xml:space="preserve" xmlns="http://www.w3.org/2000/svg" xmlns:xlink="http://www.w3.org/1999/xlink"><style type="text/css">
	.st0{fill-rule:evenodd;clip-rule:evenodd;fill:#D1D3D4;}
	.st1{fill-rule:evenodd;clip-rule:evenodd;fill:#8E5745;}
	.st2{fill-rule:evenodd;clip-rule:evenodd;fill:#58595B;}
</style><g><polygon class="st0" points="14.4,96.1 82.4,96.1 82.4,34.1 48.5,6.1 14.4,34.1  "/><path class="st1" d="M48.4,9.8L7.2,50.4c-1.6,1.5-4.1,1.5-5.7,0c-1.5-1.6-1.5-4.1,0-5.7l44-43.3c0.1-0.1,0.2-0.1,0.2-0.2   c0.7-0.6,1.7-0.9,2.6-0.9s1.8,0.3,2.6,0.9c0.1,0.1,0.2,0.1,0.2,0.2l44,43.3c1.6,1.5,1.6,4.1,0,5.7c-1.5,1.6-4.1,1.6-5.7,0L48.4,9.8   z"/><path class="st2" d="M48.4,44.1L48.4,44.1c10.5,0,19,8.5,19,19v33h-38v-33C29.4,52.7,37.9,44.1,48.4,44.1z"/><path class="st2" d="M40.6,25.4c0.3-0.3,0.6-0.4,0.9-0.5c0.1-0.3,0.3-0.6,0.5-0.9c0.8-0.8,2-0.8,2.8,0c0.8,0.8,0.8,2,0,2.8l3.5,3.5   l3.5-3.5c-0.8-0.8-0.8-2,0-2.8c0.8-0.8,2-0.8,2.8,0c0.3,0.3,0.4,0.6,0.5,0.9c0.3,0.1,0.6,0.3,0.9,0.5c0.8,0.8,0.8,2,0,2.8   c-0.8,0.8-2,0.8-2.8,0l-3.5,3.5l3.5,3.5c0.8-0.8,2-0.8,2.8,0c0.8,0.8,0.8,2,0,2.8c-0.3,0.3-0.6,0.4-0.9,0.5   c-0.1,0.3-0.3,0.6-0.5,0.9c-0.8,0.8-2,0.8-2.8,0c-0.8-0.8-0.8-2,0-2.8l-3.5-3.5l-3.5,3.5c0.8,0.8,0.8,2,0,2.8c-0.8,0.8-2,0.8-2.8,0   c-0.3-0.3-0.4-0.6-0.5-0.9c-0.3-0.1-0.6-0.3-0.9-0.5c-0.8-0.8-0.8-2,0-2.8c0.8-0.8,2-0.8,2.8,0l3.5-3.5l-3.5-3.5   c-0.8,0.8-2,0.8-2.8,0C39.8,27.4,39.8,26.1,40.6,25.4z"/></g></svg>