<?xml version="1.0" encoding="iso-8859-1"?>
<!-- Generator: Adobe Illustrator 19.0.0, SVG Export Plug-In . SVG Version: 6.00 Build 0)  -->
<svg version="1.1" id="Capa_1" xmlns="http://www.w3.org/2000/svg" xmlns:xlink="http://www.w3.org/1999/xlink" x="0px" y="0px"
	 viewBox="0 0 512.001 512.001" style="enable-background:new 0 0 512.001 512.001;" xml:space="preserve">
<circle style="fill:#FFE670;" cx="256" cy="256" r="256"/>
<path style="fill:#FEC000;" d="M512,256c0-23.188-3.101-45.648-8.88-67.008l-76.167-76.425c-3.739-3.642-8.829-5.9-14.429-5.9
	H99.476c-11.412,0-20.75,9.338-20.75,20.75v81.717c0,5.176,1.928,9.916,5.095,13.556c0,0,140.361,140.183,140.542,140.413v40.875
	h-42.745v39.19l68.763,68.762c1.869,0.04,3.74,0.071,5.619,0.071C397.385,512,512,397.385,512,256z"/>
<rect x="224.36" y="224.81" style="fill:#E02424;" width="63.27" height="183.57"/>
<rect x="256" y="224.82" style="fill:#990011;" width="31.64" height="183.57"/>
<path style="fill:#0088FF;" d="M412.524,229.883H99.476c-11.412,0-20.75-9.338-20.75-20.75v-81.717
	c0-11.412,9.338-20.75,20.75-20.75h313.048c11.413,0,20.75,9.338,20.75,20.75v81.717
	C433.274,220.546,423.938,229.883,412.524,229.883z"/>
<path style="fill:#004EB1;" d="M433.27,127.417v81.72c0,11.41-9.33,20.75-20.75,20.75H256v-123.22h156.52
	C423.94,106.667,433.27,116.007,433.27,127.417z"/>
<rect x="181.62" y="403.98" style="fill:#FFFFFF;" width="148.76" height="39.19"/>
<rect x="256" y="403.98" style="fill:#9CFDFF;" width="74.38" height="39.19"/>
<g>
	<path style="fill:#FFFFFF;" d="M112.499,188.061v-39.683h26.94v8.049h-17.773v8.551h14.643v7.434h-14.643v15.649H112.499z"/>
	<path style="fill:#FFFFFF;" d="M163.584,188.396c-2.944,0-5.627-0.577-8.049-1.732c-2.423-1.154-4.49-2.674-6.204-4.555
		c-1.714-1.881-3.046-4.033-3.996-6.455s-1.425-4.918-1.425-7.49c0-2.607,0.494-5.123,1.481-7.545s2.366-4.555,4.136-6.399
		c1.769-1.845,3.865-3.316,6.288-4.415c2.421-1.099,5.067-1.649,7.936-1.649c2.943,0,5.626,0.578,8.049,1.733
		c2.421,1.154,4.49,2.683,6.204,4.582c1.714,1.901,3.036,4.062,3.969,6.483c0.931,2.423,1.397,4.882,1.397,7.378
		c0,2.608-0.494,5.124-1.481,7.545c-0.988,2.423-2.357,4.555-4.108,6.4c-1.752,1.844-3.838,3.325-6.26,4.442
		C169.098,187.837,166.452,188.396,163.584,188.396z M153.244,168.275c0,1.528,0.224,3.009,0.671,4.444
		c0.447,1.434,1.108,2.711,1.984,3.829c0.875,1.118,1.965,2.012,3.27,2.683c1.304,0.671,2.795,1.006,4.471,1.006
		c1.751,0,3.278-0.353,4.583-1.062c1.304-0.708,2.384-1.629,3.242-2.767c0.857-1.136,1.5-2.421,1.928-3.857
		c0.428-1.433,0.643-2.897,0.643-4.388c0-1.527-0.223-3.008-0.671-4.443c-0.447-1.433-1.118-2.701-2.012-3.8
		s-1.984-1.974-3.27-2.627c-1.285-0.652-2.767-0.978-4.443-0.978c-1.752,0-3.27,0.345-4.555,1.034
		c-1.285,0.69-2.367,1.593-3.242,2.711c-0.876,1.118-1.528,2.395-1.956,3.828C153.458,165.322,153.244,166.786,153.244,168.275z"/>
	<path style="fill:#FFFFFF;" d="M191.474,188.061v-39.683h17.885c1.863,0,3.586,0.392,5.17,1.174
		c1.583,0.783,2.952,1.808,4.108,3.075c1.155,1.266,2.059,2.702,2.711,4.303c0.652,1.603,0.978,3.223,0.978,4.862
		c0,1.23-0.15,2.412-0.447,3.549c-0.298,1.137-0.727,2.208-1.285,3.215c-0.559,1.006-1.239,1.91-2.04,2.711s-1.704,1.481-2.711,2.04
		l8.719,14.755h-10.34l-7.601-12.799h-5.98v12.799L191.474,188.061L191.474,188.061z M200.64,167.269h8.383
		c1.08,0,2.012-0.512,2.795-1.537c0.783-1.024,1.174-2.338,1.174-3.941c0-1.639-0.447-2.943-1.341-3.912
		c-0.894-0.968-1.864-1.453-2.907-1.453h-8.104L200.64,167.269L200.64,167.269z"/>
	<path style="fill:#FFFFFF;" d="M247.532,188.061v-39.683h17.885c1.862,0,3.586,0.392,5.17,1.174
		c1.583,0.783,2.953,1.808,4.108,3.075c1.154,1.266,2.059,2.702,2.711,4.303c0.652,1.603,0.978,3.223,0.978,4.862
		c0,1.23-0.15,2.412-0.447,3.549c-0.298,1.137-0.726,2.208-1.285,3.215c-0.559,1.006-1.239,1.91-2.04,2.711s-1.704,1.481-2.711,2.04
		l8.72,14.755h-10.34l-7.601-12.799h-5.98v12.799L247.532,188.061L247.532,188.061z M256.698,167.269h8.383
		c1.08,0,2.012-0.512,2.795-1.537c0.782-1.024,1.174-2.338,1.174-3.941c0-1.639-0.447-2.943-1.341-3.912
		c-0.894-0.968-1.864-1.453-2.907-1.453h-8.104V167.269z"/>
</g>
<g>
	<path style="fill:#9CFDFF;" d="M271.9,173.307c1.01-0.56,1.91-1.24,2.71-2.04c0.8-0.8,1.48-1.71,2.04-2.71
		c0.56-1.01,0.99-2.08,1.29-3.22c0.29-1.13,0.44-2.31,0.44-3.54c0-1.64-0.32-3.26-0.97-4.87c-0.66-1.6-1.56-3.03-2.71-4.3
		c-1.16-1.27-2.53-2.29-4.11-3.08c-1.59-0.78-3.31-1.17-5.17-1.17H256v39.68h0.7v-12.8h5.98l7.6,12.8h10.34L271.9,173.307z
		 M267.88,165.737c-0.79,1.02-1.72,1.53-2.8,1.53h-8.38v-10.84h8.1c1.05,0,2.01,0.48,2.91,1.45c0.89,0.97,1.34,2.28,1.34,3.92
		C269.05,163.397,268.66,164.707,267.88,165.737z"/>
	<path style="fill:#9CFDFF;" d="M315.663,180.013v8.048h-27.89v-39.683h27.387v8.049h-18.22v7.713h15.65v7.433h-15.65v8.44H315.663z
		"/>
	<path style="fill:#9CFDFF;" d="M333.214,165.368v22.692h-9.167v-39.683h7.154l18.5,23.307v-23.307h9.166v39.683h-7.378
		L333.214,165.368z"/>
	<path style="fill:#9CFDFF;" d="M399.5,156.426h-12.073v31.634h-9.166v-31.634h-12.128v-8.049H399.5V156.426z"/>
</g>
<g>
</g>
<g>
</g>
<g>
</g>
<g>
</g>
<g>
</g>
<g>
</g>
<g>
</g>
<g>
</g>
<g>
</g>
<g>
</g>
<g>
</g>
<g>
</g>
<g>
</g>
<g>
</g>
<g>
</g>
</svg>
