<?xml version="1.0" encoding="iso-8859-1"?>
<!-- Generator: Adobe Illustrator 19.0.0, SVG Export Plug-In . SVG Version: 6.00 Build 0)  -->
<svg version="1.1" id="Capa_1" xmlns="http://www.w3.org/2000/svg" xmlns:xlink="http://www.w3.org/1999/xlink" x="0px" y="0px"
	 viewBox="0 0 512 512" style="enable-background:new 0 0 512 512;" xml:space="preserve">
<path style="fill:#C4304C;" d="M450.2,203v44.1h-8.8c-5.3,0-10.6,1.2-15.4,3.6L414.9,203H450.2z"/>
<g>
	<polygon style="fill:#FF4848;" points="291.3,344.3 264.8,370.8 247.2,370.8 220.7,344.3 256,309 	"/>
	<polygon style="fill:#FF4848;" points="264.8,370.8 291.3,512 220.7,512 247.2,370.8 	"/>
</g>
<path style="fill:#109344;" d="M0,114.8V203v61.8h26.5v-17.7h44.1c2.9,0,5.8,0.4,8.6,1.1l0.3-1.1v-79.4v-53H0V114.8z"/>
<path style="fill:#FFCBA8;" d="M426,250.8c4.8-2.4,10-3.6,15.4-3.6h44.1v26.5c0,14.6-11.9,26.5-26.5,26.5h-53v-17.7
	C406.1,269,413.8,256.6,426,250.8z"/>
<polygon style="fill:#FFE168;" points="512,141.2 512,220.7 450.2,203 450.2,158.9 "/>
<path style="fill:#005795;" d="M406.1,352.9v-52.8h53V512h-53V361.9c0-3-0.2-6.1-0.4-9H406.1z"/>
<rect x="414.9" y="158.9" style="fill:#FF4848;" width="35.3" height="44.1"/>
<path style="fill:#005795;" d="M370.8,512h-79.4V273.7h26.5c45.3,0,83.2,34.2,87.8,79.3c0.3,2.9,0.4,6,0.4,9v150H370.8z"/>
<g>
	<path style="fill:#FFCBA8;" d="M353.1,123.6c9.7,0,17.6,7.9,17.7,17.7c-0.1,9.7-7.9,17.6-17.7,17.7h-17.7v-35.3h17.7V123.6z"/>
	<path style="fill:#FFCBA8;" d="M220.7,242.1c-26.7-10.8-44.1-36.7-44.1-65.5V97.1h8.8c53.4,0,96.7-43,97.1-96.4V53
		c0,29.3,23.7,53,53,53v70.6c0,28.8-17.5,54.7-44.1,65.5c-8.4,3.4-17.4,5.1-26.5,5.1h-17.7C238.1,247.2,229.1,245.4,220.7,242.1z
		 M300.1,128c0-7.3-5.9-13.2-13.2-13.2s-13.2,5.9-13.2,13.2c0,7.3,5.9,13.2,13.2,13.2S300.1,135.3,300.1,128z M238.3,128
		c0-7.3-5.9-13.2-13.2-13.2s-13.2,5.9-13.2,13.2c0,7.3,5.9,13.2,13.2,13.2C232.4,141.2,238.3,135.3,238.3,128z"/>
</g>
<path style="fill:#603C2F;" d="M335.4,61.8v44.1c-29.3,0-53-23.7-53-53V0.7C312.9,5,335.5,31.1,335.4,61.8z"/>
<g>
	<polygon style="fill:#F5F5F5;" points="291.3,344.3 291.3,512 264.8,370.8 	"/>
	<polygon style="fill:#F5F5F5;" points="291.3,273.7 291.3,344.3 256,309 	"/>
</g>
<path style="fill:#FFCBA8;" d="M220.7,273.7v-31.6c8.4,3.4,17.4,5.1,26.5,5.1h17.7c9.1,0,18.1-1.7,26.5-5.1v31.6L256,309l-35.3-32
	V273.7z"/>
<g>
	<circle style="fill:#603C2F;" cx="286.9" cy="128" r="13.2"/>
	<path style="fill:#603C2F;" d="M273.7,0c3,0,5.9,0.2,8.8,0.7c-0.4,53.4-43.7,96.4-97.1,96.4h-8.8V61.8c0-34.1,27.7-61.8,61.8-61.8
		H273.7z"/>
</g>
<g>
	<polygon style="fill:#F5F5F5;" points="256,309 220.7,344.3 220.7,277 	"/>
	<polygon style="fill:#F5F5F5;" points="247.2,370.8 220.7,512 220.7,344.3 	"/>
</g>
<circle style="fill:#603C2F;" cx="225.1" cy="128" r="13.2"/>
<path style="fill:#005795;" d="M141.2,512h-35.3V361.9c0-3,0.2-6.1,0.4-9c4.6-45,42.6-79.3,87.8-79.3h26.5V512H141.2z"/>
<path style="fill:#FFCBA8;" d="M176.6,123.6v35.3h-17.7c-9.7-0.1-17.6-7.9-17.7-17.7c0-9.7,7.9-17.6,17.7-17.7h17.7V123.6z"/>
<path style="fill:#005795;" d="M105.9,352.9h0.4c-0.3,2.9-0.4,6-0.4,9V512H53V300.1h53v52.8H105.9z"/>
<path style="fill:#FFCBA8;" d="M105.9,282.5v17.7H53c-14.6,0-26.5-11.9-26.5-26.5v-26.5h44.1c2.9,0,5.8,0.4,8.6,1.1
	C94.9,252.2,105.9,266.3,105.9,282.5z"/>
<path style="fill:#EBB691;" d="M273.7,185.4h-26.5c-4.9,0-8.8-4-8.8-8.8v-44.1H256v35.3h17.7V185.4z"/>
<g>
	<rect x="132.4" y="353.1" style="fill:#004475;" width="17.7" height="158.9"/>
	<rect x="361.9" y="353.1" style="fill:#004475;" width="17.7" height="158.9"/>
</g>
<rect x="388.4" y="167.7" style="fill:#FFE168;" width="26.5" height="17.7"/>
<path style="fill:#0B6B32;" d="M35.3,211.9h-8.8v-17.7h8.8l-5.3-7.1c-5.9-7.8-4.3-18.9,3.5-24.7c3.1-2.3,6.8-3.5,10.6-3.5H53v17.7
	h-8.8l5.3,7.1c5.9,7.8,4.3,18.9-3.5,24.7C42.8,210.6,39.1,211.9,35.3,211.9z"/>
<path style="fill:#EBB691;" d="M256,222.5L256,222.5c-12.3,0-24.1-4.9-32.7-13.6l12.5-12.4c5.3,5.4,12.6,8.4,20.1,8.4l0,0
	c7.6,0,14.9-3,20.3-8.4l12.5,12.5C280.1,217.6,268.3,222.5,256,222.5z"/>
<g>
</g>
<g>
</g>
<g>
</g>
<g>
</g>
<g>
</g>
<g>
</g>
<g>
</g>
<g>
</g>
<g>
</g>
<g>
</g>
<g>
</g>
<g>
</g>
<g>
</g>
<g>
</g>
<g>
</g>
</svg>
