<?xml version="1.0" encoding="iso-8859-1"?>
<!-- Generator: Adobe Illustrator 19.0.0, SVG Export Plug-In . SVG Version: 6.00 Build 0)  -->
<svg version="1.1" id="Capa_1" xmlns="http://www.w3.org/2000/svg" xmlns:xlink="http://www.w3.org/1999/xlink" x="0px" y="0px"
	 viewBox="0 0 512 512" style="enable-background:new 0 0 512 512;" xml:space="preserve">
<path style="fill:#35495D;" d="M288.132,167.445c-3.589,0-6.784-2.549-7.472-6.205c-0.778-4.131,1.941-8.112,6.072-8.889
	l51.749-9.743c4.132-0.782,8.111,1.941,8.889,6.072c0.778,4.131-1.941,8.112-6.072,8.889l-51.749,9.743
	C289.073,167.403,288.598,167.445,288.132,167.445z"/>
<g>
	<path style="fill:#1785B8;" d="M339.664,124.067L316.86,96.384l-19.603,0.146l30.658,37.217c1.505,1.828,3.684,2.772,5.88,2.772
		c1.703,0,3.418-0.569,4.835-1.737C341.874,132.109,342.337,127.312,339.664,124.067z"/>
	<path style="fill:#1785B8;" d="M105.421,163.554h112.085c21.765,0,39.479,17.532,40.072,39.154l-0.718,0.934l0,0H127.083
		c-17.052,0-30.875-13.823-30.875-30.875l0,0C96.208,167.679,100.333,163.554,105.421,163.554z"/>
</g>
<path style="fill:#0A7693;" d="M217.506,163.554h-22.741c16.239,0,16.005,40.088,16.005,40.088h46.09l0,0l0.718-0.934
	C256.985,181.086,239.272,163.554,217.506,163.554z"/>
<circle style="fill:#35495D;" cx="109.31" cy="360.06" r="66.35"/>
<path style="fill:#2A3A4C;" d="M109.305,293.711c-8.235,0-16.114,1.511-23.39,4.253c25.102,9.46,42.963,33.689,42.963,62.099
	s-17.861,52.64-42.963,62.099c7.276,2.742,15.155,4.253,23.39,4.253c36.645,0,66.353-29.707,66.353-66.353
	C175.657,323.418,145.95,293.711,109.305,293.711z"/>
<path style="fill:#CADDEA;" d="M109.304,397.736c-20.772,0-37.672-16.899-37.672-37.672s16.899-37.672,37.672-37.672
	s37.672,16.899,37.672,37.672S130.077,397.736,109.304,397.736z"/>
<circle style="fill:#35495D;" cx="445.65" cy="360.06" r="66.35"/>
<path style="fill:#2A3A4C;" d="M445.647,293.711c-8.217,0-16.081,1.504-23.344,4.235c25.126,9.448,43.009,33.69,43.009,62.118
	s-17.883,52.67-43.009,62.118c7.263,2.731,15.126,4.235,23.344,4.235c36.645,0,66.353-29.707,66.353-66.353
	S482.293,293.711,445.647,293.711z"/>
<path style="fill:#CADDEA;" d="M445.647,397.736c-20.772,0-37.672-16.899-37.672-37.672s16.899-37.672,37.672-37.672
	s37.672,16.899,37.672,37.672S466.42,397.736,445.647,397.736z"/>
<path style="fill:#D0D1D2;" d="M451.477,370.257L451.477,370.257c-7.486,3.912-16.727,1.014-20.639-6.472l-42.024-80.421
	l27.111-14.167l42.024,80.421C461.861,357.105,458.964,366.345,451.477,370.257z"/>
<path style="fill:#F9644B;" d="M494.273,285.723c-12.819-24.741-40.632-39.492-70.793-35.98l-63.479-111.469l-26.258,9.402
	c0,0,40.973,98.069,22.798,164.906l0,0c-2.179,11.32-12.085,19.502-23.613,19.502h-40.889c-0.69,0-1.377-0.012-2.061-0.035
	c-38.947-1.316-64.786-41.092-51.36-77.675l18.961-51.666c0.023-0.064-0.024-0.131-0.092-0.131h-127.98
	C57.982,202.576,0,260.559,0,332.084l0,0v20.968c0,5.321,4.314,9.635,9.635,9.635h222.461h119.467
	c17.015,0,32.267-4.76,38.345-20.654l0,0c2.415-6.314,6.232-12.026,11.278-16.525c28.533-25.445,68.153-29.225,86.858-29.467
	C493.301,295.973,496.691,290.391,494.273,285.723z"/>
<path style="fill:#F94730;" d="M134.426,267.037H86.015C38.51,267.037,0,305.547,0,353.052l0,0c0,5.321,4.314,9.635,9.635,9.635
	h201.171v-19.271C210.806,301.233,176.609,267.037,134.426,267.037z"/>
<path style="fill:#EA3326;" d="M156.437,270.271c4.338,3.119,7.174,8.196,7.174,13.947v78.469h47.195v-19.271
	C210.806,308.887,187.887,279.723,156.437,270.271z"/>
<path style="fill:#F94730;" d="M398.136,154.522h-66.973c-2.77,0-5.015-2.245-5.015-5.015v-16.479c0-4.335,2.948-8.116,7.153-9.172
	l63.429-15.937c3.645-0.916,7.178,1.84,7.178,5.598v35.234C403.908,151.938,401.324,154.522,398.136,154.522z"/>
<path style="fill:#E2EFFA;" d="M396.729,107.918l-21.145,5.313v41.29h22.551c3.188,0,5.772-2.584,5.772-5.772v-35.234
	C403.908,109.758,400.374,107.003,396.729,107.918z"/>
<path style="fill:#F94730;" d="M373.347,358.982c7.398-3.102,13.301-8.421,16.562-16.948l0,0
	c2.483-6.492,6.486-12.306,11.701-16.901c28.497-25.104,67.813-28.85,86.428-29.092c5.261-0.068,8.654-5.652,6.233-10.323
	c-12.82-24.739-40.632-39.488-70.791-35.976C423.48,249.743,368.152,296.513,373.347,358.982z"/>
<path style="fill:#1375A3;" d="M272.369,85.914l32.897-0.33c1.686-0.017,3.29,0.73,4.363,2.031l15.826,19.204
	c0.432,0.525,0.063,1.317-0.617,1.322l-46.119,0.344c-5.826,0-10.548-4.723-10.548-10.548v-7.824
	C268.171,87.794,270.051,85.914,272.369,85.914z"/>
<g>
</g>
<g>
</g>
<g>
</g>
<g>
</g>
<g>
</g>
<g>
</g>
<g>
</g>
<g>
</g>
<g>
</g>
<g>
</g>
<g>
</g>
<g>
</g>
<g>
</g>
<g>
</g>
<g>
</g>
</svg>
