<?xml version="1.0" encoding="iso-8859-1"?>
<!-- Generator: Adobe Illustrator 19.0.0, SVG Export Plug-In . SVG Version: 6.00 Build 0)  -->
<svg version="1.1" id="Capa_1" xmlns="http://www.w3.org/2000/svg" xmlns:xlink="http://www.w3.org/1999/xlink" x="0px" y="0px"
	 viewBox="0 0 512 512" style="enable-background:new 0 0 512 512;" xml:space="preserve">
<g>
	<path style="fill:#AFB6BB;" d="M105.931,176.552c-5.297,0-8.828-3.531-8.828-8.828v-26.483c0-5.297,3.531-8.828,8.828-8.828
		c5.297,0,8.828,3.531,8.828,8.828v26.483C114.759,173.021,111.228,176.552,105.931,176.552z"/>
	<path style="fill:#AFB6BB;" d="M203.034,176.552c-5.297,0-8.828-3.531-8.828-8.828v-26.483c0-5.297,3.531-8.828,8.828-8.828
		s8.828,3.531,8.828,8.828v26.483C211.862,173.021,208.331,176.552,203.034,176.552z"/>
</g>
<g>
	<rect style="fill:#EEC49E;" width="35.31" height="512"/>
	<rect x="476.69" style="fill:#EEC49E;" width="35.31" height="512"/>
</g>
<g>
	<rect x="35.31" y="441.379" style="fill:#D3AA81;" width="441.379" height="35.31"/>
	<rect x="35.31" y="35.31" style="fill:#D3AA81;" width="441.379" height="35.31"/>
	<rect x="35.31" y="238.345" style="fill:#D3AA81;" width="441.379" height="35.31"/>
</g>
<rect x="291.31" y="176.552" style="fill:#BE6E41;" width="123.586" height="61.793"/>
<rect x="282.483" y="150.069" style="fill:#6C4127;" width="141.241" height="35.31"/>
<rect x="105.931" y="379.586" style="fill:#FEC648;" width="123.586" height="61.793"/>
<rect x="97.103" y="353.103" style="fill:#ED8A19;" width="141.241" height="35.31"/>
<rect x="317.793" y="379.586" style="fill:#DD352E;" width="88.276" height="61.793"/>
<rect x="308.966" y="353.103" style="fill:#F2ECBF;" width="105.931" height="35.31"/>
<g>
	<path style="fill:#D4DBEC;" d="M123.586,238.345h-35.31v-52.966c0-9.71,7.945-17.655,17.655-17.655l0,0
		c9.71,0,17.655,7.945,17.655,17.655V238.345z"/>
	<path style="fill:#D4DBEC;" d="M220.69,238.345h-35.31v-52.966c0-9.71,7.945-17.655,17.655-17.655l0,0
		c9.71,0,17.655,7.945,17.655,17.655V238.345z"/>
</g>
<g>
</g>
<g>
</g>
<g>
</g>
<g>
</g>
<g>
</g>
<g>
</g>
<g>
</g>
<g>
</g>
<g>
</g>
<g>
</g>
<g>
</g>
<g>
</g>
<g>
</g>
<g>
</g>
<g>
</g>
</svg>
