<?xml version="1.0" encoding="iso-8859-1"?>
<!-- Generator: Adobe Illustrator 18.0.0, SVG Export Plug-In . SVG Version: 6.00 Build 0)  -->
<!DOCTYPE svg PUBLIC "-//W3C//DTD SVG 1.1//EN" "http://www.w3.org/Graphics/SVG/1.1/DTD/svg11.dtd">
<svg version="1.1" id="Capa_1" xmlns="http://www.w3.org/2000/svg" xmlns:xlink="http://www.w3.org/1999/xlink" x="0px" y="0px"
	 viewBox="0 0 58 58" style="enable-background:new 0 0 58 58;" xml:space="preserve">
<g>
	<path style="fill:#BFA380;" d="M9,46v-2c0-0.552-0.448-1-1-1s-1,0.448-1,1v2c-0.552,0-1,0.448-1,1s0.448,1,1,1h2
		c0.552,0,1-0.448,1-1S9.552,46,9,46z"/>
	<path style="fill:#BFA380;" d="M51,46v-2c0-0.552-0.448-1-1-1s-1,0.448-1,1v2c-0.552,0-1,0.448-1,1s0.448,1,1,1h2
		c0.552,0,1-0.448,1-1S51.552,46,51,46z"/>
</g>
<path style="fill:#DD352E;" d="M51,38H7c-2.75,0-5-2.25-5-5v0c0-2.75,2.25-5,5-5h44c2.75,0,5,2.25,5,5v0C56,35.75,53.75,38,51,38z"
	/>
<path style="fill:#B02721;" d="M7,28h1.724C8.892,27.529,9,27.029,9,26.5C9,24.015,6.985,22,4.5,22S0,24.015,0,26.5
	c0,1.823,1.089,3.385,2.649,4.092C3.505,29.057,5.126,28,7,28z"/>
<path style="fill:#B02721;" d="M51,28h-1.724C49.108,27.529,49,27.029,49,26.5c0-2.485,2.015-4.5,4.5-4.5s4.5,2.015,4.5,4.5
	c0,1.823-1.089,3.385-2.649,4.092C54.495,29.057,52.874,28,51,28z"/>
<path style="fill:#F43737;" d="M51,22.76v-4.053C51,13.898,47.102,10,42.293,10H15.707C10.898,10,7,13.898,7,18.707v4.053
	c1.205,0.807,2,2.18,2,3.74c0,0.529-0.108,1.029-0.276,1.5h40.551C49.108,27.529,49,27.029,49,26.5C49,24.94,49.795,23.567,51,22.76
	z"/>
<rect x="6" y="41" style="fill:#6B5B4B;" width="4" height="3"/>
<rect x="48" y="41" style="fill:#6B5B4B;" width="4" height="3"/>
<g>
	<path style="fill:#CC2323;" d="M19.707,15.293c-0.391-0.391-1.023-0.391-1.414,0L16.5,17.086l-1.793-1.793
		c-0.391-0.391-1.023-0.391-1.414,0s-0.391,1.023,0,1.414L14.586,18l-1.293,1.293c-0.391,0.391-0.391,1.023,0,1.414
		C13.488,20.902,13.744,21,14,21s0.512-0.098,0.707-0.293l1.793-1.793l1.793,1.793C18.488,20.902,18.744,21,19,21
		s0.512-0.098,0.707-0.293c0.391-0.391,0.391-1.023,0-1.414L18.414,18l1.293-1.293C20.098,16.316,20.098,15.684,19.707,15.293z"/>
	<path style="fill:#CC2323;" d="M32.707,18.293c-0.391-0.391-1.023-0.391-1.414,0L29.5,20.086l-1.793-1.793
		c-0.391-0.391-1.023-0.391-1.414,0s-0.391,1.023,0,1.414L27.586,21l-1.293,1.293c-0.391,0.391-0.391,1.023,0,1.414
		C26.488,23.902,26.744,24,27,24s0.512-0.098,0.707-0.293l1.793-1.793l1.793,1.793C31.488,23.902,31.744,24,32,24
		s0.512-0.098,0.707-0.293c0.391-0.391,0.391-1.023,0-1.414L31.414,21l1.293-1.293C33.098,19.316,33.098,18.684,32.707,18.293z"/>
	<path style="fill:#CC2323;" d="M44.414,18l1.293-1.293c0.391-0.391,0.391-1.023,0-1.414s-1.023-0.391-1.414,0L42.5,17.086
		l-1.793-1.793c-0.391-0.391-1.023-0.391-1.414,0s-0.391,1.023,0,1.414L40.586,18l-1.293,1.293c-0.391,0.391-0.391,1.023,0,1.414
		C39.488,20.902,39.744,21,40,21s0.512-0.098,0.707-0.293l1.793-1.793l1.793,1.793C44.488,20.902,44.744,21,45,21
		s0.512-0.098,0.707-0.293c0.391-0.391,0.391-1.023,0-1.414L44.414,18z"/>
</g>
<path style="fill:#9E6C53;" d="M54.5,41h-51C2.672,41,2,40.328,2,39.5l0,0C2,38.672,2.672,38,3.5,38h51c0.828,0,1.5,0.672,1.5,1.5
	l0,0C56,40.328,55.328,41,54.5,41z"/>
<g>
</g>
<g>
</g>
<g>
</g>
<g>
</g>
<g>
</g>
<g>
</g>
<g>
</g>
<g>
</g>
<g>
</g>
<g>
</g>
<g>
</g>
<g>
</g>
<g>
</g>
<g>
</g>
<g>
</g>
</svg>
