<?xml version="1.0" encoding="iso-8859-1"?>
<!-- Generator: Adobe Illustrator 18.1.1, SVG Export Plug-In . SVG Version: 6.00 Build 0)  -->
<svg version="1.1" id="Capa_1" xmlns="http://www.w3.org/2000/svg" xmlns:xlink="http://www.w3.org/1999/xlink" x="0px" y="0px"
	 viewBox="0 0 449.131 449.131" style="enable-background:new 0 0 449.131 449.131;" xml:space="preserve">
<g>
	<g>
		<path style="fill:#010002;" d="M74.799,152.165c12.225,0,24.662-2.999,36.31-8.722l88.512,88.504l43.203-43.212l-88.496-88.496
			c14.428-29.279,10.941-61.55-9.38-81.871C126.473-0.116,96.007-4.717,68.451,6.622l-11.282,4.641l31.295,31.295l-7.405,27.629
			l-27.629,7.405L22.134,46.298L17.493,57.58c-11.64,28.304-7.137,57.615,11.746,76.498
			C40.911,145.735,57.087,152.165,74.799,152.165z M28.759,75.902L48.576,95.72l45.756-12.266l12.258-45.756L86.805,17.913
			c18.143-3.796,35.286,0.593,46.642,11.949c16.322,16.33,17.867,43.569,3.829,67.784l-3.129,5.406l85.683,85.683l-20.216,20.224
			l-85.691-85.691l-5.406,3.129c-10.73,6.218-22.386,9.502-33.717,9.502c-13.558,0-25.337-4.609-34.051-13.331
			C29.173,111.01,24.963,93.858,28.759,75.902z"/>
		<path style="fill:#010002;" d="M431.001,306.567c-11.673-11.665-27.84-18.086-45.553-18.086c-12.225,0-24.654,2.999-36.31,8.714
			l-88.504-88.496l-43.203,43.212l88.496,88.496c-14.428,29.287-10.941,61.55,9.372,81.871c11.648,11.648,27.8,18.062,45.496,18.062
			c10.38,0,20.809-2.13,30.994-6.316l11.274-4.641l-31.287-31.287l7.405-27.621l27.629-7.413l31.287,31.303l4.641-11.282
			C454.395,354.777,449.892,325.466,431.001,306.567z M431.489,364.743l-19.817-19.817L365.908,357.2l-12.266,45.756l19.801,19.809
			c-4.227,0.878-8.446,1.325-12.656,1.325c-13.542,0-25.296-4.593-34.002-13.298c-16.322-16.33-17.858-43.569-3.829-67.784
			l3.138-5.414l-85.691-85.675l20.216-20.224l85.7,85.691l5.406-3.138c10.722-6.218,22.378-9.502,33.709-9.502
			c13.558,0,25.337,4.601,34.051,13.323C431.075,329.636,435.293,346.795,431.489,364.743z"/>
		<path style="fill:#010002;" d="M347.236,113.237l11.095,11.096l71.149-71.158l-34.904-34.896l-71.149,71.149l12.315,12.315
			L130.179,307.298l-9.608-9.6L0,418.286l30.385,30.368l120.579-120.579l-9.283-9.283L347.236,113.237z M394.577,41.266
			l11.917,11.908l-48.162,48.17l-11.917-11.916L394.577,41.266z M30.385,425.667l-7.389-7.381l97.592-97.592l7.389,7.381
			L30.385,425.667z"/>
	</g>
</g>
<g>
</g>
<g>
</g>
<g>
</g>
<g>
</g>
<g>
</g>
<g>
</g>
<g>
</g>
<g>
</g>
<g>
</g>
<g>
</g>
<g>
</g>
<g>
</g>
<g>
</g>
<g>
</g>
<g>
</g>
</svg>
