<?xml version="1.0" encoding="iso-8859-1"?>
<!-- Generator: Adobe Illustrator 19.0.0, SVG Export Plug-In . SVG Version: 6.00 Build 0)  -->
<svg version="1.1" id="Capa_1" xmlns="http://www.w3.org/2000/svg" xmlns:xlink="http://www.w3.org/1999/xlink" x="0px" y="0px"
	 viewBox="0 0 512 512" style="enable-background:new 0 0 512 512;" xml:space="preserve">
<path style="fill:#292929;" d="M497,238.284h-19.608c-8.284,0-15-6.716-15-15s6.716-15,15-15H497c8.284,0,15,6.716,15,15
	S505.284,238.284,497,238.284z"/>
<path style="fill:#444444;" d="M34.608,238.284H15c-8.284,0-15-6.716-15-15s6.716-15,15-15h19.608c8.284,0,15,6.716,15,15
	S42.893,238.284,34.608,238.284z"/>
<path style="fill:#292929;" d="M139.009,193.62c-8.283,0-14.998-6.714-15-14.997c-0.002-8.284,6.713-15.001,14.997-15.003
	l238.324-0.048c0.001,0,0.002,0,0.003,0c8.283,0,14.998,6.714,15,14.997c0.002,8.284-6.713,15.001-14.997,15.003l-238.324,0.048
	C139.011,193.62,139.01,193.62,139.009,193.62z"/>
<path style="fill:#444444;" d="M139.009,163.572c0.001,0,0.002,0,0.003,0L256,163.596v30l-116.994-0.024
	c-8.284-0.002-14.999-6.719-14.997-15.003C124.011,170.286,130.726,163.572,139.009,163.572z"/>
<path style="fill:#292929;" d="M285.252,238.284h-58.504c-8.284,0-15-6.716-15-15s6.716-15,15-15h58.504c8.284,0,15,6.716,15,15
	S293.536,238.284,285.252,238.284z"/>
<path style="fill:#444444;" d="M226.748,208.284H256v30h-29.252c-8.284,0-15-6.716-15-15S218.464,208.284,226.748,208.284z"/>
<g>
	<path style="fill:#008DE4;" d="M205.064,166.303c-7.811-0.529-92.603-6.056-126.065,0.255c-4.327,0.815-19.491,4.522-32.92,17.953
		c-9.975,9.976-21.863,28.436-21.863,59.726c0,64.701,43.484,99.008,83.887,103.503c4.212,0.469,8.424,0.7,12.62,0.7
		c27.416-0.001,54.09-9.878,74.692-27.969c20.313-17.835,44.783-52.702,46.007-117.525c0.181-9.553-3.452-18.616-10.229-25.522
		C224.388,170.488,214.893,166.454,205.064,166.303z"/>
	<path style="fill:#008DE4;" d="M465.921,184.511c-13.429-13.431-28.593-17.138-32.92-17.953
		c-33.464-6.31-118.256-0.783-126.065-0.255c-9.828,0.151-19.323,4.186-26.128,11.12c-6.777,6.906-10.41,15.97-10.229,25.522
		c1.224,64.823,25.694,99.69,46.007,117.525c20.604,18.092,47.274,27.969,74.692,27.969c4.194-0.001,8.41-0.231,12.62-0.7
		c40.402-4.495,83.887-38.802,83.887-103.503C487.784,212.946,475.896,194.486,465.921,184.511z"/>
</g>
<g>
	<path style="fill:#2AC1FF;" d="M120.723,163.605c-16.275,0.191-31.429,1.011-41.724,2.952c-4.327,0.815-19.491,4.522-32.92,17.953
		c-9.975,9.976-21.863,28.436-21.863,59.726c0,64.701,43.484,99.008,83.887,103.503c4.212,0.469,8.424,0.7,12.62,0.7
		C120.723,348.439,120.723,163.605,120.723,163.605z"/>
	<path style="fill:#2AC1FF;" d="M306.936,166.303c-9.828,0.151-19.323,4.186-26.128,11.12c-6.777,6.906-10.41,15.97-10.229,25.522
		c1.224,64.823,25.694,99.69,46.007,117.525c20.604,18.092,47.274,27.969,74.692,27.969V163.606
		C354.65,163.176,312.343,165.937,306.936,166.303z"/>
</g>
<g>
</g>
<g>
</g>
<g>
</g>
<g>
</g>
<g>
</g>
<g>
</g>
<g>
</g>
<g>
</g>
<g>
</g>
<g>
</g>
<g>
</g>
<g>
</g>
<g>
</g>
<g>
</g>
<g>
</g>
</svg>
