<?xml version="1.0" encoding="iso-8859-1"?>
<!-- Generator: Adobe Illustrator 19.0.0, SVG Export Plug-In . SVG Version: 6.00 Build 0)  -->
<svg version="1.1" id="Capa_1" xmlns="http://www.w3.org/2000/svg" xmlns:xlink="http://www.w3.org/1999/xlink" x="0px" y="0px"
	 viewBox="0 0 512 512" style="enable-background:new 0 0 512 512;" xml:space="preserve">
<g>
	<path style="fill:#FFB52D;" d="M168.724,0.421v411.801c0,4.255-3.453,7.708-7.708,7.708s-7.708-3.453-7.708-7.708V3.217
		C158.293,1.86,163.452,0.925,168.724,0.421z"/>
	<path style="fill:#FFB52D;" d="M358.968,3.217v409.006c0,4.255-3.453,7.708-7.708,7.708s-7.708-3.453-7.708-7.708V0.421
		C348.825,0.925,353.984,1.86,358.968,3.217z"/>
</g>
<path style="fill:#FB5858;" d="M412.891,413.877h-45.038c11.106-0.431,20.055-9.624,20.055-20.821v-54.621
	c0-11.469-9.383-20.862-20.862-20.862H145.232c-11.479,0-20.862,9.393-20.862,20.862v54.621c0,11.197,8.949,20.39,20.055,20.821
	H99.387c-5.169,0-9.403,4.234-9.403,9.403v24.058c0,5.169,4.234,9.403,9.403,9.403h313.504c5.169,0,9.403-4.234,9.403-9.403V423.28
	C422.294,418.111,418.06,413.877,412.891,413.877z"/>
<path style="fill:#F44545;" d="M387.908,338.435v54.621c0,11.469-9.383,20.862-20.862,20.862H145.232
	c-11.479,0-20.862-9.393-20.862-20.862v-54.621c0-11.469,9.383-20.862,20.862-20.862h221.814
	C378.525,317.573,387.908,326.966,387.908,338.435z"/>
<path style="fill:#FB5858;" d="M387.908,338.435v54.621c0,11.469-9.383,20.862-20.862,20.862H174.171
	c-11.479,0-20.862-9.393-20.862-20.862v-54.621c0-11.469,9.383-20.862,20.862-20.862h192.875
	C378.525,317.573,387.908,326.966,387.908,338.435z"/>
<g>
	<rect x="124.37" y="342.279" style="fill:#D63030;" width="263.538" height="15.415"/>
	<path style="fill:#D63030;" d="M243.334,373.798c-4.255,0-7.708,3.453-7.708,7.708s3.453,7.708,7.708,7.708h144.574v-15.415
		H243.334z M212.503,373.798H124.37v15.415h88.134c4.255,0,7.708-3.453,7.708-7.708S216.758,373.798,212.503,373.798z"/>
</g>
<path style="fill:#20B7A1;" d="M422.294,423.28v24.058c0,5.169-4.234,9.403-9.403,9.403H99.387c-5.169,0-9.403-4.234-9.403-9.403
	V423.28c0-5.169,4.234-9.403,9.403-9.403h313.504C418.06,413.877,422.294,418.111,422.294,423.28z"/>
<path style="fill:#24D3B5;" d="M422.294,423.28v2.662c0,5.18-4.234,9.403-9.403,9.403H99.387c-5.169,0-9.403-4.224-9.403-9.403
	v-2.662c0-5.169,4.234-9.403,9.403-9.403h313.504C418.06,413.877,422.294,418.111,422.294,423.28z"/>
<path style="fill:#FB5858;" d="M467.142,501.076c-0.298,0.041-0.586,0.051-0.884,0.051c-3.864,0-7.194-2.898-7.646-6.834
	L411.709,84.136c-3.515-30.769-24.705-55.597-52.741-64.826c-4.943-1.634-10.102-2.785-15.415-3.381
	c-2.919-0.339-5.878-0.514-8.879-0.514h-157.07c-3.001,0-5.961,0.175-8.879,0.514c-5.313,0.596-10.472,1.747-15.415,3.381
	c-28.035,9.229-49.226,34.057-52.74,64.826L53.665,494.293c-0.483,4.234-4.306,7.266-8.53,6.783
	c-4.234-0.483-7.266-4.296-6.783-8.53L85.256,82.389c4.419-38.641,32.064-69.461,68.053-79.172
	c4.984-1.357,10.143-2.292,15.415-2.795C171.643,0.144,174.613,0,177.604,0h157.07c2.991,0,5.961,0.144,8.879,0.421
	c5.272,0.504,10.431,1.439,15.415,2.795c35.989,9.712,63.634,40.532,68.053,79.172l46.903,410.157
	C474.408,496.78,471.376,500.593,467.142,501.076z"/>
<g>
	<path style="fill:#20B7A1;" d="M92.429,485.722v22.28c0,2.199-1.798,3.998-3.998,3.998H5.231c-2.199,0-3.998-1.798-3.998-3.998
		v-22.28c0-2.199,1.798-3.998,3.998-3.998h83.201C90.631,481.725,92.429,483.523,92.429,485.722z"/>
	<path style="fill:#20B7A1;" d="M510.767,485.722v22.28c0,2.199-1.798,3.998-3.998,3.998h-83.211c-2.199,0-3.998-1.798-3.998-3.998
		v-22.28c0-2.199,1.798-3.998,3.998-3.998h83.211C508.968,481.725,510.767,483.523,510.767,485.722z"/>
</g>
<g>
	<path style="fill:#24D3B5;" d="M92.429,485.722v22.28c0,2.199-1.798,3.998-3.998,3.998H42.299c-2.199,0-3.998-1.798-3.998-3.998
		v-22.28c0-2.199,1.798-3.998,3.998-3.998h46.133C90.631,481.725,92.429,483.523,92.429,485.722z"/>
	<path style="fill:#24D3B5;" d="M510.767,485.722v22.28c0,2.199-1.798,3.998-3.998,3.998h-46.143c-2.199,0-3.998-1.798-3.998-3.998
		v-22.28c0-2.199,1.798-3.998,3.998-3.998h46.143C508.968,481.725,510.767,483.523,510.767,485.722z"/>
</g>
<g>
</g>
<g>
</g>
<g>
</g>
<g>
</g>
<g>
</g>
<g>
</g>
<g>
</g>
<g>
</g>
<g>
</g>
<g>
</g>
<g>
</g>
<g>
</g>
<g>
</g>
<g>
</g>
<g>
</g>
</svg>
