<?xml version="1.0" encoding="iso-8859-1"?>
<!-- Generator: Adobe Illustrator 19.0.0, SVG Export Plug-In . SVG Version: 6.00 Build 0)  -->
<svg version="1.1" id="Layer_1" xmlns="http://www.w3.org/2000/svg" xmlns:xlink="http://www.w3.org/1999/xlink" x="0px" y="0px"
	 viewBox="0 0 280.028 280.028" style="enable-background:new 0 0 280.028 280.028;" xml:space="preserve">
<g>
	<path style="fill:#324D5B;" d="M26.253,70.007h227.522c14.5,0,26.253,11.761,26.253,26.253v157.515
		c0,14.491-11.752,26.253-26.253,26.253H26.253C11.761,280.027,0,268.266,0,253.775V96.259C0,81.759,11.761,70.007,26.253,70.007z"
		/>
	<g>
		<path style="fill:#1E2E37;" d="M227.522,122.512h17.502c4.839,0,8.751-3.912,8.751-8.751s-3.912-8.751-8.751-8.751h-17.502
			c-4.83,0-8.751,3.912-8.751,8.751S222.692,122.512,227.522,122.512z M245.024,131.263h-17.502c-4.83,0-8.751,3.912-8.751,8.751
			s3.92,8.751,8.751,8.751h17.502c4.839,0,8.751-3.912,8.751-8.751S249.863,131.263,245.024,131.263z M245.024,157.515h-17.502
			c-4.83,0-8.751,3.912-8.751,8.751s3.92,8.751,8.751,8.751h17.502c4.839,0,8.751-3.912,8.751-8.751
			S249.863,157.515,245.024,157.515z"/>
	</g>
	<path style="fill:#F4B459;" d="M236.273,218.771c9.661,0,17.502,7.841,17.502,17.502s-7.841,17.502-17.502,17.502
		s-17.502-7.841-17.502-17.502S226.612,218.771,236.273,218.771z"/>
	<path style="fill:#EBEBEB;" d="M43.754,96.259h131.263c9.661,0,17.502,7.841,17.502,17.502v122.512
		c0,9.661-7.841,17.502-17.502,17.502H43.754c-9.661,0-17.502-7.841-17.502-17.502V113.761
		C26.253,104.091,34.093,96.259,43.754,96.259z"/>
	<g>
		<path style="fill:#344E5C;" d="M157.515,0c-4.839,0-8.751,3.912-8.751,8.751c0,0.639,0.228,1.199,0.359,1.794l-39.738,39.729
			L69.648,10.536c0.131-0.595,0.359-1.155,0.359-1.785C70.007,3.912,66.095,0,61.256,0s-8.751,3.912-8.751,8.751
			s3.912,8.751,8.751,8.751c0.63,0,1.19-0.228,1.785-0.359l44.209,44.209l2.135-2.144l2.135,2.135l44.209-44.209
			c0.595,0.131,1.155,0.368,1.785,0.368c4.839,0,8.751-3.912,8.751-8.751S162.355,0,157.515,0z"/>
	</g>
	<path style="fill:#2B414D;" d="M131.263,52.505H87.509c-9.661,0-17.502,7.841-17.502,17.502c0,0.219,78.775-0.28,78.758,0.07
		C148.765,60.407,140.924,52.505,131.263,52.505z"/>
	<path style="fill:#26A6D1;" d="M137.126,170.703l-42.459-29.77c-3.632-2.371-7.211-0.464-7.211,4.262v59.69
		c0,4.717,3.579,6.651,7.211,4.262l42.38-29.35C141.668,176.977,139.979,172.436,137.126,170.703z"/>
</g>
<g>
</g>
<g>
</g>
<g>
</g>
<g>
</g>
<g>
</g>
<g>
</g>
<g>
</g>
<g>
</g>
<g>
</g>
<g>
</g>
<g>
</g>
<g>
</g>
<g>
</g>
<g>
</g>
<g>
</g>
</svg>
