<?xml version="1.0" encoding="iso-8859-1"?>
<!-- Generator: Adobe Illustrator 19.0.0, SVG Export Plug-In . SVG Version: 6.00 Build 0)  -->
<svg version="1.1" id="Capa_1" xmlns="http://www.w3.org/2000/svg" xmlns:xlink="http://www.w3.org/1999/xlink" x="0px" y="0px"
	 viewBox="0 0 512 512" style="enable-background:new 0 0 512 512;" xml:space="preserve">
<path style="fill:#E5E5E5;" d="M165.423,0.204L111.46,9.719c-7.234,1.276-12.065,8.174-10.789,15.408l10.794,61.219l80.161-14.134
	l-10.794-61.218C179.556,3.759,172.658-1.071,165.423,0.204z"/>
<path style="opacity:0.1;enable-background:new    ;" d="M135.568,89.596c-3.571,0-6.735-2.56-7.377-6.198l-6.552-37.158
	c-0.72-4.08,2.004-7.97,6.083-8.688c4.077-0.722,7.97,2.004,8.688,6.083l6.552,37.158c0.72,4.08-2.004,7.97-6.083,8.688
	C136.439,89.559,136.001,89.596,135.568,89.596z"/>
<path style="opacity:0.1;enable-background:new    ;" d="M167.506,83.964c-3.571,0-6.735-2.56-7.377-6.198l-6.553-37.158
	c-0.72-4.079,2.004-7.97,6.083-8.688c4.077-0.721,7.969,2.004,8.689,6.083L174.9,75.16c0.72,4.079-2.004,7.97-6.083,8.688
	C168.377,83.927,167.939,83.964,167.506,83.964z"/>
<path style="fill:#69BFE2;" d="M266.812,447.233l-97.733,17.233c-15.127,2.667-29.551-7.433-32.219-22.56L80.119,120.114
	c-2.667-15.127,7.433-29.551,22.56-32.219l97.733-17.233c15.127-2.667,29.551,7.433,32.219,22.56l56.741,321.792
	C292.039,430.141,281.939,444.565,266.812,447.233z"/>
<rect x="109.4" y="62.782" transform="matrix(-0.9848 0.1736 -0.1736 -0.9848 310.2625 115.0521)" style="opacity:0.1;enable-background:new    ;" width="81.399" height="16.625"/>
<path style="fill:#FFFFFF;" d="M236.137,364.08l-66.674,11.756c-8.082,1.425-15.789-3.971-17.214-12.053L112.058,135.85
	c-1.425-8.082,3.971-15.789,12.053-17.214l66.674-11.757c8.082-1.425,15.789,3.971,17.214,12.054l40.191,227.933
	C249.616,354.948,244.22,362.655,236.137,364.08z"/>
<path style="fill:#445258;" d="M194.317,221.264c-3.571,0-6.735-2.56-7.377-6.198l-11.409-64.707c-0.72-4.08,2.004-7.97,6.083-8.689
	c4.075-0.721,7.969,2.004,8.688,6.083l11.409,64.707c0.72,4.08-2.004,7.97-6.083,8.688
	C195.189,221.227,194.75,221.264,194.317,221.264z"/>
<path style="fill:#69BFE2;" d="M155.222,201.053c-3.571,0-6.735-2.56-7.377-6.198l-6.774-38.419c-0.72-4.079,2.004-7.97,6.083-8.688
	c4.078-0.72,7.97,2.004,8.688,6.083l6.774,38.419c0.72,4.079-2.004,7.97-6.083,8.689
	C156.093,201.016,155.654,201.053,155.222,201.053z"/>
<polygon style="opacity:0.1;enable-background:new    ;" points="253.067,209.12 95.813,209.12 109.473,286.589 266.727,286.589 "/>
<path style="fill:#E5E5E5;" d="M428.593,70.02l3.934,11.193c1.83,5.208,0.81,10.994-2.691,15.263l-7.525,9.173
	c-2.941,3.585-3.797,8.444-2.26,12.818l4.339,12.345c1.138,3.237-1.632,6.501-5.011,5.905l-41.467-7.312l17.085-96.895l41.467,7.312
	c3.379,0.596,4.865,4.61,2.689,7.263l-8.299,10.117C427.912,60.786,427.055,65.646,428.593,70.02z"/>
<path style="fill:#D674B6;" d="M396.517,24.63l-20.373,115.541c-1.212,6.874-7.766,11.463-14.64,10.251l0,0
	c-2.409-0.425-4.707,1.184-5.132,3.593l-47.183,267.59c-1.649,9.353-10.568,15.598-19.92,13.948l0,0
	c-9.353-1.649-15.598-10.568-13.948-19.92l68.564-388.845c2.292-13.001,14.69-21.682,27.691-19.389l14.691,2.591
	C393.139,11.202,397.729,17.756,396.517,24.63z"/>
<polygon style="opacity:0.1;enable-background:new    ;" points="311.538,210.226 297.878,287.696 332.8,287.696 346.46,210.226 "/>
<rect x="386.012" y="33.107" transform="matrix(-0.9848 -0.1736 0.1736 -0.9848 768.1835 231.7927)" style="opacity:0.1;enable-background:new    ;" width="16.434" height="98.388"/>
<path style="fill:#97D68F;" d="M313.041,512H143.018c-12.397,0-23.037-8.827-25.325-21.011L72.039,247.965
	c-1.407-7.488,4.337-14.411,11.956-14.411h288.069c7.619,0,13.363,6.924,11.956,14.411L338.366,490.99
	C336.077,503.173,325.438,512,313.041,512z"/>
<path style="opacity:0.1;enable-background:new    ;" d="M229.657,445.092c-30.225-10.031-72.671-13.451-121.172-3.119l9.208,49.016
	C119.982,503.173,130.622,512,143.018,512H313.04c12.397,0,23.037-8.827,25.326-21.011l9.641-51.322
	C307.328,452.376,257.46,454.319,229.657,445.092z"/>
<path style="opacity:0.1;enable-background:new    ;" d="M372.064,233.553H341.78c7.619,0,13.363,6.923,11.956,14.411
	l-45.654,243.025C305.793,503.173,295.153,512,282.757,512h30.284c12.397,0,23.037-8.827,25.326-21.011l45.654-243.025
	C385.427,240.477,379.683,233.553,372.064,233.553z"/>
<g>
	<path style="fill:#445258;" d="M151.079,319.171c-4.143,0-7.5-3.357-7.5-7.5v-13.125c0-4.143,3.357-7.5,7.5-7.5s7.5,3.357,7.5,7.5
		v13.125C158.579,315.814,155.222,319.171,151.079,319.171z"/>
	<path style="fill:#445258;" d="M228.029,343.852L228.029,343.852c-12.235,0-22.153-9.918-22.153-22.153V305.47
		c0-3.264,2.646-5.911,5.911-5.911h32.485c3.265,0,5.911,2.646,5.911,5.911v16.228C250.183,333.934,240.264,343.852,228.029,343.852
		z"/>
	<path style="fill:#445258;" d="M304.979,319.171c-4.143,0-7.5-3.357-7.5-7.5v-13.125c0-4.143,3.357-7.5,7.5-7.5s7.5,3.357,7.5,7.5
		v13.125C312.479,315.814,309.122,319.171,304.979,319.171z"/>
</g>
<g>
</g>
<g>
</g>
<g>
</g>
<g>
</g>
<g>
</g>
<g>
</g>
<g>
</g>
<g>
</g>
<g>
</g>
<g>
</g>
<g>
</g>
<g>
</g>
<g>
</g>
<g>
</g>
<g>
</g>
</svg>
