<?xml version="1.0" encoding="iso-8859-1"?>
<!-- Generator: Adobe Illustrator 19.0.0, SVG Export Plug-In . SVG Version: 6.00 Build 0)  -->
<svg version="1.1" id="Capa_1" xmlns="http://www.w3.org/2000/svg" xmlns:xlink="http://www.w3.org/1999/xlink" x="0px" y="0px"
	 viewBox="0 0 512.002 512.002" style="enable-background:new 0 0 512.002 512.002;" xml:space="preserve">
<g>
	<path style="fill:#FFE77C;" d="M414.503,385.919H31.681v71.933h44.902v-28.191c0-11.224,8.929-20.406,19.842-20.406
		s19.843,9.183,19.843,20.406v28.191h41.336v-28.191c0-11.224,8.929-20.406,19.842-20.406c10.914,0,19.843,9.183,19.843,20.406
		v28.191h38.868v-28.191c0-11.224,8.929-20.406,19.842-20.406c10.914,0,19.843,9.183,19.843,20.406v28.191h38.868v-28.191
		c0-11.224,8.929-20.406,19.843-20.406c10.913,0,19.843,9.183,19.843,20.406v28.191h41.336v-28.191
		c0-11.224,8.929-20.406,19.842-20.406c10.914,0,19.843,9.183,19.843,20.406v-1.635
		C435.746,417.908,425.494,402.112,414.503,385.919z"/>
	<g>
		<path style="fill:#DC8D62;" d="M414.503,385.919c10.991,16.193,21.243,31.989,20.917,42.106v1.635v28.191h44.902v-71.933h-65.819
			V385.919z"/>
		<path style="fill:#DC8D62;" d="M415.577,308.329L415.577,308.329L415.577,308.329z M435.42,356.927h44.902v-71.932H324.448
			l27.953,30.047l12.744,41.885h30.589v-28.191v-1.635c0-10.324,8.929-18.771,19.843-18.771s19.843,8.446,19.843,18.771v1.635
			L435.42,356.927z"/>
	</g>
	<g>
		<path style="fill:#FF8346;" d="M480.322,356.927H435.42h-39.686c5.025,9.003,12.036,19.073,18.769,28.992h65.819L480.322,356.927
			L480.322,356.927z"/>
		<polygon style="fill:#FF8346;" points="324.448,284.995 480.322,284.995 480.322,256.002 314.712,256.002 		"/>
	</g>
	<g>
		<path style="fill:#FFE77C;" d="M76.582,356.927v-28.191c0-11.223,8.929-20.406,19.842-20.406s19.843,9.183,19.843,20.406v28.191
			h41.336v-28.191c0-11.223,8.929-20.406,19.842-20.406c10.914,0,19.843,9.183,19.843,20.406v28.191h38.868v-28.191
			c0-11.223,8.929-20.406,19.842-20.406c10.914,0,19.843,9.183,19.843,20.406v28.191h38.868v-28.191
			c0-11.223,8.929-20.406,19.843-20.406c10.913,0,19.843,9.183,19.843,20.406v28.191h10.747l-12.744-41.885l-27.953-30.047H31.681
			v71.932H76.582z"/>
		<polygon style="fill:#FFE77C;" points="31.681,155.077 204.749,155.077 192.561,83.145 169.758,83.145 169.758,110.926 
			140.39,110.926 140.39,83.145 91.321,83.145 91.321,110.926 61.954,110.926 61.954,83.145 31.681,83.145 		"/>
	</g>
	<g>
		<path style="fill:#747981;" d="M395.734,328.735v28.191h39.686v-28.191c0-11.223-8.929-20.406-19.843-20.406
			c-0.004,0-0.008,0-0.012,0C404.656,308.336,395.734,317.516,395.734,328.735z"/>
		<path style="fill:#747981;" d="M354.398,356.927v-28.191c0-11.223-8.929-20.406-19.843-20.406s-19.843,9.183-19.843,20.406v28.191
			H354.398z"/>
		<path style="fill:#747981;" d="M275.844,356.927v-28.191c0-11.223-8.929-20.406-19.843-20.406s-19.842,9.183-19.842,20.406v28.191
			H275.844z"/>
		<path style="fill:#747981;" d="M197.29,356.927v-28.191c0-11.223-8.93-20.406-19.843-20.406c-10.914,0-19.842,9.183-19.842,20.406
			v28.191H197.29z"/>
		<path style="fill:#747981;" d="M116.268,356.927v-28.191c0-11.223-8.93-20.406-19.843-20.406s-19.842,9.183-19.842,20.406v28.191
			H116.268z"/>
	</g>
	<path style="fill:#FFE77C;" d="M177.447,207.404L177.447,207.404L177.447,207.404z M256.001,207.404L256.001,207.404
		L256.001,207.404z M116.268,256.002h41.336v-29.827c0-10.324,8.929-18.771,19.843-18.771c10.913,0,19.843,8.447,19.843,18.771
		v29.827h38.868v-29.827c0-10.324,8.929-18.771,19.843-18.771c0.493,0,0.981,0.018,1.465,0.052l-8.853-23.386H31.681v71.932h44.901
		v-29.827c0-10.324,8.929-18.771,19.843-18.771s19.843,8.447,19.843,18.771C116.268,226.175,116.268,256.002,116.268,256.002z"/>
	<g>
		<path style="fill:#747981;" d="M236.158,226.175v29.827h39.686l-18.377-48.546c-0.484-0.034-0.973-0.052-1.465-0.052
			C245.087,207.404,236.158,215.851,236.158,226.175z"/>
		<path style="fill:#747981;" d="M197.29,256.002v-29.827c0-10.324-8.929-18.771-19.843-18.771s-19.843,8.447-19.843,18.771v29.827
			H197.29z"/>
		<path style="fill:#747981;" d="M116.268,256.002v-29.827c0-10.324-8.929-18.771-19.843-18.771s-19.843,8.447-19.843,18.771v29.827
			H116.268z"/>
		<path style="fill:#747981;" d="M116.268,429.66c0-11.224-8.93-20.406-19.843-20.406s-19.842,9.183-19.842,20.406v28.191h39.686
			L116.268,429.66L116.268,429.66z"/>
		<path style="fill:#747981;" d="M157.604,429.66v28.191h39.686V429.66c0-11.224-8.93-20.406-19.843-20.406
			C166.533,409.254,157.604,418.437,157.604,429.66z"/>
		<path style="fill:#747981;" d="M236.158,429.66v28.191h39.686V429.66c0-11.224-8.929-20.406-19.843-20.406
			S236.158,418.437,236.158,429.66z"/>
		<path style="fill:#747981;" d="M314.712,429.66v28.191h39.686V429.66c0-11.224-8.929-20.406-19.843-20.406
			C323.641,409.254,314.712,418.437,314.712,429.66z"/>
		<path style="fill:#747981;" d="M395.734,429.66v28.191h39.686V429.66c0-11.224-8.929-20.406-19.843-20.406
			C404.663,409.254,395.734,418.437,395.734,429.66z"/>
		<rect x="140.39" y="83.141" style="fill:#747981;" width="29.368" height="27.781"/>
		<rect x="61.954" y="83.141" style="fill:#747981;" width="29.368" height="27.781"/>
	</g>
	<g>
		<path style="fill:#DC8D62;" d="M395.734,356.927h-30.589h-10.747h-39.686h-38.868h-39.686H197.29h-39.686h-41.336H76.582H31.681
			v28.992h382.822C407.77,375.999,400.759,365.93,395.734,356.927z"/>
		<polygon style="fill:#DC8D62;" points="31.681,284.995 324.448,284.995 314.712,256.002 275.844,256.002 236.158,256.002 
			197.29,256.002 157.604,256.002 116.268,256.002 76.582,256.002 31.681,256.002 		"/>
		<polygon style="fill:#DC8D62;" points="31.681,184.07 248.614,184.07 242.666,155.077 204.749,155.077 31.681,155.077 		"/>
		<polygon style="fill:#DC8D62;" points="61.954,83.145 91.321,83.145 140.39,83.145 169.758,83.145 192.561,83.145 187.648,54.152 
			31.681,54.152 31.681,83.145 		"/>
	</g>
</g>
<path d="M502.002,467.852c5.523,0,10-4.477,10-10s-4.477-10-10-10h-11.681l0,0l0,0v-191.85l0,0c0-5.523-4.477-10-10-10h-50.789
	c-5.523,0-10,4.477-10,10c0,5.523,4.477,10,10,10h40.789v8.992H331.639l-3.02-8.992h21.945c5.523,0,10-4.477,10-10
	c0-5.523-4.477-10-10-10h-67.808c-0.005,0,0,0-0.005,0l0,0v0.001c0-0.001,0,0,0-0.001l-24.503-64.726l-5.788-28.21
	c-0.064-0.315-0.146-0.622-0.239-0.925c-0.034-0.11-0.075-0.216-0.112-0.325c-0.064-0.187-0.13-0.373-0.205-0.555
	c-0.052-0.127-0.11-0.25-0.167-0.374c-0.072-0.156-0.146-0.31-0.225-0.461c-0.067-0.128-0.137-0.254-0.21-0.378
	c-0.082-0.14-0.167-0.278-0.255-0.413c-0.079-0.122-0.159-0.243-0.243-0.361c-0.095-0.134-0.196-0.262-0.298-0.391
	c-0.086-0.109-0.17-0.219-0.26-0.324c-0.122-0.142-0.252-0.277-0.382-0.412c-0.078-0.081-0.152-0.166-0.233-0.245
	c-0.212-0.206-0.433-0.402-0.663-0.589c-0.066-0.054-0.137-0.101-0.205-0.154c-0.172-0.133-0.346-0.263-0.527-0.385
	c-0.094-0.063-0.191-0.12-0.287-0.179c-0.161-0.1-0.323-0.199-0.49-0.29c-0.108-0.059-0.219-0.114-0.33-0.169
	c-0.159-0.08-0.32-0.156-0.484-0.227c-0.121-0.053-0.243-0.103-0.367-0.151c-0.156-0.061-0.315-0.117-0.475-0.17
	c-0.135-0.045-0.269-0.089-0.406-0.128c-0.151-0.043-0.304-0.079-0.457-0.115c-0.149-0.035-0.297-0.071-0.448-0.099
	c-0.142-0.026-0.286-0.044-0.429-0.064c-0.164-0.023-0.327-0.05-0.493-0.065c-0.134-0.012-0.271-0.013-0.406-0.02
	c-0.181-0.009-0.361-0.023-0.543-0.022h-29.426l-15.688-92.594c0-0.002,0,0,0-0.001l0,0c-0.815-4.81-4.981-8.33-9.859-8.33H31.681
	c-5.523,0-10,4.477-10,10v393.7 M21.681,447.852H10c-5.523,0-10,4.477-10,10s4.477,10,10,10h492.002 M234.509,165.077l1.094,5.331
	l0.751,3.662H41.681v-8.993H234.509L234.509,165.077z M246.158,226.176c0-3.146,1.974-5.969,4.856-7.519l10.352,27.346h-15.208
	L246.158,226.176L246.158,226.176z M243.907,199.882c-10.445,4.483-17.749,14.578-17.749,26.293v19.827H207.29v-19.827
	c0-15.864-13.388-28.771-29.844-28.771s-29.843,12.907-29.843,28.771v19.827h-21.336v-19.827c0-15.864-13.387-28.771-29.843-28.771
	c-16.455,0-29.843,12.907-29.843,28.771v19.827h-24.9v-51.933h200.026L243.907,199.882z M187.29,246.002h-19.687v-19.827
	c0-4.754,4.508-8.771,9.844-8.771c5.335,0,9.843,4.017,9.843,8.771V246.002z M106.268,246.002H86.582v-19.827
	c0-4.754,4.508-8.771,9.843-8.771s9.842,4.017,9.842,8.771L106.268,246.002L106.268,246.002z M425.42,429.097v18.754h-19.686
	v-18.754c0-5.427,4.416-9.843,9.843-9.843C421.004,419.254,425.42,423.67,425.42,429.097z M445.42,429.097v-0.932
	c0.232-9.366-4.905-20.167-12.385-32.246h37.287v51.932H445.42V429.097z M470.321,375.919h-50.526
	c-0.685-1.007-1.371-2.016-2.057-3.027c-0.267-0.393-0.534-0.785-0.8-1.178c-1.082-1.599-2.158-3.197-3.214-4.786l56.597-0.001
	c0.003,0-0.003,0,0,0l0,0L470.321,375.919L470.321,375.919z M425.42,328.172v18.754h-19.686v-18.754
	c0-5.427,4.416-9.843,9.843-9.843S425.42,322.745,425.42,328.172z M390,366.927c1.784,2.948,3.702,5.957,5.697,8.992H41.681v-8.992
	H390C390.003,366.927,389.997,366.927,390,366.927 M106.268,346.927H86.582v-18.754c0-5.427,4.415-9.843,9.843-9.843
	c5.427,0,9.843,4.416,9.843,9.843C106.268,328.173,106.268,346.927,106.268,346.927z M187.29,346.927h-19.687v-18.754
	c0-5.427,4.416-9.843,9.844-9.843c5.427,0,9.843,4.416,9.843,9.843V346.927z M265.844,346.927h-19.687v-18.754
	c0-5.427,4.416-9.843,9.844-9.843c5.427,0,9.843,4.416,9.843,9.843V346.927z M334.555,318.329c5.427,0,9.843,4.416,9.843,9.843
	v18.754h-19.686v-18.754C324.712,322.745,329.128,318.329,334.555,318.329z M320.093,294.994l4.651,5
	c-11.649,4.068-20.032,15.159-20.032,28.178v18.754h-18.868v-18.754c0-16.456-13.388-29.843-29.844-29.843
	s-29.843,13.387-29.843,29.843v18.754H207.29v-18.754c0-16.456-13.388-29.843-29.844-29.843s-29.843,13.387-29.843,29.843v18.754
	h-21.335v-18.754c0-16.456-13.388-29.843-29.843-29.843s-29.843,13.387-29.843,29.843v18.754H41.681v-51.932H320.093z
	 M41.681,395.919h367.501c0.797,1.194,1.597,2.4,2.391,3.612c-14.568,1.964-25.838,14.47-25.838,29.566v18.754h-21.336v-18.754
	c0-16.456-13.388-29.843-29.843-29.843s-29.843,13.387-29.843,29.843v18.754h-18.868v-18.754c0-16.456-13.388-29.843-29.844-29.843
	s-29.843,13.387-29.843,29.843v18.754H207.29v-18.754c0-16.456-13.388-29.843-29.844-29.843s-29.843,13.387-29.843,29.843v18.754
	h-21.335v-18.754c0-16.456-13.388-29.843-29.843-29.843s-29.843,13.387-29.843,29.843v18.754H41.681V395.919z M344.398,447.851
	h-19.686v-18.754c0-5.427,4.416-9.843,9.843-9.843s9.843,4.416,9.843,9.843L344.398,447.851L344.398,447.851z M265.844,447.851
	h-19.687v-18.754c0-5.427,4.416-9.843,9.844-9.843c5.427,0,9.843,4.416,9.843,9.843V447.851z M187.29,447.851h-19.687v-18.754
	c0-5.427,4.416-9.843,9.844-9.843c5.427,0,9.843,4.416,9.843,9.843V447.851z M86.582,429.097c0-5.427,4.415-9.843,9.843-9.843
	c5.427,0,9.843,4.416,9.843,9.843v18.754H86.582V429.097z M470.321,346.927H445.42v-18.754v-1.072
	c0-15.864-13.388-28.771-29.843-28.771s-29.843,12.906-29.843,28.771v1.072v18.754h-13.179l-10.587-34.795
	c-0.442-1.454-1.21-2.788-2.245-3.901l-12.313-13.236h122.912v51.932H470.321z M307.521,266.002l3.02,8.992H41.681v-8.992H307.521
	 M41.681,145.077V93.145h10.272v17.781c0,5.523,4.477,10,10,10h29.368c5.523,0,10-4.477,10-10V93.145h29.068v17.781
	c0,5.523,4.477,10,10,10h29.368c5.523,0,10-4.477,10-10V93.145h4.355l8.799,51.932L41.681,145.077L41.681,145.077z M81.321,93.145
	v7.781h-9.368v-7.781H81.321z M159.757,93.145v7.781h-9.368v-7.781H159.757z M41.681,64.152H179.2l1.524,8.993h0.003
	c-0.003,0,0,0-0.003,0l0,0c-0.003,0,0.003,0,0,0h0.006c-0.003,0,0,0-0.003,0H41.681c-0.003,0,0.003,0,0,0l0,0V64.152z"/>
<path d="M399.972,266.002h0.475c5.523,0,10-4.477,10-10c0-5.523-4.477-10-10-10h-0.475c-5.523,0-10,4.477-10,10
	C389.972,261.525,394.449,266.002,399.972,266.002z"/>
<g>
</g>
<g>
</g>
<g>
</g>
<g>
</g>
<g>
</g>
<g>
</g>
<g>
</g>
<g>
</g>
<g>
</g>
<g>
</g>
<g>
</g>
<g>
</g>
<g>
</g>
<g>
</g>
<g>
</g>
</svg>
