<?xml version="1.0" encoding="iso-8859-1"?>
<!-- Generator: Adobe Illustrator 19.0.0, SVG Export Plug-In . SVG Version: 6.00 Build 0)  -->
<svg version="1.1" id="Capa_1" xmlns="http://www.w3.org/2000/svg" xmlns:xlink="http://www.w3.org/1999/xlink" x="0px" y="0px"
	 viewBox="0 0 512.002 512.002" style="enable-background:new 0 0 512.002 512.002;" xml:space="preserve">
<path style="fill:#FFCD71;" d="M396.899,207.915l-83.718-48.323l57.411-33.144c20.999-12.133,28.075-38.895,16.022-59.801
	c-3.697-6.411-11.9-8.607-18.311-4.909l-83.704,48.327V43.779C284.599,19.593,264.994,0,240.82,0
	c-7.405,0-13.412,6.007-13.412,13.412v96.652L170.01,76.922c-20.993-12.104-47.722-4.884-59.801,16.022
	c-3.708,6.421-1.512,14.614,4.899,18.321l83.714,48.325l-57.407,33.142c-20.716,11.962-28.223,38.571-16.022,59.801
	c3.697,6.411,11.9,8.607,18.311,4.909l83.704-48.323v66.283c0,13.251,5.925,25.611,16.117,33.929v190.193
	c0,6.891,5.587,12.478,12.478,12.478s12.478-5.586,12.478-12.478V319.087c4.578,0.28,8.723-0.137,12.492-4.145
	c2.247-2.403,3.625-5.624,3.625-9.176v-96.652l57.398,33.142c20.982,12.098,47.727,4.888,59.801-16.022
	C405.472,219.864,403.337,211.645,396.899,207.915z"/>
<path style="fill:#02337D;" d="M264.393,131.419l-13.868,24.018l-14.727,25.499l-120.689-69.671
	c-6.411-3.708-8.607-11.9-4.899-18.321c3.811-6.597,9.073-11.828,15.152-15.515c6.867-4.174,14.779-6.38,22.806-6.38
	c7.426,0,14.945,1.895,21.843,5.872L264.393,131.419z"/>
<path style="fill:#FB5858;" d="M264.393,187.76l-1.036,0.601l-11.817,6.825l-107.836,62.255c-6.411,3.697-14.614,1.502-18.311-4.909
	c-1.315-2.289-2.413-4.64-3.273-7.043c-1.75-4.837-2.6-9.849-2.6-14.81c0-15.131,7.851-29.838,21.894-37.948l94.382-54.488
	l12.853,22.257L264.393,187.76z"/>
<path style="fill:#02337D;" d="M401.798,226.236c-8.109,14.044-22.827,21.894-37.958,21.894c-7.426,0-14.945-1.895-21.843-5.872
	l-94.382-54.498l28.595-49.516l2.051,1.191l118.638,68.48c3.646,2.113,5.924,5.676,6.525,9.528
	C403.9,220.363,403.392,223.471,401.798,226.236z"/>
<g>
	<path style="fill:#024AB5;" d="M264.393,131.419l-13.868,24.018l-118.638-68.48c-3.646-2.102-5.924-5.665-6.525-9.528
		c6.867-4.174,14.779-6.38,22.806-6.38c7.426,0,14.945,1.895,21.843,5.872L264.393,131.419z"/>
	<path style="fill:#024AB5;" d="M403.424,217.443c-6.867,4.174-14.779,6.38-22.806,6.38c-7.426,0-14.945-1.895-21.843-5.872
		l-94.382-54.498l13.868-24.018l118.638,68.48C400.544,210.027,402.823,213.59,403.424,217.443z"/>
</g>
<path style="fill:#FB5858;" d="M392.487,88.5c0,5.085-0.891,10.129-2.6,14.883c-3.376,9.394-9.974,17.679-19.295,23.065
	l-94.382,54.488l-15.742-27.259l-12.853-22.257l120.689-69.681c6.411-3.697,14.614-1.502,18.311,4.909
	C390.591,73.544,392.487,81.074,392.487,88.5z"/>
<g>
	<path style="fill:#FC7979;" d="M251.54,195.186l-107.836,62.255c-6.411,3.697-14.614,1.502-18.311-4.909
		c-1.315-2.289-2.413-4.64-3.273-7.043c3.376-9.394,9.974-17.679,19.295-23.065l94.382-54.498L251.54,195.186z"/>
	
		<rect x="240.27" y="173.831" transform="matrix(0.5001 0.866 -0.866 0.5001 279.0345 -134.4983)" style="fill:#FC7979;" width="31.48" height="1.197"/>
	<path style="fill:#FC7979;" d="M389.887,103.382c-3.376,9.394-9.974,17.679-19.295,23.065l-94.382,54.488l-15.742-27.259
		l107.836-62.245c6.411-3.708,14.614-1.512,18.311,4.909C387.93,98.629,389.027,100.98,389.887,103.382z"/>
</g>
<path style="fill:#FFC14F;" d="M256.004,512L256.004,512c-6.891,0-12.478-5.587-12.478-12.478V255.411h24.956v244.111
	C268.482,506.413,262.895,512,256.004,512z"/>
<g>
	<path style="fill:#0691CE;" d="M284.599,43.779v108.986h-57.191V13.412C227.408,6.007,233.415,0,240.82,0
		c6.732,0,13.112,1.522,18.808,4.236c4.536,2.154,8.638,5.075,12.149,8.586C279.7,20.745,284.599,31.692,284.599,43.779z"/>
	<path style="fill:#0691CE;" d="M284.599,166.414v139.352c0,3.552-1.377,6.773-3.625,9.176c-2.455,2.61-5.935,4.236-9.787,4.236
		c-12.086,0-23.034-4.899-30.957-12.822c-7.923-7.923-12.822-18.87-12.822-30.957V166.414H284.599z"/>
</g>
<g>
	<path style="fill:#40C1FA;" d="M284.599,43.779v108.986h-28.595V13.412c0-3.552,1.377-6.773,3.625-9.176
		c4.536,2.154,8.638,5.075,12.149,8.586C279.7,20.745,284.599,31.692,284.599,43.779z"/>
	<path style="fill:#40C1FA;" d="M284.599,166.414v139.352c0,3.552-1.377,6.773-3.625,9.176c-4.536-2.154-8.638-5.075-12.149-8.586
		c-7.923-7.923-12.822-18.87-12.822-30.957V166.414H284.599z"/>
</g>
<path style="fill:#FFC14F;" d="M295.225,174.4c-4.153,11.009-12.459,19.253-22.454,23.603c-9.673,4.226-20.931,4.826-31.578,0.808
	c-21.667-8.182-32.583-32.376-24.411-54.032c8.182-21.667,32.376-32.583,54.032-24.411c0.663,0.249,1.326,0.518,1.968,0.808
	C293.133,130.041,303.148,153.406,295.225,174.4z"/>
<path style="fill:#FFCD71;" d="M295.225,174.4c-4.153,11.009-12.459,19.253-22.454,23.603
	c-20.341-8.855-30.366-32.231-22.433-53.224c4.153-11.009,12.449-19.253,22.443-23.603
	C293.133,130.041,303.148,153.406,295.225,174.4z"/>
<g>
</g>
<g>
</g>
<g>
</g>
<g>
</g>
<g>
</g>
<g>
</g>
<g>
</g>
<g>
</g>
<g>
</g>
<g>
</g>
<g>
</g>
<g>
</g>
<g>
</g>
<g>
</g>
<g>
</g>
</svg>
