<?xml version="1.0" encoding="iso-8859-1"?>
<!-- Generator: Adobe Illustrator 19.0.0, SVG Export Plug-In . SVG Version: 6.00 Build 0)  -->
<svg version="1.1" id="Capa_1" xmlns="http://www.w3.org/2000/svg" xmlns:xlink="http://www.w3.org/1999/xlink" x="0px" y="0px"
	 viewBox="0 0 512 512" style="enable-background:new 0 0 512 512;" xml:space="preserve">
<polygon style="fill:#53433F;" points="421,241 391,241 391,121 451,121 451,151 421,151 "/>
<polygon style="fill:#68544F;" points="361,241 121,241 121,61 331,61 "/>
<polygon style="fill:#53433F;" points="361,241 286,241 286,61 331,61 "/>
<rect x="241" y="61" style="fill:#FF641A;" width="30" height="180"/>
<polygon style="fill:#FF7816;" points="481,211 481,391 91,391 91,31 361,31 361,91 151,91 151,211 "/>
<rect x="286" y="211" style="fill:#FF4B00;" width="195" height="180"/>
<rect x="301" y="271" style="fill:#913F02;" width="60" height="30"/>
<path style="fill:#68544F;" d="M136,211C61.601,211,0,271.599,0,346c0,74.399,61.601,135,136,135s135-60.601,135-135
	C271,271.599,210.399,211,136,211z"/>
<path style="fill:#53433F;" d="M271,346c0,74.399-60.601,135-135,135V211C210.399,211,271,271.599,271,346z"/>
<path style="fill:#E7E7E7;" d="M136,271c-41.4,0-75,33.6-75,75s33.6,75,75,75s75-33.6,75-75S177.4,271,136,271z"/>
<path style="fill:#D3D3D8;" d="M211,346c0,41.4-33.6,75-75,75V271C177.4,271,211,304.6,211,346z"/>
<rect x="121" y="331" style="fill:#68544F;" width="30" height="30"/>
<rect x="136" y="331" style="fill:#53433F;" width="15" height="30"/>
<path style="fill:#68544F;" d="M436,331c-41.4,0-75,33.6-75,75s33.6,75,75,75s76-33.6,76-75S477.4,331,436,331z"/>
<path style="fill:#53433F;" d="M512,406c0,41.4-34.6,75-76,75V331C477.4,331,512,364.6,512,406z"/>
<path style="fill:#E7E7E7;" d="M436,361c-24.901,0-45,20.099-45,45c0,24.899,20.099,45,45,45s45-20.101,45-45
	C481,381.099,460.901,361,436,361z"/>
<path style="fill:#D3D3D8;" d="M481,406c0,24.899-20.099,45-45,45v-90C460.901,361,481,381.099,481,406z"/>
<rect x="421" y="391" style="fill:#5A5A5A;" width="30" height="30"/>
<rect x="436" y="391" style="fill:#53433F;" width="15" height="30"/>
<rect x="286" y="31" style="fill:#FF4B00;" width="75" height="60"/>
<g>
</g>
<g>
</g>
<g>
</g>
<g>
</g>
<g>
</g>
<g>
</g>
<g>
</g>
<g>
</g>
<g>
</g>
<g>
</g>
<g>
</g>
<g>
</g>
<g>
</g>
<g>
</g>
<g>
</g>
</svg>
