<?xml version="1.0" ?><svg id="Layer_1" style="enable-background:new 0 0 64 64;" version="1.1" viewBox="0 0 64 64" xml:space="preserve" xmlns="http://www.w3.org/2000/svg" xmlns:xlink="http://www.w3.org/1999/xlink"><style type="text/css">
	.st0{display:none;}
	.st1{display:inline;fill:#590054;}
	.st2{display:inline;}
	.st3{fill:#FFFFFF;}
	.st4{fill:#00C3B6;}
	.st5{fill:#FBAA55;}
	.st6{fill:#FA952B;}
	.st7{opacity:0.3;fill:#231F20;}
	.st8{display:inline;fill:#F6BF1A;}
	.st9{fill:#328235;}
	.st10{fill:#FFFDF8;}
	.st11{fill:#E2413E;}
	.st12{fill:#303030;}
	.st13{display:inline;fill:#6FE4DA;}
	.st14{fill:#D9A76A;}
	.st15{fill:#733702;}
	.st16{fill:#ECF0F1;}
	.st17{fill:#E34F34;}
	.st18{fill:#191C29;}
	.st19{fill:#333333;}
	.st20{fill:#DF411C;}
	.st21{display:inline;fill:#ED7633;}
	.st22{fill:#005C8D;}
	.st23{fill:#007BBC;}
	.st24{fill:#002223;}
	.st25{fill:#F6BF1A;}
	.st26{fill:#EB5055;}
	.st27{fill:#043D5D;}
	.st28{fill:#FFFCF5;}
	.st29{fill:none;}
	.st30{fill:#590054;}
	.st31{fill:#E85400;}
	.st32{fill:#6FE4DA;}
	.st33{fill:#26262C;}
	.st34{display:inline;fill:none;}
	.st35{fill:#6B8B00;}
	.st36{fill:#BF7100;}
	.st37{fill:#8FB900;}
	.st38{fill:#BCBEC0;}
	.st39{fill:#E5C699;}
	.st40{fill:#D9AA66;}
	.st41{fill:#CC8D33;}
	.st42{fill-rule:evenodd;clip-rule:evenodd;fill:#FFFFFF;}
	.st43{fill:#414042;}
	.st44{fill:#262A3B;}
	.st45{fill:#F55064;}
	.st46{fill:#D1D3D4;}
	.st47{fill:#0E6E87;}
	.st48{fill:#FFFBF5;}
	.st49{fill:#0B5365;}
	.st50{fill:#32333B;}
	.st51{fill:#9CBBFF;}
	.st52{fill:#312121;}
	.st53{fill:#231F20;}
	.st54{fill:#F9C82E;}
	.st55{fill:#B03C40;}
</style><g class="st0"><circle class="st1" cx="32" cy="32" r="30.3"/><g class="st2"><g><g><polygon class="st3" points="26.7,27.8 27.5,27.8 27.5,13.4 21.1,14.1 21.1,14.9 26.6,14.4     "/></g><g><polygon class="st3" points="28.3,25.7 29.2,25.7 29.1,11.4 22.7,12.1 22.7,12.9 28.2,12.3     "/></g><path class="st3" d="M36.6,49.3c-4.1,0.2-4.2-2.4-4.2-2.4v-13l9.9-12.3H21.6L31,34L31,33.9v13.2c-0.4,2.7-4,2.2-4,2.2     c-0.6,0-0.6,0.8-0.6,0.8l10.8,0.1C37.2,49.5,36.6,49.3,36.6,49.3z"/><path class="st4" d="M25.4,24.7C25.4,24.7,25.4,24.7,25.4,24.7c1.2,0,2.5,0.2,3.7,0.1c0.6-0.1,0.9,0.2,1.5,0.4     c0.7,0.2,1.3,0.2,1.9-0.2c0.5-0.3,0.8-0.8,1.3-1c0.4-0.2,1.1,0,1.5,0.1c1.1,0.4,2.3,1.3,3.4,0.6c-0.2,0.3-0.4,0.5-0.7,0.8     c-2.2,2.6-4.5,5.2-6.7,7.8c-0.1-0.1-0.2-0.3-0.3-0.4c-1.1-1.6-2.3-3.2-3.4-4.7C27.1,27.1,25.9,25.9,25.4,24.7z"/><g><path class="st5" d="M41.7,17.4c-2.5,0-4.5,2-4.6,4.4l4.8,0.1l-2.9,3.8c0.8,0.5,1.7,0.8,2.6,0.8c2.5,0,4.6-2,4.6-4.6      C46.3,19.4,44.2,17.4,41.7,17.4z"/><g><path class="st3" d="M42,21.8c0,0,0-0.3,0.1-0.7c0.1-0.4,0.3-0.9,0.5-1.4c0.2-0.5,0.5-1,0.7-1.3c0.2-0.3,0.4-0.6,0.4-0.6       s0,0.3-0.1,0.7c-0.1,0.4-0.3,0.9-0.5,1.4c-0.2,0.5-0.5,1-0.7,1.3C42.2,21.6,42,21.8,42,21.8z"/></g><g><path class="st3" d="M42,21.8c0,0,0.3-0.1,0.7-0.2c0.4-0.1,1-0.2,1.5-0.2c0.5,0,1.1,0,1.5,0c0.4,0,0.7,0.1,0.7,0.1       s-0.3,0.1-0.7,0.2c-0.4,0.1-1,0.2-1.5,0.2c-0.6,0-1.1,0-1.5,0C42.3,21.9,42,21.8,42,21.8z"/></g><g><path class="st3" d="M42,21.8c0,0,0.2,0.2,0.5,0.5c0.3,0.3,0.6,0.7,0.9,1.2c0.3,0.5,0.5,1,0.7,1.3c0.2,0.4,0.2,0.7,0.2,0.7       s-0.2-0.2-0.5-0.5c-0.3-0.3-0.6-0.7-0.9-1.2c-0.3-0.5-0.5-1-0.7-1.3C42,22.1,42,21.8,42,21.8z"/></g><g><path class="st3" d="M42,21.8c0,0-0.1,0.3-0.2,0.7c-0.2,0.4-0.4,1-0.7,1.5c-0.3,0.5-0.6,1.1-0.9,1.4c-0.3,0.4-0.5,0.6-0.5,0.6       s0.1-0.3,0.2-0.8c0.2-0.4,0.4-1,0.7-1.5c0.3-0.5,0.6-1.1,0.9-1.4C41.7,22.1,42,21.8,42,21.8z"/></g><g><path class="st3" d="M42,21.8c0,0-0.2-0.2-0.5-0.6c-0.3-0.4-0.6-0.9-0.9-1.4c-0.3-0.5-0.5-1.1-0.6-1.5       c-0.1-0.4-0.2-0.7-0.2-0.7s0.2,0.2,0.5,0.6c0.3,0.4,0.6,0.9,0.9,1.4c0.3,0.5,0.5,1.1,0.6,1.5C41.9,21.5,42,21.8,42,21.8z"/></g><path class="st3" d="M47,21.9c0-2.9-2.3-5.2-5.2-5.2c-2.8,0-5.1,2.3-5.2,5.1l0.4,0c0.1-2.6,2.2-4.7,4.8-4.7      c2.7,0,4.9,2.2,4.9,4.9c0,2.7-2.2,4.9-4.9,4.9c-1,0-2-0.3-2.8-0.9l-0.2,0.3c0.9,0.6,1.9,1,3,1C44.6,27.2,47,24.8,47,21.9z"/><path class="st6" d="M41.7,15.6c-3.5,0-6.3,2.8-6.4,6.3l0.7,0l0.4,0c0.1-2.8,2.4-5.1,5.2-5.1c2.9,0,5.2,2.3,5.2,5.2      c0,2.9-2.3,5.2-5.2,5.2c-1.1,0-2.1-0.4-3-1l-0.3,0.4L38,27.1c1.1,0.8,2.4,1.3,3.8,1.3c3.5,0,6.4-2.9,6.4-6.4      C48.1,18.4,45.2,15.6,41.7,15.6z"/><path class="st6" d="M41.7,17.4c2.5,0,4.6,2,4.6,4.6c0,2.5-2,4.6-4.6,4.6c-0.9,0-1.9-0.3-2.6-0.8l-0.2,0.2      c0.8,0.6,1.8,0.9,2.8,0.9c2.7,0,4.9-2.2,4.9-4.9c0-2.7-2.2-4.9-4.9-4.9c-2.6,0-4.8,2.1-4.8,4.7l0.3,0      C37.2,19.3,39.3,17.4,41.7,17.4z"/></g><path class="st7" d="M21.6,21.7L31,33.9v13.2c-0.4,2.7-4,2.2-4,2.2c-0.6,0-0.6,0.8-0.6,0.8l5.2,0V21.7H21.6z"/></g></g></g><g class="st0"><path class="st8" d="M62.3,32c0,16.8-13.6,30.3-30.3,30.3C15.2,62.3,1.7,48.8,1.7,32C1.7,15.2,15.2,1.7,32,1.7   C48.8,1.7,62.3,15.2,62.3,32z"/><g class="st2"><g><path class="st9" d="M52.2,24.5c0,11.2-9.1,20.3-20.3,20.3c-11.2,0-20.3-9.1-20.3-20.3H52.2z"/><path class="st10" d="M32,41.9c-9.9,0-18-7.7-18.7-17.4h37.5C50,34.2,41.9,41.9,32,41.9z"/><path class="st11" d="M31.9,41.2c-9.5,0-17.3-7.4-17.9-16.7h35.9C49.2,33.8,41.4,41.2,31.9,41.2z"/><ellipse class="st12" cx="20.8" cy="27.1" rx="1.8" ry="0.5" transform="matrix(0.7071 -0.7071 0.7071 0.7071 -13.0956 22.6773)"/><ellipse class="st12" cx="21.5" cy="31.3" rx="1.8" ry="0.5" transform="matrix(0.6737 -0.739 0.739 0.6737 -16.0847 26.0995)"/><ellipse class="st12" cx="26.7" cy="29.3" rx="1.8" ry="0.5" transform="matrix(0.5304 -0.8477 0.8477 0.5304 -12.3303 36.399)"/><ellipse class="st12" cx="26.7" cy="34.3" rx="1.8" ry="0.5" transform="matrix(0.4545 -0.8908 0.8908 0.4545 -15.9631 42.4691)"/><ellipse class="st12" cx="42.3" cy="27.2" rx="1.8" ry="0.5" transform="matrix(-0.7071 -0.7071 0.7071 -0.7071 53.0418 76.3226)"/><ellipse class="st12" cx="41.6" cy="31.3" rx="1.8" ry="0.5" transform="matrix(-0.6736 -0.7391 0.7391 -0.6736 46.5615 83.1502)"/><ellipse class="st12" cx="36.5" cy="29.4" rx="1.8" ry="0.5" transform="matrix(-0.5307 -0.8476 0.8476 -0.5307 30.9293 75.8437)"/><ellipse class="st12" cx="36.5" cy="34.3" rx="1.8" ry="0.5" transform="matrix(-0.4542 -0.8909 0.8909 -0.4542 22.4736 82.3592)"/><ellipse class="st12" cx="31.4" cy="27.8" rx="1.8" ry="0.5" transform="matrix(9.349016e-003 -1 1 9.349016e-003 3.2579 58.8979)"/><ellipse class="st12" cx="31.4" cy="35.1" rx="1.8" ry="0.5" transform="matrix(9.346423e-003 -1 1 9.346423e-003 -4.0127 66.101)"/></g><path class="st7" d="M11.6,24.5c0,11,8.8,20,19.8,20.3V24.5H11.6z"/></g></g><g class="st0"><path class="st13" d="M62.3,32c0,16.8-13.6,30.4-30.3,30.4C15.2,62.3,1.7,48.8,1.7,32C1.7,15.2,15.2,1.7,32,1.7   C48.8,1.7,62.3,15.2,62.3,32z"/><g class="st2"><polygon class="st14" points="31.9,52 40.8,22.4 23.7,22.4   "/><path class="st10" d="M40,25.1l0.8-2.7h-0.7L39,23.6l0,0l-0.2,0.2l-0.1,0.1l0,0l-2.6,2.6l-2.8-2.9l-2.9,2.9l-2.6-2.6l0,0l-0.1-0.1    l-0.2-0.2l0,0l-1.1-1.1h-2.7l1.1,3.9l0,0l0.3,1l0,0l1,3.5l0,0l1.2,4.4l0,0.1l0,0l0,0.1l0.1,0.3l0,0l1.1,4l0,0l0.7,2.7l0,0l0,0    l0.2,0.7l0,0l0.3,1l0,0l1.2,4.5l0,0l0.9,3.3l1.5-4.9l0,0l0.1-0.3l0-0.1l0,0h0l0,0l0.2-0.8l0,0l1-3.2l0,0l0.1-0.4l0,0l0,0l1.3-4.5    l0,0l1.3-4.3l0,0l1.2-3.9l0,0l0-0.1l0,0l0.1-0.4l0,0l0,0L40,25.1L40,25.1z M40.2,22.9l-0.5,1.5l-0.5-0.5L40.2,22.9z M33.3,24.1    l2.6,2.6l-2.6,2.6l-2.6-2.6L33.3,24.1z M34.5,33.7L33.3,35L32,33.7l-1.3-1.3l2.6-2.6l2.6,2.6L34.5,33.7z M30.4,27l2.6,2.6    l-2.6,2.6l-1.3-1.3l-1.3-1.3l1.3-1.3L30.4,27z M27.5,29.8l1.3,1.3l1.3,1.3L27.6,35l-1.1-4L27.5,29.8z M27.8,35.3l2.6-2.6l1.3,1.3    l1.3,1.3l-2.6,2.6L27.8,35.3z M30.4,38.4L33,41l-2.6,2.6L29.8,43l-0.9-3.1L30.4,38.4z M30.7,38.1l2.6-2.6l2.5,2.5l-0.1,0.3    l-2.4,2.4L30.7,38.1z M30.1,26.7L28.8,28l-1.3,1.3l-0.7-0.7l-1.5-1.5l-0.2-0.6l2.3-2.3L30.1,26.7z M25.1,26l-0.9-3.2h2.1l1,1    L25.1,26z M26.7,29l0.6,0.6l-0.9,0.9l-0.7-2.6L26.7,29z M29.3,37.3l0.8,0.8l-1.3,1.3l-1-3.6L29.3,37.3z M30.4,44.1l2.6,2.6    l-1.7,1.7l-1.1-4L30.4,44.1z M31.9,50.6l-0.5-1.8l0.9-0.9l0.6-0.6L31.9,50.6z M33.2,46.4l-2.5-2.5l2.6-2.6l1.1,1.1L33.2,46.4z     M34.5,42l-1-1l1.8-1.8L34.5,42z M35.8,37.6l-2.3-2.3l1.3-1.3l1.3-1.3l0.9,0.9L35.8,37.6z M37.1,33.2l-0.8-0.8l0.5-0.5l0.9-0.9    L37.1,33.2z M36.7,31.5l-0.6,0.6l-2.6-2.6l2.6-2.6l2.2,2.2l-0.3,1L36.7,31.5z M38.5,28.8l-2.1-2.1l2.6-2.6l0.7,0.7L38.5,28.8z"/><path class="st15" d="M41.7,23c0-0.1,0.1-0.2,0.1-0.3c0.2-0.7-0.1-1.5-0.3-2.1c-0.4-1.3-1.1-2.7-2-3.7c-1.8-2.1-4.4-5.6-7.2-5.6    c-2.8,0-5.4,3.6-7.2,5.7c-0.9,1.1-1.6,2.4-1.9,3.7c-0.1,0.4-0.5,1.6-0.3,2c0.2,0.3,1.1,0.3,1.5,0.5c0.5,0.3,0.9,1,1.6,1    c0.8,0,1.1-0.8,1.8-1c0.7-0.2,1.2,0.5,2,0.5c0.7,0,1.2-0.5,1.9-0.5c0.9-0.1,1.1,0.7,1.9,0.9c0.8,0.3,1.3-0.2,2-0.6    c1-0.5,1.2-0.2,2.2,0.1c1.1,0.4,1.2,0,2.1-0.3c0.1-0.1,0.2-0.2,0.4-0.3c0,0,1,0.5,1.2,0.4C41.5,23.4,41.6,23.2,41.7,23z"/><path class="st7" d="M25.1,16.9c-0.9,1.1-1.6,2.4-1.9,3.7c-0.1,0.4-0.5,1.6-0.3,2c0.1,0.2,0.6,0.3,1,0.4l1.1,3.8l0.1,0.5l0.4,1.5    l1.2,4.2l0.6,2.1l0,0.1l0,0.1l0,0.1l0.1,0.2l1.1,4l0.7,2.7l0,0l0,0.2l0.2,0.6l0.3,1l1.2,4.5l0.9,3.3l0,0V11.3    C29.3,11.6,26.8,14.9,25.1,16.9z"/></g></g><g class="st0"><circle class="st13" cx="32" cy="32" r="30.3"/><g class="st2"><g><g><path class="st16" d="M24.1,13c0,0-8.2,2.6-5.8,13.4c2.4,10.8,13.8,17.1,13.8,17.1L24.1,13z"/><path class="st17" d="M27,12.1c0,0-6.9,0.1-7.8,9.4c-0.9,9.3,11.3,21.3,12.8,22L27,12.1z"/><path class="st16" d="M30.7,11.6c0,0-7-1.6-8.2,8.8c-1.3,10.4,9.6,23.1,9.6,23.1L30.7,11.6z"/><path class="st17" d="M32.1,11.2v32.3c0,0-1.9-5-3.4-10.5c-0.9-3.4-3.1-12.3-0.3-19.6C29,11.8,30.3,11,32.1,11.2z"/><path class="st17" d="M40,13c0,0,8.2,2.6,5.8,13.4c-2.4,10.8-13.8,17.1-13.8,17.1L40,13z"/><path class="st16" d="M37.1,12.1c0,0,6.9,0.1,7.8,9.4c0.9,9.3-11.3,21.3-12.8,22L37.1,12.1z"/><path class="st17" d="M33.4,11.6c0,0,7-1.6,8.2,8.8c1.3,10.4-9.6,23.1-9.6,23.1L33.4,11.6z"/><path class="st16" d="M32.1,11.2v32.3c0,0,1.9-5,3.4-10.5c0.9-3.4,3.1-12.3,0.3-19.6C35.1,11.8,33.8,11,32.1,11.2z"/><rect class="st18" height="5.3" transform="matrix(0.9595 -0.2818 0.2818 0.9595 -11.6008 11.4781)" width="0.1" x="34.1" y="43.4"/><rect class="st18" height="6.1" width="0.1" x="32.1" y="43.5"/><rect class="st18" height="5.3" transform="matrix(0.9575 0.2884 -0.2884 0.9575 14.5648 -6.7023)" width="0.1" x="30" y="43.4"/><g><polygon class="st19" points="29.3,41.7 30.7,43.5 33.4,43.5 34.8,41.7      "/></g><path class="st19" d="M32.2,48.9L32.2,48.9l-0.2,0l-0.2,0v0L29.3,49l0.6,3.7c0,0,0.1,0.7,1.1,0.7c0.5,0,0.8,0,1,0      c0.1,0,0.1,0,0.1,0c0.1,0,0.4,0,1,0c1,0,1.1-0.7,1.1-0.7l0.6-3.7L32.2,48.9z"/><rect class="st16" height="0.6" width="5.7" x="29.2" y="48.5"/></g><path class="st7" d="M32.1,43.5V11.2c0,0,0,0-0.1,0c-0.8-0.1-1.5,0-2.1,0.3c-0.7,0-1.8,0-3,0.6l0,0c0,0-1.3,0-2.9,0.9     c0,0-8.2,2.6-5.8,13.4c1.7,7.4,7.5,12.7,11,15.3l1.3,1.8h0.1l-1.5,5h-0.1v0.6h0.1l0.5,3.6c0,0,0.1,0.7,1.1,0.7c0.5,0,0.8,0,1,0     c0.1,0,0.1,0,0.1,0v-4.9V43.5z M32.1,48.5h-2.7l1.5-5h1.2V48.5z"/></g></g></g><g class="st0"><circle class="st13" cx="32" cy="32" r="30.3"/><g class="st2"><g><path class="st10" d="M46,19.4c-0.5-0.5-1.3-0.7-1.7-0.3l-2.2,2.2c-0.4,0.4-0.3,1.2,0.3,1.7l0,0c0.5,0.5,1.3,0.7,1.7,0.3l2.2-2.2     C46.6,20.7,46.5,19.9,46,19.4L46,19.4z"/><path class="st10" d="M17.8,19.4c-0.5,0.5-0.7,1.3-0.3,1.7l2.2,2.2c0.4,0.4,1.2,0.3,1.7-0.3l0,0c0.5-0.5,0.7-1.3,0.3-1.7     l-2.2-2.2C19.1,18.8,18.3,18.9,17.8,19.4L17.8,19.4z"/><path class="st10" d="M46.2,44.9c-0.5,0.5-1.3,0.7-1.7,0.3L42.4,43c-0.4-0.4-0.3-1.2,0.3-1.7l0,0c0.5-0.5,1.3-0.7,1.7-0.3     l2.2,2.2C46.9,43.6,46.8,44.4,46.2,44.9L46.2,44.9z"/><path class="st10" d="M18,44.9c-0.5-0.5-0.7-1.3-0.3-1.7L20,41c0.4-0.4,1.2-0.3,1.7,0.3l0,0c0.5,0.5,0.7,1.3,0.3,1.7l-2.2,2.2     C19.3,45.6,18.6,45.4,18,44.9L18,44.9z"/><path class="st10" d="M32,15.8c-9,0-16.3,7.3-16.3,16.3c0,9,7.3,16.3,16.3,16.3c9,0,16.3-7.3,16.3-16.3     C48.4,23.1,41.1,15.8,32,15.8z M32,41.1c-5,0-9-4-9-9c0-5,4-9,9-9c5,0,9,4,9,9C41.1,37.1,37,41.1,32,41.1z"/><path class="st20" d="M23.4,29.5c0.9-2.8,3.1-5.1,5.9-5.9V16l0,0c-0.8,0.1-1.7,0.3-2.5,0.6c0,0,0,0-0.1,0c-0.8,0.3-1.5,0.6-2.3,1     c0,0,0,0,0,0c-1.1,0.6-2.1,1.3-3.1,2.1c0,0,0,0,0,0c-0.6,0.5-1.2,1.1-1.7,1.7c0,0,0,0,0,0c-0.8,0.9-1.5,2-2.1,3.1c0,0,0,0,0,0     c-0.4,0.7-0.7,1.5-1,2.3c0,0,0,0,0,0.1c-0.3,0.8-0.5,1.6-0.6,2.5v0H23.4z"/><path class="st20" d="M48.1,29.4c-0.1-0.8-0.3-1.7-0.6-2.5c0,0,0,0,0-0.1c-0.3-0.8-0.6-1.5-1-2.3c0,0,0,0,0,0     c-0.6-1.1-1.3-2.1-2.1-3.1c0,0,0,0,0,0c-0.5-0.6-1.1-1.2-1.7-1.7c0,0,0,0,0,0c-0.9-0.8-2-1.5-3.1-2.1c0,0,0,0,0,0     c-0.7-0.4-1.5-0.7-2.3-1c0,0,0,0-0.1,0c-0.8-0.3-1.6-0.5-2.5-0.6c0,0,0,0,0,0v7.5c2.8,0.9,5.1,3.1,5.9,5.9L48.1,29.4     C48.1,29.5,48.1,29.5,48.1,29.4z"/><path class="st20" d="M40.7,34.8c-0.9,2.8-3.1,5.1-5.9,5.9v7.5c0,0,0,0,0,0c0.8-0.1,1.7-0.3,2.5-0.6c0,0,0,0,0.1,0     c0.8-0.3,1.5-0.6,2.3-1c0,0,0,0,0.1,0c1.1-0.6,2.1-1.3,3.1-2.1c0,0,0,0,0.1,0c0.6-0.5,1.2-1.1,1.7-1.7c0,0,0,0,0-0.1     c0.8-0.9,1.5-2,2.1-3.1c0,0,0,0,0-0.1c0.4-0.7,0.7-1.5,1-2.3c0,0,0,0,0-0.1c0.3-0.8,0.5-1.6,0.6-2.5c0,0,0,0,0,0H40.7z"/><path class="st20" d="M29.4,40.7c-2.8-0.9-5.1-3.1-5.9-5.9H16c0,0,0,0,0,0c0.1,0.8,0.3,1.7,0.6,2.5c0,0,0,0,0,0.1     c0.3,0.8,0.6,1.5,1,2.3c0,0,0,0,0,0c0.6,1.1,1.3,2.1,2.1,3.1c0,0,0,0,0,0c0.5,0.6,1.1,1.2,1.7,1.7c0,0,0,0,0,0     c0.9,0.8,2,1.5,3.1,2.1c0,0,0,0,0,0c0.7,0.4,1.5,0.7,2.3,1c0,0,0,0,0.1,0c0.8,0.3,1.6,0.5,2.5,0.6h0V40.7z"/></g><path class="st7" d="M29.4,40.7c-0.3-0.1-0.6-0.2-0.9-0.4c-0.1,0-0.2-0.1-0.3-0.1c-0.2-0.1-0.4-0.2-0.6-0.3    c-0.1-0.1-0.2-0.1-0.3-0.2c-0.2-0.1-0.4-0.3-0.6-0.4c-0.1-0.1-0.2-0.1-0.2-0.2c-0.5-0.4-1-0.9-1.4-1.4c-0.1-0.1-0.1-0.2-0.2-0.2    c-0.1-0.2-0.3-0.4-0.4-0.6c-0.1-0.1-0.1-0.2-0.2-0.3c-0.1-0.2-0.2-0.4-0.3-0.6c0-0.1-0.1-0.2-0.1-0.3c-0.1-0.3-0.3-0.6-0.4-0.9    C23.2,33.9,23,33,23,32.1c0-0.9,0.1-1.8,0.4-2.7c0.1-0.3,0.2-0.6,0.4-0.9c0-0.1,0.1-0.2,0.1-0.3c0.1-0.2,0.2-0.4,0.3-0.6    c0.1-0.1,0.1-0.2,0.2-0.3c0.1-0.2,0.3-0.4,0.4-0.6c0.1-0.1,0.1-0.2,0.2-0.2c0.4-0.5,0.9-1,1.4-1.4c0.1-0.1,0.1-0.1,0.2-0.2    c0.2-0.1,0.4-0.3,0.6-0.4c0.1-0.1,0.2-0.1,0.3-0.2c0.2-0.1,0.4-0.2,0.7-0.3c0.1,0,0.2-0.1,0.2-0.1c0.3-0.1,0.6-0.3,1-0.4    c0.8-0.3,1.7-0.4,2.7-0.4v-7.3c-0.9,0-1.8,0.1-2.7,0.2v0l0,0c-0.1,0-0.2,0-0.3,0.1c-0.2,0-0.4,0.1-0.6,0.1    c-0.3,0.1-0.5,0.1-0.8,0.2c-0.2,0.1-0.4,0.1-0.6,0.2c0,0-0.1,0-0.1,0c0,0,0,0-0.1,0c-0.3,0.1-0.5,0.2-0.8,0.3    c-0.2,0.1-0.4,0.2-0.6,0.3c-0.3,0.1-0.6,0.3-0.8,0.4c0,0,0,0,0,0c0,0-0.1,0-0.1,0c-1,0.6-2,1.2-2.9,2c0,0,0,0-0.1,0.1c0,0,0,0,0,0    c-0.2,0.2-0.4,0.4-0.7,0.6c0,0,0,0,0,0l-1.3-1.3c-0.4-0.4-1.2-0.3-1.7,0.3c-0.5,0.5-0.7,1.3-0.3,1.7l1.4,1.4    c-0.5,0.6-0.9,1.3-1.3,2c0,0,0,0,0,0.1c0,0,0,0,0,0c-0.1,0.3-0.2,0.5-0.4,0.8c-0.1,0.2-0.2,0.5-0.3,0.7c-0.1,0.3-0.2,0.5-0.3,0.8    c0,0,0,0,0,0.1c0,0,0,0.1,0,0.1c-0.1,0.2-0.1,0.4-0.2,0.6c-0.1,0.3-0.2,0.6-0.2,0.8c0,0.2-0.1,0.4-0.1,0.6c0,0.1,0,0.2-0.1,0.3v0    h0c-0.1,0.9-0.2,1.8-0.2,2.7c0,0.9,0.1,1.8,0.2,2.7h0c0,0,0,0,0,0c0,0.1,0,0.2,0.1,0.3c0,0.2,0.1,0.4,0.1,0.6    c0.1,0.3,0.1,0.5,0.2,0.8c0.1,0.2,0.1,0.4,0.2,0.6c0,0,0,0.1,0,0.1c0,0,0,0,0,0.1c0.1,0.3,0.2,0.5,0.3,0.8    c0.1,0.2,0.2,0.5,0.3,0.7c0.1,0.3,0.2,0.5,0.4,0.8c0,0,0,0,0,0c0,0,0,0,0,0.1c0.4,0.8,0.9,1.5,1.4,2.2l-1.3,1.3    c-0.4,0.4-0.3,1.2,0.3,1.7c0.5,0.5,1.3,0.7,1.7,0.3l1.2-1.2c0.2,0.2,0.3,0.3,0.5,0.5c0,0,0,0,0,0c0,0,0,0,0.1,0    c0.9,0.8,1.9,1.4,2.9,2c0,0,0,0,0.1,0c0,0,0,0,0,0c0.3,0.1,0.5,0.2,0.8,0.4c0.3,0.1,0.5,0.2,0.8,0.3c0.2,0.1,0.5,0.2,0.7,0.3    c0,0,0,0,0.1,0c0,0,0.1,0,0.1,0c0.2,0.1,0.4,0.1,0.6,0.2c0.3,0.1,0.5,0.1,0.8,0.2c0.2,0,0.4,0.1,0.6,0.1c0.1,0,0.2,0,0.3,0.1h0v0    c0.9,0.1,1.8,0.2,2.7,0.2v-7.3C31.1,41.1,30.2,41,29.4,40.7z"/></g></g><g class="st0"><circle class="st21" cx="32" cy="32" r="30.3"/><g class="st2"><path class="st22" d="M32.1,12.6c-2.7,0-4.9,2.2-4.9,4.9s2.2,4.9,4.9,4.9s4.9-2.2,4.9-4.9S34.9,12.6,32.1,12.6z M32.1,20.6    c-1.7,0-3.2-1.4-3.2-3.2c0-1.7,1.4-3.2,3.2-3.2c1.7,0,3.2,1.4,3.2,3.2C35.3,19.2,33.9,20.6,32.1,20.6z"/><circle class="st23" cx="32.2" cy="32.4" r="14.1"/><circle class="st24" cx="32.3" cy="32.3" r="11"/><circle class="st25" cx="32.1" cy="32.4" r="11"/><polygon class="st26" points="31,31 39.6,26.7 33.3,33.9   "/><polygon class="st27" points="31,31 24.7,38.2 33.3,33.9   "/><circle class="st28" cx="32.1" cy="32.4" r="1.8"/><g><path class="st27" d="M31,25.5v-3.1h0.4l1,1.6c0.2,0.4,0.4,0.7,0.6,1l0,0c0-0.4,0-0.8,0-1.3v-1.3h0.4v3.1h-0.4l-1-1.6     c-0.2-0.3-0.4-0.7-0.6-1l0,0c0,0.4,0,0.8,0,1.3v1.3H31z"/></g><path class="st29" d="M29,17.5c0,0.4,0.1,0.8,0.2,1.1c1-0.2,2-0.3,3-0.3v-3.9c0,0-0.1,0-0.1,0C30.4,14.3,29,15.7,29,17.5z"/><path class="st7" d="M29.2,18.6c-0.1-0.3-0.2-0.7-0.2-1.1c0-1.7,1.4-3.2,3.2-3.2c0,0,0.1,0,0.1,0v-1.7c0,0-0.1,0-0.1,0    c-2.7,0-4.9,2.2-4.9,4.9c0,0.6,0.1,1.1,0.3,1.6c-1.4,0.5-2.8,1.2-4,2.2c-6.2,4.8-7.3,13.7-2.5,19.9c2.8,3.6,7,5.4,11.2,5.4V18.3    C31.2,18.3,30.2,18.4,29.2,18.6z"/></g></g><g><path class="st30" d="M62.3,32c0,16.7-13.6,30.3-30.3,30.3C15.2,62.3,1.7,48.8,1.7,32C1.7,15.2,15.2,1.7,32,1.7   C48.8,1.7,62.3,15.2,62.3,32z"/><g><g><path class="st31" d="M27.1,18.4c0.2,0.4,0,0.8-0.4,1l0,0c-0.4,0.2-0.8,0-1-0.4l-1.2-2.9c-0.2-0.4,0-0.8,0.4-1l0,0     c0.4-0.2,0.8,0,1,0.4L27.1,18.4z"/><path class="st31" d="M38.1,19c-0.2,0.4-0.6,0.5-1,0.4l0,0c-0.4-0.2-0.5-0.6-0.4-1l1.2-2.9c0.2-0.4,0.6-0.5,1-0.4l0,0     c0.4,0.2,0.5,0.6,0.4,1L38.1,19z"/><path class="st31" d="M45.5,27.1c-0.4,0.2-0.8,0-1-0.4l0,0c-0.2-0.4,0-0.8,0.4-0.9l2.9-1.2c0.4-0.2,0.8,0,0.9,0.4l0,0     c0.2,0.4,0,0.8-0.4,0.9L45.5,27.1z"/><path class="st31" d="M45.1,38.1c-0.4-0.2-0.5-0.6-0.4-1l0,0c0.2-0.4,0.6-0.5,1-0.4l2.9,1.3c0.4,0.2,0.5,0.6,0.4,1l0,0     c-0.2,0.4-0.6,0.5-1,0.4L45.1,38.1z"/><path class="st31" d="M37,45.6c-0.1-0.4,0-0.8,0.4-0.9l0,0c0.4-0.1,0.8,0,0.9,0.4l1.2,3c0.1,0.4,0,0.8-0.4,0.9l0,0     c-0.4,0.1-0.8,0-0.9-0.4L37,45.6z"/><path class="st31" d="M26.1,45c0.2-0.4,0.6-0.5,1-0.4l0,0c0.4,0.2,0.5,0.6,0.4,1l-1.3,2.9c-0.2,0.4-0.6,0.5-1,0.4l0,0     c-0.4-0.2-0.5-0.6-0.4-1L26.1,45z"/><path class="st31" d="M18.4,37c0.4-0.1,0.8,0,0.9,0.4l0,0c0.1,0.4,0,0.8-0.4,0.9l-3,1.1c-0.4,0.1-0.8,0-0.9-0.4l0,0     c-0.1-0.4,0-0.8,0.4-0.9L18.4,37z"/><path class="st31" d="M18.9,25.9c0.4,0.2,0.5,0.6,0.4,1l0,0c-0.2,0.4-0.6,0.5-1,0.4l-2.9-1.3c-0.4-0.2-0.5-0.6-0.4-1l0,0     c0.2-0.4,0.6-0.5,1-0.4L18.9,25.9z"/><path class="st32" d="M15.9,25.3C15.9,25.3,15.8,25.3,15.9,25.3c0.5,3.4,0.4,10,0,13.4c0,0.2,0.1,0.2,0.1,0.2     C19.5,37.2,32,32,32,32L15.9,25.3z"/><path class="st10" d="M25.3,15.8C25.3,15.8,25.3,15.8,25.3,15.8c-2,2.8-6.7,7.5-9.5,9.5v0C19.5,26.8,32,32,32,32L25.3,15.8z"/><path class="st32" d="M38.6,15.8C38.6,15.8,38.6,15.8,38.6,15.8c-3.4,0.5-10,0.6-13.4,0c0,0,0,0,0,0C26.9,19.5,32,32,32,32     L38.6,15.8z"/><path class="st10" d="M48.1,25.3C48.1,25.3,48.1,25.2,48.1,25.3c-2.8-2-7.5-6.7-9.5-9.4c0,0,0,0,0,0C37.2,19.5,32,32,32,32     L48.1,25.3z"/><path class="st32" d="M48.1,38.6C48.1,38.6,48.2,38.6,48.1,38.6c-0.6-3.4-0.6-10-0.1-13.4c0,0,0,0,0,0C44.4,26.8,32,32,32,32     L48.1,38.6z"/><path class="st10" d="M38.8,48.1C38.8,48.1,38.8,48.1,38.8,48.1c2-2.8,6.6-7.5,9.4-9.5c0,0,0,0,0,0C44.5,37.1,32,32,32,32     L38.8,48.1z"/><path class="st32" d="M25.4,48.2C25.4,48.2,25.4,48.2,25.4,48.2c3.4-0.6,10-0.6,13.4-0.1l0,0C37.2,44.4,32,32,32,32L25.4,48.2z"/><path class="st10" d="M15.9,38.8C15.9,38.8,15.9,38.8,15.9,38.8c2.8,2,7.5,6.6,9.6,9.4c0,0,0,0,0,0C26.9,44.5,32,32,32,32     L15.9,38.8z"/><circle class="st31" cx="32" cy="32" r="1.3"/></g><path class="st29" d="M32.5,30.8C32.5,30.8,32.5,30.8,32.5,30.8c0.7-1.8,2.2-5.3,3.5-8.6L32.5,30.8z"/><path class="st29" d="M28,41.8l3.5-8.6c0,0,0,0,0,0C30.8,35,29.3,38.5,28,41.8z"/><path class="st29" d="M30.8,31.5c-1.8-0.7-5.4-2.2-8.7-3.6L30.8,31.5C30.8,31.5,30.8,31.5,30.8,31.5z"/><path class="st29" d="M30.8,32.5c-2.3,1-7.7,3.2-11.5,4.9c0,0,0,0,0,0L30.8,32.5C30.8,32.5,30.8,32.5,30.8,32.5z"/><path class="st29" d="M31.5,30.8C31.5,30.8,31.5,30.8,31.5,30.8c-0.7-1.8-2.2-5.4-3.6-8.7L31.5,30.8z"/><path class="st29" d="M32.5,33.2c0.8,1.8,2.2,5.3,3.6,8.6L32.5,33.2C32.5,33.2,32.5,33.2,32.5,33.2z"/><path class="st29" d="M33.2,32.5c1.8,0.7,5.3,2.2,8.5,3.5L33.2,32.5C33.2,32.5,33.2,32.5,33.2,32.5z"/><path class="st29" d="M33.2,31.5c1.8-0.7,5.3-2.2,8.6-3.6L33.2,31.5C33.2,31.5,33.2,31.5,33.2,31.5z"/><path class="st7" d="M26.1,16l-0.2-0.5c-0.2-0.4-0.6-0.5-1-0.4c-0.4,0.2-0.5,0.6-0.4,1l0.2,0.5c-2,2.6-5.7,6.2-8.2,8.3L16,24.6    c-0.4-0.2-0.8,0-1,0.4c-0.2,0.4,0,0.8,0.4,1l0.5,0.2c0.4,3.3,0.3,8.6,0,11.8l-0.5,0.2c-0.4,0.1-0.6,0.6-0.4,0.9    c0.1,0.4,0.6,0.6,0.9,0.4l0.6-0.2c2.6,2,6.4,5.7,8.5,8.3l-0.2,0.4c-0.2,0.4,0,0.8,0.4,1c0.4,0.2,0.8,0,1-0.4l0.2-0.4    c1.6-0.2,3.6-0.3,5.7-0.3V16.2C29.9,16.3,27.7,16.2,26.1,16z M30.8,31.5C30.8,31.5,30.8,31.5,30.8,31.5l-8.7-3.6    C25.4,29.2,29,30.7,30.8,31.5z M19.3,37.4C19.3,37.4,19.3,37.4,19.3,37.4c3.8-1.7,9.2-3.9,11.5-4.9c0,0,0,0,0,0L19.3,37.4z     M28,41.8c1.3-3.3,2.8-6.8,3.5-8.6c0,0,0,0,0,0L28,41.8z M31.5,30.8l-3.6-8.7C29.3,25.5,30.8,29,31.5,30.8    C31.5,30.8,31.5,30.8,31.5,30.8z"/></g></g><g class="st0"><path class="st8" d="M62.3,32c0,16.7-13.6,30.3-30.3,30.3C15.2,62.3,1.7,48.7,1.7,32C1.7,15.2,15.2,1.7,32,1.7   C48.8,1.7,62.3,15.2,62.3,32z"/><g class="st2"><path class="st3" d="M49.4,31c-0.3,0-0.6,0.1-0.9,0.1l-4.3,0.2c-0.2-2.8-1.3-5.4-3.1-7.3l3.3-3c0.3-0.2,0.6-0.4,0.8-0.6    c0.6-0.6,0.7-1.3,0.3-1.8c-0.4-0.4-1.2-0.3-1.8,0.3c-0.2,0.2-0.4,0.5-0.6,0.8l-3,3.3c-2-1.7-4.5-2.8-7.3-2.9l0.2-4.6    c0.1-0.3,0.2-0.7,0.2-0.9c0-0.8-0.5-1.4-1.1-1.4c-0.6,0-1.1,0.6-1.1,1.4c0,0.3,0.1,0.6,0.1,0.9l0.2,4.6c-2.8,0.2-5.2,1.3-7.2,3    l-3.2-3.4c-0.2-0.3-0.4-0.6-0.6-0.8c-0.6-0.6-1.3-0.7-1.8-0.3c-0.4,0.4-0.3,1.2,0.3,1.8c0.2,0.2,0.5,0.4,0.8,0.6l3.4,3.2    c-1.7,1.9-2.8,4.4-3,7.2l-4.6-0.2c-0.3-0.1-0.7-0.2-0.9-0.2c-0.8,0-1.4,0.5-1.4,1.1c0,0.6,0.6,1.1,1.4,1.1c0.3,0,0.6-0.1,0.9-0.2    l4.6-0.2c0.1,2.8,1.2,5.3,2.9,7.3l-3.3,3.1c-0.3,0.2-0.6,0.4-0.8,0.6c-0.6,0.6-0.7,1.3-0.3,1.8c0.4,0.4,1.2,0.3,1.8-0.3    c0.2-0.2,0.4-0.5,0.6-0.8l3.1-3.3c1.9,1.8,4.5,3,7.3,3.2l-0.1,4.4c-0.1,0.3-0.1,0.7-0.1,0.9c0,0.8,0.5,1.4,1,1.4    c0.6,0,1.1-0.6,1.1-1.4c0-0.3-0.1-0.6-0.2-0.9l-0.2-4.4c2.8-0.1,5.4-1.2,7.4-3l2.9,3.1c0.2,0.3,0.4,0.6,0.6,0.8    c0.6,0.6,1.3,0.7,1.8,0.3c0.4-0.4,0.3-1.2-0.3-1.8c-0.2-0.2-0.5-0.4-0.8-0.6L41,40.2c1.8-2,2.9-4.6,3.1-7.4l4.3,0.1    c0.3,0.1,0.7,0.1,0.9,0.1c0.8,0,1.4-0.5,1.4-1.1C50.8,31.5,50.2,31,49.4,31z M42.3,31.4l-5.6,0.2c-0.1-1-0.5-1.8-1.1-2.5l4.1-3.8    C41.2,26.9,42.1,29,42.3,31.4z M32,35.6c-1.9,0-3.5-1.6-3.5-3.5c0-1.9,1.6-3.5,3.5-3.5c1.9,0,3.5,1.6,3.5,3.5    C35.5,34.1,34,35.6,32,35.6z M38.7,24.3l-3.8,4.1c-0.7-0.5-1.6-0.9-2.5-1l0.2-5.6C34.9,21.9,37,22.8,38.7,24.3z M31.2,21.8    l0.2,5.6c-0.9,0.1-1.7,0.5-2.4,1l-3.8-4.1C26.9,22.9,28.9,22,31.2,21.8z M24.3,25.3l4.1,3.8c-0.6,0.7-0.9,1.5-1.1,2.4l-5.6-0.2    C21.9,29,22.8,26.9,24.3,25.3z M21.7,32.6l5.6-0.2c0.1,0.9,0.4,1.8,0.9,2.5l-4.1,3.8C22.7,37.1,21.8,34.9,21.7,32.6z M25,39.7    l3.8-4.1c0.7,0.6,1.5,1,2.5,1.2l-0.2,5.6C28.8,42.2,26.7,41.2,25,39.7z M32.5,42.4l-0.2-5.6c1-0.1,1.9-0.4,2.6-1l3.8,4.1    C37,41.4,34.9,42.3,32.5,42.4z M39.7,39l-4.1-3.8c0.6-0.7,1-1.6,1.1-2.6l5.6,0.2C42.2,35.1,41.2,37.3,39.7,39z"/><path class="st7" d="M28.5,32.1c0-1.9,1.5-3.4,3.4-3.5V13c-0.6,0-1,0.7-1,1.4c0,0.3,0.1,0.6,0.1,0.9l0.2,4.6    c-2.8,0.2-5.2,1.3-7.2,3l-3.2-3.4c-0.2-0.3-0.4-0.6-0.6-0.8c-0.6-0.6-1.3-0.7-1.8-0.3c-0.4,0.4-0.3,1.2,0.3,1.8    c0.2,0.2,0.5,0.4,0.8,0.6l3.4,3.2c-1.7,1.9-2.8,4.4-3,7.2l-4.6-0.2c-0.3-0.1-0.7-0.2-0.9-0.2c-0.8,0-1.4,0.5-1.4,1.1    c0,0.6,0.6,1.1,1.4,1.1c0.3,0,0.6-0.1,0.9-0.2l4.6-0.2c0.1,2.8,1.2,5.3,2.9,7.3l-3.3,3.1c-0.3,0.2-0.6,0.4-0.8,0.6    c-0.6,0.6-0.7,1.3-0.3,1.8c0.4,0.4,1.2,0.3,1.8-0.3c0.2-0.2,0.4-0.5,0.6-0.8l3.1-3.3c1.9,1.8,4.5,3,7.3,3.2l-0.1,4.4    c-0.1,0.3-0.1,0.7-0.1,0.9c0,0.8,0.5,1.4,1,1.4c0,0,0,0,0,0V35.6C30,35.5,28.5,34,28.5,32.1z M31.2,21.8l0.2,5.6    c-0.9,0.1-1.7,0.5-2.4,1l-3.8-4.1C26.9,22.9,28.9,22,31.2,21.8z M24.3,25.3l4.1,3.8c-0.6,0.7-0.9,1.5-1.1,2.4l-5.6-0.2    C21.9,29,22.8,26.9,24.3,25.3z M21.7,32.6l5.6-0.2c0.1,0.9,0.4,1.8,0.9,2.5l-4.1,3.8C22.7,37.1,21.8,34.9,21.7,32.6z M31.1,42.4    c-2.3-0.2-4.5-1.2-6.1-2.7l3.8-4.1c0.7,0.6,1.5,1,2.5,1.2L31.1,42.4z"/></g></g><g class="st0"><path class="st21" d="M62.3,32c0,16.7-13.6,30.3-30.3,30.3C15.2,62.3,1.7,48.8,1.7,32C1.7,15.3,15.2,1.7,32,1.7   C48.8,1.7,62.3,15.3,62.3,32z"/><g class="st2"><path class="st33" d="M29.2,32c-0.2,3.5-3.6,8.7-10.2,8.7c-4.7,0-8.5-2.8-8.5-6.3s-2-7.9,8.5-8.6C23.7,25.4,29.4,27.7,29.2,32z"/><path class="st33" d="M54,32.6c-0.2,3.5-3.6,8.7-10.2,8.7c-4.7,0-8.5-2.8-8.5-6.3c0-3.5-2-7.9,8.5-8.6C48.6,26,54.2,28.3,54,32.6z    "/><path class="st32" d="M56.1,30.1c-0.4-0.1-1.2-0.7-1.5-1c-0.5-1-1.3-1.8-2.5-2.3c-1.9-0.9-4-1.3-6.4-1.4c-3.2-0.1-6.3,0.7-8.5,1.5    c-6.1,1.4-10.2-0.2-10.3-0.2c-2.1-0.9-5.2-1.8-8.4-1.8c-2.4,0-4.5,0.3-6.5,1.1c-1.1,0.5-2,1.2-2.5,2.2c-0.3,0.3-1.2,0.9-1.6,1    L8,31.7c0,0,0.4,0.1,0.9,0.4c0,0.2,0,0.5,0.1,0.7c0.4,2.8,1.4,5.2,2.5,6.1c1.6,1.3,4.8,2.8,8.3,2.9c1.6,0,3-0.2,4.4-0.8    c3.1-1.3,5-4.8,5.7-7.4c2.2-3.2,4.3,0.1,4.3,0.1c0.6,2.6,2.4,6.2,5.4,7.6c1.3,0.6,2.8,0.9,4.4,1c3.5,0.1,6.7-1.3,8.4-2.6    c1.1-0.8,2.2-3.2,2.7-6c0-0.3,0.1-0.5,0.1-0.8c0.4-0.2,0.8-0.3,0.8-0.3L56.1,30.1z M28.2,33.2c-0.6,2.3-2.2,5.4-4.8,6.4    c-1.1,0.5-2.4,0.7-3.7,0.7c-2.9-0.1-5.7-1.3-7.3-2.5c-0.6-0.4-1.5-2.3-1.9-5.1c-0.4-2.8,0.3-4.4,2.2-5.2c1.7-0.7,3.6-1.1,5.8-1    c4.4,0.1,8.5,1.8,9.5,2.7C28.5,29.5,28.8,31,28.2,33.2z M53.4,33.3c-0.5,2.8-1.5,4.6-2.1,5.1c-1.6,1.2-4.5,2.3-7.3,2.3    c-1.3,0-2.6-0.3-3.7-0.8c-2.5-1.1-4-4.3-4.5-6.6c-0.5-2.2-0.2-3.6,0.3-4c1-0.9,5.2-2.5,9.6-2.4c2.1,0,4.1,0.4,5.7,1.2    C53.2,28.9,53.8,30.6,53.4,33.3z"/><path class="st29" d="M18.5,26.4c-2.1,0-4.1,0.3-5.8,1c-1.9,0.8-2.6,2.4-2.2,5.2c0.4,2.8,1.4,4.7,1.9,5.1c1.5,1.2,4.4,2.5,7.3,2.5    c1.3,0,2.6-0.2,3.7-0.7c2.6-1.1,4.2-4.1,4.8-6.4c0.6-2.1,0.3-3.6-0.2-4C27,28.2,22.9,26.5,18.5,26.4z"/><path class="st29" d="M51.4,28.1c-1.7-0.8-3.6-1.2-5.7-1.2c-4.4-0.1-8.6,1.5-9.6,2.4c-0.5,0.4-0.8,1.9-0.3,4    c0.5,2.3,2,5.4,4.5,6.6c1.1,0.5,2.4,0.8,3.7,0.8c2.9,0.1,5.8-1.1,7.3-2.3c0.6-0.4,1.6-2.3,2.1-5.1C53.8,30.6,53.2,28.9,51.4,28.1z    "/><path class="st7" d="M26.9,26.7c-2.1-0.9-5.2-1.8-8.4-1.8c-2.4,0-4.5,0.3-6.5,1.1c-1.1,0.5-2,1.2-2.5,2.2c-0.3,0.3-1.2,0.9-1.6,1    L8,31.7c0,0,0.4,0.1,0.9,0.4c0,0.2,0,0.5,0.1,0.7c0.4,2.8,1.4,5.2,2.5,6.1c1.6,1.3,4.8,2.8,8.3,2.9c1.6,0,3-0.2,4.4-0.8    c3.1-1.3,5-4.8,5.7-7.4c0.8-1.1,1.5-1.4,2.2-1.4l0.1-4.6C28.9,27.5,26.9,26.7,26.9,26.7z M28.2,33.2c-0.6,2.3-2.2,5.4-4.8,6.4    c-1.1,0.5-2.4,0.7-3.7,0.7c-2.9-0.1-5.7-1.3-7.3-2.5c-0.6-0.4-1.5-2.3-1.9-5.1c-0.4-2.8,0.3-4.4,2.2-5.2c1.7-0.7,3.6-1.1,5.8-1    c4.4,0.1,8.5,1.8,9.5,2.7C28.5,29.5,28.8,31,28.2,33.2z"/><path class="st28" d="M12.6,33.2L12.6,33.2c-0.3,0-0.5-0.4-0.4-0.8c0.5-2.2,2.3-3.9,4.6-4.4c0.4-0.1,0.8,0.2,0.8,0.5l0,0    C17.2,31.9,15.6,33.4,12.6,33.2z"/><path class="st28" d="M12.6,33.2L12.6,33.2c-0.3,0-0.5-0.4-0.4-0.8c0.5-2.2,2.3-3.9,4.6-4.4c0.4-0.1,0.8,0.2,0.8,0.5l0,0    C17.2,31.9,15.6,33.4,12.6,33.2z"/><path class="st28" d="M52.1,33.6L52.1,33.6c0.3,0,0.5-0.4,0.5-0.8c-0.5-2.2-2.2-4-4.4-4.5c-0.4-0.1-0.8,0.1-0.8,0.4l0,0    C47.6,32.2,49.1,33.7,52.1,33.6z"/></g><path class="st34" d="M62.3,32c0,16.7-13.6,30.3-30.3,30.3C15.2,62.3,1.7,48.8,1.7,32C1.7,15.3,15.2,1.7,32,1.7   C48.8,1.7,62.3,15.3,62.3,32z"/></g><g class="st0"><path class="st1" d="M62.3,32c0,16.7-13.6,30.3-30.3,30.3C15.2,62.3,1.7,48.8,1.7,32C1.7,15.3,15.2,1.7,32,1.7   C48.8,1.7,62.3,15.3,62.3,32z"/><g class="st2"><circle class="st35" cx="22.8" cy="12.8" r="1"/><polygon class="st36" points="34.6,37.1 36.5,33.9 32.8,33.9 34.6,37.1 36.5,33.9 32.8,33.9   "/><polygon class="st36" points="34.6,39.5 36.5,36.3 32.8,36.3 34.6,39.5 36.5,36.3 32.8,36.3   "/><polygon class="st36" points="34.6,41.7 36.5,38.5 32.8,38.5 34.6,41.7 36.5,38.5 32.8,38.5   "/><polygon class="st36" points="34.6,43.9 36.5,40.7 32.8,40.7 34.6,43.9 36.5,40.7 32.8,40.7   "/><polygon class="st36" points="34.6,34.7 36.2,31.3 32.5,31.6 34.6,34.7 36.2,31.3 32.5,31.6   "/><polygon class="st36" points="34.4,32.8 35.9,29.4 32.2,29.8 34.4,32.8 35.9,29.4 32.2,29.8   "/><polygon class="st36" points="33.9,30.5 35,27 31.4,27.8 33.9,30.5 35,27 31.4,27.8   "/><polygon class="st36" points="33.2,28.5 34,24.9 30.4,26 33.2,28.5 34,24.9 30.4,26   "/><polygon class="st36" points="32.9,27.3 33.5,23.6 30,24.9 32.9,27.3 33.5,23.6 30,24.9   "/><polygon class="st36" points="31.7,24.4 31.9,20.7 28.6,22.3 31.7,24.4 31.9,20.7 28.6,22.3   "/><polygon class="st36" points="30.2,21.6 30.1,17.8 26.9,19.8 30.2,21.6 30.1,17.8 26.9,19.8   "/><polygon class="st36" points="28.9,19.8 28.7,16 25.6,18.1 28.9,19.8 28.7,16 25.6,18.1   "/><polygon class="st36" points="27.2,17.2 26.5,13.6 23.7,16 27.2,17.2 26.5,13.6 23.7,16   "/><polygon class="st36" points="25.2,15 24.3,11.4 21.6,14 25.2,15 24.3,11.4 21.6,14   "/><path class="st37" d="M32,10.8C32,10.8,32,10.9,32,10.8c-0.1,0.3-1,0.3-0.8,0.8c0.2,0.3,0.9,0,1.2,0c0.5-0.1,2.2-0.4,2.3,0.4    c-0.3,0.2-0.8,0-1,0.4c0.6,0.4,1.2,0.5,1.9,0.6c0.6,0.1,1.4,0,1.8,0.7c0,0.5-0.9,0.1-1.2,0.1c-0.4,0-0.8,0.3-1,0.6    c0.6,0.9,1.4,0.5,2,0.6c0.5,0.1,1.4,0.6,1.9,1.1c0.3,0.4,0.9,1.5,0.3,1.6c-0.5,0.1-1.3-1-1.8-0.9c0.2,0.4,0.9,0.9,0.5,1.4    c-0.7-0.5-1.4-0.8-2.1-1.2c-0.7-0.4-1.1-1.3-1.8-1.6c0.1,0.4,0.5,0.7,0.6,1.2c0.3,0.7-0.3,0.4-0.7,0.1c-0.7-0.5-1.3-1.7-2.2-1.8    c0,0.3,0.4,0.6,0.4,0.9c0,0.6-0.6,0-0.8-0.1c-0.4-0.3-0.7-0.7-1.1-1c-0.3-0.3-0.7-0.7-1.1-0.8c-0.5,0.4,0.3,0.6,0.3,0.9    c0.1,0.7-0.6,0.3-0.8,0.1c-0.6-0.5-1.2-1.1-2-1.4c-0.1,0.1-0.1,0.3-0.2,0.4c0.5,0.3,0.4,0.6-0.2,0.5c-0.5-0.1-1-0.2-1.4-0.3    c-0.8-0.2-2.8-0.8-1.9-2c0.4-0.5,1.1-0.9,1.6-1.2c0.3-0.1,0.6-0.3,0.9-0.3c0,0,0.5,0.1,0.5,0.1c0,0-0.1,0.1-0.2,0.1    c-0.1,0.2-0.1,0.4-0.2,0.6c0.8,0.1,1.4-0.5,2.1-0.9c0.3-0.2,0.7-0.4,1-0.3c0.5,0.3-0.4,0.4-0.6,0.6c-0.7,0.8,1.4,0.1,1.7,0.1    C30.4,10.8,31.9,10.4,32,10.8z"/><path class="st38" d="M30.8,16.4C30.8,16.4,30.8,16.5,30.8,16.4c-0.3,0.3-1-0.2-1,0.3c0,0.4,0.8,0.4,1,0.5    c0.4,0.1,2.2,0.6,1.9,1.2c-0.4,0-0.8-0.3-1.1,0c0.4,0.6,1,0.9,1.5,1.2c0.5,0.3,1.4,0.5,1.5,1.1c-0.2,0.4-1-0.2-1.3-0.2    c-0.4-0.1-0.9,0-1.3,0.2c0.2,0.9,1.2,0.8,1.8,1.1c0.5,0.2,1.3,0.9,1.6,1.4c0.3,0.4,0.5,1.4-0.2,1.4c-0.7,0-1.1-1-1.7-1.1    c0.1,0.4,0.6,1,0.1,1.3c-0.6-0.6-1.3-1-1.8-1.5c-0.5-0.5-0.6-1.4-1.1-1.9c-0.1,0.4,0.1,0.8,0.1,1.2c0,0.7-0.5,0.2-0.8-0.1    c-0.5-0.7-0.5-1.9-1.2-2.4c-0.2,0.3,0.1,0.7,0,1c-0.3,0.6-0.5-0.2-0.6-0.4c-0.2-0.5-0.3-0.9-0.5-1.4c-0.1-0.4-0.3-1-0.5-1.2    c-0.6,0.1,0,0.7-0.1,1c-0.2,0.6-0.6,0-0.7-0.3c-0.3-0.8-0.4-1.7-0.8-2.4c-0.1,0-0.2,0.2-0.3,0.2c0.2,0.6,0,0.8-0.4,0.3    c-0.3-0.4-0.6-0.8-0.9-1.2c-0.5-0.7-1.5-2.9-0.3-3.3c0.5-0.2,1.2,0,1.7,0.1c0.2,0.1,0.5,0.1,0.8,0.3c0,0,0.3,0.4,0.3,0.4    c0,0-0.1,0-0.2,0c-0.1,0.1-0.3,0.3-0.4,0.4c0.5,0.6,1.2,0.5,1.9,0.5c0.3,0,0.8,0,0.9,0.4c0.2,0.5-0.4,0.1-0.7,0.2    c-0.9,0.3,1,0.9,1.3,1C29.4,15.6,30.9,16.1,30.8,16.4z"/><path class="st37" d="M30.7,16.5C30.7,16.5,30.7,16.5,30.7,16.5c-0.3,0.3-1-0.2-1,0.3c0,0.4,0.8,0.4,1,0.5    c0.4,0.1,2.2,0.6,1.9,1.2c-0.4,0-0.8-0.3-1.1,0c0.4,0.6,1,0.9,1.5,1.2c0.5,0.3,1.4,0.5,1.5,1.1c-0.2,0.4-1-0.2-1.3-0.2    c-0.4-0.1-0.9,0-1.3,0.2c0.2,0.9,1.2,0.8,1.8,1.1c0.5,0.2,1.3,0.9,1.6,1.4c0.3,0.4,0.5,1.4-0.2,1.4c-0.7,0-1.1-1-1.7-1.1    c0.1,0.4,0.6,1,0.1,1.3c-0.6-0.6-1.3-1-1.8-1.5c-0.5-0.5-0.6-1.4-1.1-1.9c-0.1,0.4,0.1,0.8,0.1,1.2c0,0.7-0.5,0.2-0.8-0.1    c-0.5-0.7-0.5-1.9-1.2-2.4c-0.2,0.3,0.1,0.7,0,1c-0.3,0.6-0.5-0.2-0.6-0.4c-0.2-0.5-0.3-0.9-0.5-1.4c-0.1-0.4-0.3-1-0.5-1.2    c-0.6,0.1,0,0.7-0.1,1c-0.2,0.6-0.6,0-0.7-0.3c-0.3-0.8-0.4-1.7-0.9-2.4c-0.1,0-0.2,0.2-0.3,0.2c0.2,0.6,0,0.8-0.4,0.3    c-0.3-0.4-0.6-0.8-0.9-1.2c-0.5-0.7-1.5-2.9-0.3-3.3c0.5-0.2,1.2,0,1.7,0.1c0.2,0.1,0.5,0.1,0.8,0.3c0,0,0.3,0.4,0.3,0.4    c0,0-0.1,0-0.2,0c-0.1,0.1-0.3,0.3-0.4,0.4c0.5,0.6,1.2,0.5,1.9,0.5c0.3,0,0.8,0,0.9,0.4c0.2,0.5-0.4,0.1-0.7,0.2    c-0.9,0.3,1,0.9,1.3,1C29.3,15.7,30.8,16.1,30.7,16.5z"/><path class="st38" d="M20.5,21.1C20.5,21.1,20.5,21.1,20.5,21.1c0.4,0,0.6-0.9,1-0.5c0.3,0.2-0.3,0.9-0.4,1.1    c-0.2,0.4-1.1,2-0.4,2.2c0.3-0.2,0.3-0.8,0.8-0.8c0.1,0.7,0,1.3-0.2,2c-0.1,0.6-0.6,1.3-0.3,1.9c0.4,0.1,0.6-0.8,0.7-1.1    c0.2-0.4,0.6-0.7,1-0.8c0.5,0.8-0.3,1.5-0.5,2.1c-0.2,0.5-0.3,1.5-0.2,2.1c0.1,0.4,0.6,1.3,1.1,0.8c0.5-0.5,0-1.5,0.4-2    c0.2,0.3,0.3,1.1,0.9,0.9c0-0.8,0.2-1.6,0.2-2.4c0-0.8-0.6-1.4-0.6-2.2c0.3,0.2,0.5,0.6,0.8,0.9c0.5,0.4,0.5-0.2,0.4-0.6    c-0.2-0.8-1-1.7-0.9-2.5c0.3,0.1,0.5,0.6,0.7,0.7c0.6,0.2,0.2-0.5,0.1-0.7c-0.2-0.5-0.4-0.9-0.6-1.3c-0.2-0.3-0.5-0.9-0.5-1.2    c0.5-0.4,0.5,0.5,0.8,0.6c0.6,0.3,0.4-0.4,0.2-0.8c-0.4-0.8-0.9-1.5-1.1-2.3c0.1,0,0.3-0.1,0.4,0c0.2,0.6,0.6,0.6,0.5-0.1    c-0.1-0.5-0.2-1-0.3-1.5c-0.2-0.8-1-3.1-2.2-2.5c-0.5,0.2-0.9,0.8-1.1,1.3c-0.1,0.2-0.3,0.5-0.3,0.8c0,0,0.1,0.5,0.1,0.5    c0,0,0.1-0.1,0.1-0.1c0.2,0,0.4,0,0.6,0c0.1,0.8-0.5,1.2-1,1.7c-0.2,0.2-0.5,0.6-0.4,0.9c0.2,0.5,0.4-0.2,0.7-0.4    c0.9-0.4-0.1,1.4-0.2,1.7C20.9,19.5,20.2,20.9,20.5,21.1z"/><path class="st37" d="M20.4,21.1c0,0,0.1,0,0.1,0c0.3,0,0.5-0.9,0.9-0.5c0.3,0.2-0.3,0.9-0.4,1.1c-0.2,0.4-1.1,2-0.4,2.2    c0.3-0.2,0.3-0.8,0.8-0.8c0.1,0.7,0,1.3-0.2,2c-0.1,0.6-0.6,1.3-0.3,1.9c0.4,0.1,0.6-0.8,0.7-1.1c0.2-0.4,0.6-0.7,1-0.8    c0.5,0.8-0.3,1.5-0.5,2.1c-0.2,0.5-0.3,1.5-0.2,2.1c0.1,0.4,0.6,1.3,1.1,0.8c0.5-0.5,0-1.5,0.4-2c0.2,0.3,0.3,1.1,0.9,0.9    c0-0.8,0.2-1.6,0.2-2.4c0-0.8-0.6-1.4-0.6-2.2c0.3,0.2,0.5,0.6,0.8,0.9c0.5,0.4,0.5-0.2,0.4-0.6c-0.2-0.8-1-1.7-0.9-2.5    c0.3,0.1,0.5,0.6,0.7,0.7c0.6,0.2,0.2-0.5,0.1-0.7c-0.2-0.5-0.4-0.9-0.6-1.3c-0.2-0.3-0.5-0.9-0.5-1.2c0.5-0.4,0.5,0.5,0.8,0.6    c0.6,0.3,0.4-0.4,0.2-0.8c-0.4-0.8-0.9-1.5-1.1-2.3c0.1,0,0.3-0.1,0.4-0.1c0.2,0.6,0.6,0.6,0.5-0.1c-0.1-0.5-0.2-1-0.3-1.5    c-0.2-0.8-1-3.1-2.2-2.5c-0.5,0.2-0.9,0.8-1.1,1.3C21.1,14.5,21,14.7,21,15c0,0,0.1,0.5,0.1,0.5c0,0,0.1-0.1,0.1-0.1    c0.2,0,0.4,0,0.6-0.1c0.1,0.8-0.5,1.2-1,1.8c-0.2,0.2-0.5,0.6-0.4,0.9c0.2,0.5,0.4-0.2,0.7-0.4c0.9-0.4-0.1,1.4-0.2,1.7    C20.7,19.5,20.1,20.9,20.4,21.1z"/><g><path class="st38" d="M16.6,17.4C16.6,17.4,16.6,17.4,16.6,17.4c0.3,0.1,1-0.6,1.1-0.2c0.1,0.3-0.7,0.7-0.9,0.9     c-0.4,0.3-2,1.7-1.6,2.1c0.4-0.2,0.7-0.7,1.1-0.7c-0.3,0.7-0.8,1.3-1.3,1.9c-0.4,0.5-1.3,1.3-1.2,1.9c0.3,0.1,0.9-0.8,1.2-1.1     c0.4-0.3,0.9-0.6,1.3-0.5c0,0.9-1,1.3-1.6,2c-0.5,0.5-1.1,1.6-1.3,2.2c-0.2,0.5-0.2,1.4,0.6,0.9c0.7-0.4,0.9-1.5,1.4-1.9     c0,0.4-0.4,1.1,0.3,1.2c0.4-0.8,1.1-1.4,1.5-2.1c0.4-0.7,0.2-1.5,0.7-2.2c0.2,0.4,0.1,0.8,0.2,1.2c0.2,0.6,0.6,0.1,0.7-0.3     c0.3-0.8,0-2,0.6-2.6c0.2,0.3,0.1,0.8,0.3,1c0.4,0.6,0.5-0.2,0.5-0.5c0.1-0.5,0.1-1,0.2-1.5c0-0.4,0-1,0.2-1.3     c0.6,0.1,0.2,0.7,0.3,1c0.3,0.7,0.6,0.1,0.6-0.3c0.1-0.9,0-1.8,0.3-2.6c0.1,0.1,0.2,0.2,0.3,0.3c-0.1,0.6,0.2,0.9,0.4,0.4     c0.2-0.4,0.4-0.8,0.5-1.2c0.3-0.7,0.7-3-0.4-3.7c-0.5-0.3-1.1-0.1-1.5,0c-0.2,0.1-0.5,0.2-0.7,0.4c0,0-0.2,0.5-0.2,0.5     c0,0,0.1,0,0.2,0c0.2,0.1,0.3,0.2,0.5,0.4c-0.4,0.7-1.1,0.6-1.8,0.8c-0.3,0.1-0.8,0.2-0.8,0.6c-0.1,0.5,0.5,0,0.8,0     c1,0.1-0.8,1.1-1.1,1.4C17.8,16,16.4,17.1,16.6,17.4z"/></g><path class="st37" d="M16.5,17.3C16.5,17.4,16.6,17.4,16.5,17.3c0.3,0.1,1-0.6,1.1-0.2c0.1,0.3-0.7,0.7-0.9,0.9    c-0.4,0.3-2,1.7-1.6,2.1c0.4-0.2,0.7-0.7,1.1-0.7c-0.3,0.7-0.7,1.3-1.2,1.9c-0.4,0.5-1.3,1.3-1.2,1.9c0.3,0.1,0.9-0.8,1.2-1.1    c0.4-0.3,0.9-0.6,1.3-0.5c0,0.9-1,1.3-1.6,2c-0.5,0.5-1.1,1.6-1.3,2.2c-0.2,0.5-0.2,1.4,0.6,0.9c0.7-0.4,0.9-1.5,1.4-1.9    c0,0.4-0.4,1.1,0.3,1.2c0.4-0.8,1.1-1.4,1.5-2.1c0.4-0.7,0.2-1.5,0.7-2.2c0.2,0.4,0.1,0.8,0.2,1.2c0.2,0.6,0.6,0.1,0.7-0.3    c0.3-0.8,0-2,0.6-2.6c0.2,0.3,0.1,0.8,0.3,1c0.4,0.6,0.5-0.2,0.5-0.5c0.1-0.5,0.1-1,0.2-1.5c0-0.4,0-1,0.2-1.3    c0.6,0.1,0.2,0.7,0.3,1c0.3,0.7,0.6,0.1,0.6-0.3c0.1-0.9,0-1.8,0.3-2.6c0.1,0.1,0.2,0.2,0.3,0.3c-0.1,0.6,0.2,0.9,0.4,0.4    c0.2-0.4,0.4-0.8,0.5-1.2c0.3-0.7,0.7-3-0.4-3.7c-0.5-0.3-1.1-0.1-1.5,0c-0.2,0.1-0.5,0.2-0.7,0.4c0,0-0.2,0.5-0.2,0.5    c0,0,0.1,0,0.2,0c0.2,0.1,0.3,0.2,0.5,0.4c-0.4,0.7-1.1,0.6-1.8,0.8c-0.3,0.1-0.8,0.2-0.8,0.6c-0.1,0.5,0.5,0,0.8,0    c1,0.1-0.8,1.1-1.1,1.4C17.7,16,16.3,17.1,16.5,17.3z"/><path class="st39" d="M46.6,45.7c-1.6-0.2-2.8-1-4.1-1.8c-1.6-0.8-2.9-0.8-4.6-0.9c-1.1-0.1-2-0.9-3.1-1.2    c-0.4-0.1-0.4,0.2-0.6,0.5c-0.1,0.2-0.4,0.4-0.7,0.5c-0.6,0.3-1.3,0.5-2,0.5c-1.4,0.2-2.9,0-4.2,0.6c-0.6,0.3-1.3,0.6-2,0.7    c-0.6,0.1-1.5-0.3-2.1,0c-0.7,0.4-0.5,1.1-0.9,1.7c-0.3,0.4-1.2,0.8-1.6,1.1c2.2,1.3,5.4,0.8,8,0.8c2.7,0,5.4,0.1,8.1,0.1    c4.2,0,8.5,0.2,12.7,0C49.4,46.3,48.4,45.9,46.6,45.7z"/><path class="st40" d="M46.6,46.1c-1.6-0.2-2.8-0.9-4.1-1.5c-1.6-0.7-2.9-0.7-4.6-0.7c-1.1-0.1-2-0.8-3.1-1    c-0.4-0.1-0.4,0.2-0.6,0.4c-0.1,0.1-0.4,0.3-0.7,0.4c-0.6,0.3-1.3,0.4-2,0.5c-1.4,0.1-2.9,0-4.2,0.5c-0.6,0.2-1.3,0.5-2,0.5    c-0.6,0-1.5-0.3-2.1,0c-0.7,0.3-0.5,0.9-0.9,1.4c-0.3,0.4-1.2,0.5-1.6,0.7c2.2,1.1,5.4,0.8,8,0.8c2.7,0,5.4,0.1,8.1,0.1    c4.2,0,8.5,0.2,12.7,0C49.4,46.7,48.4,46.3,46.6,46.1z"/><path class="st41" d="M46.6,47.1c-1.6-0.1-2.8-0.5-4.1-0.8c-1.6-0.4-2.9-0.4-4.6-0.4c-1.1,0-2-0.4-3.1-0.5c-0.4,0-0.4,0.1-0.6,0.2    c-0.1,0.1-0.4,0.2-0.7,0.2c-0.6,0.2-1.3,0.2-2,0.2c-1.4,0.1-2.9,0-4.2,0.3c-0.6,0.1-1.3,0.3-2,0.3c-0.6,0-1.5-0.2-2.1,0    c-0.7,0.2-0.5,0.5-0.9,0.8c-0.3,0.2-1.2-0.2-1.6-0.1c1.6,1.2,5.4,0.9,8,0.9c2.7,0,5.4,0.1,8.1,0.1c4.2,0,8.5,0.1,12.7,0    C49.4,47.5,48.4,47.3,46.6,47.1z"/></g></g><g class="st0"><path class="st13" d="M62.3,32c0,16.7-13.6,30.3-30.3,30.3C15.2,62.3,1.7,48.8,1.7,32C1.7,15.2,15.2,1.7,32,1.7   C48.8,1.7,62.3,15.2,62.3,32z"/><g class="st2"><g><path class="st42" d="M32.6,23.6l0.6-0.6c0.5-0.5,0.5-1,0.1-1.4c-0.5-0.5-1.2-0.3-2.1,0.7l-1,1l-3.4-0.4l0.7-0.7     c0.5-0.5,0.5-0.9,0-1.3c-0.5-0.5-1.1-0.4-1.7,0.3l-1.4,1.4c-3.8-0.5-6-0.6-6.4-0.2c-0.2,0.2-0.3,0.5-0.4,0.9     c-0.1,0.4,0,0.7,0.2,0.9c0.2,0.2,0.9,0.4,2.2,0.7c1.3,0.3,3.4,0.9,6.4,2.1c3,1.1,4.8,1.9,5.2,2.3c0.3,0.3,0,0.8-0.8,1.7     c-2.7,2.8-4.5,4.9-5.5,6.4c-0.3,0-1-0.1-2.3-0.3c-1.3-0.2-2.1-0.3-2.5-0.2c-0.3,0.1-0.8,0.4-1.3,0.9c-0.3,0.3-0.4,0.5-0.4,0.7     c0.3,0.3,2,1.1,4.9,2.4c1.1,2.7,1.9,4.4,2.5,4.9c0.2,0,0.4-0.2,0.7-0.5c0.5-0.5,0.8-1,0.9-1.3c0.1-0.3,0-1.2-0.3-2.5     c-0.2-1.3-0.3-2.1-0.3-2.4c1.4-1,2.9-2.3,4.5-3.8c1.6-1.6,2.5-2.4,2.8-2.6c0.3-0.1,0.5-0.1,0.7,0c0.4,0.4,1.2,2.1,2.4,5.2     c1.2,3,1.9,5.2,2.2,6.4c0.3,1.3,0.5,2,0.7,2.2c0.2,0.2,0.5,0.2,0.9,0.2c0.4-0.1,0.7-0.2,0.9-0.4c0.4-0.4,0.3-2.6-0.3-6.4l1.4-1.4     c0.6-0.7,0.7-1.2,0.2-1.7c-0.4-0.4-0.9-0.4-1.3,0.1l-0.7,0.7L41,33.9l1-1c0.9-0.9,1.1-1.6,0.6-2.1c-0.4-0.4-0.9-0.4-1.4,0.1     l-0.6,0.6l-0.5-5.1l3-3.1c2.6-2.6,3.4-4.3,2.5-5.2c-0.3-0.3-1.1-0.1-2.4,0.7c-1.2,0.8-2.1,1.5-2.6,2l-3,3.1L32.6,23.6z"/><path class="st43" d="M42.6,19.9c0,0,0.2-0.1,0.5-0.2c0.1,0,0.3-0.1,0.5,0c0.2,0,0.4,0.1,0.6,0.3c0.2,0.2,0.3,0.4,0.3,0.6     c0,0.2,0,0.4,0,0.5c0,0.1-0.1,0.3-0.1,0.3c0,0.1-0.1,0.1-0.1,0.1s0-0.2-0.1-0.5c0-0.1-0.1-0.3-0.1-0.4c-0.1-0.1-0.1-0.3-0.2-0.3     c-0.2-0.2-0.5-0.3-0.8-0.3C42.8,19.9,42.6,19.9,42.6,19.9z"/></g><path class="st7" d="M45.7,18.2c-0.3-0.3-1.1-0.1-2.4,0.7c-1.2,0.8-2.1,1.5-2.6,2l-3,3.1l-5.1-0.4l0.6-0.6c0.5-0.5,0.5-1,0.1-1.4    c-0.5-0.5-1.2-0.3-2.1,0.7l-1,1l-3.4-0.4l0.7-0.7c0.5-0.5,0.5-0.9,0-1.3c-0.5-0.5-1.1-0.4-1.7,0.3l-1.4,1.4    c-3.8-0.5-6-0.6-6.4-0.2c-0.2,0.2-0.3,0.5-0.4,0.9c-0.1,0.4,0,0.7,0.2,0.9c0.2,0.2,0.9,0.4,2.2,0.7c1.3,0.3,3.4,0.9,6.4,2.1    c3,1.1,4.8,1.9,5.2,2.3c0.3,0.3,0,0.8-0.8,1.7c-2.7,2.8-4.5,4.9-5.5,6.4c-0.3,0-1-0.1-2.3-0.3c-1.3-0.2-2.1-0.3-2.5-0.2    c-0.3,0.1-0.8,0.4-1.3,0.9c-0.3,0.3-0.4,0.5-0.4,0.7c0.3,0.3,1.9,1.1,4.7,2.3l22.3-22.3C45.7,18.3,45.7,18.2,45.7,18.2z"/></g></g><g class="st0"><circle class="st21" cx="32" cy="32" r="30.3"/><g class="st2"><path class="st44" d="M46.9,31.5l-4.1,3.2l1.7,0c-0.1,0.2-0.3,0.3-0.4,0.5c-0.3,0.3-0.6,0.6-0.9,0.9c-0.2,0.1-0.3,0.3-0.5,0.4    c-0.1,0.1-0.2,0.1-0.3,0.2c-0.1,0.1-0.2,0.1-0.3,0.2c-0.2,0.1-0.4,0.3-0.6,0.4c-0.2,0.1-0.4,0.3-0.6,0.4c-0.4,0.3-0.9,0.5-1.3,0.8    c-0.2,0.1-0.5,0.2-0.7,0.3c-0.1,0.1-0.2,0.1-0.4,0.2c-0.1,0-0.2,0.1-0.4,0.1c-1,0.4-2,0.7-3.1,0.9c-0.3,0-0.5,0.1-0.8,0.1    c-0.3,0-0.6,0.1-0.8,0.1c-0.1,0-0.3,0-0.4,0l-0.1,0l-0.4-20.3l5.4-0.6l0-1l-5.4,0l0-2.2c0.7-0.3,1.1-0.9,1.1-1.7    c0-1-0.8-1.8-1.8-1.8c-1,0-1.8,0.8-1.8,1.8c0,0.7,0.4,1.4,1.1,1.6l-0.1,2.3l-5.2,0l0,1l5.1,0.6l0,0l-0.4,20.2l-0.1,0l-0.4,0    c-0.5,0-1.1-0.2-1.6-0.2c-1.1-0.3-2.1-0.6-3.1-1c-1-0.4-1.9-0.9-2.7-1.5c-0.8-0.5-1.5-1.1-2.2-1.7c-0.3-0.3-0.6-0.6-0.9-0.9    c-0.1-0.2-0.3-0.3-0.4-0.5l1.7,0l-4-3.3l0.6,5.2l0.9-1.5c0.1,0.2,0.3,0.5,0.4,0.7c0.2,0.4,0.5,0.7,0.8,1.1    c0.2,0.2,0.3,0.4,0.5,0.5c0.2,0.2,0.3,0.4,0.5,0.5c0.4,0.4,0.7,0.7,1.2,1.1c0.8,0.7,1.8,1.3,2.8,1.9c0.3,0.1,0.5,0.3,0.8,0.4    c0.3,0.1,0.6,0.2,0.9,0.3c0.6,0.2,1.2,0.4,1.8,0.6c0.6,0.1,1.2,0.3,1.9,0.3h0c1.3,1.1,1.9,3.4,1.9,3.4s0.5-2,2-3.4    c0.3,0,0.6-0.1,0.9-0.1c0.3-0.1,0.6-0.1,0.9-0.2c0.3-0.1,0.6-0.2,0.9-0.2c0.3-0.1,0.6-0.2,0.9-0.3c0.3-0.1,0.6-0.2,0.9-0.3    c0.3-0.1,0.5-0.3,0.8-0.4c0.1-0.1,0.3-0.1,0.4-0.2c0.1-0.1,0.3-0.1,0.4-0.2c0.3-0.1,0.5-0.3,0.7-0.4c0.5-0.3,0.9-0.6,1.3-1    c0.2-0.2,0.4-0.3,0.6-0.5c0.2-0.2,0.4-0.4,0.6-0.5c0.1-0.1,0.2-0.2,0.3-0.3c0.1-0.1,0.2-0.2,0.2-0.3c0.2-0.2,0.3-0.4,0.5-0.5    c0.3-0.4,0.6-0.7,0.8-1.1c0.2-0.2,0.3-0.5,0.4-0.7l0.9,1.5L46.9,31.5z M30.8,14.6c0-0.6,0.5-1,1-1c0.6,0,1,0.5,1,1    c0,0.5-0.4,0.9-0.9,1l-0.2,0C31.3,15.5,30.9,15.1,30.8,14.6z"/><path class="st38" d="M31.8,15.6c-0.5,0-0.9-0.5-0.9-1c0-0.6,0.5-1,1-1c0,0,0,0,0,0v-0.7c0,0,0,0,0,0c-1,0-1.8,0.8-1.8,1.8    c0,0.7,0.4,1.4,1.1,1.6l-0.1,2.3l-5.2,0l0,1l5.1,0.6l0,0l-0.4,20.2l-0.1,0l-0.4,0c-0.5,0-1.1-0.2-1.6-0.2c-1.1-0.3-2.1-0.6-3.1-1    c-1-0.4-1.9-0.9-2.7-1.5c-0.8-0.5-1.5-1.1-2.2-1.7c-0.3-0.3-0.6-0.6-0.9-0.9c-0.1-0.2-0.3-0.3-0.4-0.5l1.7,0l-4-3.3l0.6,5.2    l0.9-1.5c0.1,0.2,0.3,0.5,0.4,0.7c0.2,0.4,0.5,0.7,0.8,1.1c0.2,0.2,0.3,0.4,0.5,0.5c0.2,0.2,0.3,0.4,0.5,0.5    c0.4,0.4,0.7,0.7,1.2,1.1c0.8,0.7,1.8,1.3,2.8,1.9c0.3,0.1,0.5,0.3,0.8,0.4c0.3,0.1,0.6,0.2,0.9,0.3c0.6,0.2,1.2,0.4,1.8,0.6    c0.6,0.1,1.2,0.3,1.9,0.3h0c1.3,1.1,1.9,3.4,1.9,3.4s0-0.1,0.1-0.3v-30L31.8,15.6z"/></g><g class="st2"><g><path class="st10" d="M36.5,40.5c-0.1,0-0.2-0.1-0.1-0.3c0-0.2,0.1-0.4,0.3-0.4c0,0,0.2-0.1,0.3-0.1c0.2-0.1,0.3-0.2,0.3-0.2     c0.1-0.1,0.2,0.1,0.2,0.3c0,0.2-0.1,0.4-0.3,0.5c0,0-0.2,0.1-0.3,0.1C36.6,40.4,36.5,40.5,36.5,40.5z"/><path class="st10" d="M36.2,41.5c-0.1,0-0.2-0.1-0.1-0.3c0.1-0.2,0.2-0.3,0.3-0.4c0,0,0,0,0.1,0c0.1,0,0.1,0,0.2-0.1     c0.2,0,0.3-0.1,0.3-0.1c0.1,0,0.2,0.1,0.1,0.3c-0.1,0.2-0.2,0.4-0.3,0.4c0,0-0.2,0-0.3,0.1C36.3,41.5,36.2,41.5,36.2,41.5z"/><path class="st10" d="M35.7,42.5c-0.1,0-0.1-0.1-0.1-0.3c0.1-0.2,0.3-0.3,0.4-0.3c0,0,0.2,0,0.3,0c0.2,0,0.3,0,0.3,0     c0.1,0,0.2,0.1,0.1,0.3c-0.1,0.2-0.3,0.4-0.4,0.4c0,0-0.2,0-0.3,0c-0.1,0-0.2,0-0.2,0C35.7,42.5,35.7,42.5,35.7,42.5z"/><path class="st10" d="M35.1,43.4c-0.1,0-0.1-0.2,0-0.3c0.1-0.1,0.1-0.1,0.2-0.2c0.1,0,0.1-0.1,0.2-0.1c0,0,0.2,0,0.3,0     c0.2,0,0.4,0,0.4,0c0.1,0,0.1,0.2,0,0.3c-0.1,0.1-0.1,0.2-0.2,0.2c-0.1,0.1-0.2,0.1-0.2,0.1c0,0-0.2,0-0.3,0     C35.2,43.4,35.1,43.4,35.1,43.4z"/><path class="st10" d="M34.3,44.1c-0.1,0-0.1-0.2,0.1-0.3c0.2-0.1,0.3-0.2,0.5-0.2c0,0,0.2,0,0.3,0.1c0.1,0,0.2,0,0.2,0.1     c0.1,0,0.1,0,0.1,0c0.1,0,0.1,0.2-0.1,0.3c-0.2,0.2-0.4,0.3-0.5,0.2c0,0-0.2-0.1-0.3-0.1C34.4,44.1,34.3,44.1,34.3,44.1z"/><path class="st10" d="M33.4,44.7c-0.1-0.1-0.1-0.2,0.1-0.3c0.2-0.1,0.4-0.1,0.5-0.1c0,0,0.2,0.1,0.3,0.1c0.2,0.1,0.3,0.1,0.3,0.1     c0.1,0,0.1,0.2-0.1,0.3C34.3,45,34.1,45.1,34,45c0,0-0.2-0.1-0.3-0.2C33.5,44.8,33.4,44.7,33.4,44.7z"/><path class="st10" d="M32.4,45.2c-0.1-0.1,0-0.2,0.1-0.3c0.2-0.1,0.4-0.1,0.5,0c0,0,0.1,0.1,0.3,0.2c0.1,0.1,0.3,0.2,0.3,0.2     c0.1,0.1,0.1,0.2-0.1,0.3c-0.2,0.1-0.4,0.1-0.5,0c0,0-0.1-0.1-0.3-0.2C32.5,45.3,32.4,45.2,32.4,45.2z"/><path class="st10" d="M31.3,45.6c-0.1-0.1,0-0.2,0.2-0.3c0.2-0.1,0.4-0.1,0.5,0c0,0,0.1,0.1,0.3,0.2c0.1,0.1,0.3,0.2,0.3,0.2     c0.1,0.1,0,0.2-0.2,0.3c-0.2,0.1-0.4,0.1-0.5,0L31.3,45.6z"/><path class="st10" d="M30.3,46c-0.1-0.1,0-0.2,0.2-0.3c0.2-0.1,0.4-0.1,0.5,0l0.5,0.4c0.1,0.1,0,0.2-0.2,0.3     c-0.2,0.1-0.4,0.1-0.5,0L30.3,46z"/><path class="st10" d="M29.2,46.4c-0.1-0.1,0-0.2,0.2-0.3c0.2-0.1,0.4-0.1,0.5,0l0.5,0.4c0.1,0.1,0,0.2-0.2,0.3     c-0.2,0.1-0.4,0.1-0.5,0L29.2,46.4z"/><path class="st10" d="M28.2,46.8c-0.1-0.1,0-0.2,0.2-0.3c0.2-0.1,0.4-0.1,0.5,0l0.5,0.4c0.1,0.1,0,0.2-0.2,0.3     c-0.2,0.1-0.4,0.1-0.5,0c0,0-0.1-0.1-0.3-0.2C28.3,46.9,28.2,46.8,28.2,46.8z"/><path class="st10" d="M27.1,47.3c-0.1-0.1,0-0.2,0.2-0.3c0.2-0.1,0.4-0.1,0.5,0l0.5,0.4c0.1,0.1,0,0.2-0.2,0.3     c-0.2,0.1-0.4,0.1-0.5,0L27.1,47.3z"/><path class="st10" d="M26.1,47.8c-0.1-0.1,0-0.2,0.1-0.3c0.2-0.1,0.4-0.1,0.5,0c0,0,0.1,0.1,0.3,0.2c0.1,0.1,0.3,0.2,0.3,0.2     c0.1,0.1,0,0.2-0.1,0.3c-0.2,0.1-0.4,0.1-0.5,0L26.1,47.8z"/><path class="st10" d="M25.1,48.3c-0.1-0.1,0-0.2,0.1-0.3c0.2-0.1,0.4-0.1,0.5-0.1l0.6,0.4c0.1,0.1,0,0.2-0.1,0.3     c-0.2,0.1-0.4,0.1-0.5,0.1L25.1,48.3z"/><path class="st10" d="M24.1,48.9c-0.1-0.1-0.1-0.2,0.1-0.3c0.2-0.1,0.4-0.1,0.5-0.1l0.6,0.4c0.1,0.1,0,0.2-0.1,0.3     c-0.2,0.1-0.4,0.1-0.5,0.1L24.1,48.9z"/><path class="st10" d="M23.1,49.5c-0.1-0.1-0.1-0.2,0.1-0.3c0.2-0.1,0.4-0.1,0.5-0.1l0.6,0.3c0.1,0.1,0.1,0.2-0.1,0.3     c-0.2,0.1-0.4,0.1-0.5,0.1L23.1,49.5z"/><path class="st10" d="M36.6,39.4c-0.1,0.1-0.2-0.1-0.2-0.3c0-0.2,0.1-0.4,0.2-0.5c0,0,0.1-0.1,0.3-0.2c0.1,0,0.1-0.1,0.2-0.1     c0.1,0,0.1-0.1,0.1-0.1c0.1-0.1,0.2,0,0.2,0.3c0,0.2-0.1,0.4-0.2,0.5c0,0-0.2,0.1-0.3,0.2C36.8,39.3,36.6,39.4,36.6,39.4z"/><path class="st10" d="M36.6,38.3c-0.1,0.1-0.2,0-0.2-0.2c0-0.1,0-0.2,0-0.3c0-0.1,0.1-0.2,0.1-0.2c0,0,0.1-0.1,0.3-0.2     c0.1-0.1,0.3-0.2,0.3-0.2c0.1-0.1,0.2,0,0.2,0.2c0,0.1,0,0.2,0,0.3c0,0.1-0.1,0.2-0.1,0.2c0,0-0.1,0.1-0.3,0.2     C36.8,38.2,36.6,38.3,36.6,38.3z"/><path class="st10" d="M36.4,37.2c-0.1,0.1-0.2,0-0.3-0.2c-0.1-0.2,0-0.4,0-0.5c0,0,0.1-0.1,0.2-0.3c0.1-0.1,0.2-0.3,0.2-0.3     c0.1-0.1,0.2,0,0.3,0.2c0.1,0.2,0.1,0.5,0,0.5c0,0-0.1,0.1-0.2,0.3C36.6,37.1,36.4,37.2,36.4,37.2z"/><path class="st10" d="M36.1,36.2c-0.1,0.1-0.2,0-0.3-0.1c-0.1-0.2-0.1-0.4-0.1-0.5c0,0,0.1-0.2,0.1-0.3C35.9,35.1,36,35,36,35     c0-0.1,0.2-0.1,0.3,0.1c0,0,0.1,0.1,0.1,0.1c0,0.1,0,0.1,0,0.2c0,0.1,0,0.2,0,0.2c0,0-0.1,0.2-0.2,0.3     C36.2,36.1,36.1,36.2,36.1,36.2z"/><path class="st10" d="M35.5,35.3c0,0.1-0.1,0.1-0.1,0.1c-0.1,0-0.1-0.1-0.2-0.1c-0.1-0.2-0.2-0.4-0.2-0.5l0.2-0.7     c0-0.1,0.2-0.1,0.3,0.1c0.1,0.2,0.2,0.4,0.1,0.5c0,0-0.1,0.2-0.1,0.3C35.6,35.2,35.5,35.3,35.5,35.3z"/><path class="st10" d="M34.8,34.4c0,0.1-0.2,0.1-0.3-0.1c-0.1-0.2-0.2-0.4-0.2-0.5l0.3-0.6c0-0.1,0.2-0.1,0.3,0.1     c0.1,0.2,0.2,0.4,0.1,0.5L34.8,34.4z"/><path class="st10" d="M34.1,33.5c0,0.1-0.2,0.1-0.3-0.1c-0.1-0.2-0.2-0.4-0.1-0.5l0.3-0.6c0.1-0.1,0.2-0.1,0.3,0.1     c0.1,0.2,0.2,0.4,0.1,0.5L34.1,33.5z"/><path class="st10" d="M33.4,32.6c-0.1,0.1-0.2,0.1-0.3-0.1C33,32.4,32.9,32.1,33,32l0.3-0.6c0.1-0.1,0.2-0.1,0.3,0.1     c0.1,0.2,0.2,0.4,0.1,0.5L33.4,32.6z"/><path class="st10" d="M32.7,31.7c-0.1,0.1-0.2,0.1-0.3-0.1c-0.1-0.2-0.2-0.4-0.1-0.5c0,0,0.1-0.2,0.1-0.3     c0.1-0.2,0.1-0.3,0.1-0.3c0-0.1,0.2-0.1,0.3,0.1c0.1,0.2,0.2,0.4,0.1,0.5L32.7,31.7z"/><path class="st10" d="M32.1,30.8c0,0.1-0.2,0.1-0.3-0.1c-0.1-0.2-0.2-0.4-0.1-0.5c0,0,0.1-0.2,0.1-0.3c0.1-0.2,0.1-0.3,0.1-0.3     c0-0.1,0.2-0.1,0.3,0.1c0.1,0.2,0.2,0.4,0.2,0.5c0,0-0.1,0.2-0.1,0.3C32.1,30.6,32.1,30.8,32.1,30.8z"/><path class="st10" d="M31.4,29.9c0,0.1-0.2,0.1-0.3-0.1c-0.1-0.2-0.2-0.4-0.2-0.5l0.2-0.7c0-0.1,0.2-0.1,0.3,0.1     c0.1,0.2,0.2,0.4,0.2,0.5L31.4,29.9z"/><path class="st10" d="M30.6,29c0,0.1-0.2,0.1-0.3-0.1c-0.1-0.2-0.2-0.4-0.2-0.5c0,0,0.1-0.2,0.1-0.3c0.1-0.2,0.1-0.3,0.1-0.3     c0-0.1,0.2-0.1,0.3,0.1c0.1,0.2,0.2,0.4,0.2,0.5L30.6,29z"/><path class="st10" d="M29.9,28.2c0,0.1-0.2,0.1-0.3-0.1c-0.1-0.2-0.2-0.4-0.1-0.5c0,0,0.1-0.2,0.1-0.3c0.1-0.2,0.2-0.3,0.2-0.3     c0.1-0.1,0.2-0.1,0.3,0.1c0.1,0.2,0.2,0.4,0.1,0.5c0,0-0.1,0.2-0.1,0.3C30,28,29.9,28.2,29.9,28.2z"/><path class="st10" d="M29.2,27.2c-0.1,0.1-0.2,0.1-0.3-0.1c-0.1-0.2-0.1-0.4-0.1-0.5c0,0,0.1-0.1,0.2-0.3     c0.1-0.1,0.2-0.3,0.2-0.3c0.1-0.1,0.2,0,0.3,0.1c0.1,0.2,0.1,0.4,0,0.5c0,0-0.1,0.1-0.2,0.3C29.3,27.1,29.2,27.2,29.2,27.2z"/><path class="st10" d="M28.7,26.2c-0.1,0.1-0.2,0-0.3-0.2c-0.1-0.2,0-0.5,0-0.6c0,0,0.1-0.1,0.2-0.2c0.1-0.1,0.3-0.2,0.3-0.2     c0.1-0.1,0.2,0,0.2,0.2c0,0.2,0,0.4-0.1,0.5c0,0-0.1,0.1-0.2,0.3C28.8,26,28.7,26.2,28.7,26.2z"/><path class="st10" d="M28.3,25c-0.1,0.1-0.2,0-0.2-0.3c0-0.2,0.1-0.4,0.2-0.5c0,0,0.1-0.1,0.3-0.2c0.1-0.1,0.3-0.2,0.3-0.2     c0.1-0.1,0.2,0.1,0.2,0.2c0,0.2-0.1,0.4-0.2,0.5c0,0-0.1,0.1-0.3,0.2C28.5,24.9,28.3,25,28.3,25z"/><path class="st10" d="M28.3,23.8c-0.1,0.1-0.2-0.1-0.2-0.3c0-0.1,0-0.2,0.1-0.3c0-0.1,0.1-0.2,0.2-0.2c0,0,0.2-0.1,0.3-0.1     c0.1,0,0.2,0,0.2-0.1c0.1,0,0.1,0,0.1,0c0.1,0,0.2,0.1,0.1,0.3c0,0.1-0.1,0.2-0.1,0.2c0,0.1-0.1,0.1-0.2,0.2c0,0-0.2,0.1-0.3,0.1     C28.4,23.7,28.3,23.8,28.3,23.8z"/><path class="st10" d="M28.5,22.6c-0.1,0-0.2-0.1-0.1-0.3c0-0.1,0.1-0.2,0.2-0.3c0.1-0.1,0.2-0.1,0.2-0.1c0,0,0.2,0,0.3,0     c0.2,0,0.3,0.1,0.3,0.1c0.1,0,0.1,0.2,0,0.3c0,0.1-0.1,0.1-0.2,0.2c-0.1,0-0.1,0.1-0.2,0.1c0,0,0,0-0.1,0c-0.1,0-0.2,0-0.2,0     C28.6,22.6,28.5,22.6,28.5,22.6z"/><path class="st10" d="M29.1,21.5c-0.1,0-0.1-0.2,0.1-0.3c0.2-0.2,0.4-0.2,0.5-0.2c0,0,0,0,0.1,0c0.1,0,0.1,0.1,0.2,0.1     c0.2,0.1,0.3,0.1,0.3,0.1c0.1,0.1,0.1,0.2-0.1,0.3c-0.1,0.1-0.3,0.2-0.5,0.1c0,0-0.2-0.1-0.3-0.1C29.2,21.5,29.1,21.5,29.1,21.5z     "/><path class="st10" d="M30,20.7c-0.1-0.1-0.1-0.2,0.1-0.3c0.2-0.1,0.4-0.1,0.5-0.1c0,0,0.1,0.1,0.3,0.2c0.1,0.1,0.3,0.2,0.3,0.2     c0.1,0.1,0,0.2-0.1,0.3c-0.2,0.1-0.4,0.1-0.5,0.1c0,0-0.2-0.1-0.3-0.2C30.1,20.8,30,20.7,30,20.7z"/><path class="st10" d="M31,20.2c-0.1-0.1,0-0.2,0.1-0.3c0.2-0.1,0.4-0.1,0.5-0.1l0.6,0.4c0.1,0.1,0,0.2-0.1,0.3     c-0.2,0.1-0.4,0.1-0.5,0L31,20.2z"/><path class="st10" d="M32,19.6c-0.1-0.1-0.1-0.2,0.1-0.3c0.1-0.1,0.4-0.1,0.5-0.1c0,0,0.2,0.1,0.3,0.1c0.2,0.1,0.3,0.1,0.3,0.1     c0.1,0,0.1,0.2-0.1,0.3C33,19.9,32.7,20,32.6,20c0,0-0.2-0.1-0.3-0.2C32.1,19.7,32,19.6,32,19.6z"/><path class="st10" d="M32.8,19c-0.1,0-0.1-0.2,0-0.3c0.1-0.1,0.3-0.2,0.4-0.2c0,0,0.2,0,0.3,0.1c0.2,0,0.3,0,0.3,0     c0.1,0,0.1,0.2,0,0.3c-0.1,0.2-0.4,0.3-0.5,0.3c0,0-0.2,0-0.3-0.1C33,19,32.8,19,32.8,19z"/><path class="st10" d="M33.6,18.2c-0.1,0-0.1-0.2,0-0.3c0.1-0.2,0.3-0.3,0.4-0.3c0,0,0.2,0,0.3,0c0.2,0,0.3,0,0.3,0     c0.1,0,0.2,0.1,0,0.3c-0.1,0.2-0.3,0.3-0.4,0.3c0,0-0.2,0-0.3,0C33.7,18.2,33.6,18.2,33.6,18.2z"/><path class="st10" d="M34.1,17.3c-0.1,0-0.2-0.1-0.1-0.3c0.1-0.2,0.2-0.3,0.3-0.4c0,0,0.2,0,0.3-0.1c0.2-0.1,0.3-0.1,0.3-0.1     c0.1-0.1,0.2,0.1,0.1,0.3c0,0.2-0.2,0.4-0.3,0.5c0,0-0.2,0-0.3,0.1C34.3,17.3,34.1,17.3,34.1,17.3z"/><path class="st10" d="M34.4,16.3c-0.1,0-0.2-0.1-0.2-0.2c0-0.2,0-0.3,0.1-0.4c0,0,0.1-0.1,0.2-0.2c0.1-0.1,0.2-0.3,0.2-0.3     c0.1-0.1,0.2,0,0.3,0.2c0.1,0.1,0.1,0.3,0,0.4c0,0.1-0.1,0.2-0.1,0.2c0,0-0.1,0.1-0.3,0.2C34.5,16.2,34.4,16.3,34.4,16.3z"/><path class="st10" d="M34.2,15.3c-0.1,0.1-0.2,0.1-0.3-0.1c-0.1-0.1-0.2-0.3-0.1-0.4c0,0,0,0,0-0.1c0-0.1,0-0.2,0-0.2     c0-0.2,0-0.4,0-0.4c0-0.1,0.2-0.1,0.4,0c0.2,0.2,0.3,0.4,0.3,0.5c0,0,0,0.2-0.1,0.3C34.3,15.2,34.2,15.3,34.2,15.3z"/></g><path class="st3" d="M22.2,50.3c0,0,0.3-0.4,0.4-0.5c0,0-0.3,0-0.3,0s0.4-0.1,0.4-0.2l0,0c0.2-0.1,0.4-0.1,0.4,0l0.5,0.3    c0.1,0.1,0.1,0.2-0.1,0.3l0,0c-0.1,0-0.3,0.3-0.3,0.3s0-0.2-0.1-0.2c0,0-0.2,0.2-0.2,0.2l0-0.2l-0.3,0.1l0.1-0.2l-0.4,0.2l0.3-0.3    l-0.4,0.1l0.2-0.3L22.2,50.3z"/></g></g><g class="st0"><circle class="st1" cx="32" cy="32" r="30.3"/><g class="st2"><rect class="st10" height="1.1" width="22.3" x="20.8" y="37.8"/><path class="st45" d="M43.1,39H20.8c0,0,8.8,5,9,9.3c0.1,1.1,4.2,1.1,4.2,0C34.1,44,43.1,39,43.1,39z"/><path class="st7" d="M20.8,37.8V39c0,0,8.8,5,9,9.3c0,0.5,1.1,0.8,2.1,0.8V37.8H20.8z"/></g><g class="st2"><g><path class="st10" d="M38.1,18.6c0-0.1-3.4-9.5-6.1-9.5c0,0,0,0,0,0c-2.7,0-6.1,9.4-6.1,9.5l-0.3-0.1c0.1-0.4,3.4-9.7,6.4-9.7     c0,0,0,0,0,0c2.9,0,6.3,9.3,6.4,9.7L38.1,18.6z"/></g><g><path class="st10" d="M33.9,27.6c-2.1-1.5-3.1-0.1-3.2,0l-0.2-0.2c0,0,1.3-1.7,3.6,0L33.9,27.6z"/></g><path class="st45" d="M38.1,18.2c0,0-6.7,7-5.4,9.3c1.3,2.3,9.4,2.3,10.7,0C44.8,25.2,38.1,18.2,38.1,18.2z"/><path class="st46" d="M25.6,18.5l0.3,0.1c0-0.1,3.4-9.4,6.1-9.5V8.8C29,8.8,25.7,18.1,25.6,18.5z"/><path class="st45" d="M25.8,18.2c0,0-6.7,7-5.4,9.3c1.3,2.3,9.4,2.3,10.7,0C32.5,25.2,25.8,18.2,25.8,18.2z"/><path class="st7" d="M25.8,18.2c0,0-6.7,7-5.4,9.3c1.3,2.3,9.4,2.3,10.7,0C32.5,25.2,25.8,18.2,25.8,18.2z"/></g></g><g class="st0"><circle class="st21" cx="32" cy="32" r="30.3"/><g class="st2"><g><path class="st10" d="M29.1,16.5c0,0.1-0.1,0.2-0.2,0.2h-3.4c-0.1,0-0.2-0.1-0.2-0.2v-0.7c0-0.1,0.1-0.2,0.2-0.2h3.4     c0.1,0,0.2,0.1,0.2,0.2V16.5z"/><path class="st47" d="M30.9,17.8c0,0.2-0.2,0.3-0.3,0.3h-6.8c-0.2,0-0.3-0.2-0.3-0.3v-1.4c0-0.2,0.2-0.3,0.3-0.3h6.8     c0.2,0,0.3,0.1,0.3,0.3V17.8z"/><path class="st10" d="M47.1,40.4c0,3.7-3,6.7-6.7,6.7H23.7c-3.7,0-6.7-3-6.7-6.7V23.7c0-3.7,3-6.7,6.7-6.7h16.7     c3.7,0,6.7,3,6.7,6.7V40.4z"/><g><path class="st24" d="M40.5,32c0,4.7-3.8,8.5-8.5,8.5c-4.7,0-8.5-3.8-8.5-8.5s3.8-8.5,8.5-8.5C36.7,23.5,40.5,27.3,40.5,32z"/><path class="st48" d="M32,40.3c-4.6,0-8.3-3.7-8.3-8.3c0-4.6,3.7-8.3,8.3-8.3c4.6,0,8.3,3.7,8.3,8.3      C40.3,36.6,36.6,40.3,32,40.3z"/><path class="st24" d="M32,40.1c-4.5,0-8.1-3.6-8.1-8.1c0-4.5,3.6-8.1,8.1-8.1c4.5,0,8.1,3.6,8.1,8.1      C40.1,36.5,36.5,40.1,32,40.1z"/><path class="st47" d="M32,39.1c-3.9,0-7-3.2-7-7c0-3.9,3.2-7,7-7c3.9,0,7,3.2,7,7C39,35.9,35.9,39.1,32,39.1z"/><path class="st48" d="M27.3,27.5c-2.4,2.2-1.5,5.2-1,5.7c0.5,0.4,0.9-2.4,2.5-4.1c1.6-1.8,3.5-2.5,3-2.9      C31.2,25.7,29.5,25.5,27.3,27.5z"/><path class="st17" d="M40.6,37.8c0,0.4-0.3,0.7-0.7,0.7c-0.4,0-0.7-0.3-0.7-0.7c0-0.4,0.3-0.7,0.7-0.7      C40.3,37.1,40.6,37.4,40.6,37.8z"/><path class="st49" d="M33.8,32c0,1-0.8,1.8-1.8,1.8l0,0c-1,0-1.8-0.8-1.8-1.8l0,0c0-1,0.8-1.8,1.8-1.8l0,0      C33,30.2,33.8,31,33.8,32L33.8,32z"/><path class="st10" d="M32.7,32c0,0.4-0.3,0.7-0.7,0.7l0,0c-0.4,0-0.7-0.3-0.7-0.7l0,0c0-0.4,0.3-0.7,0.7-0.7l0,0      C32.4,31.3,32.7,31.6,32.7,32L32.7,32z"/></g><path class="st50" d="M42.3,22.3c0,0.3-0.1,0.6-0.3,0.6h-4.3c-0.1,0-0.3-0.3-0.3-0.6V21c0-0.3,0.1-0.6,0.3-0.6H42     c0.1,0,0.3,0.3,0.3,0.6V22.3z"/><path class="st51" d="M37.8,22.7c0,0-0.1-0.2-0.1-0.3V21c0-0.2,0-0.3,0.1-0.3H42c0,0,0.1,0.2,0.1,0.3v1.3c0,0.2,0,0.3-0.1,0.3     H37.8z"/></g><path class="st7" d="M30.9,17v-0.5c0-0.2-0.2-0.3-0.3-0.3h-1.5v-0.3c0-0.1-0.1-0.2-0.2-0.2h-3.4c-0.1,0-0.2,0.1-0.2,0.2v0.3h-1.5    c-0.2,0-0.3,0.1-0.3,0.3V17C19.9,17.1,17,20,17,23.7v16.7c0,3.7,3,6.7,6.7,6.7H32V17H30.9z"/></g></g><g class="st0"><circle class="st8" cx="32" cy="32" r="30.3"/><g class="st2"><polygon class="st10" points="48.9,43 17.7,43 13.8,38.4 53.3,38.4   "/><rect class="st20" height="1.3" width="39.4" x="13.8" y="36.7"/><path class="st52" d="M28.4,12.3c0,0,0,1.5-0.1,3.8c-0.1,2.3-0.1,5.3-0.2,8.4c0,1.5-0.1,3-0.1,4.5c0,1.4,0,2.8,0.1,3.9    c0.1,2.3,0.3,3.8,0.3,3.8h0.1c0,0,0.2-1.5,0.3-3.8c0.1-1.1,0.1-2.5,0.1-3.9c0-1.4-0.1-2.9-0.1-4.5c-0.1-3-0.1-6.1-0.2-8.4    C28.6,13.9,28.5,12.3,28.4,12.3L28.4,12.3z"/><path class="st10" d="M28.5,13l15.8,22.2H28.7C31.6,33.8,30.9,21,28.5,13z"/><path class="st10" d="M28.3,16.1l0,19.1H14.9C17.2,34.1,26.9,20.6,28.3,16.1z"/><path class="st44" d="M29.1,15.2h1l-0.8-1.1h-0.5C28.9,14.4,29,14.8,29.1,15.2z"/><path class="st44" d="M28.3,17.6l0-1.1h-0.1c-0.1,0.3-0.3,0.7-0.5,1.1H28.3z"/><path class="st44" d="M28.3,20l0-1.1h-1.2c-0.2,0.4-0.4,0.7-0.6,1.1H28.3z"/><path class="st44" d="M28.3,22.4l0-1.1h-2.6c-0.2,0.4-0.4,0.7-0.7,1.1H28.3z"/><path class="st44" d="M28.3,24.7l0-1.1h-4.1c-0.2,0.4-0.5,0.7-0.7,1.1H28.3z"/><path class="st44" d="M28.3,27.1l0-1.1h-5.7c-0.3,0.4-0.5,0.7-0.8,1.1H28.3z"/><path class="st44" d="M28.3,29.5l0-1.1h-7.4c-0.3,0.4-0.6,0.7-0.8,1.1H28.3z"/><path class="st44" d="M19.1,30.8c-0.3,0.4-0.6,0.8-0.9,1.1h10.1l0-1.1H19.1z"/><path class="st44" d="M28.3,34.3l0-1.1H17.1c-0.4,0.4-0.7,0.8-1,1.1H28.3z"/><path class="st44" d="M29.6,17.6h2.1L31,16.5h-1.6C29.5,16.8,29.5,17.2,29.6,17.6z"/><path class="st44" d="M30,20h3.4l-0.8-1.1h-2.8C29.9,19.2,29.9,19.6,30,20z"/><path class="st44" d="M30.3,22.4h4.8l-0.8-1.1h-4.2C30.2,21.6,30.3,22,30.3,22.4z"/><path class="st44" d="M30.5,24.7h6.3l-0.8-1.1h-5.6C30.5,24,30.5,24.4,30.5,24.7z"/><path class="st44" d="M30.6,27.1h7.9L37.8,26h-7.2C30.6,26.4,30.6,26.8,30.6,27.1z"/><path class="st44" d="M40.2,29.5l-0.8-1.1h-8.9c0,0.4,0,0.7,0,1.1H40.2z"/><path class="st44" d="M41.9,31.9l-0.8-1.1H30.4c0,0.4-0.1,0.8-0.2,1.1H41.9z"/><path class="st44" d="M43.6,34.3l-0.8-1.1H30c-0.1,0.4-0.3,0.8-0.5,1.1H43.6z"/></g></g><g class="st0"><circle class="st13" cx="32" cy="32" r="30.3"/><g class="st2"><g><polygon class="st20" points="28,34.6 22.3,20.5 24.1,20.4 28.4,33.4 42.6,23.3 43.3,24.7    "/></g><g><polygon class="st20" points="16.9,32.5 16.3,32.1 23.3,22.3 42.2,22.3 42.2,23.1 23.7,23.1    "/></g><g><path class="st3" d="M16.6,39.8c-4.1,0-7.5-3.4-7.5-7.5c0-4.1,3.4-7.5,7.5-7.5s7.5,3.4,7.5,7.5C24.1,36.5,20.7,39.8,16.6,39.8z      M16.6,25.8c-3.6,0-6.6,2.9-6.6,6.6c0,3.6,2.9,6.6,6.6,6.6c3.6,0,6.6-2.9,6.6-6.6C23.1,28.7,20.2,25.8,16.6,25.8z"/></g><g><path class="st3" d="M47.4,40.5c-4.1,0-7.5-3.4-7.5-7.5c0-4.1,3.4-7.5,7.5-7.5s7.5,3.4,7.5,7.5C54.9,37.2,51.6,40.5,47.4,40.5z      M47.4,26.5c-3.6,0-6.6,2.9-6.6,6.6c0,3.6,2.9,6.6,6.6,6.6c3.6,0,6.6-2.9,6.6-6.6C54,29.4,51,26.5,47.4,26.5z"/></g><g><path class="st53" d="M16.6,40.2c-4.4,0-7.9-3.6-7.9-7.9c0-4.4,3.6-7.9,7.9-7.9c4.4,0,7.9,3.6,7.9,7.9     C24.5,36.7,20.9,40.2,16.6,40.2z M16.6,25.4c-3.8,0-6.9,3.1-6.9,6.9c0,3.8,3.1,6.9,6.9,6.9c3.8,0,6.9-3.1,6.9-6.9     C23.5,28.5,20.4,25.4,16.6,25.4z"/></g><g><path class="st53" d="M47.4,40.9c-4.4,0-7.9-3.6-7.9-7.9c0-4.4,3.6-7.9,7.9-7.9s7.9,3.6,7.9,7.9C55.3,37.4,51.8,40.9,47.4,40.9z      M47.4,26.1c-3.8,0-6.9,3.1-6.9,6.9c0,3.8,3.1,6.9,6.9,6.9c3.8,0,6.9-3.1,6.9-6.9C54.3,29.2,51.2,26.1,47.4,26.1z"/></g><g><rect class="st20" height="0.8" transform="matrix(0.4453 0.8954 -0.8954 0.4453 48.4224 -24.8386)" width="14.2" x="37.2" y="26.3"/></g><circle class="st53" cx="28.2" cy="33.2" r="2.3"/><path class="st3" d="M28.2,35.3c-1.1,0-2.1-0.9-2.1-2.1c0-1.1,0.9-2.1,2.1-2.1c1.1,0,2.1,0.9,2.1,2.1    C30.2,34.3,29.3,35.3,28.2,35.3z"/><path class="st53" d="M17.8,32.3c0,0.7-0.5,1.2-1.2,1.2c-0.7,0-1.2-0.5-1.2-1.2c0-0.7,0.5-1.2,1.2-1.2    C17.2,31.1,17.8,31.7,17.8,32.3z"/><circle class="st3" cx="16.6" cy="32.3" r="0.9"/><circle class="st53" cx="47.4" cy="33" r="0.8"/><circle class="st3" cx="47.4" cy="33" r="0.6"/><g><rect class="st53" height="11.6" transform="matrix(3.026218e-002 0.9995 -0.9995 3.026218e-002 52.8338 7.8461)" width="0.2" x="22.3" y="25.4"/></g><g><rect class="st53" height="0.2" transform="matrix(0.9839 0.1786 -0.1786 0.9839 6.4973 -3.4393)" width="11.8" x="16.4" y="34.3"/></g><path class="st53" d="M19.4,20.6h7c0,0-0.2-0.7-0.6-0.8l-4-0.3c0,0,0,0-1.1-0.4C20.8,19.1,17.9,20.3,19.4,20.6z"/><g><path class="st3" d="M41,20.9l-0.3-0.6c0,0,1.2-0.4,1.6-1.1c0.1-0.3,0.2-0.5,0.1-0.8c-0.2-0.8-1-0.8-2.5-0.7c-0.4,0-1,0-1.5,0     l0-0.5c0.5,0,1,0,1.5,0c1.5-0.1,2.6-0.1,3,1.1c0.1,0.4,0.1,0.8-0.1,1.2C42.3,20.5,41,20.9,41,20.9z"/></g><rect class="st53" height="0.6" width="2.4" x="38.3" y="17.1"/></g></g><g class="st0"><circle class="st21" cx="32" cy="32" r="30.3"/><g class="st2"><g><path class="st28" d="M32,31.5c-0.2-0.4-4-9.6-4.2-13.5c-0.1-1.4,0.6-4.2,3.6-4.4c2.5-0.1,4,2.8,4.1,4c0.2,4-2.8,13.5-3,13.9     L32.2,32L32,31.5z"/><path class="st28" d="M32.4,31.4c0.1-0.4,3-10,5.4-13.1c0.9-1.1,3.1-2.9,5.5-1.1c2,1.5,1.3,4.7,0.6,5.7     c-2.4,3.2-10.8,8.6-11.2,8.8L32.2,32L32.4,31.4z"/><path class="st28" d="M32.7,31.7c0.4-0.2,8.7-5.7,12.5-6.7c1.4-0.3,4.2-0.2,4.9,2.7c0.6,2.4-2,4.4-3.2,4.7     c-3.9,1-13.8-0.3-14.2-0.3L32.2,32L32.7,31.7z"/><path class="st28" d="M32.8,32.1c0.4,0,10.4,1.1,13.9,2.9c1.3,0.6,3.4,2.5,2.1,5.2c-1.1,2.2-4.4,2.2-5.5,1.6     c-3.6-1.7-10.4-9-10.7-9.3L32.2,32L32.8,32.1z"/><path class="st28" d="M32.6,32.5c0.3,0.3,7.3,7.5,8.9,11.1c0.6,1.3,1,4.1-1.7,5.4c-2.3,1-4.7-1.1-5.2-2.2     c-1.7-3.6-2.2-13.6-2.3-14l0-0.6L32.6,32.5z"/><path class="st28" d="M32.2,32.6c0,0.4,0.8,10.4-0.3,14.2c-0.4,1.4-1.9,3.8-4.8,3c-2.4-0.7-2.9-3.9-2.6-5.1     c1-3.9,7-11.9,7.2-12.2l0.4-0.5L32.2,32.6z"/><path class="st28" d="M31.8,32.5c-0.2,0.3-6,8.5-9.3,10.7c-1.2,0.8-3.9,1.7-5.6-0.7c-1.4-2,0.2-4.9,1.2-5.6     c3.3-2.3,13-4.7,13.4-4.8l0.6-0.1L31.8,32.5z"/><path class="st28" d="M31.6,32.2c-0.4,0.1-10.1,2.7-14,2.4c-1.4-0.1-4.1-1.1-3.8-4.1c0.2-2.5,3.3-3.6,4.5-3.5     c4,0.3,13,4.6,13.4,4.8l0.6,0.3L31.6,32.2z"/><path class="st28" d="M31.6,31.8c-0.4-0.2-9.5-4.4-12.3-7.1c-1-1-2.4-3.5-0.3-5.6c1.7-1.8,4.8-0.7,5.7,0.2     c2.9,2.8,7,11.9,7.2,12.2l0.3,0.6L31.6,31.8z"/><path class="st54" d="M32.4,35.3c-2.2,0.1-4.1-1.5-4.2-3.7c-0.1-2.2,1.5-4.1,3.7-4.2c2.2-0.1,4.1,1.6,4.2,3.7     C36.3,33.3,34.6,35.2,32.4,35.3z"/></g><path class="st7" d="M31.3,13.6c-3,0.2-3.6,2.9-3.6,4.4c0.1,2.4,1.6,6.7,2.8,9.9c-0.1,0-0.2,0.1-0.3,0.1c-1.5-3-3.7-7-5.5-8.7    c-0.9-0.8-3.9-2-5.7-0.2c-2.1,2.1-0.7,4.6,0.3,5.6c1.8,1.7,6,4,9,5.6c0,0,0,0,0,0.1c-3.1-1.3-7.6-3.1-10.1-3.3    c-1.2-0.1-4.3,1-4.5,3.5c-0.2,3,2.4,4,3.8,4.1c2.6,0.2,7.7-0.8,10.9-1.6c0,0,0,0,0,0c-3.2,0.9-8.2,2.5-10.3,4    c-1,0.7-2.7,3.5-1.2,5.6c1.7,2.4,4.4,1.5,5.6,0.7c2.2-1.5,5.6-5.8,7.6-8.5c0,0,0,0,0,0c-1.9,2.8-4.9,7.3-5.6,10    c-0.3,1.2,0.2,4.4,2.6,5.1c2.9,0.8,4.4-1.6,4.8-3c0,0,0-0.1,0-0.2V13.6C31.8,13.6,31.5,13.5,31.3,13.6z"/></g></g><g class="st0"><circle class="st13" cx="32" cy="32" r="30.3"/><g class="st2"><path class="st31" d="M31.8,12.2c2.8-0.2,2.5,13.1,2.5,13.1c0,0.9,0.6,1.3,1.5,1c0,0,10.7-4,11.7-1.4c1.1,2.6-9.1,7.8-9.1,7.8    c-0.8,0.4-1,1.3-0.5,2c0,0,8,10.4,5.9,12.3c-2.2,1.8-11.1-7.8-11.1-7.8c-0.6-0.6-1.5-0.6-2,0.1c0,0-8,11.1-10.4,9.6    c-2.4-1.5,4.5-13.2,4.5-13.2c0.4-0.8,0.1-1.6-0.7-1.8c0,0-11.7-3.5-11-6.3c0.7-2.8,12.7-0.4,12.7-0.4c0.9,0.2,1.6-0.4,1.7-1.3    C27.5,25.9,29,12.4,31.8,12.2z"/><g><path class="st38" d="M31.6,15.4c0,0,0,0.3,0.1,0.7c0,0.4,0.1,1.1,0.2,1.8c0,0.4,0.2,0.7,0.3,1.1c0.1,0.4,0.3,0.8,0.4,1.3     c0.1,0.5,0.2,1,0.2,1.5c0.1,0.5,0,1,0,1.6c0,0.3,0,0.5-0.1,0.8c-0.1,0.2-0.1,0.5-0.2,0.7c-0.1,0.2-0.2,0.6-0.3,0.7     c-0.1,0.2-0.2,0.5-0.2,0.7c-0.2,0.9-0.3,1.7-0.5,2.4c-0.1,0.4-0.1,0.7-0.2,1c0,0.1,0,0.3-0.1,0.4c0,0.1,0,0.2,0,0.3     c0,0.4,0,0.7,0,0.7s-0.1-0.2-0.3-0.6c0-0.1-0.1-0.2-0.1-0.4c0-0.1,0-0.3-0.1-0.4c0-0.3-0.1-0.7-0.1-1c0-0.4,0-0.8,0-1.2     c0-0.4,0-0.9,0.1-1.4c0.1-0.2,0.1-0.5,0.2-0.7c0.1-0.3,0.2-0.4,0.2-0.7c0.1-0.2,0.1-0.5,0.2-0.7c0-0.2,0-0.4,0-0.6     c0-0.5,0.1-0.9,0-1.4c0-0.5,0-1-0.1-1.4c0-0.4-0.2-0.8-0.3-1.3c-0.1-0.4-0.2-0.9-0.1-1.3c0-0.8,0.2-1.4,0.2-1.8     C31.6,15.7,31.6,15.4,31.6,15.4z"/></g><g><path class="st38" d="M45.7,25.4l0-0.1L45.7,25.4c-0.3,0.1-0.6,0.2-0.9,0.4c-0.3,0.1-0.6,0.3-0.8,0.5l-1.7,1     c-0.3,0.2-0.5,0.3-0.8,0.5c-0.3,0.1-0.6,0.3-0.8,0.5l-0.8,0.5l-0.4,0.2l-0.1,0.1L39.2,29l-0.2,0.1c-0.3,0.1-0.6,0.2-0.9,0.4     l-1,0.3c-0.3,0.1-0.6,0.1-1,0.2l-0.9,0.2c-0.6,0.1-1.3,0.2-1.9,0.4c-0.3,0.1-0.6,0.1-0.9,0.3c-0.3,0.1-0.6,0.2-0.9,0.3     c0.3-0.2,0.5-0.4,0.8-0.6c0.3-0.2,0.6-0.3,0.9-0.5c0.6-0.3,1.2-0.5,1.8-0.7c0.3-0.1,0.6-0.2,0.9-0.3c0.3-0.1,0.6-0.2,0.9-0.3     c0.3-0.1,0.6-0.2,0.9-0.3c0.3-0.1,0.6-0.3,0.9-0.4l0.2-0.1c0,0,0.1,0,0.1,0l0.1-0.1l0.4-0.2l0.9-0.4c0.3-0.1,0.6-0.3,0.9-0.4     c0.3-0.1,0.6-0.3,0.9-0.4c0.6-0.2,1.2-0.5,1.8-0.7c0.3-0.1,0.7-0.2,1-0.3l1-0.2l0,0l0,0L45.7,25.4z"/></g><g><path class="st38" d="M41.9,45c0,0-0.1,0-0.2-0.1c-0.1-0.1-0.3-0.2-0.5-0.3c-0.2-0.1-0.4-0.4-0.6-0.7c-0.2-0.3-0.5-0.6-0.7-0.9     c-0.5-0.7-1.1-1.4-1.7-2.2c-0.3-0.4-0.6-0.9-0.9-1.3c-0.3-0.5-0.6-0.9-0.9-1.2c-0.3-0.4-0.7-0.5-1.2-0.8     c-0.3-0.1-0.5-0.3-0.8-0.6c-0.1-0.1-0.1-0.1-0.2-0.2L34,36.5c-0.1-0.1-0.1-0.2-0.2-0.4c-0.3-0.6-0.4-1-0.6-1.4     c-0.2-0.4-0.4-0.8-0.6-1.2c-0.4-0.7-0.7-1.3-0.9-1.8c-0.2-0.5-0.3-0.7-0.3-0.7s0.2,0.2,0.5,0.6c0.3,0.4,0.7,0.9,1.3,1.6     c0.3,0.3,0.5,0.7,0.8,1.1c0.3,0.4,0.6,0.9,0.8,1.3c0.3,0.5,0.5,0.6,1,0.8c0.5,0.2,1.1,0.5,1.6,1c0.5,0.5,0.7,1,1,1.4     c0.3,0.5,0.6,0.9,0.8,1.3c0.6,0.9,1,1.7,1.4,2.5c0.2,0.4,0.4,0.7,0.5,1c0.1,0.3,0.3,0.5,0.4,0.7c0.2,0.2,0.3,0.3,0.4,0.4     C41.8,44.9,41.9,45,41.9,45z"/></g><g><path class="st38" d="M31.3,31.1C31.3,31.1,31.3,31.1,31.3,31.1L31.3,31.1c-0.2,0.8-0.5,1.6-0.9,2.3c-0.4,0.7-0.8,1.4-1.2,2.1     l0,0.1c0,0,0,0,0,0l-0.1,0.1L29,35.9c0,0.2-0.1,0.3-0.1,0.5L28.7,37c0,0.2-0.1,0.4-0.1,0.6c-0.1,0.4-0.2,0.8-0.4,1.2     c-0.2,0.4-0.4,0.8-0.6,1.2c-0.4,0.7-0.9,1.4-1.4,2l-0.4,0.5c-0.2,0.2-0.3,0.3-0.4,0.5c-0.3,0.3-0.6,0.6-0.9,0.9     c-0.5,0.5-1.1,1.1-1.6,1.7c-0.3,0.3-0.6,0.6-0.8,0.9c-0.1,0.2-0.3,0.3-0.4,0.5c-0.2,0.1-0.3,0.3-0.4,0.4c0-0.2,0.2-0.4,0.3-0.6     c0.1-0.2,0.2-0.3,0.3-0.5c0.2-0.4,0.4-0.7,0.6-1.1c0.5-0.7,0.9-1.3,1.5-2l0.8-0.9c0.1-0.2,0.3-0.3,0.3-0.5l0.3-0.5     c0.4-0.6,0.9-1.3,1.3-2c0.2-0.3,0.4-0.6,0.5-1c0.1-0.3,0.3-0.7,0.4-1.1c0.1-0.2,0.1-0.4,0.2-0.6l0.2-0.6c0.1-0.2,0.1-0.4,0.2-0.6     c0-0.1,0.1-0.2,0.2-0.3l0.1-0.1l0.1-0.1l0-0.1c0.5-0.6,1-1.3,1.5-1.9C30.5,32.5,30.9,31.8,31.3,31.1L31.3,31.1     C31.3,31.1,31.3,31,31.3,31.1C31.3,31.1,31.3,31.1,31.3,31.1z"/></g><g><path class="st38" d="M31.3,31.1c0,0-0.3,0-0.7-0.1c-0.2-0.1-0.5-0.1-0.8-0.1c-0.3,0-0.7-0.1-1.1-0.1c-0.4,0-0.8-0.1-1.2-0.1     c-0.5,0-1,0-1.4,0.1c-0.5,0-1,0.1-1.5,0.1c-0.5,0-1.1,0.1-1.7,0c-0.6,0-1.2-0.2-1.7-0.4c-0.5-0.2-1-0.3-1.5-0.5     c-1-0.4-1.8-0.8-2.5-1.1c-0.7-0.3-1.4-0.5-1.8-0.6c-0.5-0.1-0.7-0.2-0.7-0.2S15,28,15.4,28c0.5,0,1.2,0,2,0.2     c0.8,0.1,1.8,0.5,2.7,0.7c0.5,0.2,1,0.3,1.5,0.4c0.5,0.2,1,0.3,1.4,0.3c0.5,0.1,1,0,1.5,0c0.5,0,1,0,1.6,0c0.5,0,1,0.1,1.5,0.1     c0.5,0.1,0.9,0.2,1.3,0.3c0.8,0.2,1.4,0.5,1.8,0.7C31.1,31,31.3,31.1,31.3,31.1z"/></g><path class="st7" d="M27.5,25.9c-0.1,0.9-0.9,1.4-1.7,1.3c0,0-12-2.3-12.7,0.4c-0.7,2.8,11,6.3,11,6.3c0.8,0.3,1.2,1.1,0.7,1.8    c0,0-6.9,11.7-4.5,13.2c2.4,1.5,10.4-9.6,10.4-9.6c0.2-0.3,0.2-0.4,0.6-0.4l0.1-26.4C28.8,14,27.5,25.9,27.5,25.9z"/></g></g><g class="st0"><path class="st8" d="M62.3,32c0,16.8-13.6,30.3-30.3,30.3C15.2,62.3,1.7,48.8,1.7,32C1.7,15.2,15.2,1.7,32,1.7   C48.8,1.7,62.3,15.2,62.3,32z"/><g class="st2"><g><path class="st53" d="M30.9,46.7c-0.1-0.1-0.3-0.3-0.5-0.4c-0.2-0.2-0.5-0.3-0.7-0.6c-0.2-0.2-0.3-0.5-0.4-0.8     c-0.1-0.3-0.2-0.5-0.4-0.8c-0.2-0.3-0.5-0.5-0.9-0.7c-0.2-0.1-0.4-0.3-0.6-0.4c-0.7-0.6-1.2-1.5-1.6-2.3     c-0.3-0.5-0.5-0.9-0.8-1.3c-0.8-1.1-1.8-1.8-2.9-2.6c-0.5-0.3-1-0.7-1.5-1.1c-1.2-1-3.1-3.1-3.3-4.8l0.3,0c0.2,1.5,2,3.6,3.2,4.6     c0.5,0.4,1,0.7,1.4,1.1c1.1,0.8,2.1,1.5,2.9,2.7c0.3,0.4,0.5,0.9,0.8,1.4c0.4,0.8,0.9,1.7,1.5,2.2c0.2,0.2,0.4,0.3,0.6,0.4     c0.3,0.2,0.7,0.4,0.9,0.8c0.2,0.3,0.3,0.6,0.4,0.8c0.1,0.3,0.2,0.5,0.3,0.7c0.1,0.2,0.4,0.4,0.6,0.5c0.2,0.1,0.4,0.3,0.5,0.4     L30.9,46.7z"/></g><g><path class="st53" d="M31.2,46.7l-0.2-0.2c0.2-0.2,0.3-0.3,0.5-0.4c0.2-0.2,0.4-0.3,0.6-0.5c0.1-0.2,0.2-0.4,0.3-0.7     c0.1-0.3,0.2-0.6,0.4-0.8c0.3-0.4,0.6-0.6,0.9-0.8c0.2-0.1,0.4-0.2,0.6-0.4c0.6-0.5,1.1-1.4,1.5-2.2c0.3-0.5,0.5-0.9,0.8-1.4     c0.8-1.2,1.9-1.9,2.9-2.7c0.5-0.3,1-0.7,1.4-1.1c1.2-1,3-3.1,3.2-4.6l0.3,0c-0.2,1.7-2.1,3.8-3.3,4.8c-0.5,0.4-1,0.7-1.5,1.1     c-1.1,0.7-2.1,1.5-2.9,2.6c-0.3,0.4-0.5,0.8-0.8,1.3c-0.5,0.9-0.9,1.7-1.6,2.3c-0.2,0.2-0.4,0.3-0.6,0.4     c-0.3,0.2-0.6,0.4-0.9,0.7c-0.2,0.2-0.3,0.5-0.4,0.8c-0.1,0.3-0.2,0.5-0.4,0.8c-0.2,0.3-0.4,0.4-0.7,0.6     C31.5,46.4,31.3,46.5,31.2,46.7z"/></g><g><path class="st53" d="M32.6,53.1l-0.3,0c0-0.3,0.1-0.5,0.1-0.8c0.1-0.3,0.1-0.5,0.1-0.7c0-0.3-0.5-0.9-0.7-1.1l-0.1-0.2l0.1-0.1     c0.3-0.2,0.1-0.6-0.1-1.1c-0.1-0.2-0.2-0.4-0.2-0.6c0-0.2,0-0.3-0.1-0.5c-0.1-0.5-0.1-1.1-0.5-1.4l0.2-0.2     c0.5,0.4,0.5,1.1,0.6,1.6c0,0.2,0,0.3,0.1,0.5c0,0.2,0.1,0.4,0.2,0.6c0.2,0.4,0.4,0.9,0.1,1.3c0.3,0.4,0.7,0.9,0.7,1.2     c0,0.3,0,0.5-0.1,0.8C32.7,52.6,32.6,52.9,32.6,53.1z"/></g><g><path class="st53" d="M29.2,53.1l-0.2-0.2c0.2-0.2,0.3-0.4,0.5-0.6c0.3-0.3,0.6-0.6,0.7-1c0-0.2,0-0.4,0-0.6     c0-0.4-0.1-0.8,0.2-1.1c0.2-0.2,0.3-0.3,0.5-0.4c0.3-0.2,0.3-0.3,0.2-0.8c0-0.1-0.1-0.2-0.1-0.4c-0.2-0.5-0.5-1.1,0.1-1.6     l0.2,0.3c-0.4,0.3-0.3,0.6,0,1.2c0.1,0.1,0.1,0.3,0.2,0.4c0.2,0.7,0,0.9-0.3,1.1c-0.1,0.1-0.3,0.2-0.4,0.4     c-0.2,0.3-0.2,0.6-0.1,0.9c0,0.2,0.1,0.5,0,0.7c-0.1,0.5-0.5,0.8-0.8,1.2C29.5,52.7,29.3,52.9,29.2,53.1z"/></g><ellipse class="st39" cx="32.4" cy="28.8" rx="17.4" ry="7.7"/><path class="st40" d="M42.8,27.8c0,6.1-20.8,6.1-20.8,0c0-6.1,4.7-11.1,10.4-11.1C38.1,16.7,42.8,21.7,42.8,27.8z"/><path class="st20" d="M32.4,30.6c4.3,0,8.1-1.3,10.4-3.2c0-1.1-0.2-2.1-0.5-3.1c-1.3,2.2-5.3,3.8-9.9,3.8c-4.6,0-8.6-1.6-9.9-3.8    c-0.3,1-0.5,2-0.5,3.1C24.3,29.3,28.1,30.6,32.4,30.6z"/></g></g><g class="st0"><circle class="st1" cx="32" cy="32" r="30.3"/><g class="st2"><path class="st26" d="M41.6,33.1c0,0.4-0.3,0.7-0.7,0.7H21.7c-0.4,0-0.8-0.2-1.1-0.5l-5.5-6.6c-0.2-0.3-0.2-0.7,0-1l5.5-6.6    c0.2-0.3,0.7-0.5,1.1-0.5H41c0.4,0,0.7,0.3,0.7,0.7V33.1z"/><g><path class="st28" d="M41.6,51.1c-0.4,0-0.7-0.3-0.7-0.7V17.9c0-0.4,0.3-0.7,0.7-0.7c0.4,0,0.7,0.3,0.7,0.7v32.5     C42.3,50.8,42,51.1,41.6,51.1z"/></g><rect class="st55" height="15.8" width="2.1" x="40.6" y="18.3"/></g></g></svg>