<?xml version="1.0" ?><svg enable-background="new 0 0 64 64" height="64px" id="Layer_1" version="1.1" viewBox="0 0 64 64" width="64px" xml:space="preserve" xmlns="http://www.w3.org/2000/svg" xmlns:xlink="http://www.w3.org/1999/xlink"><circle cx="32" cy="32" fill="#4F5D73" r="32"/><circle cx="46" cy="23" fill="#C75C5C" r="2"/><circle cx="56" cy="33" fill="#C75C5C" r="2"/><path d="M46,39c0,2.209,0,4,0,4H14c-2.209,0-4-1.791-4-4V24c0-2.209,1.791-4,4-4h30c2.209,0,2,1.791,2,4V39z" fill="#F5CF87"/><path d="M55.997,39c0,0,0.25,4-4,4h-8c0,0,0-1.791,0-4v-5c0-2.209,0-4,0-4H53c2,0,2.997,0.786,2.997,2.995V39z" fill="#F5CF87"/><rect fill="#E0995E" height="6" width="18" x="15" y="24"/><rect fill="#E0995E" height="6" width="5" x="37" y="24"/><rect fill="#E0995E" height="6" width="5" x="14" y="24"/><circle cx="19" cy="43" fill="#E0E0D1" r="4" stroke="#4F5D73" stroke-miterlimit="10" stroke-width="2"/><circle cx="47" cy="43" fill="#E0E0D1" r="4" stroke="#4F5D73" stroke-miterlimit="10" stroke-width="2"/></svg>