<?xml version="1.0" encoding="iso-8859-1"?>
<!-- Generator: Adobe Illustrator 19.0.0, SVG Export Plug-In . SVG Version: 6.00 Build 0)  -->
<svg version="1.1" id="Layer_1" xmlns="http://www.w3.org/2000/svg" xmlns:xlink="http://www.w3.org/1999/xlink" x="0px" y="0px"
	 viewBox="0 0 512 512" style="enable-background:new 0 0 512 512;" xml:space="preserve">
<path style="fill:#F7B239;" d="M115.899,115.703v24.051c20.956,0,40.523,6,57.059,16.371c17.104,10.725,30.974,26.123,39.816,44.414
	l0,0c6.847,14.148,10.687,30.014,10.687,46.776h65.08c0-16.763,3.827-32.628,10.687-46.764l-0.278-0.139l0.278,0.139
	c8.842-18.291,22.7-33.69,39.803-44.427c16.548-10.371,36.102-16.371,57.071-16.371v-24.051H115.899z"/>
<path style="fill:#E09B2D;" d="M115.899,115.703v24.051c0,59.408,48.153,107.561,107.549,107.561h0.013
	c0-16.763-3.84-32.628-10.687-46.776c-8.844-18.29-22.721-33.684-39.825-44.409c0.003-0.001,0.006-0.004,0.009-0.005H339.03
	c0.003,0.005,0.006,0.009,0.009,0.014c-17.102,10.728-30.976,26.124-39.812,44.413c-6.859,14.135-10.687,30.001-10.687,46.764
	c59.408,0,107.561-48.153,107.561-107.561v-24.051L115.899,115.703L115.899,115.703z"/>
<g>
	<path style="fill:#808080;" d="M441.362,409.75c0,0.947-0.038,1.882-0.126,2.804c-1.415,17.028-15.689,30.418-33.096,30.418
		s-31.681-13.39-33.096-30.418c-0.088-0.922-0.126-1.857-0.126-2.804c0-2.969,0.392-5.823,1.124-8.564h64.196
		C440.97,403.927,441.362,406.782,441.362,409.75z"/>
	<path style="fill:#808080;" d="M137.07,409.75c0,0.947-0.038,1.882-0.126,2.804c-1.415,17.028-15.689,30.418-33.096,30.418
		c-17.394,0-31.668-13.39-33.083-30.418c-0.088-0.922-0.126-1.857-0.126-2.804c0-2.969,0.379-5.823,1.112-8.564h64.208
		C136.691,403.927,137.07,406.782,137.07,409.75z"/>
</g>
<path style="fill:#F95428;" d="M487.709,352.616h-30.864l23.55-199.649l4.169-35.37l0,0h3.145c13.415,0,24.291-10.876,24.291-24.291
	c0-6.708-2.716-12.771-7.112-17.167s-10.472-7.112-17.18-7.112H24.279C10.864,69.028,0,79.904,0,93.306
	c0,6.708,2.716,12.784,7.112,17.18c4.383,4.396,10.459,7.112,17.167,7.112h3.145l0,0l4.169,35.37l23.55,199.649H24.279
	C10.864,352.616,0,363.492,0,376.895c0,6.708,2.716,12.784,7.112,17.18c4.383,4.396,10.459,7.112,17.167,7.112H71.75h64.208h240.084
	h64.196h47.471c13.415,0,24.291-10.876,24.291-24.291c0-6.708-2.716-12.771-7.112-17.167
	C500.492,355.332,494.416,352.616,487.709,352.616z M421.627,352.616h-0.224H90.584H90.36l-23.55-199.649l-4.169-35.37h53.256
	h280.203h53.244l-4.169,35.37L421.627,352.616z"/>
<path style="fill:#666666;" d="M440.238,401.186h-64.196c-0.733,2.741-1.124,5.596-1.124,8.564c0,0.947,0.038,1.882,0.126,2.804
	h66.192c0.088-0.922,0.126-1.857,0.126-2.804C441.362,406.782,440.97,403.927,440.238,401.186z M71.75,401.186
	c-0.733,2.741-1.112,5.596-1.112,8.564c0,0.947,0.038,1.882,0.126,2.804h66.179c0.088-0.922,0.126-1.857,0.126-2.804
	c0-2.969-0.379-5.823-1.112-8.564H71.75z"/>
<g>
	<polygon style="fill:#D33924;" points="484.563,117.598 480.395,152.967 445.177,152.967 449.345,117.598 	"/>
	<path style="fill:#D33924;" d="M85.279,110.486c-4.396-4.396-7.112-10.472-7.112-17.18c0-13.403,10.864-24.279,24.279-24.279
		H24.279C10.864,69.028,0,79.904,0,93.306c0,6.708,2.716,12.784,7.112,17.18c4.383,4.396,10.459,7.112,17.167,7.112h3.145
		l4.169,35.37h35.218l-4.169-35.37h39.803C95.738,117.598,89.662,114.882,85.279,110.486z"/>
	<path style="fill:#D33924;" d="M71.143,376.895c0-13.403,10.864-24.279,24.279-24.279h-4.838H55.366H24.279
		C10.864,352.616,0,363.492,0,376.895c0,6.708,2.716,12.784,7.112,17.18c4.383,4.396,10.459,7.112,17.167,7.112H71.75h23.672
		c-6.708,0-12.784-2.716-17.167-7.112C73.859,389.678,71.143,383.602,71.143,376.895z"/>
</g>
<g>
</g>
<g>
</g>
<g>
</g>
<g>
</g>
<g>
</g>
<g>
</g>
<g>
</g>
<g>
</g>
<g>
</g>
<g>
</g>
<g>
</g>
<g>
</g>
<g>
</g>
<g>
</g>
<g>
</g>
</svg>
