<?xml version="1.0" encoding="iso-8859-1"?>
<!-- Generator: Adobe Illustrator 18.0.0, SVG Export Plug-In . SVG Version: 6.00 Build 0)  -->
<!DOCTYPE svg PUBLIC "-//W3C//DTD SVG 1.1//EN" "http://www.w3.org/Graphics/SVG/1.1/DTD/svg11.dtd">
<svg version="1.1" id="Capa_1" xmlns="http://www.w3.org/2000/svg" xmlns:xlink="http://www.w3.org/1999/xlink" x="0px" y="0px"
	 viewBox="0 0 60 60" style="enable-background:new 0 0 60 60;" xml:space="preserve">
<rect x="13" y="42" style="fill:#BCB7B3;" width="34" height="4"/>
<rect x="14" y="7" style="fill:#7FABDA;" width="14" height="32"/>
<rect x="32" y="7" style="fill:#7FABDA;" width="14" height="32"/>
<polygon style="fill:#EDE7E9;" points="49,7 49,4 11,4 11,7 28,7 28,39 13,39 13,42 47,42 47,39 32,39 32,7 "/>
<rect x="1" y="6" style="fill:#DD352E;stroke:#B02721;stroke-width:2;stroke-linecap:round;stroke-miterlimit:10;" width="4" height="53"/>
<rect x="5" y="6" style="fill:#DD352E;stroke:#B02721;stroke-width:2;stroke-linecap:round;stroke-miterlimit:10;" width="4" height="53"/>
<rect x="9" y="6" style="fill:#DD352E;stroke:#B02721;stroke-width:2;stroke-linecap:round;stroke-miterlimit:10;" width="4" height="53"/>
<rect x="47" y="6" style="fill:#DD352E;stroke:#B02721;stroke-width:2;stroke-linecap:round;stroke-miterlimit:10;" width="4" height="53"/>
<rect x="51" y="6" style="fill:#DD352E;stroke:#B02721;stroke-width:2;stroke-linecap:round;stroke-miterlimit:10;" width="4" height="53"/>
<rect x="55" y="6" style="fill:#DD352E;stroke:#B02721;stroke-width:2;stroke-linecap:round;stroke-miterlimit:10;" width="4" height="53"/>
<line style="fill:none;stroke:#38454F;stroke-width:2;stroke-linecap:round;stroke-miterlimit:10;" x1="1" y1="3" x2="59" y2="3"/>
<g>
	<path style="fill:#7383BF;" d="M3,0C2.448,0,2,0.447,2,1v4c0,0.553,0.448,1,1,1s1-0.447,1-1V1C4,0.447,3.552,0,3,0z"/>
	<path style="fill:#7383BF;" d="M7,0C6.448,0,6,0.447,6,1v4c0,0.553,0.448,1,1,1s1-0.447,1-1V1C8,0.447,7.552,0,7,0z"/>
	<path style="fill:#7383BF;" d="M11,0c-0.552,0-1,0.447-1,1v4c0,0.553,0.448,1,1,1s1-0.447,1-1V1C12,0.447,11.552,0,11,0z"/>
	<path style="fill:#7383BF;" d="M49,0c-0.552,0-1,0.447-1,1v4c0,0.553,0.448,1,1,1s1-0.447,1-1V1C50,0.447,49.552,0,49,0z"/>
	<path style="fill:#7383BF;" d="M53,0c-0.552,0-1,0.447-1,1v4c0,0.553,0.448,1,1,1s1-0.447,1-1V1C54,0.447,53.552,0,53,0z"/>
	<path style="fill:#7383BF;" d="M57,0c-0.552,0-1,0.447-1,1v4c0,0.553,0.448,1,1,1s1-0.447,1-1V1C58,0.447,57.552,0,57,0z"/>
</g>
<polygon style="fill:#A4C9EA;" points="23,7 28,7 28,12 14,26 14,16 "/>
<polygon style="fill:#A4C9EA;" points="41,7 46,7 46,12 32,26 32,16 "/>
<line style="fill:none;stroke:#556080;stroke-width:2;stroke-linecap:round;stroke-miterlimit:10;" x1="31" y1="22" x2="35" y2="22"/>
<g>
</g>
<g>
</g>
<g>
</g>
<g>
</g>
<g>
</g>
<g>
</g>
<g>
</g>
<g>
</g>
<g>
</g>
<g>
</g>
<g>
</g>
<g>
</g>
<g>
</g>
<g>
</g>
<g>
</g>
</svg>
